<?xml version="1.0" encoding="utf-8" standalone="no"?>
<!DOCTYPE svg PUBLIC "-//W3C//DTD SVG 1.1//EN"
  "http://www.w3.org/Graphics/SVG/1.1/DTD/svg11.dtd">
<svg xmlns:xlink="http://www.w3.org/1999/xlink" width="720pt" height="432pt" viewBox="0 0 720 432" xmlns="http://www.w3.org/2000/svg" version="1.1">
 <metadata>
  <rdf:RDF xmlns:dc="http://purl.org/dc/elements/1.1/" xmlns:cc="http://creativecommons.org/ns#" xmlns:rdf="http://www.w3.org/1999/02/22-rdf-syntax-ns#">
   <cc:Work>
    <dc:type rdf:resource="http://purl.org/dc/dcmitype/StillImage"/>
    <dc:date>2024-11-07T17:39:09.832855</dc:date>
    <dc:format>image/svg+xml</dc:format>
    <dc:creator>
     <cc:Agent>
      <dc:title>Matplotlib v3.9.2, https://matplotlib.org/</dc:title>
     </cc:Agent>
    </dc:creator>
   </cc:Work>
  </rdf:RDF>
 </metadata>
 <defs>
  <style type="text/css">*{stroke-linejoin: round; stroke-linecap: butt}</style>
 </defs>
 <g id="figure_1">
  <g id="patch_1">
   <path d="M 0 432 
L 720 432 
L 720 0 
L 0 0 
z
" style="fill: #ffffff"/>
  </g>
  <g id="axes_1">
   <g id="patch_2">
    <path d="M 44.22 393.54 
L 709.2 393.54 
L 709.2 14.76 
L 44.22 14.76 
z
" style="fill: #ffffff"/>
   </g>
   <g id="matplotlib.axis_1">
    <g id="xtick_1">
     <g id="line2d_1">
      <path d="M 71.408538 393.54 
L 71.408538 14.76 
" clip-path="url(#p84e8673dc9)" style="fill: none; stroke: #e6e6e6; stroke-width: 0.8; stroke-linecap: square"/>
     </g>
     <g id="line2d_2">
      <defs>
       <path id="me4b60aa0c4" d="M 0 0 
L 0 -3.5 
" style="stroke: #000000; stroke-width: 0.8"/>
      </defs>
      <g>
       <use xlink:href="#me4b60aa0c4" x="71.408538" y="393.54" style="stroke: #000000; stroke-width: 0.8"/>
      </g>
     </g>
     <g id="line2d_3">
      <defs>
       <path id="m8876c5394d" d="M 0 0 
L 0 3.5 
" style="stroke: #000000; stroke-width: 0.8"/>
      </defs>
      <g>
       <use xlink:href="#m8876c5394d" x="71.408538" y="14.76" style="stroke: #000000; stroke-width: 0.8"/>
      </g>
     </g>
     <g id="text_1">
      <!-- 0 -->
      <g transform="translate(68.227288 404.638438) scale(0.1 -0.1)">
       <defs>
        <path id="DejaVuSans-30" d="M 2034 4250 
Q 1547 4250 1301 3770 
Q 1056 3291 1056 2328 
Q 1056 1369 1301 889 
Q 1547 409 2034 409 
Q 2525 409 2770 889 
Q 3016 1369 3016 2328 
Q 3016 3291 2770 3770 
Q 2525 4250 2034 4250 
z
M 2034 4750 
Q 2819 4750 3233 4129 
Q 3647 3509 3647 2328 
Q 3647 1150 3233 529 
Q 2819 -91 2034 -91 
Q 1250 -91 836 529 
Q 422 1150 422 2328 
Q 422 3509 836 4129 
Q 1250 4750 2034 4750 
z
" transform="scale(0.015625)"/>
       </defs>
       <use xlink:href="#DejaVuSans-30"/>
      </g>
     </g>
    </g>
    <g id="xtick_2">
     <g id="line2d_4">
      <path d="M 223.299813 393.54 
L 223.299813 14.76 
" clip-path="url(#p84e8673dc9)" style="fill: none; stroke: #e6e6e6; stroke-width: 0.8; stroke-linecap: square"/>
     </g>
     <g id="line2d_5">
      <g>
       <use xlink:href="#me4b60aa0c4" x="223.299813" y="393.54" style="stroke: #000000; stroke-width: 0.8"/>
      </g>
     </g>
     <g id="line2d_6">
      <g>
       <use xlink:href="#m8876c5394d" x="223.299813" y="14.76" style="stroke: #000000; stroke-width: 0.8"/>
      </g>
     </g>
     <g id="text_2">
      <!-- 50 -->
      <g transform="translate(216.937313 404.638438) scale(0.1 -0.1)">
       <defs>
        <path id="DejaVuSans-35" d="M 691 4666 
L 3169 4666 
L 3169 4134 
L 1269 4134 
L 1269 2991 
Q 1406 3038 1543 3061 
Q 1681 3084 1819 3084 
Q 2600 3084 3056 2656 
Q 3513 2228 3513 1497 
Q 3513 744 3044 326 
Q 2575 -91 1722 -91 
Q 1428 -91 1123 -41 
Q 819 9 494 109 
L 494 744 
Q 775 591 1075 516 
Q 1375 441 1709 441 
Q 2250 441 2565 725 
Q 2881 1009 2881 1497 
Q 2881 1984 2565 2268 
Q 2250 2553 1709 2553 
Q 1456 2553 1204 2497 
Q 953 2441 691 2322 
L 691 4666 
z
" transform="scale(0.015625)"/>
       </defs>
       <use xlink:href="#DejaVuSans-35"/>
       <use xlink:href="#DejaVuSans-30" x="63.623047"/>
      </g>
     </g>
    </g>
    <g id="xtick_3">
     <g id="line2d_7">
      <path d="M 375.191087 393.54 
L 375.191087 14.76 
" clip-path="url(#p84e8673dc9)" style="fill: none; stroke: #e6e6e6; stroke-width: 0.8; stroke-linecap: square"/>
     </g>
     <g id="line2d_8">
      <g>
       <use xlink:href="#me4b60aa0c4" x="375.191087" y="393.54" style="stroke: #000000; stroke-width: 0.8"/>
      </g>
     </g>
     <g id="line2d_9">
      <g>
       <use xlink:href="#m8876c5394d" x="375.191087" y="14.76" style="stroke: #000000; stroke-width: 0.8"/>
      </g>
     </g>
     <g id="text_3">
      <!-- 100 -->
      <g transform="translate(365.647337 404.638438) scale(0.1 -0.1)">
       <defs>
        <path id="DejaVuSans-31" d="M 794 531 
L 1825 531 
L 1825 4091 
L 703 3866 
L 703 4441 
L 1819 4666 
L 2450 4666 
L 2450 531 
L 3481 531 
L 3481 0 
L 794 0 
L 794 531 
z
" transform="scale(0.015625)"/>
       </defs>
       <use xlink:href="#DejaVuSans-31"/>
       <use xlink:href="#DejaVuSans-30" x="63.623047"/>
       <use xlink:href="#DejaVuSans-30" x="127.246094"/>
      </g>
     </g>
    </g>
    <g id="xtick_4">
     <g id="line2d_10">
      <path d="M 527.082362 393.54 
L 527.082362 14.76 
" clip-path="url(#p84e8673dc9)" style="fill: none; stroke: #e6e6e6; stroke-width: 0.8; stroke-linecap: square"/>
     </g>
     <g id="line2d_11">
      <g>
       <use xlink:href="#me4b60aa0c4" x="527.082362" y="393.54" style="stroke: #000000; stroke-width: 0.8"/>
      </g>
     </g>
     <g id="line2d_12">
      <g>
       <use xlink:href="#m8876c5394d" x="527.082362" y="14.76" style="stroke: #000000; stroke-width: 0.8"/>
      </g>
     </g>
     <g id="text_4">
      <!-- 150 -->
      <g transform="translate(517.538612 404.638438) scale(0.1 -0.1)">
       <use xlink:href="#DejaVuSans-31"/>
       <use xlink:href="#DejaVuSans-35" x="63.623047"/>
       <use xlink:href="#DejaVuSans-30" x="127.246094"/>
      </g>
     </g>
    </g>
    <g id="xtick_5">
     <g id="line2d_13">
      <path d="M 678.973636 393.54 
L 678.973636 14.76 
" clip-path="url(#p84e8673dc9)" style="fill: none; stroke: #e6e6e6; stroke-width: 0.8; stroke-linecap: square"/>
     </g>
     <g id="line2d_14">
      <g>
       <use xlink:href="#me4b60aa0c4" x="678.973636" y="393.54" style="stroke: #000000; stroke-width: 0.8"/>
      </g>
     </g>
     <g id="line2d_15">
      <g>
       <use xlink:href="#m8876c5394d" x="678.973636" y="14.76" style="stroke: #000000; stroke-width: 0.8"/>
      </g>
     </g>
     <g id="text_5">
      <!-- 200 -->
      <g transform="translate(669.429886 404.638438) scale(0.1 -0.1)">
       <defs>
        <path id="DejaVuSans-32" d="M 1228 531 
L 3431 531 
L 3431 0 
L 469 0 
L 469 531 
Q 828 903 1448 1529 
Q 2069 2156 2228 2338 
Q 2531 2678 2651 2914 
Q 2772 3150 2772 3378 
Q 2772 3750 2511 3984 
Q 2250 4219 1831 4219 
Q 1534 4219 1204 4116 
Q 875 4013 500 3803 
L 500 4441 
Q 881 4594 1212 4672 
Q 1544 4750 1819 4750 
Q 2544 4750 2975 4387 
Q 3406 4025 3406 3419 
Q 3406 3131 3298 2873 
Q 3191 2616 2906 2266 
Q 2828 2175 2409 1742 
Q 1991 1309 1228 531 
z
" transform="scale(0.015625)"/>
       </defs>
       <use xlink:href="#DejaVuSans-32"/>
       <use xlink:href="#DejaVuSans-30" x="63.623047"/>
       <use xlink:href="#DejaVuSans-30" x="127.246094"/>
      </g>
     </g>
    </g>
    <g id="text_6">
     <!-- Training Period -->
     <g transform="translate(339.806875 418.316562) scale(0.1 -0.1)">
      <defs>
       <path id="DejaVuSans-54" d="M -19 4666 
L 3928 4666 
L 3928 4134 
L 2272 4134 
L 2272 0 
L 1638 0 
L 1638 4134 
L -19 4134 
L -19 4666 
z
" transform="scale(0.015625)"/>
       <path id="DejaVuSans-72" d="M 2631 2963 
Q 2534 3019 2420 3045 
Q 2306 3072 2169 3072 
Q 1681 3072 1420 2755 
Q 1159 2438 1159 1844 
L 1159 0 
L 581 0 
L 581 3500 
L 1159 3500 
L 1159 2956 
Q 1341 3275 1631 3429 
Q 1922 3584 2338 3584 
Q 2397 3584 2469 3576 
Q 2541 3569 2628 3553 
L 2631 2963 
z
" transform="scale(0.015625)"/>
       <path id="DejaVuSans-61" d="M 2194 1759 
Q 1497 1759 1228 1600 
Q 959 1441 959 1056 
Q 959 750 1161 570 
Q 1363 391 1709 391 
Q 2188 391 2477 730 
Q 2766 1069 2766 1631 
L 2766 1759 
L 2194 1759 
z
M 3341 1997 
L 3341 0 
L 2766 0 
L 2766 531 
Q 2569 213 2275 61 
Q 1981 -91 1556 -91 
Q 1019 -91 701 211 
Q 384 513 384 1019 
Q 384 1609 779 1909 
Q 1175 2209 1959 2209 
L 2766 2209 
L 2766 2266 
Q 2766 2663 2505 2880 
Q 2244 3097 1772 3097 
Q 1472 3097 1187 3025 
Q 903 2953 641 2809 
L 641 3341 
Q 956 3463 1253 3523 
Q 1550 3584 1831 3584 
Q 2591 3584 2966 3190 
Q 3341 2797 3341 1997 
z
" transform="scale(0.015625)"/>
       <path id="DejaVuSans-69" d="M 603 3500 
L 1178 3500 
L 1178 0 
L 603 0 
L 603 3500 
z
M 603 4863 
L 1178 4863 
L 1178 4134 
L 603 4134 
L 603 4863 
z
" transform="scale(0.015625)"/>
       <path id="DejaVuSans-6e" d="M 3513 2113 
L 3513 0 
L 2938 0 
L 2938 2094 
Q 2938 2591 2744 2837 
Q 2550 3084 2163 3084 
Q 1697 3084 1428 2787 
Q 1159 2491 1159 1978 
L 1159 0 
L 581 0 
L 581 3500 
L 1159 3500 
L 1159 2956 
Q 1366 3272 1645 3428 
Q 1925 3584 2291 3584 
Q 2894 3584 3203 3211 
Q 3513 2838 3513 2113 
z
" transform="scale(0.015625)"/>
       <path id="DejaVuSans-67" d="M 2906 1791 
Q 2906 2416 2648 2759 
Q 2391 3103 1925 3103 
Q 1463 3103 1205 2759 
Q 947 2416 947 1791 
Q 947 1169 1205 825 
Q 1463 481 1925 481 
Q 2391 481 2648 825 
Q 2906 1169 2906 1791 
z
M 3481 434 
Q 3481 -459 3084 -895 
Q 2688 -1331 1869 -1331 
Q 1566 -1331 1297 -1286 
Q 1028 -1241 775 -1147 
L 775 -588 
Q 1028 -725 1275 -790 
Q 1522 -856 1778 -856 
Q 2344 -856 2625 -561 
Q 2906 -266 2906 331 
L 2906 616 
Q 2728 306 2450 153 
Q 2172 0 1784 0 
Q 1141 0 747 490 
Q 353 981 353 1791 
Q 353 2603 747 3093 
Q 1141 3584 1784 3584 
Q 2172 3584 2450 3431 
Q 2728 3278 2906 2969 
L 2906 3500 
L 3481 3500 
L 3481 434 
z
" transform="scale(0.015625)"/>
       <path id="DejaVuSans-20" transform="scale(0.015625)"/>
       <path id="DejaVuSans-50" d="M 1259 4147 
L 1259 2394 
L 2053 2394 
Q 2494 2394 2734 2622 
Q 2975 2850 2975 3272 
Q 2975 3691 2734 3919 
Q 2494 4147 2053 4147 
L 1259 4147 
z
M 628 4666 
L 2053 4666 
Q 2838 4666 3239 4311 
Q 3641 3956 3641 3272 
Q 3641 2581 3239 2228 
Q 2838 1875 2053 1875 
L 1259 1875 
L 1259 0 
L 628 0 
L 628 4666 
z
" transform="scale(0.015625)"/>
       <path id="DejaVuSans-65" d="M 3597 1894 
L 3597 1613 
L 953 1613 
Q 991 1019 1311 708 
Q 1631 397 2203 397 
Q 2534 397 2845 478 
Q 3156 559 3463 722 
L 3463 178 
Q 3153 47 2828 -22 
Q 2503 -91 2169 -91 
Q 1331 -91 842 396 
Q 353 884 353 1716 
Q 353 2575 817 3079 
Q 1281 3584 2069 3584 
Q 2775 3584 3186 3129 
Q 3597 2675 3597 1894 
z
M 3022 2063 
Q 3016 2534 2758 2815 
Q 2500 3097 2075 3097 
Q 1594 3097 1305 2825 
Q 1016 2553 972 2059 
L 3022 2063 
z
" transform="scale(0.015625)"/>
       <path id="DejaVuSans-6f" d="M 1959 3097 
Q 1497 3097 1228 2736 
Q 959 2375 959 1747 
Q 959 1119 1226 758 
Q 1494 397 1959 397 
Q 2419 397 2687 759 
Q 2956 1122 2956 1747 
Q 2956 2369 2687 2733 
Q 2419 3097 1959 3097 
z
M 1959 3584 
Q 2709 3584 3137 3096 
Q 3566 2609 3566 1747 
Q 3566 888 3137 398 
Q 2709 -91 1959 -91 
Q 1206 -91 779 398 
Q 353 888 353 1747 
Q 353 2609 779 3096 
Q 1206 3584 1959 3584 
z
" transform="scale(0.015625)"/>
       <path id="DejaVuSans-64" d="M 2906 2969 
L 2906 4863 
L 3481 4863 
L 3481 0 
L 2906 0 
L 2906 525 
Q 2725 213 2448 61 
Q 2172 -91 1784 -91 
Q 1150 -91 751 415 
Q 353 922 353 1747 
Q 353 2572 751 3078 
Q 1150 3584 1784 3584 
Q 2172 3584 2448 3432 
Q 2725 3281 2906 2969 
z
M 947 1747 
Q 947 1113 1208 752 
Q 1469 391 1925 391 
Q 2381 391 2643 752 
Q 2906 1113 2906 1747 
Q 2906 2381 2643 2742 
Q 2381 3103 1925 3103 
Q 1469 3103 1208 2742 
Q 947 2381 947 1747 
z
" transform="scale(0.015625)"/>
      </defs>
      <use xlink:href="#DejaVuSans-54"/>
      <use xlink:href="#DejaVuSans-72" x="46.333984"/>
      <use xlink:href="#DejaVuSans-61" x="87.447266"/>
      <use xlink:href="#DejaVuSans-69" x="148.726562"/>
      <use xlink:href="#DejaVuSans-6e" x="176.509766"/>
      <use xlink:href="#DejaVuSans-69" x="239.888672"/>
      <use xlink:href="#DejaVuSans-6e" x="267.671875"/>
      <use xlink:href="#DejaVuSans-67" x="331.050781"/>
      <use xlink:href="#DejaVuSans-20" x="394.527344"/>
      <use xlink:href="#DejaVuSans-50" x="426.314453"/>
      <use xlink:href="#DejaVuSans-65" x="482.992188"/>
      <use xlink:href="#DejaVuSans-72" x="544.515625"/>
      <use xlink:href="#DejaVuSans-69" x="585.628906"/>
      <use xlink:href="#DejaVuSans-6f" x="613.412109"/>
      <use xlink:href="#DejaVuSans-64" x="674.59375"/>
     </g>
    </g>
   </g>
   <g id="matplotlib.axis_2">
    <g id="ytick_1">
     <g id="line2d_16">
      <path d="M 44.22 393.54 
L 709.2 393.54 
" clip-path="url(#p84e8673dc9)" style="fill: none; stroke: #e6e6e6; stroke-width: 0.8; stroke-linecap: square"/>
     </g>
     <g id="line2d_17">
      <defs>
       <path id="m7730b6a357" d="M 0 0 
L 3.5 0 
" style="stroke: #000000; stroke-width: 0.8"/>
      </defs>
      <g>
       <use xlink:href="#m7730b6a357" x="44.22" y="393.54" style="stroke: #000000; stroke-width: 0.8"/>
      </g>
     </g>
     <g id="line2d_18">
      <defs>
       <path id="m99490e41d7" d="M 0 0 
L -3.5 0 
" style="stroke: #000000; stroke-width: 0.8"/>
      </defs>
      <g>
       <use xlink:href="#m99490e41d7" x="709.2" y="393.54" style="stroke: #000000; stroke-width: 0.8"/>
      </g>
     </g>
     <g id="text_7">
      <!-- 0.0 -->
      <g transform="translate(24.816875 397.339219) scale(0.1 -0.1)">
       <defs>
        <path id="DejaVuSans-2e" d="M 684 794 
L 1344 794 
L 1344 0 
L 684 0 
L 684 794 
z
" transform="scale(0.015625)"/>
       </defs>
       <use xlink:href="#DejaVuSans-30"/>
       <use xlink:href="#DejaVuSans-2e" x="63.623047"/>
       <use xlink:href="#DejaVuSans-30" x="95.410156"/>
      </g>
     </g>
    </g>
    <g id="ytick_2">
     <g id="line2d_19">
      <path d="M 44.22 317.784 
L 709.2 317.784 
" clip-path="url(#p84e8673dc9)" style="fill: none; stroke: #e6e6e6; stroke-width: 0.8; stroke-linecap: square"/>
     </g>
     <g id="line2d_20">
      <g>
       <use xlink:href="#m7730b6a357" x="44.22" y="317.784" style="stroke: #000000; stroke-width: 0.8"/>
      </g>
     </g>
     <g id="line2d_21">
      <g>
       <use xlink:href="#m99490e41d7" x="709.2" y="317.784" style="stroke: #000000; stroke-width: 0.8"/>
      </g>
     </g>
     <g id="text_8">
      <!-- 0.2 -->
      <g transform="translate(24.816875 321.583219) scale(0.1 -0.1)">
       <use xlink:href="#DejaVuSans-30"/>
       <use xlink:href="#DejaVuSans-2e" x="63.623047"/>
       <use xlink:href="#DejaVuSans-32" x="95.410156"/>
      </g>
     </g>
    </g>
    <g id="ytick_3">
     <g id="line2d_22">
      <path d="M 44.22 242.028 
L 709.2 242.028 
" clip-path="url(#p84e8673dc9)" style="fill: none; stroke: #e6e6e6; stroke-width: 0.8; stroke-linecap: square"/>
     </g>
     <g id="line2d_23">
      <g>
       <use xlink:href="#m7730b6a357" x="44.22" y="242.028" style="stroke: #000000; stroke-width: 0.8"/>
      </g>
     </g>
     <g id="line2d_24">
      <g>
       <use xlink:href="#m99490e41d7" x="709.2" y="242.028" style="stroke: #000000; stroke-width: 0.8"/>
      </g>
     </g>
     <g id="text_9">
      <!-- 0.4 -->
      <g transform="translate(24.816875 245.827219) scale(0.1 -0.1)">
       <defs>
        <path id="DejaVuSans-34" d="M 2419 4116 
L 825 1625 
L 2419 1625 
L 2419 4116 
z
M 2253 4666 
L 3047 4666 
L 3047 1625 
L 3713 1625 
L 3713 1100 
L 3047 1100 
L 3047 0 
L 2419 0 
L 2419 1100 
L 313 1100 
L 313 1709 
L 2253 4666 
z
" transform="scale(0.015625)"/>
       </defs>
       <use xlink:href="#DejaVuSans-30"/>
       <use xlink:href="#DejaVuSans-2e" x="63.623047"/>
       <use xlink:href="#DejaVuSans-34" x="95.410156"/>
      </g>
     </g>
    </g>
    <g id="ytick_4">
     <g id="line2d_25">
      <path d="M 44.22 166.272 
L 709.2 166.272 
" clip-path="url(#p84e8673dc9)" style="fill: none; stroke: #e6e6e6; stroke-width: 0.8; stroke-linecap: square"/>
     </g>
     <g id="line2d_26">
      <g>
       <use xlink:href="#m7730b6a357" x="44.22" y="166.272" style="stroke: #000000; stroke-width: 0.8"/>
      </g>
     </g>
     <g id="line2d_27">
      <g>
       <use xlink:href="#m99490e41d7" x="709.2" y="166.272" style="stroke: #000000; stroke-width: 0.8"/>
      </g>
     </g>
     <g id="text_10">
      <!-- 0.6 -->
      <g transform="translate(24.816875 170.071219) scale(0.1 -0.1)">
       <defs>
        <path id="DejaVuSans-36" d="M 2113 2584 
Q 1688 2584 1439 2293 
Q 1191 2003 1191 1497 
Q 1191 994 1439 701 
Q 1688 409 2113 409 
Q 2538 409 2786 701 
Q 3034 994 3034 1497 
Q 3034 2003 2786 2293 
Q 2538 2584 2113 2584 
z
M 3366 4563 
L 3366 3988 
Q 3128 4100 2886 4159 
Q 2644 4219 2406 4219 
Q 1781 4219 1451 3797 
Q 1122 3375 1075 2522 
Q 1259 2794 1537 2939 
Q 1816 3084 2150 3084 
Q 2853 3084 3261 2657 
Q 3669 2231 3669 1497 
Q 3669 778 3244 343 
Q 2819 -91 2113 -91 
Q 1303 -91 875 529 
Q 447 1150 447 2328 
Q 447 3434 972 4092 
Q 1497 4750 2381 4750 
Q 2619 4750 2861 4703 
Q 3103 4656 3366 4563 
z
" transform="scale(0.015625)"/>
       </defs>
       <use xlink:href="#DejaVuSans-30"/>
       <use xlink:href="#DejaVuSans-2e" x="63.623047"/>
       <use xlink:href="#DejaVuSans-36" x="95.410156"/>
      </g>
     </g>
    </g>
    <g id="ytick_5">
     <g id="line2d_28">
      <path d="M 44.22 90.516 
L 709.2 90.516 
" clip-path="url(#p84e8673dc9)" style="fill: none; stroke: #e6e6e6; stroke-width: 0.8; stroke-linecap: square"/>
     </g>
     <g id="line2d_29">
      <g>
       <use xlink:href="#m7730b6a357" x="44.22" y="90.516" style="stroke: #000000; stroke-width: 0.8"/>
      </g>
     </g>
     <g id="line2d_30">
      <g>
       <use xlink:href="#m99490e41d7" x="709.2" y="90.516" style="stroke: #000000; stroke-width: 0.8"/>
      </g>
     </g>
     <g id="text_11">
      <!-- 0.8 -->
      <g transform="translate(24.816875 94.315219) scale(0.1 -0.1)">
       <defs>
        <path id="DejaVuSans-38" d="M 2034 2216 
Q 1584 2216 1326 1975 
Q 1069 1734 1069 1313 
Q 1069 891 1326 650 
Q 1584 409 2034 409 
Q 2484 409 2743 651 
Q 3003 894 3003 1313 
Q 3003 1734 2745 1975 
Q 2488 2216 2034 2216 
z
M 1403 2484 
Q 997 2584 770 2862 
Q 544 3141 544 3541 
Q 544 4100 942 4425 
Q 1341 4750 2034 4750 
Q 2731 4750 3128 4425 
Q 3525 4100 3525 3541 
Q 3525 3141 3298 2862 
Q 3072 2584 2669 2484 
Q 3125 2378 3379 2068 
Q 3634 1759 3634 1313 
Q 3634 634 3220 271 
Q 2806 -91 2034 -91 
Q 1263 -91 848 271 
Q 434 634 434 1313 
Q 434 1759 690 2068 
Q 947 2378 1403 2484 
z
M 1172 3481 
Q 1172 3119 1398 2916 
Q 1625 2713 2034 2713 
Q 2441 2713 2670 2916 
Q 2900 3119 2900 3481 
Q 2900 3844 2670 4047 
Q 2441 4250 2034 4250 
Q 1625 4250 1398 4047 
Q 1172 3844 1172 3481 
z
" transform="scale(0.015625)"/>
       </defs>
       <use xlink:href="#DejaVuSans-30"/>
       <use xlink:href="#DejaVuSans-2e" x="63.623047"/>
       <use xlink:href="#DejaVuSans-38" x="95.410156"/>
      </g>
     </g>
    </g>
    <g id="ytick_6">
     <g id="line2d_31">
      <path d="M 44.22 14.76 
L 709.2 14.76 
" clip-path="url(#p84e8673dc9)" style="fill: none; stroke: #e6e6e6; stroke-width: 0.8; stroke-linecap: square"/>
     </g>
     <g id="line2d_32">
      <g>
       <use xlink:href="#m7730b6a357" x="44.22" y="14.76" style="stroke: #000000; stroke-width: 0.8"/>
      </g>
     </g>
     <g id="line2d_33">
      <g>
       <use xlink:href="#m99490e41d7" x="709.2" y="14.76" style="stroke: #000000; stroke-width: 0.8"/>
      </g>
     </g>
     <g id="text_12">
      <!-- 1.0 -->
      <g transform="translate(24.816875 18.559219) scale(0.1 -0.1)">
       <use xlink:href="#DejaVuSans-31"/>
       <use xlink:href="#DejaVuSans-2e" x="63.623047"/>
       <use xlink:href="#DejaVuSans-30" x="95.410156"/>
      </g>
     </g>
    </g>
    <g id="text_13">
     <!-- Value of the accuracy -->
     <g transform="translate(18.737187 258.232813) rotate(-90) scale(0.1 -0.1)">
      <defs>
       <path id="DejaVuSans-56" d="M 1831 0 
L 50 4666 
L 709 4666 
L 2188 738 
L 3669 4666 
L 4325 4666 
L 2547 0 
L 1831 0 
z
" transform="scale(0.015625)"/>
       <path id="DejaVuSans-6c" d="M 603 4863 
L 1178 4863 
L 1178 0 
L 603 0 
L 603 4863 
z
" transform="scale(0.015625)"/>
       <path id="DejaVuSans-75" d="M 544 1381 
L 544 3500 
L 1119 3500 
L 1119 1403 
Q 1119 906 1312 657 
Q 1506 409 1894 409 
Q 2359 409 2629 706 
Q 2900 1003 2900 1516 
L 2900 3500 
L 3475 3500 
L 3475 0 
L 2900 0 
L 2900 538 
Q 2691 219 2414 64 
Q 2138 -91 1772 -91 
Q 1169 -91 856 284 
Q 544 659 544 1381 
z
M 1991 3584 
L 1991 3584 
z
" transform="scale(0.015625)"/>
       <path id="DejaVuSans-66" d="M 2375 4863 
L 2375 4384 
L 1825 4384 
Q 1516 4384 1395 4259 
Q 1275 4134 1275 3809 
L 1275 3500 
L 2222 3500 
L 2222 3053 
L 1275 3053 
L 1275 0 
L 697 0 
L 697 3053 
L 147 3053 
L 147 3500 
L 697 3500 
L 697 3744 
Q 697 4328 969 4595 
Q 1241 4863 1831 4863 
L 2375 4863 
z
" transform="scale(0.015625)"/>
       <path id="DejaVuSans-74" d="M 1172 4494 
L 1172 3500 
L 2356 3500 
L 2356 3053 
L 1172 3053 
L 1172 1153 
Q 1172 725 1289 603 
Q 1406 481 1766 481 
L 2356 481 
L 2356 0 
L 1766 0 
Q 1100 0 847 248 
Q 594 497 594 1153 
L 594 3053 
L 172 3053 
L 172 3500 
L 594 3500 
L 594 4494 
L 1172 4494 
z
" transform="scale(0.015625)"/>
       <path id="DejaVuSans-68" d="M 3513 2113 
L 3513 0 
L 2938 0 
L 2938 2094 
Q 2938 2591 2744 2837 
Q 2550 3084 2163 3084 
Q 1697 3084 1428 2787 
Q 1159 2491 1159 1978 
L 1159 0 
L 581 0 
L 581 4863 
L 1159 4863 
L 1159 2956 
Q 1366 3272 1645 3428 
Q 1925 3584 2291 3584 
Q 2894 3584 3203 3211 
Q 3513 2838 3513 2113 
z
" transform="scale(0.015625)"/>
       <path id="DejaVuSans-63" d="M 3122 3366 
L 3122 2828 
Q 2878 2963 2633 3030 
Q 2388 3097 2138 3097 
Q 1578 3097 1268 2742 
Q 959 2388 959 1747 
Q 959 1106 1268 751 
Q 1578 397 2138 397 
Q 2388 397 2633 464 
Q 2878 531 3122 666 
L 3122 134 
Q 2881 22 2623 -34 
Q 2366 -91 2075 -91 
Q 1284 -91 818 406 
Q 353 903 353 1747 
Q 353 2603 823 3093 
Q 1294 3584 2113 3584 
Q 2378 3584 2631 3529 
Q 2884 3475 3122 3366 
z
" transform="scale(0.015625)"/>
       <path id="DejaVuSans-79" d="M 2059 -325 
Q 1816 -950 1584 -1140 
Q 1353 -1331 966 -1331 
L 506 -1331 
L 506 -850 
L 844 -850 
Q 1081 -850 1212 -737 
Q 1344 -625 1503 -206 
L 1606 56 
L 191 3500 
L 800 3500 
L 1894 763 
L 2988 3500 
L 3597 3500 
L 2059 -325 
z
" transform="scale(0.015625)"/>
      </defs>
      <use xlink:href="#DejaVuSans-56"/>
      <use xlink:href="#DejaVuSans-61" x="60.658203"/>
      <use xlink:href="#DejaVuSans-6c" x="121.9375"/>
      <use xlink:href="#DejaVuSans-75" x="149.720703"/>
      <use xlink:href="#DejaVuSans-65" x="213.099609"/>
      <use xlink:href="#DejaVuSans-20" x="274.623047"/>
      <use xlink:href="#DejaVuSans-6f" x="306.410156"/>
      <use xlink:href="#DejaVuSans-66" x="367.591797"/>
      <use xlink:href="#DejaVuSans-20" x="402.796875"/>
      <use xlink:href="#DejaVuSans-74" x="434.583984"/>
      <use xlink:href="#DejaVuSans-68" x="473.792969"/>
      <use xlink:href="#DejaVuSans-65" x="537.171875"/>
      <use xlink:href="#DejaVuSans-20" x="598.695312"/>
      <use xlink:href="#DejaVuSans-61" x="630.482422"/>
      <use xlink:href="#DejaVuSans-63" x="691.761719"/>
      <use xlink:href="#DejaVuSans-63" x="746.742188"/>
      <use xlink:href="#DejaVuSans-75" x="801.722656"/>
      <use xlink:href="#DejaVuSans-72" x="865.101562"/>
      <use xlink:href="#DejaVuSans-61" x="906.214844"/>
      <use xlink:href="#DejaVuSans-63" x="967.494141"/>
      <use xlink:href="#DejaVuSans-79" x="1022.474609"/>
     </g>
    </g>
   </g>
   <g id="line2d_34">
    <path d="M 74.446364 352.979337 
L 77.484189 355.35638 
L 80.522015 356.035535 
L 83.55984 354.790417 
L 86.597666 335.321299 
L 89.635491 355.771419 
L 92.673317 356.865614 
L 98.748968 336.340032 
L 101.786793 351.017332 
L 104.824619 352.413374 
L 110.90027 335.736338 
L 113.938095 322.907849 
L 116.975921 330.94452 
L 120.013746 317.738723 
L 123.051571 329.17117 
L 129.127222 309.475667 
L 132.165048 314.342947 
L 135.202873 310.230284 
L 138.240699 312.682789 
L 141.278524 309.815245 
L 144.31635 316.757721 
L 147.354175 316.984106 
L 150.392001 304.042425 
L 153.429826 301.929497 
L 156.467652 301.17488 
L 159.505477 289.780163 
L 162.543303 292.119476 
L 165.581128 307.060893 
L 171.656779 294.760636 
L 174.694605 294.798366 
L 180.770256 313.890176 
L 183.808081 295.628445 
L 186.845907 300.420263 
L 189.883732 294.08148 
L 192.921558 323.737928 
L 195.959383 288.006813 
L 198.997209 286.95035 
L 202.035034 272.537165 
L 205.07286 292.383592 
L 208.110685 288.346391 
L 211.148511 287.85589 
L 214.186336 267.292577 
L 217.224162 271.707086 
L 220.261987 270.801546 
L 223.299813 271.744817 
L 226.337638 267.179384 
L 229.375464 265.594689 
L 232.413289 262.651682 
L 235.451115 273.820014 
L 238.48894 265.707881 
L 241.526766 262.840337 
L 244.564591 257.746672 
L 247.602417 259.89733 
L 250.640242 264.538225 
L 253.678068 256.954324 
L 256.715893 267.292577 
L 259.753719 262.915798 
L 262.791544 300.835302 
L 265.82937 254.12451 
L 268.867195 258.388096 
L 271.905021 265.368304 
L 274.942846 255.709206 
L 277.980672 272.235318 
L 281.018497 257.708941 
L 284.056323 273.442705 
L 287.094148 253.935856 
L 290.131974 257.407094 
L 293.169799 263.481761 
L 299.24545 260.463293 
L 302.283275 258.803136 
L 305.321101 244.314489 
L 308.358926 255.784668 
L 314.434577 259.104983 
L 317.472403 263.028991 
L 320.510228 239.032171 
L 323.548054 256.992055 
L 326.585879 257.256171 
L 329.623705 236.315549 
L 332.66153 236.202357 
L 335.699356 245.823723 
L 338.737181 249.144038 
L 341.775007 233.108427 
L 344.812832 245.974647 
L 347.850658 244.880452 
L 350.888483 256.275169 
L 353.926309 262.53849 
L 356.964134 246.955649 
L 360.00196 240.76779 
L 363.039785 238.692593 
L 366.077611 229.863574 
L 369.115436 230.618191 
L 372.153262 268.76408 
L 375.191087 239.183094 
L 378.228913 238.277554 
L 381.266738 246.57834 
L 384.304564 240.579135 
L 387.342389 245.182299 
L 390.380215 229.788112 
L 393.41804 280.951145 
L 396.455866 239.107632 
L 399.493691 233.297081 
L 402.531517 232.580195 
L 405.569342 243.786258 
L 408.607168 241.748792 
L 411.644993 249.785463 
L 414.682819 238.730324 
L 417.720644 249.332692 
L 423.796295 255.973322 
L 426.834121 256.388361 
L 429.871946 262.878068 
L 432.909772 231.108692 
L 435.947597 274.499169 
L 438.985423 240.164096 
L 442.023248 226.015027 
L 445.061074 262.047989 
L 448.098899 252.124775 
L 454.17455 224.656717 
L 460.250201 260.878333 
L 463.288026 252.049314 
L 469.363677 224.015292 
L 472.401503 235.108162 
L 475.439328 228.052493 
L 478.477154 229.523996 
L 481.514979 240.428212 
L 484.552805 234.051698 
L 487.59063 243.748527 
L 490.628456 224.053023 
L 493.666281 214.205271 
L 496.704107 217.336932 
L 499.741932 217.450125 
L 502.779758 230.316344 
L 505.817583 227.561992 
L 508.855409 231.221885 
L 511.893234 238.843516 
L 514.93106 234.57993 
L 517.968885 219.298936 
L 521.006711 216.016352 
L 527.082362 222.543789 
L 530.120187 236.541934 
L 533.158013 244.125835 
L 536.195838 208.847491 
L 539.233664 222.543789 
L 542.271489 231.146423 
L 545.309315 230.693653 
L 548.34714 213.526116 
L 551.384966 209.828493 
L 554.422791 222.619251 
L 560.498442 228.35434 
L 563.536268 224.920833 
L 566.574093 230.769114 
L 569.611919 212.696037 
L 572.649744 242.503409 
L 575.68757 224.090754 
L 578.725395 219.864899 
L 581.763221 210.771764 
L 584.801046 207.866489 
L 587.838872 220.279938 
L 590.876697 225.977297 
L 593.914523 222.091019 
L 596.952348 215.940891 
L 599.990174 220.317669 
L 603.027999 207.225064 
L 606.065825 211.790497 
L 612.141476 252.200237 
L 618.217127 210.922688 
L 621.254952 217.71424 
L 624.292778 204.319789 
L 627.330603 213.186538 
L 630.368429 228.467533 
L 636.444079 202.659631 
L 639.481905 213.035615 
L 642.51973 212.997884 
L 648.595381 226.090489 
L 651.633207 214.016617 
L 654.671032 206.847756 
L 657.708858 216.318199 
L 660.746683 206.093139 
L 663.784509 221.864634 
L 666.822334 224.090754 
L 672.897985 217.412394 
L 675.935811 222.543789 
L 678.973636 217.26147 
L 678.973636 217.26147 
" clip-path="url(#p84e8673dc9)" style="fill: none; stroke: #0000ff; stroke-width: 1.5; stroke-linecap: square"/>
   </g>
   <g id="line2d_35">
    <path d="M 74.446364 355.771419 
L 86.597666 354.865879 
L 89.635491 357.016538 
L 92.673317 335.019452 
L 95.711142 353.58303 
L 98.748968 353.620761 
L 101.786793 355.80915 
L 104.824619 327.775129 
L 107.862444 329.17117 
L 110.90027 320.002574 
L 113.938095 325.435816 
L 116.975921 311.513133 
L 120.013746 345.508628 
L 123.051571 303.551923 
L 126.089397 304.872503 
L 129.127222 299.665646 
L 132.165048 307.626855 
L 135.202873 297.779103 
L 138.240699 299.439261 
L 141.278524 295.326598 
L 144.31635 316.682259 
L 147.354175 296.26987 
L 150.392001 293.402325 
L 153.429826 288.912354 
L 156.467652 311.626325 
L 159.505477 280.837952 
L 162.543303 287.742697 
L 165.581128 288.950085 
L 168.618954 295.590714 
L 171.656779 306.909969 
L 177.73243 271.103393 
L 180.770256 279.630565 
L 183.808081 281.969877 
L 186.845907 267.217115 
L 189.883732 288.987816 
L 192.921558 287.554043 
L 195.959383 268.122656 
L 198.997209 280.196528 
L 202.035034 274.725554 
L 205.07286 280.007873 
L 208.110685 263.708146 
L 211.148511 261.859335 
L 214.186336 264.123186 
L 217.224162 280.158797 
L 220.261987 263.632685 
L 223.299813 273.21632 
L 229.375464 247.559343 
L 232.413289 264.462763 
L 235.451115 268.160386 
L 238.48894 265.255111 
L 241.526766 256.161976 
L 244.564591 259.520022 
L 247.602417 243.786258 
L 250.640242 249.634539 
L 253.678068 274.725554 
L 256.715893 242.163831 
L 259.753719 240.654597 
L 262.791544 260.161446 
L 265.82937 267.028461 
L 268.867195 256.048784 
L 274.942846 251.219235 
L 277.980672 237.145628 
L 281.018497 242.654332 
L 284.056323 244.654067 
L 290.131974 270.386507 
L 293.169799 238.466208 
L 296.207624 268.76408 
L 299.24545 231.486001 
L 302.283275 248.464883 
L 308.358926 233.636659 
L 311.396752 245.785993 
L 314.434577 241.786523 
L 317.472403 264.500494 
L 320.510228 239.711326 
L 323.548054 252.7662 
L 326.585879 233.259351 
L 329.623705 234.202622 
L 332.66153 230.467268 
L 335.699356 232.80658 
L 338.737181 237.334282 
L 341.775007 229.184419 
L 344.812832 227.486531 
L 347.850658 238.164361 
L 350.888483 219.713975 
L 353.926309 250.577811 
L 356.964134 233.334812 
L 360.00196 238.353015 
L 363.039785 225.22268 
L 366.077611 236.956974 
L 369.115436 232.655657 
L 375.191087 220.242207 
L 378.228913 227.939301 
L 381.266738 245.333222 
L 384.304564 248.35169 
L 387.342389 217.148278 
L 390.380215 222.053288 
L 393.41804 246.729264 
L 396.455866 219.713975 
L 405.569342 219.072551 
L 408.607168 250.54008 
L 411.644993 219.185744 
L 417.720644 246.351955 
L 420.75847 227.109222 
L 423.796295 237.975707 
L 426.834121 231.146423 
L 429.871946 228.731649 
L 432.909772 228.580725 
L 435.947597 235.44774 
L 438.985423 219.940361 
L 442.023248 226.58099 
L 445.061074 229.939036 
L 448.098899 224.279408 
L 451.136725 241.597868 
L 454.17455 219.185744 
L 457.212376 235.485471 
L 460.250201 234.466738 
L 463.288026 219.90263 
L 466.325852 230.957769 
L 469.363677 224.656717 
L 472.401503 213.186538 
L 475.439328 209.602108 
L 478.477154 235.787317 
L 481.514979 217.563317 
L 484.552805 213.111077 
L 487.59063 230.9955 
L 490.628456 217.638779 
L 493.666281 233.598928 
L 502.779758 211.186803 
L 505.817583 214.469387 
L 508.855409 215.412659 
L 511.893234 210.13034 
L 514.93106 231.221885 
L 517.968885 211.186803 
L 521.006711 236.692858 
L 524.044536 210.998149 
L 527.082362 223.48706 
L 530.120187 210.809495 
L 533.158013 222.12875 
L 539.233664 230.618191 
L 542.271489 217.223739 
L 545.309315 213.262 
L 548.34714 222.996559 
L 551.384966 222.091019 
L 557.460617 208.583375 
L 560.498442 206.093139 
L 563.536268 207.94195 
L 566.574093 208.092874 
L 569.611919 211.224534 
L 572.649744 222.317404 
L 575.68757 202.16913 
L 581.763221 219.44986 
L 584.801046 209.26253 
L 587.838872 222.279673 
L 590.876697 224.769909 
L 593.914523 210.092609 
L 596.952348 226.203682 
L 599.990174 219.90263 
L 606.065825 219.978091 
L 609.10365 206.58364 
L 612.141476 208.545644 
L 615.179301 230.58046 
L 618.217127 206.093139 
L 621.254952 212.696037 
L 624.292778 225.034025 
L 627.330603 213.601578 
L 630.368429 214.58258 
L 636.444079 200.622166 
L 639.481905 201.565437 
L 642.51973 220.242207 
L 645.557556 218.997089 
L 648.595381 214.922158 
L 651.633207 207.640104 
L 654.671032 216.884162 
L 657.708858 220.921363 
L 660.746683 216.620046 
L 663.784509 208.092874 
L 666.822334 210.809495 
L 669.86016 209.300261 
L 675.935811 217.412394 
L 678.973636 223.48706 
L 678.973636 223.48706 
" clip-path="url(#p84e8673dc9)" style="fill: none; stroke: #ff0000; stroke-width: 1.5; stroke-linecap: square"/>
   </g>
   <g id="patch_3">
    <path d="M 44.22 393.54 
L 44.22 14.76 
" style="fill: none; stroke: #000000; stroke-width: 0.8; stroke-linejoin: miter; stroke-linecap: square"/>
   </g>
   <g id="patch_4">
    <path d="M 709.2 393.54 
L 709.2 14.76 
" style="fill: none; stroke: #000000; stroke-width: 0.8; stroke-linejoin: miter; stroke-linecap: square"/>
   </g>
   <g id="patch_5">
    <path d="M 44.22 393.54 
L 709.2 393.54 
" style="fill: none; stroke: #000000; stroke-width: 0.8; stroke-linejoin: miter; stroke-linecap: square"/>
   </g>
   <g id="patch_6">
    <path d="M 44.22 14.76 
L 709.2 14.76 
" style="fill: none; stroke: #000000; stroke-width: 0.8; stroke-linejoin: miter; stroke-linecap: square"/>
   </g>
   <g id="legend_1">
    <g id="patch_7">
     <path d="M 614.020312 52.11625 
L 702.2 52.11625 
Q 704.2 52.11625 704.2 50.11625 
L 704.2 21.76 
Q 704.2 19.76 702.2 19.76 
L 614.020312 19.76 
Q 612.020312 19.76 612.020312 21.76 
L 612.020312 50.11625 
Q 612.020312 52.11625 614.020312 52.11625 
z
" style="fill: #ffffff; opacity: 0.8; stroke: #cccccc; stroke-linejoin: miter"/>
    </g>
    <g id="line2d_36">
     <path d="M 616.020312 27.858438 
L 626.020312 27.858438 
L 636.020312 27.858438 
" style="fill: none; stroke: #0000ff; stroke-width: 1.5; stroke-linecap: square"/>
    </g>
    <g id="text_14">
     <!-- FedAvg -->
     <g transform="translate(644.020312 31.358438) scale(0.1 -0.1)">
      <defs>
       <path id="DejaVuSans-46" d="M 628 4666 
L 3309 4666 
L 3309 4134 
L 1259 4134 
L 1259 2759 
L 3109 2759 
L 3109 2228 
L 1259 2228 
L 1259 0 
L 628 0 
L 628 4666 
z
" transform="scale(0.015625)"/>
       <path id="DejaVuSans-41" d="M 2188 4044 
L 1331 1722 
L 3047 1722 
L 2188 4044 
z
M 1831 4666 
L 2547 4666 
L 4325 0 
L 3669 0 
L 3244 1197 
L 1141 1197 
L 716 0 
L 50 0 
L 1831 4666 
z
" transform="scale(0.015625)"/>
       <path id="DejaVuSans-76" d="M 191 3500 
L 800 3500 
L 1894 563 
L 2988 3500 
L 3597 3500 
L 2284 0 
L 1503 0 
L 191 3500 
z
" transform="scale(0.015625)"/>
      </defs>
      <use xlink:href="#DejaVuSans-46"/>
      <use xlink:href="#DejaVuSans-65" x="52.019531"/>
      <use xlink:href="#DejaVuSans-64" x="113.542969"/>
      <use xlink:href="#DejaVuSans-41" x="177.019531"/>
      <use xlink:href="#DejaVuSans-76" x="239.552734"/>
      <use xlink:href="#DejaVuSans-67" x="298.732422"/>
     </g>
    </g>
    <g id="line2d_37">
     <path d="M 616.020312 42.536563 
L 626.020312 42.536563 
L 636.020312 42.536563 
" style="fill: none; stroke: #ff0000; stroke-width: 1.5; stroke-linecap: square"/>
    </g>
    <g id="text_15">
     <!-- DVSAA-AFL -->
     <g transform="translate(644.020312 46.036563) scale(0.1 -0.1)">
      <defs>
       <path id="DejaVuSans-44" d="M 1259 4147 
L 1259 519 
L 2022 519 
Q 2988 519 3436 956 
Q 3884 1394 3884 2338 
Q 3884 3275 3436 3711 
Q 2988 4147 2022 4147 
L 1259 4147 
z
M 628 4666 
L 1925 4666 
Q 3281 4666 3915 4102 
Q 4550 3538 4550 2338 
Q 4550 1131 3912 565 
Q 3275 0 1925 0 
L 628 0 
L 628 4666 
z
" transform="scale(0.015625)"/>
       <path id="DejaVuSans-53" d="M 3425 4513 
L 3425 3897 
Q 3066 4069 2747 4153 
Q 2428 4238 2131 4238 
Q 1616 4238 1336 4038 
Q 1056 3838 1056 3469 
Q 1056 3159 1242 3001 
Q 1428 2844 1947 2747 
L 2328 2669 
Q 3034 2534 3370 2195 
Q 3706 1856 3706 1288 
Q 3706 609 3251 259 
Q 2797 -91 1919 -91 
Q 1588 -91 1214 -16 
Q 841 59 441 206 
L 441 856 
Q 825 641 1194 531 
Q 1563 422 1919 422 
Q 2459 422 2753 634 
Q 3047 847 3047 1241 
Q 3047 1584 2836 1778 
Q 2625 1972 2144 2069 
L 1759 2144 
Q 1053 2284 737 2584 
Q 422 2884 422 3419 
Q 422 4038 858 4394 
Q 1294 4750 2059 4750 
Q 2388 4750 2728 4690 
Q 3069 4631 3425 4513 
z
" transform="scale(0.015625)"/>
       <path id="DejaVuSans-2d" d="M 313 2009 
L 1997 2009 
L 1997 1497 
L 313 1497 
L 313 2009 
z
" transform="scale(0.015625)"/>
       <path id="DejaVuSans-4c" d="M 628 4666 
L 1259 4666 
L 1259 531 
L 3531 531 
L 3531 0 
L 628 0 
L 628 4666 
z
" transform="scale(0.015625)"/>
      </defs>
      <use xlink:href="#DejaVuSans-44"/>
      <use xlink:href="#DejaVuSans-56" x="75.251953"/>
      <use xlink:href="#DejaVuSans-53" x="143.660156"/>
      <use xlink:href="#DejaVuSans-41" x="209.011719"/>
      <use xlink:href="#DejaVuSans-41" x="280.169922"/>
      <use xlink:href="#DejaVuSans-2d" x="346.328125"/>
      <use xlink:href="#DejaVuSans-41" x="380.162109"/>
      <use xlink:href="#DejaVuSans-46" x="448.570312"/>
      <use xlink:href="#DejaVuSans-4c" x="506.089844"/>
     </g>
    </g>
   </g>
  </g>
 </g>
 <defs>
  <clipPath id="p84e8673dc9">
   <rect x="44.22" y="14.76" width="664.98" height="378.78"/>
  </clipPath>
 </defs>
</svg>
