<?xml version="1.0" encoding="utf-8" standalone="no"?>
<!DOCTYPE svg PUBLIC "-//W3C//DTD SVG 1.1//EN"
  "http://www.w3.org/Graphics/SVG/1.1/DTD/svg11.dtd">
<svg xmlns:xlink="http://www.w3.org/1999/xlink" width="864pt" height="576pt" viewBox="0 0 864 576" xmlns="http://www.w3.org/2000/svg" version="1.1">
 <metadata>
  <rdf:RDF xmlns:dc="http://purl.org/dc/elements/1.1/" xmlns:cc="http://creativecommons.org/ns#" xmlns:rdf="http://www.w3.org/1999/02/22-rdf-syntax-ns#">
   <cc:Work>
    <dc:type rdf:resource="http://purl.org/dc/dcmitype/StillImage"/>
    <dc:date>2024-10-23T22:22:25.989903</dc:date>
    <dc:format>image/svg+xml</dc:format>
    <dc:creator>
     <cc:Agent>
      <dc:title>Matplotlib v3.9.2, https://matplotlib.org/</dc:title>
     </cc:Agent>
    </dc:creator>
   </cc:Work>
  </rdf:RDF>
 </metadata>
 <defs>
  <style type="text/css">*{stroke-linejoin: round; stroke-linecap: butt}</style>
 </defs>
 <g id="figure_1">
  <g id="patch_1">
   <path d="M 0 576 
L 864 576 
L 864 0 
L 0 0 
z
" style="fill: #ffffff"/>
  </g>
  <g id="axes_1">
   <g id="patch_2">
    <path d="M 47.1 534.66 
L 581.98 534.66 
L 581.98 62.88 
L 47.1 62.88 
z
" style="fill: #eeeeee"/>
   </g>
   <g id="matplotlib.axis_1">
    <g id="xtick_1">
     <g id="line2d_1">
      <path d="M 71.412727 534.66 
L 71.412727 62.88 
" clip-path="url(#p6ca2334f5f)" style="fill: none; stroke-dasharray: 1.85,0.8; stroke-dashoffset: 0; stroke: #b2b2b2; stroke-width: 0.5"/>
     </g>
     <g id="line2d_2">
      <defs>
       <path id="m34ad4f31af" d="M 0 0 
L 0 -3.5 
" style="stroke: #000000; stroke-width: 0.8"/>
      </defs>
      <g>
       <use xlink:href="#m34ad4f31af" x="71.412727" y="534.66" style="stroke: #000000; stroke-width: 0.8"/>
      </g>
     </g>
     <g id="text_1">
      <!-- 1 -->
      <g transform="translate(68.231477 545.758438) scale(0.1 -0.1)">
       <defs>
        <path id="DejaVuSans-31" d="M 794 531 
L 1825 531 
L 1825 4091 
L 703 3866 
L 703 4441 
L 1819 4666 
L 2450 4666 
L 2450 531 
L 3481 531 
L 3481 0 
L 794 0 
L 794 531 
z
" transform="scale(0.015625)"/>
       </defs>
       <use xlink:href="#DejaVuSans-31"/>
      </g>
     </g>
    </g>
    <g id="xtick_2">
     <g id="line2d_3">
      <path d="M 119.764493 534.66 
L 119.764493 62.88 
" clip-path="url(#p6ca2334f5f)" style="fill: none; stroke-dasharray: 1.85,0.8; stroke-dashoffset: 0; stroke: #b2b2b2; stroke-width: 0.5"/>
     </g>
     <g id="line2d_4">
      <g>
       <use xlink:href="#m34ad4f31af" x="119.764493" y="534.66" style="stroke: #000000; stroke-width: 0.8"/>
      </g>
     </g>
     <g id="text_2">
      <!-- 160 -->
      <g transform="translate(110.220743 545.758438) scale(0.1 -0.1)">
       <defs>
        <path id="DejaVuSans-36" d="M 2113 2584 
Q 1688 2584 1439 2293 
Q 1191 2003 1191 1497 
Q 1191 994 1439 701 
Q 1688 409 2113 409 
Q 2538 409 2786 701 
Q 3034 994 3034 1497 
Q 3034 2003 2786 2293 
Q 2538 2584 2113 2584 
z
M 3366 4563 
L 3366 3988 
Q 3128 4100 2886 4159 
Q 2644 4219 2406 4219 
Q 1781 4219 1451 3797 
Q 1122 3375 1075 2522 
Q 1259 2794 1537 2939 
Q 1816 3084 2150 3084 
Q 2853 3084 3261 2657 
Q 3669 2231 3669 1497 
Q 3669 778 3244 343 
Q 2819 -91 2113 -91 
Q 1303 -91 875 529 
Q 447 1150 447 2328 
Q 447 3434 972 4092 
Q 1497 4750 2381 4750 
Q 2619 4750 2861 4703 
Q 3103 4656 3366 4563 
z
" transform="scale(0.015625)"/>
        <path id="DejaVuSans-30" d="M 2034 4250 
Q 1547 4250 1301 3770 
Q 1056 3291 1056 2328 
Q 1056 1369 1301 889 
Q 1547 409 2034 409 
Q 2525 409 2770 889 
Q 3016 1369 3016 2328 
Q 3016 3291 2770 3770 
Q 2525 4250 2034 4250 
z
M 2034 4750 
Q 2819 4750 3233 4129 
Q 3647 3509 3647 2328 
Q 3647 1150 3233 529 
Q 2819 -91 2034 -91 
Q 1250 -91 836 529 
Q 422 1150 422 2328 
Q 422 3509 836 4129 
Q 1250 4750 2034 4750 
z
" transform="scale(0.015625)"/>
       </defs>
       <use xlink:href="#DejaVuSans-31"/>
       <use xlink:href="#DejaVuSans-36" x="63.623047"/>
       <use xlink:href="#DejaVuSans-30" x="127.246094"/>
      </g>
     </g>
    </g>
    <g id="xtick_3">
     <g id="line2d_5">
      <path d="M 168.420357 534.66 
L 168.420357 62.88 
" clip-path="url(#p6ca2334f5f)" style="fill: none; stroke-dasharray: 1.85,0.8; stroke-dashoffset: 0; stroke: #b2b2b2; stroke-width: 0.5"/>
     </g>
     <g id="line2d_6">
      <g>
       <use xlink:href="#m34ad4f31af" x="168.420357" y="534.66" style="stroke: #000000; stroke-width: 0.8"/>
      </g>
     </g>
     <g id="text_3">
      <!-- 320 -->
      <g transform="translate(158.876607 545.758438) scale(0.1 -0.1)">
       <defs>
        <path id="DejaVuSans-33" d="M 2597 2516 
Q 3050 2419 3304 2112 
Q 3559 1806 3559 1356 
Q 3559 666 3084 287 
Q 2609 -91 1734 -91 
Q 1441 -91 1130 -33 
Q 819 25 488 141 
L 488 750 
Q 750 597 1062 519 
Q 1375 441 1716 441 
Q 2309 441 2620 675 
Q 2931 909 2931 1356 
Q 2931 1769 2642 2001 
Q 2353 2234 1838 2234 
L 1294 2234 
L 1294 2753 
L 1863 2753 
Q 2328 2753 2575 2939 
Q 2822 3125 2822 3475 
Q 2822 3834 2567 4026 
Q 2313 4219 1838 4219 
Q 1578 4219 1281 4162 
Q 984 4106 628 3988 
L 628 4550 
Q 988 4650 1302 4700 
Q 1616 4750 1894 4750 
Q 2613 4750 3031 4423 
Q 3450 4097 3450 3541 
Q 3450 3153 3228 2886 
Q 3006 2619 2597 2516 
z
" transform="scale(0.015625)"/>
        <path id="DejaVuSans-32" d="M 1228 531 
L 3431 531 
L 3431 0 
L 469 0 
L 469 531 
Q 828 903 1448 1529 
Q 2069 2156 2228 2338 
Q 2531 2678 2651 2914 
Q 2772 3150 2772 3378 
Q 2772 3750 2511 3984 
Q 2250 4219 1831 4219 
Q 1534 4219 1204 4116 
Q 875 4013 500 3803 
L 500 4441 
Q 881 4594 1212 4672 
Q 1544 4750 1819 4750 
Q 2544 4750 2975 4387 
Q 3406 4025 3406 3419 
Q 3406 3131 3298 2873 
Q 3191 2616 2906 2266 
Q 2828 2175 2409 1742 
Q 1991 1309 1228 531 
z
" transform="scale(0.015625)"/>
       </defs>
       <use xlink:href="#DejaVuSans-33"/>
       <use xlink:href="#DejaVuSans-32" x="63.623047"/>
       <use xlink:href="#DejaVuSans-30" x="127.246094"/>
      </g>
     </g>
    </g>
    <g id="xtick_4">
     <g id="line2d_7">
      <path d="M 217.076222 534.66 
L 217.076222 62.88 
" clip-path="url(#p6ca2334f5f)" style="fill: none; stroke-dasharray: 1.85,0.8; stroke-dashoffset: 0; stroke: #b2b2b2; stroke-width: 0.5"/>
     </g>
     <g id="line2d_8">
      <g>
       <use xlink:href="#m34ad4f31af" x="217.076222" y="534.66" style="stroke: #000000; stroke-width: 0.8"/>
      </g>
     </g>
     <g id="text_4">
      <!-- 480 -->
      <g transform="translate(207.532472 545.758438) scale(0.1 -0.1)">
       <defs>
        <path id="DejaVuSans-34" d="M 2419 4116 
L 825 1625 
L 2419 1625 
L 2419 4116 
z
M 2253 4666 
L 3047 4666 
L 3047 1625 
L 3713 1625 
L 3713 1100 
L 3047 1100 
L 3047 0 
L 2419 0 
L 2419 1100 
L 313 1100 
L 313 1709 
L 2253 4666 
z
" transform="scale(0.015625)"/>
        <path id="DejaVuSans-38" d="M 2034 2216 
Q 1584 2216 1326 1975 
Q 1069 1734 1069 1313 
Q 1069 891 1326 650 
Q 1584 409 2034 409 
Q 2484 409 2743 651 
Q 3003 894 3003 1313 
Q 3003 1734 2745 1975 
Q 2488 2216 2034 2216 
z
M 1403 2484 
Q 997 2584 770 2862 
Q 544 3141 544 3541 
Q 544 4100 942 4425 
Q 1341 4750 2034 4750 
Q 2731 4750 3128 4425 
Q 3525 4100 3525 3541 
Q 3525 3141 3298 2862 
Q 3072 2584 2669 2484 
Q 3125 2378 3379 2068 
Q 3634 1759 3634 1313 
Q 3634 634 3220 271 
Q 2806 -91 2034 -91 
Q 1263 -91 848 271 
Q 434 634 434 1313 
Q 434 1759 690 2068 
Q 947 2378 1403 2484 
z
M 1172 3481 
Q 1172 3119 1398 2916 
Q 1625 2713 2034 2713 
Q 2441 2713 2670 2916 
Q 2900 3119 2900 3481 
Q 2900 3844 2670 4047 
Q 2441 4250 2034 4250 
Q 1625 4250 1398 4047 
Q 1172 3844 1172 3481 
z
" transform="scale(0.015625)"/>
       </defs>
       <use xlink:href="#DejaVuSans-34"/>
       <use xlink:href="#DejaVuSans-38" x="63.623047"/>
       <use xlink:href="#DejaVuSans-30" x="127.246094"/>
      </g>
     </g>
    </g>
    <g id="xtick_5">
     <g id="line2d_9">
      <path d="M 265.732086 534.66 
L 265.732086 62.88 
" clip-path="url(#p6ca2334f5f)" style="fill: none; stroke-dasharray: 1.85,0.8; stroke-dashoffset: 0; stroke: #b2b2b2; stroke-width: 0.5"/>
     </g>
     <g id="line2d_10">
      <g>
       <use xlink:href="#m34ad4f31af" x="265.732086" y="534.66" style="stroke: #000000; stroke-width: 0.8"/>
      </g>
     </g>
     <g id="text_5">
      <!-- 640 -->
      <g transform="translate(256.188336 545.758438) scale(0.1 -0.1)">
       <use xlink:href="#DejaVuSans-36"/>
       <use xlink:href="#DejaVuSans-34" x="63.623047"/>
       <use xlink:href="#DejaVuSans-30" x="127.246094"/>
      </g>
     </g>
    </g>
    <g id="xtick_6">
     <g id="line2d_11">
      <path d="M 314.38795 534.66 
L 314.38795 62.88 
" clip-path="url(#p6ca2334f5f)" style="fill: none; stroke-dasharray: 1.85,0.8; stroke-dashoffset: 0; stroke: #b2b2b2; stroke-width: 0.5"/>
     </g>
     <g id="line2d_12">
      <g>
       <use xlink:href="#m34ad4f31af" x="314.38795" y="534.66" style="stroke: #000000; stroke-width: 0.8"/>
      </g>
     </g>
     <g id="text_6">
      <!-- 800 -->
      <g transform="translate(304.8442 545.758438) scale(0.1 -0.1)">
       <use xlink:href="#DejaVuSans-38"/>
       <use xlink:href="#DejaVuSans-30" x="63.623047"/>
       <use xlink:href="#DejaVuSans-30" x="127.246094"/>
      </g>
     </g>
    </g>
    <g id="xtick_7">
     <g id="line2d_13">
      <path d="M 363.043815 534.66 
L 363.043815 62.88 
" clip-path="url(#p6ca2334f5f)" style="fill: none; stroke-dasharray: 1.85,0.8; stroke-dashoffset: 0; stroke: #b2b2b2; stroke-width: 0.5"/>
     </g>
     <g id="line2d_14">
      <g>
       <use xlink:href="#m34ad4f31af" x="363.043815" y="534.66" style="stroke: #000000; stroke-width: 0.8"/>
      </g>
     </g>
     <g id="text_7">
      <!-- 960 -->
      <g transform="translate(353.500065 545.758438) scale(0.1 -0.1)">
       <defs>
        <path id="DejaVuSans-39" d="M 703 97 
L 703 672 
Q 941 559 1184 500 
Q 1428 441 1663 441 
Q 2288 441 2617 861 
Q 2947 1281 2994 2138 
Q 2813 1869 2534 1725 
Q 2256 1581 1919 1581 
Q 1219 1581 811 2004 
Q 403 2428 403 3163 
Q 403 3881 828 4315 
Q 1253 4750 1959 4750 
Q 2769 4750 3195 4129 
Q 3622 3509 3622 2328 
Q 3622 1225 3098 567 
Q 2575 -91 1691 -91 
Q 1453 -91 1209 -44 
Q 966 3 703 97 
z
M 1959 2075 
Q 2384 2075 2632 2365 
Q 2881 2656 2881 3163 
Q 2881 3666 2632 3958 
Q 2384 4250 1959 4250 
Q 1534 4250 1286 3958 
Q 1038 3666 1038 3163 
Q 1038 2656 1286 2365 
Q 1534 2075 1959 2075 
z
" transform="scale(0.015625)"/>
       </defs>
       <use xlink:href="#DejaVuSans-39"/>
       <use xlink:href="#DejaVuSans-36" x="63.623047"/>
       <use xlink:href="#DejaVuSans-30" x="127.246094"/>
      </g>
     </g>
    </g>
    <g id="xtick_8">
     <g id="line2d_15">
      <path d="M 411.699679 534.66 
L 411.699679 62.88 
" clip-path="url(#p6ca2334f5f)" style="fill: none; stroke-dasharray: 1.85,0.8; stroke-dashoffset: 0; stroke: #b2b2b2; stroke-width: 0.5"/>
     </g>
     <g id="line2d_16">
      <g>
       <use xlink:href="#m34ad4f31af" x="411.699679" y="534.66" style="stroke: #000000; stroke-width: 0.8"/>
      </g>
     </g>
     <g id="text_8">
      <!-- 1120 -->
      <g transform="translate(398.974679 545.758438) scale(0.1 -0.1)">
       <use xlink:href="#DejaVuSans-31"/>
       <use xlink:href="#DejaVuSans-31" x="63.623047"/>
       <use xlink:href="#DejaVuSans-32" x="127.246094"/>
       <use xlink:href="#DejaVuSans-30" x="190.869141"/>
      </g>
     </g>
    </g>
    <g id="xtick_9">
     <g id="line2d_17">
      <path d="M 460.355544 534.66 
L 460.355544 62.88 
" clip-path="url(#p6ca2334f5f)" style="fill: none; stroke-dasharray: 1.85,0.8; stroke-dashoffset: 0; stroke: #b2b2b2; stroke-width: 0.5"/>
     </g>
     <g id="line2d_18">
      <g>
       <use xlink:href="#m34ad4f31af" x="460.355544" y="534.66" style="stroke: #000000; stroke-width: 0.8"/>
      </g>
     </g>
     <g id="text_9">
      <!-- 1280 -->
      <g transform="translate(447.630544 545.758438) scale(0.1 -0.1)">
       <use xlink:href="#DejaVuSans-31"/>
       <use xlink:href="#DejaVuSans-32" x="63.623047"/>
       <use xlink:href="#DejaVuSans-38" x="127.246094"/>
       <use xlink:href="#DejaVuSans-30" x="190.869141"/>
      </g>
     </g>
    </g>
    <g id="xtick_10">
     <g id="line2d_19">
      <path d="M 509.011408 534.66 
L 509.011408 62.88 
" clip-path="url(#p6ca2334f5f)" style="fill: none; stroke-dasharray: 1.85,0.8; stroke-dashoffset: 0; stroke: #b2b2b2; stroke-width: 0.5"/>
     </g>
     <g id="line2d_20">
      <g>
       <use xlink:href="#m34ad4f31af" x="509.011408" y="534.66" style="stroke: #000000; stroke-width: 0.8"/>
      </g>
     </g>
     <g id="text_10">
      <!-- 1440 -->
      <g transform="translate(496.286408 545.758438) scale(0.1 -0.1)">
       <use xlink:href="#DejaVuSans-31"/>
       <use xlink:href="#DejaVuSans-34" x="63.623047"/>
       <use xlink:href="#DejaVuSans-34" x="127.246094"/>
       <use xlink:href="#DejaVuSans-30" x="190.869141"/>
      </g>
     </g>
    </g>
    <g id="xtick_11">
     <g id="line2d_21">
      <path d="M 557.667273 534.66 
L 557.667273 62.88 
" clip-path="url(#p6ca2334f5f)" style="fill: none; stroke-dasharray: 1.85,0.8; stroke-dashoffset: 0; stroke: #b2b2b2; stroke-width: 0.5"/>
     </g>
     <g id="line2d_22">
      <g>
       <use xlink:href="#m34ad4f31af" x="557.667273" y="534.66" style="stroke: #000000; stroke-width: 0.8"/>
      </g>
     </g>
     <g id="text_11">
      <!-- 1600 -->
      <g transform="translate(544.942273 545.758438) scale(0.1 -0.1)">
       <use xlink:href="#DejaVuSans-31"/>
       <use xlink:href="#DejaVuSans-36" x="63.623047"/>
       <use xlink:href="#DejaVuSans-30" x="127.246094"/>
       <use xlink:href="#DejaVuSans-30" x="190.869141"/>
      </g>
     </g>
    </g>
    <g id="text_12">
     <!-- Round -->
     <g transform="translate(295.555625 560.95625) scale(0.12 -0.12)">
      <defs>
       <path id="DejaVuSans-52" d="M 2841 2188 
Q 3044 2119 3236 1894 
Q 3428 1669 3622 1275 
L 4263 0 
L 3584 0 
L 2988 1197 
Q 2756 1666 2539 1819 
Q 2322 1972 1947 1972 
L 1259 1972 
L 1259 0 
L 628 0 
L 628 4666 
L 2053 4666 
Q 2853 4666 3247 4331 
Q 3641 3997 3641 3322 
Q 3641 2881 3436 2590 
Q 3231 2300 2841 2188 
z
M 1259 4147 
L 1259 2491 
L 2053 2491 
Q 2509 2491 2742 2702 
Q 2975 2913 2975 3322 
Q 2975 3731 2742 3939 
Q 2509 4147 2053 4147 
L 1259 4147 
z
" transform="scale(0.015625)"/>
       <path id="DejaVuSans-6f" d="M 1959 3097 
Q 1497 3097 1228 2736 
Q 959 2375 959 1747 
Q 959 1119 1226 758 
Q 1494 397 1959 397 
Q 2419 397 2687 759 
Q 2956 1122 2956 1747 
Q 2956 2369 2687 2733 
Q 2419 3097 1959 3097 
z
M 1959 3584 
Q 2709 3584 3137 3096 
Q 3566 2609 3566 1747 
Q 3566 888 3137 398 
Q 2709 -91 1959 -91 
Q 1206 -91 779 398 
Q 353 888 353 1747 
Q 353 2609 779 3096 
Q 1206 3584 1959 3584 
z
" transform="scale(0.015625)"/>
       <path id="DejaVuSans-75" d="M 544 1381 
L 544 3500 
L 1119 3500 
L 1119 1403 
Q 1119 906 1312 657 
Q 1506 409 1894 409 
Q 2359 409 2629 706 
Q 2900 1003 2900 1516 
L 2900 3500 
L 3475 3500 
L 3475 0 
L 2900 0 
L 2900 538 
Q 2691 219 2414 64 
Q 2138 -91 1772 -91 
Q 1169 -91 856 284 
Q 544 659 544 1381 
z
M 1991 3584 
L 1991 3584 
z
" transform="scale(0.015625)"/>
       <path id="DejaVuSans-6e" d="M 3513 2113 
L 3513 0 
L 2938 0 
L 2938 2094 
Q 2938 2591 2744 2837 
Q 2550 3084 2163 3084 
Q 1697 3084 1428 2787 
Q 1159 2491 1159 1978 
L 1159 0 
L 581 0 
L 581 3500 
L 1159 3500 
L 1159 2956 
Q 1366 3272 1645 3428 
Q 1925 3584 2291 3584 
Q 2894 3584 3203 3211 
Q 3513 2838 3513 2113 
z
" transform="scale(0.015625)"/>
       <path id="DejaVuSans-64" d="M 2906 2969 
L 2906 4863 
L 3481 4863 
L 3481 0 
L 2906 0 
L 2906 525 
Q 2725 213 2448 61 
Q 2172 -91 1784 -91 
Q 1150 -91 751 415 
Q 353 922 353 1747 
Q 353 2572 751 3078 
Q 1150 3584 1784 3584 
Q 2172 3584 2448 3432 
Q 2725 3281 2906 2969 
z
M 947 1747 
Q 947 1113 1208 752 
Q 1469 391 1925 391 
Q 2381 391 2643 752 
Q 2906 1113 2906 1747 
Q 2906 2381 2643 2742 
Q 2381 3103 1925 3103 
Q 1469 3103 1208 2742 
Q 947 2381 947 1747 
z
" transform="scale(0.015625)"/>
      </defs>
      <use xlink:href="#DejaVuSans-52"/>
      <use xlink:href="#DejaVuSans-6f" x="64.982422"/>
      <use xlink:href="#DejaVuSans-75" x="126.164062"/>
      <use xlink:href="#DejaVuSans-6e" x="189.542969"/>
      <use xlink:href="#DejaVuSans-64" x="252.921875"/>
     </g>
    </g>
   </g>
   <g id="matplotlib.axis_2">
    <g id="ytick_1">
     <g id="line2d_23">
      <path d="M 47.1 510.915225 
L 581.98 510.915225 
" clip-path="url(#p6ca2334f5f)" style="fill: none; stroke-dasharray: 1.85,0.8; stroke-dashoffset: 0; stroke: #b2b2b2; stroke-width: 0.5"/>
     </g>
     <g id="line2d_24">
      <defs>
       <path id="m1abd9d319d" d="M 0 0 
L 3.5 0 
" style="stroke: #000000; stroke-width: 0.8"/>
      </defs>
      <g>
       <use xlink:href="#m1abd9d319d" x="47.1" y="510.915225" style="stroke: #000000; stroke-width: 0.8"/>
      </g>
     </g>
     <g id="text_13">
      <!-- 0.1 -->
      <g transform="translate(27.696875 514.714444) scale(0.1 -0.1)">
       <defs>
        <path id="DejaVuSans-2e" d="M 684 794 
L 1344 794 
L 1344 0 
L 684 0 
L 684 794 
z
" transform="scale(0.015625)"/>
       </defs>
       <use xlink:href="#DejaVuSans-30"/>
       <use xlink:href="#DejaVuSans-2e" x="63.623047"/>
       <use xlink:href="#DejaVuSans-31" x="95.410156"/>
      </g>
     </g>
    </g>
    <g id="ytick_2">
     <g id="line2d_25">
      <path d="M 47.1 427.942674 
L 581.98 427.942674 
" clip-path="url(#p6ca2334f5f)" style="fill: none; stroke-dasharray: 1.85,0.8; stroke-dashoffset: 0; stroke: #b2b2b2; stroke-width: 0.5"/>
     </g>
     <g id="line2d_26">
      <g>
       <use xlink:href="#m1abd9d319d" x="47.1" y="427.942674" style="stroke: #000000; stroke-width: 0.8"/>
      </g>
     </g>
     <g id="text_14">
      <!-- 0.2 -->
      <g transform="translate(27.696875 431.741892) scale(0.1 -0.1)">
       <use xlink:href="#DejaVuSans-30"/>
       <use xlink:href="#DejaVuSans-2e" x="63.623047"/>
       <use xlink:href="#DejaVuSans-32" x="95.410156"/>
      </g>
     </g>
    </g>
    <g id="ytick_3">
     <g id="line2d_27">
      <path d="M 47.1 344.970122 
L 581.98 344.970122 
" clip-path="url(#p6ca2334f5f)" style="fill: none; stroke-dasharray: 1.85,0.8; stroke-dashoffset: 0; stroke: #b2b2b2; stroke-width: 0.5"/>
     </g>
     <g id="line2d_28">
      <g>
       <use xlink:href="#m1abd9d319d" x="47.1" y="344.970122" style="stroke: #000000; stroke-width: 0.8"/>
      </g>
     </g>
     <g id="text_15">
      <!-- 0.3 -->
      <g transform="translate(27.696875 348.769341) scale(0.1 -0.1)">
       <use xlink:href="#DejaVuSans-30"/>
       <use xlink:href="#DejaVuSans-2e" x="63.623047"/>
       <use xlink:href="#DejaVuSans-33" x="95.410156"/>
      </g>
     </g>
    </g>
    <g id="ytick_4">
     <g id="line2d_29">
      <path d="M 47.1 261.99757 
L 581.98 261.99757 
" clip-path="url(#p6ca2334f5f)" style="fill: none; stroke-dasharray: 1.85,0.8; stroke-dashoffset: 0; stroke: #b2b2b2; stroke-width: 0.5"/>
     </g>
     <g id="line2d_30">
      <g>
       <use xlink:href="#m1abd9d319d" x="47.1" y="261.99757" style="stroke: #000000; stroke-width: 0.8"/>
      </g>
     </g>
     <g id="text_16">
      <!-- 0.4 -->
      <g transform="translate(27.696875 265.796789) scale(0.1 -0.1)">
       <use xlink:href="#DejaVuSans-30"/>
       <use xlink:href="#DejaVuSans-2e" x="63.623047"/>
       <use xlink:href="#DejaVuSans-34" x="95.410156"/>
      </g>
     </g>
    </g>
    <g id="ytick_5">
     <g id="line2d_31">
      <path d="M 47.1 179.025018 
L 581.98 179.025018 
" clip-path="url(#p6ca2334f5f)" style="fill: none; stroke-dasharray: 1.85,0.8; stroke-dashoffset: 0; stroke: #b2b2b2; stroke-width: 0.5"/>
     </g>
     <g id="line2d_32">
      <g>
       <use xlink:href="#m1abd9d319d" x="47.1" y="179.025018" style="stroke: #000000; stroke-width: 0.8"/>
      </g>
     </g>
     <g id="text_17">
      <!-- 0.5 -->
      <g transform="translate(27.696875 182.824237) scale(0.1 -0.1)">
       <defs>
        <path id="DejaVuSans-35" d="M 691 4666 
L 3169 4666 
L 3169 4134 
L 1269 4134 
L 1269 2991 
Q 1406 3038 1543 3061 
Q 1681 3084 1819 3084 
Q 2600 3084 3056 2656 
Q 3513 2228 3513 1497 
Q 3513 744 3044 326 
Q 2575 -91 1722 -91 
Q 1428 -91 1123 -41 
Q 819 9 494 109 
L 494 744 
Q 775 591 1075 516 
Q 1375 441 1709 441 
Q 2250 441 2565 725 
Q 2881 1009 2881 1497 
Q 2881 1984 2565 2268 
Q 2250 2553 1709 2553 
Q 1456 2553 1204 2497 
Q 953 2441 691 2322 
L 691 4666 
z
" transform="scale(0.015625)"/>
       </defs>
       <use xlink:href="#DejaVuSans-30"/>
       <use xlink:href="#DejaVuSans-2e" x="63.623047"/>
       <use xlink:href="#DejaVuSans-35" x="95.410156"/>
      </g>
     </g>
    </g>
    <g id="ytick_6">
     <g id="line2d_33">
      <path d="M 47.1 96.052466 
L 581.98 96.052466 
" clip-path="url(#p6ca2334f5f)" style="fill: none; stroke-dasharray: 1.85,0.8; stroke-dashoffset: 0; stroke: #b2b2b2; stroke-width: 0.5"/>
     </g>
     <g id="line2d_34">
      <g>
       <use xlink:href="#m1abd9d319d" x="47.1" y="96.052466" style="stroke: #000000; stroke-width: 0.8"/>
      </g>
     </g>
     <g id="text_18">
      <!-- 0.6 -->
      <g transform="translate(27.696875 99.851685) scale(0.1 -0.1)">
       <use xlink:href="#DejaVuSans-30"/>
       <use xlink:href="#DejaVuSans-2e" x="63.623047"/>
       <use xlink:href="#DejaVuSans-36" x="95.410156"/>
      </g>
     </g>
    </g>
    <g id="text_19">
     <!-- Accuracy -->
     <g transform="translate(21.20125 326.16375) rotate(-90) scale(0.12 -0.12)">
      <defs>
       <path id="DejaVuSans-41" d="M 2188 4044 
L 1331 1722 
L 3047 1722 
L 2188 4044 
z
M 1831 4666 
L 2547 4666 
L 4325 0 
L 3669 0 
L 3244 1197 
L 1141 1197 
L 716 0 
L 50 0 
L 1831 4666 
z
" transform="scale(0.015625)"/>
       <path id="DejaVuSans-63" d="M 3122 3366 
L 3122 2828 
Q 2878 2963 2633 3030 
Q 2388 3097 2138 3097 
Q 1578 3097 1268 2742 
Q 959 2388 959 1747 
Q 959 1106 1268 751 
Q 1578 397 2138 397 
Q 2388 397 2633 464 
Q 2878 531 3122 666 
L 3122 134 
Q 2881 22 2623 -34 
Q 2366 -91 2075 -91 
Q 1284 -91 818 406 
Q 353 903 353 1747 
Q 353 2603 823 3093 
Q 1294 3584 2113 3584 
Q 2378 3584 2631 3529 
Q 2884 3475 3122 3366 
z
" transform="scale(0.015625)"/>
       <path id="DejaVuSans-72" d="M 2631 2963 
Q 2534 3019 2420 3045 
Q 2306 3072 2169 3072 
Q 1681 3072 1420 2755 
Q 1159 2438 1159 1844 
L 1159 0 
L 581 0 
L 581 3500 
L 1159 3500 
L 1159 2956 
Q 1341 3275 1631 3429 
Q 1922 3584 2338 3584 
Q 2397 3584 2469 3576 
Q 2541 3569 2628 3553 
L 2631 2963 
z
" transform="scale(0.015625)"/>
       <path id="DejaVuSans-61" d="M 2194 1759 
Q 1497 1759 1228 1600 
Q 959 1441 959 1056 
Q 959 750 1161 570 
Q 1363 391 1709 391 
Q 2188 391 2477 730 
Q 2766 1069 2766 1631 
L 2766 1759 
L 2194 1759 
z
M 3341 1997 
L 3341 0 
L 2766 0 
L 2766 531 
Q 2569 213 2275 61 
Q 1981 -91 1556 -91 
Q 1019 -91 701 211 
Q 384 513 384 1019 
Q 384 1609 779 1909 
Q 1175 2209 1959 2209 
L 2766 2209 
L 2766 2266 
Q 2766 2663 2505 2880 
Q 2244 3097 1772 3097 
Q 1472 3097 1187 3025 
Q 903 2953 641 2809 
L 641 3341 
Q 956 3463 1253 3523 
Q 1550 3584 1831 3584 
Q 2591 3584 2966 3190 
Q 3341 2797 3341 1997 
z
" transform="scale(0.015625)"/>
       <path id="DejaVuSans-79" d="M 2059 -325 
Q 1816 -950 1584 -1140 
Q 1353 -1331 966 -1331 
L 506 -1331 
L 506 -850 
L 844 -850 
Q 1081 -850 1212 -737 
Q 1344 -625 1503 -206 
L 1606 56 
L 191 3500 
L 800 3500 
L 1894 763 
L 2988 3500 
L 3597 3500 
L 2059 -325 
z
" transform="scale(0.015625)"/>
      </defs>
      <use xlink:href="#DejaVuSans-41"/>
      <use xlink:href="#DejaVuSans-63" x="66.658203"/>
      <use xlink:href="#DejaVuSans-63" x="121.638672"/>
      <use xlink:href="#DejaVuSans-75" x="176.619141"/>
      <use xlink:href="#DejaVuSans-72" x="239.998047"/>
      <use xlink:href="#DejaVuSans-61" x="281.111328"/>
      <use xlink:href="#DejaVuSans-63" x="342.390625"/>
      <use xlink:href="#DejaVuSans-79" x="397.371094"/>
     </g>
    </g>
   </g>
   <g id="line2d_35">
    <path d="M 71.412727 513.215455 
L 73.038997 510.407451 
L 74.665266 508.068248 
L 76.291535 504.48361 
L 77.917805 493.014592 
L 79.544074 453.312715 
L 81.170344 432.828889 
L 82.796613 432.780777 
L 84.422882 423.516976 
L 86.049152 433.391732 
L 87.675421 432.022141 
L 89.30169 421.955332 
L 90.92796 417.285241 
L 92.554229 397.906215 
L 94.180499 397.761962 
L 95.806768 384.231328 
L 99.059307 370.132512 
L 100.685576 361.503695 
L 102.311846 357.93727 
L 103.938115 345.76147 
L 105.564384 336.058522 
L 107.190654 334.721347 
L 108.816923 326.301298 
L 110.443192 325.712402 
L 112.069462 309.612458 
L 113.695731 302.720971 
L 115.322001 291.829209 
L 116.94827 292.340209 
L 118.574539 291.691616 
L 121.827078 272.835969 
L 123.453348 275.108904 
L 125.079617 265.967004 
L 126.705886 273.603011 
L 128.332156 266.546456 
L 129.958425 261.076546 
L 131.584694 260.969655 
L 133.210964 257.368039 
L 134.837233 247.466529 
L 136.463503 244.079654 
L 138.089772 245.201647 
L 139.716041 245.930044 
L 141.342311 241.315146 
L 142.96858 244.132561 
L 144.594849 239.482064 
L 146.221119 237.444468 
L 147.847388 234.556979 
L 149.473658 240.280155 
L 151.099927 224.496124 
L 152.726196 239.412127 
L 154.352466 229.641004 
L 155.978735 225.761706 
L 157.605005 222.480529 
L 159.231274 215.875532 
L 160.857543 213.899497 
L 162.483813 221.817014 
L 164.110082 218.732799 
L 165.736351 211.983829 
L 167.362621 213.803976 
L 168.98889 212.951761 
L 170.61516 210.078438 
L 172.241429 212.697782 
L 173.867698 202.678104 
L 175.493968 201.114064 
L 177.120237 198.82251 
L 178.746507 195.21621 
L 180.372776 192.560424 
L 181.999045 191.328304 
L 183.625315 184.144601 
L 185.251584 194.047926 
L 186.877853 188.324343 
L 188.504123 192.642344 
L 190.130392 188.822671 
L 191.756662 178.332694 
L 193.382931 177.497625 
L 195.0092 181.59464 
L 196.63547 175.836174 
L 198.261739 175.28895 
L 199.888009 171.434084 
L 201.514278 166.844584 
L 203.140547 167.385195 
L 204.766817 165.250898 
L 206.393086 177.039841 
L 208.019355 168.944211 
L 209.645625 167.128658 
L 211.271894 171.301993 
L 212.898164 165.700742 
L 214.524433 165.48508 
L 216.150702 158.899774 
L 217.776972 157.126617 
L 219.403241 149.789796 
L 221.02951 153.422059 
L 222.65578 153.334012 
L 224.282049 148.390161 
L 225.908319 149.14913 
L 227.534588 157.374444 
L 229.160857 148.537337 
L 230.787127 152.110268 
L 232.413396 147.467426 
L 234.039666 150.66648 
L 235.665935 144.417851 
L 237.292204 144.144483 
L 238.918474 140.370524 
L 240.544743 143.039787 
L 242.171012 138.741167 
L 243.797282 149.279907 
L 245.423551 142.223653 
L 247.049821 142.295995 
L 248.67609 144.067774 
L 250.302359 135.524504 
L 251.928629 138.206467 
L 253.554898 126.433036 
L 255.181168 139.884685 
L 256.807437 130.54044 
L 258.433706 127.685752 
L 260.059976 127.571622 
L 261.686245 133.694644 
L 263.312514 133.306957 
L 264.938784 132.468856 
L 266.565053 139.008934 
L 268.191323 135.108989 
L 269.817592 124.809254 
L 271.443861 121.443423 
L 273.070131 129.861486 
L 274.6964 135.669388 
L 276.32267 125.04272 
L 277.948939 127.451232 
L 279.575208 122.994899 
L 281.201478 113.487796 
L 282.827747 118.039509 
L 284.454016 121.184712 
L 286.080286 113.070041 
L 287.706555 124.268191 
L 289.332825 117.284998 
L 290.959094 120.689659 
L 292.585363 114.052775 
L 294.211633 118.221076 
L 295.837902 114.170962 
L 297.464171 116.753541 
L 299.090441 118.828058 
L 300.71671 115.419222 
L 302.34298 123.03223 
L 303.969249 118.026612 
L 305.595518 120.345937 
L 308.848057 108.693533 
L 310.474327 109.845548 
L 312.100596 114.543438 
L 313.726865 114.00082 
L 315.353135 106.680896 
L 316.979404 114.145846 
L 318.605673 107.718754 
L 320.231943 104.29419 
L 321.858212 105.499662 
L 323.484482 110.203428 
L 325.110751 103.243265 
L 326.73702 101.233846 
L 328.36329 111.106675 
L 329.989559 104.943045 
L 331.615829 108.126538 
L 333.242098 102.929471 
L 334.868367 104.853719 
L 336.494637 107.308762 
L 338.120906 99.759887 
L 339.747175 101.003196 
L 341.373445 104.638374 
L 342.999714 97.786774 
L 344.625984 103.673916 
L 346.252253 102.224369 
L 347.878522 103.035289 
L 349.504792 103.370949 
L 351.131061 109.530049 
L 352.75733 100.663904 
L 354.3836 103.678039 
L 356.009869 99.239214 
L 357.636139 102.490577 
L 359.262408 95.605284 
L 360.888677 92.880404 
L 362.514947 95.120758 
L 364.141216 92.162664 
L 365.767486 99.035323 
L 367.393755 102.987166 
L 369.020024 102.665297 
L 370.646294 107.829216 
L 372.272563 91.330599 
L 373.898832 93.923693 
L 375.525102 94.817111 
L 377.151371 97.859534 
L 378.777641 97.192513 
L 380.40391 105.194813 
L 382.030179 94.40354 
L 383.656449 107.704218 
L 385.282718 93.570375 
L 386.908988 95.913483 
L 388.535257 103.151468 
L 390.161526 96.055615 
L 391.787796 94.346731 
L 393.414065 95.332368 
L 395.040334 97.196557 
L 396.666604 94.322685 
L 398.292873 88.570828 
L 399.919143 96.816918 
L 401.545412 99.851898 
L 403.171681 90.913823 
L 404.797951 95.301629 
L 406.42422 94.200909 
L 408.05049 95.847596 
L 409.676759 91.761792 
L 411.303028 93.643647 
L 412.929298 91.119553 
L 414.555567 84.324545 
L 416.181836 94.644874 
L 417.808106 87.642212 
L 419.434375 87.506574 
L 421.060645 87.930597 
L 422.686914 91.056192 
L 424.313183 95.500435 
L 425.939453 96.060878 
L 427.565722 94.608585 
L 429.191991 90.128407 
L 430.818261 99.405481 
L 432.44453 90.93737 
L 434.0708 93.520391 
L 435.697069 87.269213 
L 437.323338 93.399731 
L 438.949608 93.685349 
L 440.575877 91.264305 
L 442.202147 87.757568 
L 443.828416 89.374922 
L 445.454685 92.979409 
L 447.080955 86.547364 
L 448.707224 99.630327 
L 450.333493 103.86755 
L 451.959763 93.965874 
L 453.586032 88.820901 
L 455.212302 89.91448 
L 456.838571 93.177627 
L 458.46484 92.578831 
L 460.09111 96.219462 
L 461.717379 93.082685 
L 463.343649 93.348556 
L 464.969918 93.906157 
L 466.596187 88.984039 
L 468.222457 95.260304 
L 469.848726 97.439084 
L 471.474995 104.753697 
L 473.101265 90.867353 
L 474.727534 88.026412 
L 476.353804 93.819262 
L 477.980073 92.568795 
L 479.606342 85.480071 
L 481.232612 95.001299 
L 484.485151 87.218919 
L 486.11142 93.257299 
L 487.737689 92.992166 
L 489.363959 92.267351 
L 490.990228 84.859312 
L 492.616497 91.858091 
L 494.242767 91.052046 
L 495.869036 93.104372 
L 497.495306 88.913472 
L 499.121575 91.951449 
L 500.747844 93.824848 
L 502.374114 93.945937 
L 504.000383 88.996066 
L 505.626652 92.604613 
L 507.252922 85.048872 
L 508.879191 91.000577 
L 510.505461 94.008626 
L 512.13173 90.999421 
L 513.757999 96.271801 
L 515.384269 90.619782 
L 517.010538 94.575482 
L 518.636808 85.210372 
L 520.263077 86.372335 
L 521.889346 92.655126 
L 523.515616 105.516438 
L 525.141885 96.578806 
L 526.768154 94.377079 
L 528.394424 89.127438 
L 530.020693 92.77297 
L 531.646963 91.530951 
L 533.273232 92.029044 
L 534.899501 93.226083 
L 536.525771 89.982275 
L 538.15204 92.303004 
L 539.77831 91.899522 
L 541.404579 94.273419 
L 543.030848 101.225141 
L 544.657118 91.788888 
L 546.283387 91.52758 
L 547.909656 95.431966 
L 549.535926 87.38525 
L 551.162195 91.253608 
L 552.788465 93.393521 
L 554.414734 92.318419 
L 556.041003 90.116327 
L 557.667273 95.877787 
L 557.667273 95.877787 
" clip-path="url(#p6ca2334f5f)" style="fill: none; stroke: #348abd; stroke-width: 2; stroke-linecap: square"/>
   </g>
   <g id="line2d_36">
    <path d="M 71.412727 506.971975 
L 73.038997 502.664195 
L 74.665266 502.141984 
L 76.291535 490.926584 
L 77.917805 490.068478 
L 79.544074 486.003338 
L 81.170344 469.973746 
L 82.796613 463.996474 
L 84.422882 469.202192 
L 86.049152 467.065389 
L 87.675421 455.598701 
L 89.30169 451.528964 
L 90.92796 444.909579 
L 92.554229 434.203565 
L 94.180499 436.383306 
L 95.806768 427.889774 
L 97.433037 409.295522 
L 99.059307 404.439354 
L 100.685576 388.919046 
L 102.311846 382.132966 
L 103.938115 366.445444 
L 105.564384 366.965322 
L 107.190654 358.453931 
L 108.816923 355.860269 
L 110.443192 346.485706 
L 112.069462 335.004248 
L 113.695731 338.885345 
L 115.322001 325.12005 
L 116.94827 320.558641 
L 118.574539 313.016033 
L 120.200809 307.100649 
L 121.827078 302.131072 
L 123.453348 282.186934 
L 125.079617 284.335844 
L 126.705886 270.942292 
L 128.332156 275.900168 
L 129.958425 263.896659 
L 131.584694 262.75119 
L 133.210964 259.631522 
L 134.837233 260.365081 
L 136.463503 257.675152 
L 138.089772 256.665084 
L 139.716041 252.93625 
L 141.342311 247.143182 
L 142.96858 242.80476 
L 144.594849 242.034811 
L 146.221119 240.323108 
L 147.847388 236.969928 
L 149.473658 233.084276 
L 151.099927 239.054602 
L 152.726196 239.46766 
L 154.352466 224.150638 
L 155.978735 229.638625 
L 157.605005 227.382747 
L 159.231274 228.56027 
L 160.857543 229.504667 
L 162.483813 220.744364 
L 164.110082 223.419099 
L 165.736351 211.373376 
L 168.98889 217.460995 
L 170.61516 217.932933 
L 172.241429 216.344954 
L 173.867698 211.046911 
L 177.120237 207.268877 
L 178.746507 204.619011 
L 180.372776 208.068204 
L 181.999045 205.149689 
L 183.625315 205.858695 
L 185.251584 193.877866 
L 186.877853 194.765691 
L 188.504123 197.139966 
L 190.130392 194.332054 
L 191.756662 196.422441 
L 193.382931 186.013328 
L 195.0092 186.974178 
L 196.63547 190.211894 
L 198.261739 183.200026 
L 199.888009 182.045591 
L 201.514278 184.930863 
L 203.140547 179.137734 
L 204.766817 181.520803 
L 206.393086 178.261184 
L 208.019355 179.507276 
L 209.645625 180.210783 
L 211.271894 179.38604 
L 212.898164 166.338283 
L 214.524433 169.660678 
L 216.150702 176.480306 
L 217.776972 171.978524 
L 219.403241 173.255827 
L 221.02951 157.531176 
L 222.65578 165.649166 
L 224.282049 162.775947 
L 225.908319 160.697221 
L 227.534588 164.125821 
L 229.160857 160.516425 
L 230.787127 153.816556 
L 232.413396 158.468431 
L 234.039666 160.136871 
L 235.665935 157.501134 
L 237.292204 156.508469 
L 238.918474 154.352121 
L 240.544743 151.568224 
L 242.171012 151.576685 
L 243.797282 150.847212 
L 245.423551 150.579151 
L 247.049821 143.692622 
L 248.67609 150.98209 
L 250.302359 148.270572 
L 251.928629 148.336403 
L 253.554898 131.832034 
L 255.181168 143.178386 
L 256.807437 141.104804 
L 258.433706 142.724527 
L 260.059976 132.868441 
L 261.686245 136.216787 
L 263.312514 144.752638 
L 264.938784 142.526045 
L 266.565053 139.945324 
L 268.191323 139.377464 
L 269.817592 139.096953 
L 271.443861 140.736568 
L 273.070131 133.843479 
L 274.6964 142.241476 
L 276.32267 136.487451 
L 277.948939 137.42341 
L 279.575208 133.82321 
L 281.201478 132.073718 
L 282.827747 123.990651 
L 284.454016 130.58737 
L 286.080286 124.162578 
L 287.706555 124.840682 
L 289.332825 130.416753 
L 290.959094 133.143279 
L 292.585363 127.3603 
L 294.211633 124.128965 
L 295.837902 127.209506 
L 297.464171 121.329646 
L 299.090441 121.023198 
L 300.71671 123.507172 
L 302.34298 122.033097 
L 303.969249 124.052935 
L 305.595518 130.697937 
L 307.221788 124.211915 
L 308.848057 124.835467 
L 310.474327 118.791911 
L 312.100596 117.32999 
L 313.726865 122.76515 
L 315.353135 126.001918 
L 318.605673 121.062444 
L 320.231943 117.619553 
L 321.858212 122.681375 
L 323.484482 122.278112 
L 325.110751 123.283916 
L 326.73702 121.711499 
L 328.36329 116.826978 
L 329.989559 115.90588 
L 331.615829 114.096303 
L 333.242098 113.244977 
L 334.868367 113.535919 
L 336.494637 112.616408 
L 338.120906 119.427106 
L 339.747175 116.888738 
L 341.373445 108.595787 
L 342.999714 108.088064 
L 344.625984 112.000556 
L 346.252253 106.606017 
L 347.878522 115.229087 
L 349.504792 121.550496 
L 351.131061 110.085899 
L 352.75733 108.887266 
L 354.3836 110.376722 
L 356.009869 107.114395 
L 357.636139 111.38099 
L 359.262408 112.032495 
L 360.888677 114.198191 
L 362.514947 108.271115 
L 364.141216 106.129877 
L 365.767486 108.544466 
L 367.393755 111.904453 
L 369.020024 108.060923 
L 370.646294 117.286302 
L 372.272563 110.657229 
L 373.898832 105.896739 
L 375.525102 114.329801 
L 377.151371 105.738997 
L 378.777641 105.293038 
L 380.40391 111.699426 
L 382.030179 106.354363 
L 383.656449 107.637211 
L 385.282718 105.400729 
L 386.908988 108.69779 
L 388.535257 107.366896 
L 390.161526 107.808819 
L 391.787796 110.079387 
L 395.040334 102.383737 
L 396.666604 106.061568 
L 398.292873 108.265904 
L 399.919143 107.360691 
L 401.545412 107.905381 
L 403.171681 102.541972 
L 404.797951 108.744727 
L 406.42422 111.635681 
L 408.05049 108.344696 
L 409.676759 103.932696 
L 411.303028 108.785775 
L 412.929298 109.507114 
L 414.555567 108.786972 
L 416.181836 111.288979 
L 417.808106 105.135793 
L 419.434375 103.861153 
L 421.060645 105.3744 
L 422.686914 108.533768 
L 424.313183 100.832771 
L 425.939453 104.389554 
L 427.565722 110.881099 
L 429.191991 105.332304 
L 430.818261 112.276292 
L 432.44453 108.009048 
L 434.0708 102.206296 
L 435.697069 105.144264 
L 437.323338 107.53019 
L 438.949608 111.670311 
L 440.575877 108.643322 
L 442.202147 109.752514 
L 443.828416 102.467991 
L 445.454685 107.576432 
L 447.080955 107.861359 
L 448.707224 106.345878 
L 450.333493 109.136298 
L 451.959763 106.259398 
L 453.586032 104.117053 
L 455.212302 98.791938 
L 456.838571 109.164527 
L 458.46484 106.498651 
L 460.09111 117.147028 
L 461.717379 105.868763 
L 463.343649 104.302392 
L 464.969918 103.532818 
L 466.596187 106.365863 
L 468.222457 100.363078 
L 471.474995 96.417083 
L 473.101265 97.032525 
L 474.727534 109.147969 
L 476.353804 111.415566 
L 477.980073 107.316394 
L 479.606342 109.487777 
L 481.232612 103.728602 
L 482.858881 105.163178 
L 484.485151 110.548637 
L 486.11142 102.47516 
L 487.737689 103.905021 
L 489.363959 109.123213 
L 490.990228 104.478108 
L 492.616497 111.282592 
L 494.242767 101.568032 
L 495.869036 100.416153 
L 497.495306 107.132477 
L 499.121575 101.79004 
L 500.747844 100.927881 
L 502.374114 100.523329 
L 504.000383 106.176478 
L 505.626652 109.409932 
L 507.252922 98.263483 
L 508.879191 108.355157 
L 510.505461 103.596652 
L 512.13173 110.317996 
L 513.757999 103.376807 
L 515.384269 100.450529 
L 517.010538 108.739534 
L 518.636808 103.553632 
L 520.263077 108.344696 
L 521.889346 107.310569 
L 523.515616 114.622038 
L 525.141885 102.533127 
L 526.768154 106.643206 
L 530.020693 100.863342 
L 531.646963 107.746955 
L 533.273232 101.758165 
L 534.899501 102.865217 
L 536.525771 103.239603 
L 538.15204 111.689456 
L 539.77831 108.676682 
L 541.404579 112.980664 
L 543.030848 100.908135 
L 544.657118 100.412634 
L 546.283387 107.992458 
L 547.909656 104.927593 
L 549.535926 107.271278 
L 551.162195 106.258939 
L 552.788465 110.656596 
L 554.414734 109.843773 
L 556.041003 113.834921 
L 557.667273 107.057247 
L 557.667273 107.057247 
" clip-path="url(#p6ca2334f5f)" style="fill: none; stroke: #a60628; stroke-width: 2; stroke-linecap: square"/>
   </g>
   <g id="patch_3">
    <path d="M 47.1 534.66 
L 47.1 62.88 
" style="fill: none; stroke: #bcbcbc; stroke-width: 0.8; stroke-linejoin: miter; stroke-linecap: square"/>
   </g>
   <g id="patch_4">
    <path d="M 581.98 534.66 
L 581.98 62.88 
" style="fill: none; stroke: #bcbcbc; stroke-width: 0.8; stroke-linejoin: miter; stroke-linecap: square"/>
   </g>
   <g id="patch_5">
    <path d="M 47.1 534.66 
L 581.98 534.66 
" style="fill: none; stroke: #bcbcbc; stroke-width: 0.8; stroke-linejoin: miter; stroke-linecap: square"/>
   </g>
   <g id="patch_6">
    <path d="M 47.1 62.88 
L 581.98 62.88 
" style="fill: none; stroke: #bcbcbc; stroke-width: 0.8; stroke-linejoin: miter; stroke-linecap: square"/>
   </g>
   <g id="text_20">
    <g id="patch_7">
     <path d="M 73.844 123.54275 
L 205.401813 123.54275 
Q 210.401813 123.54275 210.401813 118.54275 
L 210.401813 86.469 
Q 210.401813 81.469 205.401813 81.469 
L 73.844 81.469 
Q 68.844 81.469 68.844 86.469 
L 68.844 118.54275 
Q 68.844 123.54275 73.844 123.54275 
z
" style="fill: #d3d3d3; stroke: #000000; stroke-width: 0.5; stroke-linejoin: miter"/>
    </g>
    <!-- Num Server Rounds: 1600 -->
    <g transform="translate(73.844 94.067437) scale(0.1 -0.1)">
     <defs>
      <path id="DejaVuSans-4e" d="M 628 4666 
L 1478 4666 
L 3547 763 
L 3547 4666 
L 4159 4666 
L 4159 0 
L 3309 0 
L 1241 3903 
L 1241 0 
L 628 0 
L 628 4666 
z
" transform="scale(0.015625)"/>
      <path id="DejaVuSans-6d" d="M 3328 2828 
Q 3544 3216 3844 3400 
Q 4144 3584 4550 3584 
Q 5097 3584 5394 3201 
Q 5691 2819 5691 2113 
L 5691 0 
L 5113 0 
L 5113 2094 
Q 5113 2597 4934 2840 
Q 4756 3084 4391 3084 
Q 3944 3084 3684 2787 
Q 3425 2491 3425 1978 
L 3425 0 
L 2847 0 
L 2847 2094 
Q 2847 2600 2669 2842 
Q 2491 3084 2119 3084 
Q 1678 3084 1418 2786 
Q 1159 2488 1159 1978 
L 1159 0 
L 581 0 
L 581 3500 
L 1159 3500 
L 1159 2956 
Q 1356 3278 1631 3431 
Q 1906 3584 2284 3584 
Q 2666 3584 2933 3390 
Q 3200 3197 3328 2828 
z
" transform="scale(0.015625)"/>
      <path id="DejaVuSans-20" transform="scale(0.015625)"/>
      <path id="DejaVuSans-53" d="M 3425 4513 
L 3425 3897 
Q 3066 4069 2747 4153 
Q 2428 4238 2131 4238 
Q 1616 4238 1336 4038 
Q 1056 3838 1056 3469 
Q 1056 3159 1242 3001 
Q 1428 2844 1947 2747 
L 2328 2669 
Q 3034 2534 3370 2195 
Q 3706 1856 3706 1288 
Q 3706 609 3251 259 
Q 2797 -91 1919 -91 
Q 1588 -91 1214 -16 
Q 841 59 441 206 
L 441 856 
Q 825 641 1194 531 
Q 1563 422 1919 422 
Q 2459 422 2753 634 
Q 3047 847 3047 1241 
Q 3047 1584 2836 1778 
Q 2625 1972 2144 2069 
L 1759 2144 
Q 1053 2284 737 2584 
Q 422 2884 422 3419 
Q 422 4038 858 4394 
Q 1294 4750 2059 4750 
Q 2388 4750 2728 4690 
Q 3069 4631 3425 4513 
z
" transform="scale(0.015625)"/>
      <path id="DejaVuSans-65" d="M 3597 1894 
L 3597 1613 
L 953 1613 
Q 991 1019 1311 708 
Q 1631 397 2203 397 
Q 2534 397 2845 478 
Q 3156 559 3463 722 
L 3463 178 
Q 3153 47 2828 -22 
Q 2503 -91 2169 -91 
Q 1331 -91 842 396 
Q 353 884 353 1716 
Q 353 2575 817 3079 
Q 1281 3584 2069 3584 
Q 2775 3584 3186 3129 
Q 3597 2675 3597 1894 
z
M 3022 2063 
Q 3016 2534 2758 2815 
Q 2500 3097 2075 3097 
Q 1594 3097 1305 2825 
Q 1016 2553 972 2059 
L 3022 2063 
z
" transform="scale(0.015625)"/>
      <path id="DejaVuSans-76" d="M 191 3500 
L 800 3500 
L 1894 563 
L 2988 3500 
L 3597 3500 
L 2284 0 
L 1503 0 
L 191 3500 
z
" transform="scale(0.015625)"/>
      <path id="DejaVuSans-73" d="M 2834 3397 
L 2834 2853 
Q 2591 2978 2328 3040 
Q 2066 3103 1784 3103 
Q 1356 3103 1142 2972 
Q 928 2841 928 2578 
Q 928 2378 1081 2264 
Q 1234 2150 1697 2047 
L 1894 2003 
Q 2506 1872 2764 1633 
Q 3022 1394 3022 966 
Q 3022 478 2636 193 
Q 2250 -91 1575 -91 
Q 1294 -91 989 -36 
Q 684 19 347 128 
L 347 722 
Q 666 556 975 473 
Q 1284 391 1588 391 
Q 1994 391 2212 530 
Q 2431 669 2431 922 
Q 2431 1156 2273 1281 
Q 2116 1406 1581 1522 
L 1381 1569 
Q 847 1681 609 1914 
Q 372 2147 372 2553 
Q 372 3047 722 3315 
Q 1072 3584 1716 3584 
Q 2034 3584 2315 3537 
Q 2597 3491 2834 3397 
z
" transform="scale(0.015625)"/>
      <path id="DejaVuSans-3a" d="M 750 794 
L 1409 794 
L 1409 0 
L 750 0 
L 750 794 
z
M 750 3309 
L 1409 3309 
L 1409 2516 
L 750 2516 
L 750 3309 
z
" transform="scale(0.015625)"/>
     </defs>
     <use xlink:href="#DejaVuSans-4e"/>
     <use xlink:href="#DejaVuSans-75" x="74.804688"/>
     <use xlink:href="#DejaVuSans-6d" x="138.183594"/>
     <use xlink:href="#DejaVuSans-20" x="235.595703"/>
     <use xlink:href="#DejaVuSans-53" x="267.382812"/>
     <use xlink:href="#DejaVuSans-65" x="330.859375"/>
     <use xlink:href="#DejaVuSans-72" x="392.382812"/>
     <use xlink:href="#DejaVuSans-76" x="433.496094"/>
     <use xlink:href="#DejaVuSans-65" x="492.675781"/>
     <use xlink:href="#DejaVuSans-72" x="554.199219"/>
     <use xlink:href="#DejaVuSans-20" x="595.3125"/>
     <use xlink:href="#DejaVuSans-52" x="627.099609"/>
     <use xlink:href="#DejaVuSans-6f" x="692.082031"/>
     <use xlink:href="#DejaVuSans-75" x="753.263672"/>
     <use xlink:href="#DejaVuSans-6e" x="816.642578"/>
     <use xlink:href="#DejaVuSans-64" x="880.021484"/>
     <use xlink:href="#DejaVuSans-73" x="943.498047"/>
     <use xlink:href="#DejaVuSans-3a" x="995.597656"/>
     <use xlink:href="#DejaVuSans-20" x="1029.289062"/>
     <use xlink:href="#DejaVuSans-31" x="1061.076172"/>
     <use xlink:href="#DejaVuSans-36" x="1124.699219"/>
     <use xlink:href="#DejaVuSans-30" x="1188.322266"/>
     <use xlink:href="#DejaVuSans-30" x="1251.945312"/>
    </g>
    <!-- Local Epochs: 3 -->
    <g transform="translate(73.844 105.26525) scale(0.1 -0.1)">
     <defs>
      <path id="DejaVuSans-4c" d="M 628 4666 
L 1259 4666 
L 1259 531 
L 3531 531 
L 3531 0 
L 628 0 
L 628 4666 
z
" transform="scale(0.015625)"/>
      <path id="DejaVuSans-6c" d="M 603 4863 
L 1178 4863 
L 1178 0 
L 603 0 
L 603 4863 
z
" transform="scale(0.015625)"/>
      <path id="DejaVuSans-45" d="M 628 4666 
L 3578 4666 
L 3578 4134 
L 1259 4134 
L 1259 2753 
L 3481 2753 
L 3481 2222 
L 1259 2222 
L 1259 531 
L 3634 531 
L 3634 0 
L 628 0 
L 628 4666 
z
" transform="scale(0.015625)"/>
      <path id="DejaVuSans-70" d="M 1159 525 
L 1159 -1331 
L 581 -1331 
L 581 3500 
L 1159 3500 
L 1159 2969 
Q 1341 3281 1617 3432 
Q 1894 3584 2278 3584 
Q 2916 3584 3314 3078 
Q 3713 2572 3713 1747 
Q 3713 922 3314 415 
Q 2916 -91 2278 -91 
Q 1894 -91 1617 61 
Q 1341 213 1159 525 
z
M 3116 1747 
Q 3116 2381 2855 2742 
Q 2594 3103 2138 3103 
Q 1681 3103 1420 2742 
Q 1159 2381 1159 1747 
Q 1159 1113 1420 752 
Q 1681 391 2138 391 
Q 2594 391 2855 752 
Q 3116 1113 3116 1747 
z
" transform="scale(0.015625)"/>
      <path id="DejaVuSans-68" d="M 3513 2113 
L 3513 0 
L 2938 0 
L 2938 2094 
Q 2938 2591 2744 2837 
Q 2550 3084 2163 3084 
Q 1697 3084 1428 2787 
Q 1159 2491 1159 1978 
L 1159 0 
L 581 0 
L 581 4863 
L 1159 4863 
L 1159 2956 
Q 1366 3272 1645 3428 
Q 1925 3584 2291 3584 
Q 2894 3584 3203 3211 
Q 3513 2838 3513 2113 
z
" transform="scale(0.015625)"/>
     </defs>
     <use xlink:href="#DejaVuSans-4c"/>
     <use xlink:href="#DejaVuSans-6f" x="53.962891"/>
     <use xlink:href="#DejaVuSans-63" x="115.144531"/>
     <use xlink:href="#DejaVuSans-61" x="170.125"/>
     <use xlink:href="#DejaVuSans-6c" x="231.404297"/>
     <use xlink:href="#DejaVuSans-20" x="259.1875"/>
     <use xlink:href="#DejaVuSans-45" x="290.974609"/>
     <use xlink:href="#DejaVuSans-70" x="354.158203"/>
     <use xlink:href="#DejaVuSans-6f" x="417.634766"/>
     <use xlink:href="#DejaVuSans-63" x="478.816406"/>
     <use xlink:href="#DejaVuSans-68" x="533.796875"/>
     <use xlink:href="#DejaVuSans-73" x="597.175781"/>
     <use xlink:href="#DejaVuSans-3a" x="649.275391"/>
     <use xlink:href="#DejaVuSans-20" x="682.966797"/>
     <use xlink:href="#DejaVuSans-33" x="714.753906"/>
    </g>
    <!-- Num Supernodes: 200 -->
    <g transform="translate(73.844 116.463062) scale(0.1 -0.1)">
     <use xlink:href="#DejaVuSans-4e"/>
     <use xlink:href="#DejaVuSans-75" x="74.804688"/>
     <use xlink:href="#DejaVuSans-6d" x="138.183594"/>
     <use xlink:href="#DejaVuSans-20" x="235.595703"/>
     <use xlink:href="#DejaVuSans-53" x="267.382812"/>
     <use xlink:href="#DejaVuSans-75" x="330.859375"/>
     <use xlink:href="#DejaVuSans-70" x="394.238281"/>
     <use xlink:href="#DejaVuSans-65" x="457.714844"/>
     <use xlink:href="#DejaVuSans-72" x="519.238281"/>
     <use xlink:href="#DejaVuSans-6e" x="558.601562"/>
     <use xlink:href="#DejaVuSans-6f" x="621.980469"/>
     <use xlink:href="#DejaVuSans-64" x="683.162109"/>
     <use xlink:href="#DejaVuSans-65" x="746.638672"/>
     <use xlink:href="#DejaVuSans-73" x="808.162109"/>
     <use xlink:href="#DejaVuSans-3a" x="860.261719"/>
     <use xlink:href="#DejaVuSans-20" x="893.953125"/>
     <use xlink:href="#DejaVuSans-32" x="925.740234"/>
     <use xlink:href="#DejaVuSans-30" x="989.363281"/>
     <use xlink:href="#DejaVuSans-30" x="1052.986328"/>
    </g>
   </g>
   <g id="text_21">
    <!-- Partitioner: iid -->
    <g transform="translate(258.37 56.88) scale(0.16 -0.16)">
     <defs>
      <path id="DejaVuSans-50" d="M 1259 4147 
L 1259 2394 
L 2053 2394 
Q 2494 2394 2734 2622 
Q 2975 2850 2975 3272 
Q 2975 3691 2734 3919 
Q 2494 4147 2053 4147 
L 1259 4147 
z
M 628 4666 
L 2053 4666 
Q 2838 4666 3239 4311 
Q 3641 3956 3641 3272 
Q 3641 2581 3239 2228 
Q 2838 1875 2053 1875 
L 1259 1875 
L 1259 0 
L 628 0 
L 628 4666 
z
" transform="scale(0.015625)"/>
      <path id="DejaVuSans-74" d="M 1172 4494 
L 1172 3500 
L 2356 3500 
L 2356 3053 
L 1172 3053 
L 1172 1153 
Q 1172 725 1289 603 
Q 1406 481 1766 481 
L 2356 481 
L 2356 0 
L 1766 0 
Q 1100 0 847 248 
Q 594 497 594 1153 
L 594 3053 
L 172 3053 
L 172 3500 
L 594 3500 
L 594 4494 
L 1172 4494 
z
" transform="scale(0.015625)"/>
      <path id="DejaVuSans-69" d="M 603 3500 
L 1178 3500 
L 1178 0 
L 603 0 
L 603 3500 
z
M 603 4863 
L 1178 4863 
L 1178 4134 
L 603 4134 
L 603 4863 
z
" transform="scale(0.015625)"/>
     </defs>
     <use xlink:href="#DejaVuSans-50"/>
     <use xlink:href="#DejaVuSans-61" x="55.802734"/>
     <use xlink:href="#DejaVuSans-72" x="117.082031"/>
     <use xlink:href="#DejaVuSans-74" x="158.195312"/>
     <use xlink:href="#DejaVuSans-69" x="197.404297"/>
     <use xlink:href="#DejaVuSans-74" x="225.1875"/>
     <use xlink:href="#DejaVuSans-69" x="264.396484"/>
     <use xlink:href="#DejaVuSans-6f" x="292.179688"/>
     <use xlink:href="#DejaVuSans-6e" x="353.361328"/>
     <use xlink:href="#DejaVuSans-65" x="416.740234"/>
     <use xlink:href="#DejaVuSans-72" x="478.263672"/>
     <use xlink:href="#DejaVuSans-3a" x="517.626953"/>
     <use xlink:href="#DejaVuSans-20" x="551.318359"/>
     <use xlink:href="#DejaVuSans-69" x="583.105469"/>
     <use xlink:href="#DejaVuSans-69" x="610.888672"/>
     <use xlink:href="#DejaVuSans-64" x="638.671875"/>
    </g>
   </g>
   <g id="legend_1">
    <g id="patch_8">
     <path d="M 615.724 100.7925 
L 844.428687 100.7925 
Q 846.428687 100.7925 846.428687 98.7925 
L 846.428687 69.88 
Q 846.428687 67.88 844.428687 67.88 
L 615.724 67.88 
Q 613.724 67.88 613.724 69.88 
L 613.724 98.7925 
Q 613.724 100.7925 615.724 100.7925 
z
" style="fill: #eeeeee; opacity: 0.8; stroke: #cccccc; stroke-width: 0.5; stroke-linejoin: miter"/>
    </g>
    <g id="line2d_37">
     <path d="M 617.724 75.978437 
L 627.724 75.978437 
L 637.724 75.978437 
" style="fill: none; stroke: #348abd; stroke-width: 2; stroke-linecap: square"/>
    </g>
    <g id="text_22">
     <!-- v7\fed_avg-out - accuracy (Spline) -->
     <g transform="translate(645.724 79.478437) scale(0.1 -0.1)">
      <defs>
       <path id="DejaVuSans-37" d="M 525 4666 
L 3525 4666 
L 3525 4397 
L 1831 0 
L 1172 0 
L 2766 4134 
L 525 4134 
L 525 4666 
z
" transform="scale(0.015625)"/>
       <path id="DejaVuSans-5c" d="M 531 4666 
L 2156 -594 
L 1625 -594 
L 0 4666 
L 531 4666 
z
" transform="scale(0.015625)"/>
       <path id="DejaVuSans-66" d="M 2375 4863 
L 2375 4384 
L 1825 4384 
Q 1516 4384 1395 4259 
Q 1275 4134 1275 3809 
L 1275 3500 
L 2222 3500 
L 2222 3053 
L 1275 3053 
L 1275 0 
L 697 0 
L 697 3053 
L 147 3053 
L 147 3500 
L 697 3500 
L 697 3744 
Q 697 4328 969 4595 
Q 1241 4863 1831 4863 
L 2375 4863 
z
" transform="scale(0.015625)"/>
       <path id="DejaVuSans-5f" d="M 3263 -1063 
L 3263 -1509 
L -63 -1509 
L -63 -1063 
L 3263 -1063 
z
" transform="scale(0.015625)"/>
       <path id="DejaVuSans-67" d="M 2906 1791 
Q 2906 2416 2648 2759 
Q 2391 3103 1925 3103 
Q 1463 3103 1205 2759 
Q 947 2416 947 1791 
Q 947 1169 1205 825 
Q 1463 481 1925 481 
Q 2391 481 2648 825 
Q 2906 1169 2906 1791 
z
M 3481 434 
Q 3481 -459 3084 -895 
Q 2688 -1331 1869 -1331 
Q 1566 -1331 1297 -1286 
Q 1028 -1241 775 -1147 
L 775 -588 
Q 1028 -725 1275 -790 
Q 1522 -856 1778 -856 
Q 2344 -856 2625 -561 
Q 2906 -266 2906 331 
L 2906 616 
Q 2728 306 2450 153 
Q 2172 0 1784 0 
Q 1141 0 747 490 
Q 353 981 353 1791 
Q 353 2603 747 3093 
Q 1141 3584 1784 3584 
Q 2172 3584 2450 3431 
Q 2728 3278 2906 2969 
L 2906 3500 
L 3481 3500 
L 3481 434 
z
" transform="scale(0.015625)"/>
       <path id="DejaVuSans-2d" d="M 313 2009 
L 1997 2009 
L 1997 1497 
L 313 1497 
L 313 2009 
z
" transform="scale(0.015625)"/>
       <path id="DejaVuSans-28" d="M 1984 4856 
Q 1566 4138 1362 3434 
Q 1159 2731 1159 2009 
Q 1159 1288 1364 580 
Q 1569 -128 1984 -844 
L 1484 -844 
Q 1016 -109 783 600 
Q 550 1309 550 2009 
Q 550 2706 781 3412 
Q 1013 4119 1484 4856 
L 1984 4856 
z
" transform="scale(0.015625)"/>
       <path id="DejaVuSans-29" d="M 513 4856 
L 1013 4856 
Q 1481 4119 1714 3412 
Q 1947 2706 1947 2009 
Q 1947 1309 1714 600 
Q 1481 -109 1013 -844 
L 513 -844 
Q 928 -128 1133 580 
Q 1338 1288 1338 2009 
Q 1338 2731 1133 3434 
Q 928 4138 513 4856 
z
" transform="scale(0.015625)"/>
      </defs>
      <use xlink:href="#DejaVuSans-76"/>
      <use xlink:href="#DejaVuSans-37" x="59.179688"/>
      <use xlink:href="#DejaVuSans-5c" x="122.802734"/>
      <use xlink:href="#DejaVuSans-66" x="156.494141"/>
      <use xlink:href="#DejaVuSans-65" x="191.699219"/>
      <use xlink:href="#DejaVuSans-64" x="253.222656"/>
      <use xlink:href="#DejaVuSans-5f" x="316.699219"/>
      <use xlink:href="#DejaVuSans-61" x="366.699219"/>
      <use xlink:href="#DejaVuSans-76" x="427.978516"/>
      <use xlink:href="#DejaVuSans-67" x="487.158203"/>
      <use xlink:href="#DejaVuSans-2d" x="550.634766"/>
      <use xlink:href="#DejaVuSans-6f" x="588.59375"/>
      <use xlink:href="#DejaVuSans-75" x="649.775391"/>
      <use xlink:href="#DejaVuSans-74" x="713.154297"/>
      <use xlink:href="#DejaVuSans-20" x="752.363281"/>
      <use xlink:href="#DejaVuSans-2d" x="784.150391"/>
      <use xlink:href="#DejaVuSans-20" x="820.234375"/>
      <use xlink:href="#DejaVuSans-61" x="852.021484"/>
      <use xlink:href="#DejaVuSans-63" x="913.300781"/>
      <use xlink:href="#DejaVuSans-63" x="968.28125"/>
      <use xlink:href="#DejaVuSans-75" x="1023.261719"/>
      <use xlink:href="#DejaVuSans-72" x="1086.640625"/>
      <use xlink:href="#DejaVuSans-61" x="1127.753906"/>
      <use xlink:href="#DejaVuSans-63" x="1189.033203"/>
      <use xlink:href="#DejaVuSans-79" x="1244.013672"/>
      <use xlink:href="#DejaVuSans-20" x="1303.193359"/>
      <use xlink:href="#DejaVuSans-28" x="1334.980469"/>
      <use xlink:href="#DejaVuSans-53" x="1373.994141"/>
      <use xlink:href="#DejaVuSans-70" x="1437.470703"/>
      <use xlink:href="#DejaVuSans-6c" x="1500.947266"/>
      <use xlink:href="#DejaVuSans-69" x="1528.730469"/>
      <use xlink:href="#DejaVuSans-6e" x="1556.513672"/>
      <use xlink:href="#DejaVuSans-65" x="1619.892578"/>
      <use xlink:href="#DejaVuSans-29" x="1681.416016"/>
     </g>
    </g>
    <g id="line2d_38">
     <path d="M 617.724 90.934687 
L 627.724 90.934687 
L 637.724 90.934687 
" style="fill: none; stroke: #a60628; stroke-width: 2; stroke-linecap: square"/>
    </g>
    <g id="text_23">
     <!-- v7\fed_variance-out - accuracy (Spline) -->
     <g transform="translate(645.724 94.434687) scale(0.1 -0.1)">
      <use xlink:href="#DejaVuSans-76"/>
      <use xlink:href="#DejaVuSans-37" x="59.179688"/>
      <use xlink:href="#DejaVuSans-5c" x="122.802734"/>
      <use xlink:href="#DejaVuSans-66" x="156.494141"/>
      <use xlink:href="#DejaVuSans-65" x="191.699219"/>
      <use xlink:href="#DejaVuSans-64" x="253.222656"/>
      <use xlink:href="#DejaVuSans-5f" x="316.699219"/>
      <use xlink:href="#DejaVuSans-76" x="366.699219"/>
      <use xlink:href="#DejaVuSans-61" x="425.878906"/>
      <use xlink:href="#DejaVuSans-72" x="487.158203"/>
      <use xlink:href="#DejaVuSans-69" x="528.271484"/>
      <use xlink:href="#DejaVuSans-61" x="556.054688"/>
      <use xlink:href="#DejaVuSans-6e" x="617.333984"/>
      <use xlink:href="#DejaVuSans-63" x="680.712891"/>
      <use xlink:href="#DejaVuSans-65" x="735.693359"/>
      <use xlink:href="#DejaVuSans-2d" x="797.216797"/>
      <use xlink:href="#DejaVuSans-6f" x="835.175781"/>
      <use xlink:href="#DejaVuSans-75" x="896.357422"/>
      <use xlink:href="#DejaVuSans-74" x="959.736328"/>
      <use xlink:href="#DejaVuSans-20" x="998.945312"/>
      <use xlink:href="#DejaVuSans-2d" x="1030.732422"/>
      <use xlink:href="#DejaVuSans-20" x="1066.816406"/>
      <use xlink:href="#DejaVuSans-61" x="1098.603516"/>
      <use xlink:href="#DejaVuSans-63" x="1159.882812"/>
      <use xlink:href="#DejaVuSans-63" x="1214.863281"/>
      <use xlink:href="#DejaVuSans-75" x="1269.84375"/>
      <use xlink:href="#DejaVuSans-72" x="1333.222656"/>
      <use xlink:href="#DejaVuSans-61" x="1374.335938"/>
      <use xlink:href="#DejaVuSans-63" x="1435.615234"/>
      <use xlink:href="#DejaVuSans-79" x="1490.595703"/>
      <use xlink:href="#DejaVuSans-20" x="1549.775391"/>
      <use xlink:href="#DejaVuSans-28" x="1581.5625"/>
      <use xlink:href="#DejaVuSans-53" x="1620.576172"/>
      <use xlink:href="#DejaVuSans-70" x="1684.052734"/>
      <use xlink:href="#DejaVuSans-6c" x="1747.529297"/>
      <use xlink:href="#DejaVuSans-69" x="1775.3125"/>
      <use xlink:href="#DejaVuSans-6e" x="1803.095703"/>
      <use xlink:href="#DejaVuSans-65" x="1866.474609"/>
      <use xlink:href="#DejaVuSans-29" x="1927.998047"/>
     </g>
    </g>
   </g>
  </g>
  <g id="text_24">
   <!-- Accuracy by Round - archive/v7/ -->
   <g transform="translate(238.07625 18.23625) scale(0.24 -0.24)">
    <defs>
     <path id="DejaVuSans-62" d="M 3116 1747 
Q 3116 2381 2855 2742 
Q 2594 3103 2138 3103 
Q 1681 3103 1420 2742 
Q 1159 2381 1159 1747 
Q 1159 1113 1420 752 
Q 1681 391 2138 391 
Q 2594 391 2855 752 
Q 3116 1113 3116 1747 
z
M 1159 2969 
Q 1341 3281 1617 3432 
Q 1894 3584 2278 3584 
Q 2916 3584 3314 3078 
Q 3713 2572 3713 1747 
Q 3713 922 3314 415 
Q 2916 -91 2278 -91 
Q 1894 -91 1617 61 
Q 1341 213 1159 525 
L 1159 0 
L 581 0 
L 581 4863 
L 1159 4863 
L 1159 2969 
z
" transform="scale(0.015625)"/>
     <path id="DejaVuSans-2f" d="M 1625 4666 
L 2156 4666 
L 531 -594 
L 0 -594 
L 1625 4666 
z
" transform="scale(0.015625)"/>
    </defs>
    <use xlink:href="#DejaVuSans-41"/>
    <use xlink:href="#DejaVuSans-63" x="66.658203"/>
    <use xlink:href="#DejaVuSans-63" x="121.638672"/>
    <use xlink:href="#DejaVuSans-75" x="176.619141"/>
    <use xlink:href="#DejaVuSans-72" x="239.998047"/>
    <use xlink:href="#DejaVuSans-61" x="281.111328"/>
    <use xlink:href="#DejaVuSans-63" x="342.390625"/>
    <use xlink:href="#DejaVuSans-79" x="397.371094"/>
    <use xlink:href="#DejaVuSans-20" x="456.550781"/>
    <use xlink:href="#DejaVuSans-62" x="488.337891"/>
    <use xlink:href="#DejaVuSans-79" x="551.814453"/>
    <use xlink:href="#DejaVuSans-20" x="610.994141"/>
    <use xlink:href="#DejaVuSans-52" x="642.78125"/>
    <use xlink:href="#DejaVuSans-6f" x="707.763672"/>
    <use xlink:href="#DejaVuSans-75" x="768.945312"/>
    <use xlink:href="#DejaVuSans-6e" x="832.324219"/>
    <use xlink:href="#DejaVuSans-64" x="895.703125"/>
    <use xlink:href="#DejaVuSans-20" x="959.179688"/>
    <use xlink:href="#DejaVuSans-2d" x="990.966797"/>
    <use xlink:href="#DejaVuSans-20" x="1027.050781"/>
    <use xlink:href="#DejaVuSans-61" x="1058.837891"/>
    <use xlink:href="#DejaVuSans-72" x="1120.117188"/>
    <use xlink:href="#DejaVuSans-63" x="1158.980469"/>
    <use xlink:href="#DejaVuSans-68" x="1213.960938"/>
    <use xlink:href="#DejaVuSans-69" x="1277.339844"/>
    <use xlink:href="#DejaVuSans-76" x="1305.123047"/>
    <use xlink:href="#DejaVuSans-65" x="1364.302734"/>
    <use xlink:href="#DejaVuSans-2f" x="1425.826172"/>
    <use xlink:href="#DejaVuSans-76" x="1459.517578"/>
    <use xlink:href="#DejaVuSans-37" x="1518.697266"/>
    <use xlink:href="#DejaVuSans-2f" x="1582.320312"/>
   </g>
  </g>
 </g>
 <defs>
  <clipPath id="p6ca2334f5f">
   <rect x="47.1" y="62.88" width="534.88" height="471.78"/>
  </clipPath>
 </defs>
</svg>
