<?xml version="1.0" encoding="utf-8" standalone="no"?>
<!DOCTYPE svg PUBLIC "-//W3C//DTD SVG 1.1//EN"
  "http://www.w3.org/Graphics/SVG/1.1/DTD/svg11.dtd">
<svg xmlns:xlink="http://www.w3.org/1999/xlink" width="864pt" height="576pt" viewBox="0 0 864 576" xmlns="http://www.w3.org/2000/svg" version="1.1">
 <metadata>
  <rdf:RDF xmlns:dc="http://purl.org/dc/elements/1.1/" xmlns:cc="http://creativecommons.org/ns#" xmlns:rdf="http://www.w3.org/1999/02/22-rdf-syntax-ns#">
   <cc:Work>
    <dc:type rdf:resource="http://purl.org/dc/dcmitype/StillImage"/>
    <dc:date>2024-10-16T11:35:39.889109</dc:date>
    <dc:format>image/svg+xml</dc:format>
    <dc:creator>
     <cc:Agent>
      <dc:title>Matplotlib v3.9.2, https://matplotlib.org/</dc:title>
     </cc:Agent>
    </dc:creator>
   </cc:Work>
  </rdf:RDF>
 </metadata>
 <defs>
  <style type="text/css">*{stroke-linejoin: round; stroke-linecap: butt}</style>
 </defs>
 <g id="figure_1">
  <g id="patch_1">
   <path d="M 0 576 
L 864 576 
L 864 0 
L 0 0 
z
" style="fill: #ffffff"/>
  </g>
  <g id="axes_1">
   <g id="patch_2">
    <path d="M 47.1 534.66 
L 604.57 534.66 
L 604.57 62.88 
L 47.1 62.88 
z
" style="fill: #eeeeee"/>
   </g>
   <g id="matplotlib.axis_1">
    <g id="xtick_1">
     <g id="line2d_1">
      <path d="M 72.439545 534.66 
L 72.439545 62.88 
" clip-path="url(#p70c231c292)" style="fill: none; stroke-dasharray: 1.85,0.8; stroke-dashoffset: 0; stroke: #b2b2b2; stroke-width: 0.5"/>
     </g>
     <g id="line2d_2">
      <defs>
       <path id="m59ee5b2710" d="M 0 0 
L 0 -3.5 
" style="stroke: #000000; stroke-width: 0.8"/>
      </defs>
      <g>
       <use xlink:href="#m59ee5b2710" x="72.439545" y="534.66" style="stroke: #000000; stroke-width: 0.8"/>
      </g>
     </g>
     <g id="text_1">
      <!-- 1 -->
      <g transform="translate(69.258295 545.758438) scale(0.1 -0.1)">
       <defs>
        <path id="DejaVuSans-31" d="M 794 531 
L 1825 531 
L 1825 4091 
L 703 3866 
L 703 4441 
L 1819 4666 
L 2450 4666 
L 2450 531 
L 3481 531 
L 3481 0 
L 794 0 
L 794 531 
z
" transform="scale(0.015625)"/>
       </defs>
       <use xlink:href="#DejaVuSans-31"/>
      </g>
     </g>
    </g>
    <g id="xtick_2">
     <g id="line2d_3">
      <path d="M 122.547783 534.66 
L 122.547783 62.88 
" clip-path="url(#p70c231c292)" style="fill: none; stroke-dasharray: 1.85,0.8; stroke-dashoffset: 0; stroke: #b2b2b2; stroke-width: 0.5"/>
     </g>
     <g id="line2d_4">
      <g>
       <use xlink:href="#m59ee5b2710" x="122.547783" y="534.66" style="stroke: #000000; stroke-width: 0.8"/>
      </g>
     </g>
     <g id="text_2">
      <!-- 80 -->
      <g transform="translate(116.185283 545.758438) scale(0.1 -0.1)">
       <defs>
        <path id="DejaVuSans-38" d="M 2034 2216 
Q 1584 2216 1326 1975 
Q 1069 1734 1069 1313 
Q 1069 891 1326 650 
Q 1584 409 2034 409 
Q 2484 409 2743 651 
Q 3003 894 3003 1313 
Q 3003 1734 2745 1975 
Q 2488 2216 2034 2216 
z
M 1403 2484 
Q 997 2584 770 2862 
Q 544 3141 544 3541 
Q 544 4100 942 4425 
Q 1341 4750 2034 4750 
Q 2731 4750 3128 4425 
Q 3525 4100 3525 3541 
Q 3525 3141 3298 2862 
Q 3072 2584 2669 2484 
Q 3125 2378 3379 2068 
Q 3634 1759 3634 1313 
Q 3634 634 3220 271 
Q 2806 -91 2034 -91 
Q 1263 -91 848 271 
Q 434 634 434 1313 
Q 434 1759 690 2068 
Q 947 2378 1403 2484 
z
M 1172 3481 
Q 1172 3119 1398 2916 
Q 1625 2713 2034 2713 
Q 2441 2713 2670 2916 
Q 2900 3119 2900 3481 
Q 2900 3844 2670 4047 
Q 2441 4250 2034 4250 
Q 1625 4250 1398 4047 
Q 1172 3844 1172 3481 
z
" transform="scale(0.015625)"/>
        <path id="DejaVuSans-30" d="M 2034 4250 
Q 1547 4250 1301 3770 
Q 1056 3291 1056 2328 
Q 1056 1369 1301 889 
Q 1547 409 2034 409 
Q 2525 409 2770 889 
Q 3016 1369 3016 2328 
Q 3016 3291 2770 3770 
Q 2525 4250 2034 4250 
z
M 2034 4750 
Q 2819 4750 3233 4129 
Q 3647 3509 3647 2328 
Q 3647 1150 3233 529 
Q 2819 -91 2034 -91 
Q 1250 -91 836 529 
Q 422 1150 422 2328 
Q 422 3509 836 4129 
Q 1250 4750 2034 4750 
z
" transform="scale(0.015625)"/>
       </defs>
       <use xlink:href="#DejaVuSans-38"/>
       <use xlink:href="#DejaVuSans-30" x="63.623047"/>
      </g>
     </g>
    </g>
    <g id="xtick_3">
     <g id="line2d_5">
      <path d="M 173.290302 534.66 
L 173.290302 62.88 
" clip-path="url(#p70c231c292)" style="fill: none; stroke-dasharray: 1.85,0.8; stroke-dashoffset: 0; stroke: #b2b2b2; stroke-width: 0.5"/>
     </g>
     <g id="line2d_6">
      <g>
       <use xlink:href="#m59ee5b2710" x="173.290302" y="534.66" style="stroke: #000000; stroke-width: 0.8"/>
      </g>
     </g>
     <g id="text_3">
      <!-- 160 -->
      <g transform="translate(163.746552 545.758438) scale(0.1 -0.1)">
       <defs>
        <path id="DejaVuSans-36" d="M 2113 2584 
Q 1688 2584 1439 2293 
Q 1191 2003 1191 1497 
Q 1191 994 1439 701 
Q 1688 409 2113 409 
Q 2538 409 2786 701 
Q 3034 994 3034 1497 
Q 3034 2003 2786 2293 
Q 2538 2584 2113 2584 
z
M 3366 4563 
L 3366 3988 
Q 3128 4100 2886 4159 
Q 2644 4219 2406 4219 
Q 1781 4219 1451 3797 
Q 1122 3375 1075 2522 
Q 1259 2794 1537 2939 
Q 1816 3084 2150 3084 
Q 2853 3084 3261 2657 
Q 3669 2231 3669 1497 
Q 3669 778 3244 343 
Q 2819 -91 2113 -91 
Q 1303 -91 875 529 
Q 447 1150 447 2328 
Q 447 3434 972 4092 
Q 1497 4750 2381 4750 
Q 2619 4750 2861 4703 
Q 3103 4656 3366 4563 
z
" transform="scale(0.015625)"/>
       </defs>
       <use xlink:href="#DejaVuSans-31"/>
       <use xlink:href="#DejaVuSans-36" x="63.623047"/>
       <use xlink:href="#DejaVuSans-30" x="127.246094"/>
      </g>
     </g>
    </g>
    <g id="xtick_4">
     <g id="line2d_7">
      <path d="M 224.032821 534.66 
L 224.032821 62.88 
" clip-path="url(#p70c231c292)" style="fill: none; stroke-dasharray: 1.85,0.8; stroke-dashoffset: 0; stroke: #b2b2b2; stroke-width: 0.5"/>
     </g>
     <g id="line2d_8">
      <g>
       <use xlink:href="#m59ee5b2710" x="224.032821" y="534.66" style="stroke: #000000; stroke-width: 0.8"/>
      </g>
     </g>
     <g id="text_4">
      <!-- 240 -->
      <g transform="translate(214.489071 545.758438) scale(0.1 -0.1)">
       <defs>
        <path id="DejaVuSans-32" d="M 1228 531 
L 3431 531 
L 3431 0 
L 469 0 
L 469 531 
Q 828 903 1448 1529 
Q 2069 2156 2228 2338 
Q 2531 2678 2651 2914 
Q 2772 3150 2772 3378 
Q 2772 3750 2511 3984 
Q 2250 4219 1831 4219 
Q 1534 4219 1204 4116 
Q 875 4013 500 3803 
L 500 4441 
Q 881 4594 1212 4672 
Q 1544 4750 1819 4750 
Q 2544 4750 2975 4387 
Q 3406 4025 3406 3419 
Q 3406 3131 3298 2873 
Q 3191 2616 2906 2266 
Q 2828 2175 2409 1742 
Q 1991 1309 1228 531 
z
" transform="scale(0.015625)"/>
        <path id="DejaVuSans-34" d="M 2419 4116 
L 825 1625 
L 2419 1625 
L 2419 4116 
z
M 2253 4666 
L 3047 4666 
L 3047 1625 
L 3713 1625 
L 3713 1100 
L 3047 1100 
L 3047 0 
L 2419 0 
L 2419 1100 
L 313 1100 
L 313 1709 
L 2253 4666 
z
" transform="scale(0.015625)"/>
       </defs>
       <use xlink:href="#DejaVuSans-32"/>
       <use xlink:href="#DejaVuSans-34" x="63.623047"/>
       <use xlink:href="#DejaVuSans-30" x="127.246094"/>
      </g>
     </g>
    </g>
    <g id="xtick_5">
     <g id="line2d_9">
      <path d="M 274.77534 534.66 
L 274.77534 62.88 
" clip-path="url(#p70c231c292)" style="fill: none; stroke-dasharray: 1.85,0.8; stroke-dashoffset: 0; stroke: #b2b2b2; stroke-width: 0.5"/>
     </g>
     <g id="line2d_10">
      <g>
       <use xlink:href="#m59ee5b2710" x="274.77534" y="534.66" style="stroke: #000000; stroke-width: 0.8"/>
      </g>
     </g>
     <g id="text_5">
      <!-- 320 -->
      <g transform="translate(265.23159 545.758438) scale(0.1 -0.1)">
       <defs>
        <path id="DejaVuSans-33" d="M 2597 2516 
Q 3050 2419 3304 2112 
Q 3559 1806 3559 1356 
Q 3559 666 3084 287 
Q 2609 -91 1734 -91 
Q 1441 -91 1130 -33 
Q 819 25 488 141 
L 488 750 
Q 750 597 1062 519 
Q 1375 441 1716 441 
Q 2309 441 2620 675 
Q 2931 909 2931 1356 
Q 2931 1769 2642 2001 
Q 2353 2234 1838 2234 
L 1294 2234 
L 1294 2753 
L 1863 2753 
Q 2328 2753 2575 2939 
Q 2822 3125 2822 3475 
Q 2822 3834 2567 4026 
Q 2313 4219 1838 4219 
Q 1578 4219 1281 4162 
Q 984 4106 628 3988 
L 628 4550 
Q 988 4650 1302 4700 
Q 1616 4750 1894 4750 
Q 2613 4750 3031 4423 
Q 3450 4097 3450 3541 
Q 3450 3153 3228 2886 
Q 3006 2619 2597 2516 
z
" transform="scale(0.015625)"/>
       </defs>
       <use xlink:href="#DejaVuSans-33"/>
       <use xlink:href="#DejaVuSans-32" x="63.623047"/>
       <use xlink:href="#DejaVuSans-30" x="127.246094"/>
      </g>
     </g>
    </g>
    <g id="xtick_6">
     <g id="line2d_11">
      <path d="M 325.517859 534.66 
L 325.517859 62.88 
" clip-path="url(#p70c231c292)" style="fill: none; stroke-dasharray: 1.85,0.8; stroke-dashoffset: 0; stroke: #b2b2b2; stroke-width: 0.5"/>
     </g>
     <g id="line2d_12">
      <g>
       <use xlink:href="#m59ee5b2710" x="325.517859" y="534.66" style="stroke: #000000; stroke-width: 0.8"/>
      </g>
     </g>
     <g id="text_6">
      <!-- 400 -->
      <g transform="translate(315.974109 545.758438) scale(0.1 -0.1)">
       <use xlink:href="#DejaVuSans-34"/>
       <use xlink:href="#DejaVuSans-30" x="63.623047"/>
       <use xlink:href="#DejaVuSans-30" x="127.246094"/>
      </g>
     </g>
    </g>
    <g id="xtick_7">
     <g id="line2d_13">
      <path d="M 376.260378 534.66 
L 376.260378 62.88 
" clip-path="url(#p70c231c292)" style="fill: none; stroke-dasharray: 1.85,0.8; stroke-dashoffset: 0; stroke: #b2b2b2; stroke-width: 0.5"/>
     </g>
     <g id="line2d_14">
      <g>
       <use xlink:href="#m59ee5b2710" x="376.260378" y="534.66" style="stroke: #000000; stroke-width: 0.8"/>
      </g>
     </g>
     <g id="text_7">
      <!-- 480 -->
      <g transform="translate(366.716628 545.758438) scale(0.1 -0.1)">
       <use xlink:href="#DejaVuSans-34"/>
       <use xlink:href="#DejaVuSans-38" x="63.623047"/>
       <use xlink:href="#DejaVuSans-30" x="127.246094"/>
      </g>
     </g>
    </g>
    <g id="xtick_8">
     <g id="line2d_15">
      <path d="M 427.002897 534.66 
L 427.002897 62.88 
" clip-path="url(#p70c231c292)" style="fill: none; stroke-dasharray: 1.85,0.8; stroke-dashoffset: 0; stroke: #b2b2b2; stroke-width: 0.5"/>
     </g>
     <g id="line2d_16">
      <g>
       <use xlink:href="#m59ee5b2710" x="427.002897" y="534.66" style="stroke: #000000; stroke-width: 0.8"/>
      </g>
     </g>
     <g id="text_8">
      <!-- 560 -->
      <g transform="translate(417.459147 545.758438) scale(0.1 -0.1)">
       <defs>
        <path id="DejaVuSans-35" d="M 691 4666 
L 3169 4666 
L 3169 4134 
L 1269 4134 
L 1269 2991 
Q 1406 3038 1543 3061 
Q 1681 3084 1819 3084 
Q 2600 3084 3056 2656 
Q 3513 2228 3513 1497 
Q 3513 744 3044 326 
Q 2575 -91 1722 -91 
Q 1428 -91 1123 -41 
Q 819 9 494 109 
L 494 744 
Q 775 591 1075 516 
Q 1375 441 1709 441 
Q 2250 441 2565 725 
Q 2881 1009 2881 1497 
Q 2881 1984 2565 2268 
Q 2250 2553 1709 2553 
Q 1456 2553 1204 2497 
Q 953 2441 691 2322 
L 691 4666 
z
" transform="scale(0.015625)"/>
       </defs>
       <use xlink:href="#DejaVuSans-35"/>
       <use xlink:href="#DejaVuSans-36" x="63.623047"/>
       <use xlink:href="#DejaVuSans-30" x="127.246094"/>
      </g>
     </g>
    </g>
    <g id="xtick_9">
     <g id="line2d_17">
      <path d="M 477.745416 534.66 
L 477.745416 62.88 
" clip-path="url(#p70c231c292)" style="fill: none; stroke-dasharray: 1.85,0.8; stroke-dashoffset: 0; stroke: #b2b2b2; stroke-width: 0.5"/>
     </g>
     <g id="line2d_18">
      <g>
       <use xlink:href="#m59ee5b2710" x="477.745416" y="534.66" style="stroke: #000000; stroke-width: 0.8"/>
      </g>
     </g>
     <g id="text_9">
      <!-- 640 -->
      <g transform="translate(468.201666 545.758438) scale(0.1 -0.1)">
       <use xlink:href="#DejaVuSans-36"/>
       <use xlink:href="#DejaVuSans-34" x="63.623047"/>
       <use xlink:href="#DejaVuSans-30" x="127.246094"/>
      </g>
     </g>
    </g>
    <g id="xtick_10">
     <g id="line2d_19">
      <path d="M 528.487935 534.66 
L 528.487935 62.88 
" clip-path="url(#p70c231c292)" style="fill: none; stroke-dasharray: 1.85,0.8; stroke-dashoffset: 0; stroke: #b2b2b2; stroke-width: 0.5"/>
     </g>
     <g id="line2d_20">
      <g>
       <use xlink:href="#m59ee5b2710" x="528.487935" y="534.66" style="stroke: #000000; stroke-width: 0.8"/>
      </g>
     </g>
     <g id="text_10">
      <!-- 720 -->
      <g transform="translate(518.944185 545.758438) scale(0.1 -0.1)">
       <defs>
        <path id="DejaVuSans-37" d="M 525 4666 
L 3525 4666 
L 3525 4397 
L 1831 0 
L 1172 0 
L 2766 4134 
L 525 4134 
L 525 4666 
z
" transform="scale(0.015625)"/>
       </defs>
       <use xlink:href="#DejaVuSans-37"/>
       <use xlink:href="#DejaVuSans-32" x="63.623047"/>
       <use xlink:href="#DejaVuSans-30" x="127.246094"/>
      </g>
     </g>
    </g>
    <g id="xtick_11">
     <g id="line2d_21">
      <path d="M 579.230455 534.66 
L 579.230455 62.88 
" clip-path="url(#p70c231c292)" style="fill: none; stroke-dasharray: 1.85,0.8; stroke-dashoffset: 0; stroke: #b2b2b2; stroke-width: 0.5"/>
     </g>
     <g id="line2d_22">
      <g>
       <use xlink:href="#m59ee5b2710" x="579.230455" y="534.66" style="stroke: #000000; stroke-width: 0.8"/>
      </g>
     </g>
     <g id="text_11">
      <!-- 800 -->
      <g transform="translate(569.686705 545.758438) scale(0.1 -0.1)">
       <use xlink:href="#DejaVuSans-38"/>
       <use xlink:href="#DejaVuSans-30" x="63.623047"/>
       <use xlink:href="#DejaVuSans-30" x="127.246094"/>
      </g>
     </g>
    </g>
    <g id="text_12">
     <!-- Round -->
     <g transform="translate(306.850625 560.95625) scale(0.12 -0.12)">
      <defs>
       <path id="DejaVuSans-52" d="M 2841 2188 
Q 3044 2119 3236 1894 
Q 3428 1669 3622 1275 
L 4263 0 
L 3584 0 
L 2988 1197 
Q 2756 1666 2539 1819 
Q 2322 1972 1947 1972 
L 1259 1972 
L 1259 0 
L 628 0 
L 628 4666 
L 2053 4666 
Q 2853 4666 3247 4331 
Q 3641 3997 3641 3322 
Q 3641 2881 3436 2590 
Q 3231 2300 2841 2188 
z
M 1259 4147 
L 1259 2491 
L 2053 2491 
Q 2509 2491 2742 2702 
Q 2975 2913 2975 3322 
Q 2975 3731 2742 3939 
Q 2509 4147 2053 4147 
L 1259 4147 
z
" transform="scale(0.015625)"/>
       <path id="DejaVuSans-6f" d="M 1959 3097 
Q 1497 3097 1228 2736 
Q 959 2375 959 1747 
Q 959 1119 1226 758 
Q 1494 397 1959 397 
Q 2419 397 2687 759 
Q 2956 1122 2956 1747 
Q 2956 2369 2687 2733 
Q 2419 3097 1959 3097 
z
M 1959 3584 
Q 2709 3584 3137 3096 
Q 3566 2609 3566 1747 
Q 3566 888 3137 398 
Q 2709 -91 1959 -91 
Q 1206 -91 779 398 
Q 353 888 353 1747 
Q 353 2609 779 3096 
Q 1206 3584 1959 3584 
z
" transform="scale(0.015625)"/>
       <path id="DejaVuSans-75" d="M 544 1381 
L 544 3500 
L 1119 3500 
L 1119 1403 
Q 1119 906 1312 657 
Q 1506 409 1894 409 
Q 2359 409 2629 706 
Q 2900 1003 2900 1516 
L 2900 3500 
L 3475 3500 
L 3475 0 
L 2900 0 
L 2900 538 
Q 2691 219 2414 64 
Q 2138 -91 1772 -91 
Q 1169 -91 856 284 
Q 544 659 544 1381 
z
M 1991 3584 
L 1991 3584 
z
" transform="scale(0.015625)"/>
       <path id="DejaVuSans-6e" d="M 3513 2113 
L 3513 0 
L 2938 0 
L 2938 2094 
Q 2938 2591 2744 2837 
Q 2550 3084 2163 3084 
Q 1697 3084 1428 2787 
Q 1159 2491 1159 1978 
L 1159 0 
L 581 0 
L 581 3500 
L 1159 3500 
L 1159 2956 
Q 1366 3272 1645 3428 
Q 1925 3584 2291 3584 
Q 2894 3584 3203 3211 
Q 3513 2838 3513 2113 
z
" transform="scale(0.015625)"/>
       <path id="DejaVuSans-64" d="M 2906 2969 
L 2906 4863 
L 3481 4863 
L 3481 0 
L 2906 0 
L 2906 525 
Q 2725 213 2448 61 
Q 2172 -91 1784 -91 
Q 1150 -91 751 415 
Q 353 922 353 1747 
Q 353 2572 751 3078 
Q 1150 3584 1784 3584 
Q 2172 3584 2448 3432 
Q 2725 3281 2906 2969 
z
M 947 1747 
Q 947 1113 1208 752 
Q 1469 391 1925 391 
Q 2381 391 2643 752 
Q 2906 1113 2906 1747 
Q 2906 2381 2643 2742 
Q 2381 3103 1925 3103 
Q 1469 3103 1208 2742 
Q 947 2381 947 1747 
z
" transform="scale(0.015625)"/>
      </defs>
      <use xlink:href="#DejaVuSans-52"/>
      <use xlink:href="#DejaVuSans-6f" x="64.982422"/>
      <use xlink:href="#DejaVuSans-75" x="126.164062"/>
      <use xlink:href="#DejaVuSans-6e" x="189.542969"/>
      <use xlink:href="#DejaVuSans-64" x="252.921875"/>
     </g>
    </g>
   </g>
   <g id="matplotlib.axis_2">
    <g id="ytick_1">
     <g id="line2d_23">
      <path d="M 47.1 506.104431 
L 604.57 506.104431 
" clip-path="url(#p70c231c292)" style="fill: none; stroke-dasharray: 1.85,0.8; stroke-dashoffset: 0; stroke: #b2b2b2; stroke-width: 0.5"/>
     </g>
     <g id="line2d_24">
      <defs>
       <path id="m47755fbe12" d="M 0 0 
L 3.5 0 
" style="stroke: #000000; stroke-width: 0.8"/>
      </defs>
      <g>
       <use xlink:href="#m47755fbe12" x="47.1" y="506.104431" style="stroke: #000000; stroke-width: 0.8"/>
      </g>
     </g>
     <g id="text_13">
      <!-- 0.1 -->
      <g transform="translate(27.696875 509.90365) scale(0.1 -0.1)">
       <defs>
        <path id="DejaVuSans-2e" d="M 684 794 
L 1344 794 
L 1344 0 
L 684 0 
L 684 794 
z
" transform="scale(0.015625)"/>
       </defs>
       <use xlink:href="#DejaVuSans-30"/>
       <use xlink:href="#DejaVuSans-2e" x="63.623047"/>
       <use xlink:href="#DejaVuSans-31" x="95.410156"/>
      </g>
     </g>
    </g>
    <g id="ytick_2">
     <g id="line2d_25">
      <path d="M 47.1 425.718953 
L 604.57 425.718953 
" clip-path="url(#p70c231c292)" style="fill: none; stroke-dasharray: 1.85,0.8; stroke-dashoffset: 0; stroke: #b2b2b2; stroke-width: 0.5"/>
     </g>
     <g id="line2d_26">
      <g>
       <use xlink:href="#m47755fbe12" x="47.1" y="425.718953" style="stroke: #000000; stroke-width: 0.8"/>
      </g>
     </g>
     <g id="text_14">
      <!-- 0.2 -->
      <g transform="translate(27.696875 429.518172) scale(0.1 -0.1)">
       <use xlink:href="#DejaVuSans-30"/>
       <use xlink:href="#DejaVuSans-2e" x="63.623047"/>
       <use xlink:href="#DejaVuSans-32" x="95.410156"/>
      </g>
     </g>
    </g>
    <g id="ytick_3">
     <g id="line2d_27">
      <path d="M 47.1 345.333475 
L 604.57 345.333475 
" clip-path="url(#p70c231c292)" style="fill: none; stroke-dasharray: 1.85,0.8; stroke-dashoffset: 0; stroke: #b2b2b2; stroke-width: 0.5"/>
     </g>
     <g id="line2d_28">
      <g>
       <use xlink:href="#m47755fbe12" x="47.1" y="345.333475" style="stroke: #000000; stroke-width: 0.8"/>
      </g>
     </g>
     <g id="text_15">
      <!-- 0.3 -->
      <g transform="translate(27.696875 349.132693) scale(0.1 -0.1)">
       <use xlink:href="#DejaVuSans-30"/>
       <use xlink:href="#DejaVuSans-2e" x="63.623047"/>
       <use xlink:href="#DejaVuSans-33" x="95.410156"/>
      </g>
     </g>
    </g>
    <g id="ytick_4">
     <g id="line2d_29">
      <path d="M 47.1 264.947996 
L 604.57 264.947996 
" clip-path="url(#p70c231c292)" style="fill: none; stroke-dasharray: 1.85,0.8; stroke-dashoffset: 0; stroke: #b2b2b2; stroke-width: 0.5"/>
     </g>
     <g id="line2d_30">
      <g>
       <use xlink:href="#m47755fbe12" x="47.1" y="264.947996" style="stroke: #000000; stroke-width: 0.8"/>
      </g>
     </g>
     <g id="text_16">
      <!-- 0.4 -->
      <g transform="translate(27.696875 268.747215) scale(0.1 -0.1)">
       <use xlink:href="#DejaVuSans-30"/>
       <use xlink:href="#DejaVuSans-2e" x="63.623047"/>
       <use xlink:href="#DejaVuSans-34" x="95.410156"/>
      </g>
     </g>
    </g>
    <g id="ytick_5">
     <g id="line2d_31">
      <path d="M 47.1 184.562518 
L 604.57 184.562518 
" clip-path="url(#p70c231c292)" style="fill: none; stroke-dasharray: 1.85,0.8; stroke-dashoffset: 0; stroke: #b2b2b2; stroke-width: 0.5"/>
     </g>
     <g id="line2d_32">
      <g>
       <use xlink:href="#m47755fbe12" x="47.1" y="184.562518" style="stroke: #000000; stroke-width: 0.8"/>
      </g>
     </g>
     <g id="text_17">
      <!-- 0.5 -->
      <g transform="translate(27.696875 188.361737) scale(0.1 -0.1)">
       <use xlink:href="#DejaVuSans-30"/>
       <use xlink:href="#DejaVuSans-2e" x="63.623047"/>
       <use xlink:href="#DejaVuSans-35" x="95.410156"/>
      </g>
     </g>
    </g>
    <g id="ytick_6">
     <g id="line2d_33">
      <path d="M 47.1 104.17704 
L 604.57 104.17704 
" clip-path="url(#p70c231c292)" style="fill: none; stroke-dasharray: 1.85,0.8; stroke-dashoffset: 0; stroke: #b2b2b2; stroke-width: 0.5"/>
     </g>
     <g id="line2d_34">
      <g>
       <use xlink:href="#m47755fbe12" x="47.1" y="104.17704" style="stroke: #000000; stroke-width: 0.8"/>
      </g>
     </g>
     <g id="text_18">
      <!-- 0.6 -->
      <g transform="translate(27.696875 107.976258) scale(0.1 -0.1)">
       <use xlink:href="#DejaVuSans-30"/>
       <use xlink:href="#DejaVuSans-2e" x="63.623047"/>
       <use xlink:href="#DejaVuSans-36" x="95.410156"/>
      </g>
     </g>
    </g>
    <g id="text_19">
     <!-- Accuracy -->
     <g transform="translate(21.20125 326.16375) rotate(-90) scale(0.12 -0.12)">
      <defs>
       <path id="DejaVuSans-41" d="M 2188 4044 
L 1331 1722 
L 3047 1722 
L 2188 4044 
z
M 1831 4666 
L 2547 4666 
L 4325 0 
L 3669 0 
L 3244 1197 
L 1141 1197 
L 716 0 
L 50 0 
L 1831 4666 
z
" transform="scale(0.015625)"/>
       <path id="DejaVuSans-63" d="M 3122 3366 
L 3122 2828 
Q 2878 2963 2633 3030 
Q 2388 3097 2138 3097 
Q 1578 3097 1268 2742 
Q 959 2388 959 1747 
Q 959 1106 1268 751 
Q 1578 397 2138 397 
Q 2388 397 2633 464 
Q 2878 531 3122 666 
L 3122 134 
Q 2881 22 2623 -34 
Q 2366 -91 2075 -91 
Q 1284 -91 818 406 
Q 353 903 353 1747 
Q 353 2603 823 3093 
Q 1294 3584 2113 3584 
Q 2378 3584 2631 3529 
Q 2884 3475 3122 3366 
z
" transform="scale(0.015625)"/>
       <path id="DejaVuSans-72" d="M 2631 2963 
Q 2534 3019 2420 3045 
Q 2306 3072 2169 3072 
Q 1681 3072 1420 2755 
Q 1159 2438 1159 1844 
L 1159 0 
L 581 0 
L 581 3500 
L 1159 3500 
L 1159 2956 
Q 1341 3275 1631 3429 
Q 1922 3584 2338 3584 
Q 2397 3584 2469 3576 
Q 2541 3569 2628 3553 
L 2631 2963 
z
" transform="scale(0.015625)"/>
       <path id="DejaVuSans-61" d="M 2194 1759 
Q 1497 1759 1228 1600 
Q 959 1441 959 1056 
Q 959 750 1161 570 
Q 1363 391 1709 391 
Q 2188 391 2477 730 
Q 2766 1069 2766 1631 
L 2766 1759 
L 2194 1759 
z
M 3341 1997 
L 3341 0 
L 2766 0 
L 2766 531 
Q 2569 213 2275 61 
Q 1981 -91 1556 -91 
Q 1019 -91 701 211 
Q 384 513 384 1019 
Q 384 1609 779 1909 
Q 1175 2209 1959 2209 
L 2766 2209 
L 2766 2266 
Q 2766 2663 2505 2880 
Q 2244 3097 1772 3097 
Q 1472 3097 1187 3025 
Q 903 2953 641 2809 
L 641 3341 
Q 956 3463 1253 3523 
Q 1550 3584 1831 3584 
Q 2591 3584 2966 3190 
Q 3341 2797 3341 1997 
z
" transform="scale(0.015625)"/>
       <path id="DejaVuSans-79" d="M 2059 -325 
Q 1816 -950 1584 -1140 
Q 1353 -1331 966 -1331 
L 506 -1331 
L 506 -850 
L 844 -850 
Q 1081 -850 1212 -737 
Q 1344 -625 1503 -206 
L 1606 56 
L 191 3500 
L 800 3500 
L 1894 763 
L 2988 3500 
L 3597 3500 
L 2059 -325 
z
" transform="scale(0.015625)"/>
      </defs>
      <use xlink:href="#DejaVuSans-41"/>
      <use xlink:href="#DejaVuSans-63" x="66.658203"/>
      <use xlink:href="#DejaVuSans-63" x="121.638672"/>
      <use xlink:href="#DejaVuSans-75" x="176.619141"/>
      <use xlink:href="#DejaVuSans-72" x="239.998047"/>
      <use xlink:href="#DejaVuSans-61" x="281.111328"/>
      <use xlink:href="#DejaVuSans-63" x="342.390625"/>
      <use xlink:href="#DejaVuSans-79" x="397.371094"/>
     </g>
    </g>
   </g>
   <g id="line2d_35">
    <path d="M 72.439545 505.486082 
L 74.134498 506.894617 
L 75.829451 507.932597 
L 77.524404 505.735178 
L 79.219357 505.314335 
L 80.91431 505.421547 
L 82.609263 506.646696 
L 84.304216 505.687305 
L 85.999168 504.280494 
L 87.694121 506.734723 
L 89.389074 503.968596 
L 91.084027 506.041053 
L 92.77898 505.339981 
L 94.473933 506.299201 
L 96.168886 503.21413 
L 97.863839 500.973923 
L 99.558791 499.10934 
L 101.253744 498.960408 
L 104.64365 489.713604 
L 106.338603 485.549136 
L 108.033556 474.604514 
L 109.728509 457.702528 
L 111.423462 451.760224 
L 113.118414 438.743007 
L 114.813367 427.152221 
L 118.203273 422.631929 
L 119.898226 421.666294 
L 121.593179 418.32343 
L 123.288132 411.077519 
L 124.983085 412.280469 
L 126.678037 410.039054 
L 128.37299 401.991179 
L 130.067943 394.845923 
L 131.762896 390.738218 
L 133.457849 384.462047 
L 135.152802 382.260048 
L 136.847755 375.839446 
L 138.542708 375.492418 
L 140.23766 376.832078 
L 141.932613 365.895982 
L 143.627566 361.121539 
L 145.322519 364.197499 
L 147.017472 354.30198 
L 148.712425 352.747067 
L 150.407378 352.97848 
L 152.10233 349.169063 
L 153.797283 339.106316 
L 155.492236 326.790362 
L 157.187189 335.445548 
L 158.882142 327.28807 
L 160.577095 317.09329 
L 162.272048 315.197576 
L 163.967001 304.159974 
L 165.661953 303.215334 
L 167.356906 294.255585 
L 169.051859 288.308471 
L 170.746812 290.177558 
L 172.441765 282.32223 
L 174.136718 283.651869 
L 175.831671 280.806523 
L 177.526624 280.664168 
L 179.221576 278.920706 
L 180.916529 270.763798 
L 182.611482 268.654556 
L 184.306435 261.478693 
L 186.001388 264.622684 
L 187.696341 258.520938 
L 189.391294 254.687817 
L 191.086247 256.672357 
L 192.781199 253.064577 
L 194.476152 241.177103 
L 196.171105 246.554545 
L 197.866058 245.989155 
L 199.561011 246.147941 
L 201.255964 233.198661 
L 202.950917 230.812787 
L 204.64587 232.301478 
L 206.340822 243.591307 
L 208.035775 236.957813 
L 209.730728 229.752186 
L 211.425681 234.003515 
L 213.120634 232.945856 
L 214.815587 233.814016 
L 216.51054 236.689186 
L 218.205493 226.379128 
L 219.900445 228.45192 
L 221.595398 209.999216 
L 223.290351 237.791643 
L 224.985304 223.046689 
L 226.680257 217.782707 
L 228.37521 213.538483 
L 230.070163 216.128478 
L 231.765116 212.343392 
L 233.460068 211.321824 
L 235.155021 212.381952 
L 236.849974 212.142035 
L 238.544927 208.130135 
L 240.23988 213.506684 
L 241.934833 210.468693 
L 243.629786 203.387236 
L 245.324739 213.323957 
L 247.019691 205.368307 
L 248.714644 208.095106 
L 250.409597 204.812795 
L 252.10455 205.307146 
L 253.799503 204.676384 
L 255.494456 207.571937 
L 257.189409 197.945964 
L 258.884362 192.590598 
L 260.579314 204.4072 
L 262.274267 194.776917 
L 263.96922 199.433155 
L 265.664173 201.742174 
L 267.359126 191.76886 
L 269.054079 211.5689 
L 270.749032 200.274918 
L 272.443984 198.669426 
L 274.138937 196.591762 
L 275.83389 194.214111 
L 277.528843 203.141762 
L 279.223796 192.691878 
L 280.918749 193.52773 
L 282.613702 194.930515 
L 284.308655 183.919169 
L 287.69856 194.378764 
L 289.393513 188.197742 
L 291.088466 191.435521 
L 292.783419 184.063417 
L 294.478372 186.502077 
L 296.173325 186.613357 
L 297.868278 188.999126 
L 299.56323 183.834659 
L 301.258183 180.384642 
L 302.953136 182.335218 
L 304.648089 183.337802 
L 306.343042 175.935509 
L 308.037995 179.244786 
L 309.732948 173.896485 
L 311.427901 187.102364 
L 313.122853 172.991177 
L 314.817806 186.421858 
L 316.512759 177.440579 
L 319.902665 174.913726 
L 321.597618 178.510379 
L 323.292571 181.125126 
L 324.987524 176.258729 
L 326.682476 177.140961 
L 328.377429 172.916948 
L 330.072382 176.573418 
L 331.767335 176.279662 
L 333.462288 172.553946 
L 335.157241 170.785547 
L 336.852194 171.781264 
L 338.547147 166.580903 
L 340.242099 178.922471 
L 341.937052 162.50057 
L 343.632005 171.732485 
L 345.326958 167.710164 
L 347.021911 173.906751 
L 348.716864 171.081465 
L 350.411817 167.270105 
L 352.10677 160.178446 
L 353.801722 162.07921 
L 355.496675 164.233363 
L 357.191628 161.353703 
L 358.886581 160.266559 
L 360.581534 172.869893 
L 362.276487 165.155689 
L 363.97144 166.036182 
L 365.666393 157.005312 
L 367.361345 163.98718 
L 369.056298 160.341341 
L 370.751251 162.299785 
L 372.446204 160.769267 
L 374.141157 154.821793 
L 375.83611 164.380603 
L 377.531063 148.20319 
L 379.226016 159.073784 
L 380.920968 164.216818 
L 382.615921 162.173433 
L 384.310874 157.176185 
L 386.005827 158.060988 
L 387.70078 156.354703 
L 389.395733 159.031315 
L 391.090686 160.328101 
L 392.785638 150.392975 
L 394.480591 155.013518 
L 396.175544 161.385194 
L 397.870497 149.270151 
L 399.56545 156.798601 
L 401.260403 151.422057 
L 402.955356 154.700469 
L 404.650309 151.03789 
L 406.345261 152.326638 
L 408.040214 152.71485 
L 409.735167 151.453651 
L 411.43012 150.414757 
L 413.125073 154.477479 
L 414.820026 154.175619 
L 416.514979 154.18761 
L 418.209932 146.652177 
L 419.904884 152.654575 
L 421.599837 142.293894 
L 423.29479 147.687193 
L 424.989743 145.876312 
L 426.684696 142.22802 
L 428.379649 152.167355 
L 430.074602 147.154253 
L 431.769555 147.75908 
L 433.464507 148.585653 
L 435.15946 142.292987 
L 436.854413 144.950141 
L 438.549366 146.054447 
L 440.244319 141.638523 
L 441.939272 138.512865 
L 443.634225 142.367881 
L 445.329178 142.437271 
L 447.02413 154.903474 
L 448.719083 142.065335 
L 450.414036 149.12176 
L 452.108989 141.784007 
L 453.803942 144.129941 
L 455.498895 141.00287 
L 457.193848 143.589105 
L 458.888801 143.893992 
L 460.583753 141.419238 
L 462.278706 140.479258 
L 463.973659 136.322288 
L 465.668612 145.166275 
L 467.363565 137.401537 
L 469.058518 139.761677 
L 470.753471 133.947698 
L 472.448424 134.71949 
L 474.143376 133.260871 
L 475.838329 140.69124 
L 477.533282 132.470156 
L 479.228235 136.285246 
L 480.923188 138.689856 
L 482.618141 135.400114 
L 484.313094 134.891478 
L 486.008047 141.42724 
L 487.702999 131.248493 
L 489.397952 134.724748 
L 491.092905 129.930135 
L 492.787858 121.614121 
L 494.482811 132.214096 
L 496.177764 132.78288 
L 497.872717 135.608187 
L 499.56767 137.661133 
L 501.262622 130.047675 
L 502.957575 124.861103 
L 504.652528 136.727788 
L 506.347481 129.162794 
L 508.042434 135.526359 
L 509.737387 128.652947 
L 511.43234 130.13009 
L 513.127292 119.93637 
L 514.822245 132.851683 
L 516.517198 136.165549 
L 518.212151 135.149015 
L 519.907104 126.862787 
L 521.602057 123.42677 
L 523.29701 134.094872 
L 524.991963 122.620291 
L 526.686915 123.465993 
L 528.381868 123.551201 
L 530.076821 120.76186 
L 531.771774 129.770727 
L 533.466727 117.038997 
L 535.16168 124.391571 
L 536.856633 127.941479 
L 538.551586 118.94371 
L 540.246538 128.827742 
L 541.941491 129.101875 
L 543.636444 123.876849 
L 545.331397 131.658966 
L 547.02635 120.514768 
L 548.721303 124.506191 
L 550.416256 123.561951 
L 552.111209 129.112494 
L 553.806161 124.575066 
L 555.501114 131.357523 
L 557.196067 125.017182 
L 558.89102 117.100766 
L 560.585973 120.079914 
L 562.280926 129.36727 
L 563.975879 125.847409 
L 565.670832 119.239012 
L 567.365784 115.441156 
L 569.060737 109.103864 
L 570.75569 115.633116 
L 572.450643 115.230047 
L 574.145596 122.765626 
L 575.840549 117.571407 
L 577.535502 115.431567 
L 579.230455 120.513443 
L 579.230455 120.513443 
" clip-path="url(#p70c231c292)" style="fill: none; stroke: #348abd; stroke-width: 2; stroke-linecap: square"/>
   </g>
   <g id="line2d_36">
    <path d="M 72.439545 513.215455 
L 74.134498 505.780168 
L 75.829451 504.7968 
L 77.524404 502.259175 
L 79.219357 505.772028 
L 80.91431 493.838291 
L 82.609263 489.60472 
L 84.304216 488.105855 
L 85.999168 480.199805 
L 87.694121 485.058303 
L 89.389074 476.860523 
L 91.084027 475.196101 
L 92.77898 471.079305 
L 94.473933 463.744631 
L 96.168886 473.894625 
L 97.863839 472.111485 
L 99.558791 470.101828 
L 101.253744 472.949484 
L 102.948697 464.97407 
L 104.64365 458.751798 
L 106.338603 455.175292 
L 108.033556 444.115033 
L 109.728509 445.607105 
L 113.118414 431.704157 
L 114.813367 434.166307 
L 116.50832 434.394602 
L 118.203273 434.794115 
L 119.898226 436.309752 
L 121.593179 437.230021 
L 123.288132 434.108973 
L 124.983085 431.229727 
L 126.678037 425.103628 
L 128.37299 417.838128 
L 130.067943 402.12041 
L 131.762896 403.989475 
L 133.457849 394.179486 
L 135.152802 393.098022 
L 136.847755 378.933637 
L 138.542708 376.25107 
L 140.23766 369.465339 
L 141.932613 364.695194 
L 143.627566 366.739929 
L 145.322519 362.879696 
L 147.017472 359.655572 
L 148.712425 353.507711 
L 150.407378 352.321149 
L 152.10233 347.689702 
L 153.797283 347.47573 
L 155.492236 343.90523 
L 157.187189 340.940572 
L 158.882142 344.35658 
L 160.577095 336.411134 
L 162.272048 331.733793 
L 163.967001 331.050453 
L 167.356906 324.922017 
L 169.051859 319.561107 
L 170.746812 323.636161 
L 172.441765 306.57565 
L 174.136718 307.921204 
L 175.831671 304.663952 
L 177.526624 294.051508 
L 179.221576 295.040461 
L 180.916529 293.834997 
L 182.611482 288.006629 
L 184.306435 288.05503 
L 186.001388 278.244997 
L 187.696341 278.843659 
L 189.391294 277.555084 
L 191.086247 272.915674 
L 192.781199 271.415381 
L 194.476152 271.266197 
L 196.171105 267.06514 
L 197.866058 270.544813 
L 199.561011 260.097822 
L 201.255964 263.55763 
L 202.950917 261.252438 
L 204.64587 258.214294 
L 206.340822 258.564543 
L 208.035775 258.065764 
L 211.425681 245.795281 
L 213.120634 252.111227 
L 214.815587 247.316323 
L 218.205493 246.426656 
L 219.900445 237.744567 
L 221.595398 242.334965 
L 223.290351 243.134032 
L 224.985304 240.05787 
L 226.680257 224.462533 
L 228.37521 232.0602 
L 230.070163 227.91309 
L 231.765116 225.41 
L 233.460068 227.558357 
L 235.155021 227.307958 
L 236.849974 222.619548 
L 238.544927 229.070072 
L 240.23988 220.176321 
L 241.934833 226.301743 
L 243.629786 220.681008 
L 245.324739 224.429608 
L 247.019691 220.24932 
L 248.714644 220.027853 
L 250.409597 212.823075 
L 252.10455 215.477947 
L 253.799503 217.14922 
L 255.494456 214.858689 
L 257.189409 207.367623 
L 258.884362 209.03219 
L 260.579314 211.353185 
L 262.274267 214.889385 
L 263.96922 204.683852 
L 265.664173 210.995658 
L 267.359126 204.911445 
L 269.054079 201.955163 
L 270.749032 209.615702 
L 272.443984 207.337669 
L 274.138937 207.16254 
L 275.83389 205.675282 
L 277.528843 206.761861 
L 279.223796 205.514304 
L 280.918749 200.572486 
L 282.613702 203.252904 
L 284.308655 206.186352 
L 286.003607 200.178491 
L 287.69856 201.623382 
L 291.088466 196.535263 
L 292.783419 202.612181 
L 294.478372 196.44699 
L 296.173325 195.722213 
L 297.868278 195.579499 
L 299.56323 198.903866 
L 301.258183 192.05479 
L 302.953136 190.727186 
L 304.648089 187.778013 
L 306.343042 192.74306 
L 308.037995 189.923158 
L 309.732948 194.392976 
L 311.427901 187.587234 
L 313.122853 187.86206 
L 314.817806 185.477877 
L 316.512759 181.200294 
L 318.207712 190.271817 
L 319.902665 182.217994 
L 321.597618 188.056319 
L 323.292571 181.963922 
L 324.987524 180.772286 
L 326.682476 180.12103 
L 328.377429 181.946139 
L 330.072382 185.910087 
L 331.767335 188.114517 
L 333.462288 178.590023 
L 335.157241 177.607835 
L 336.852194 170.187245 
L 338.547147 174.090278 
L 340.242099 172.746828 
L 341.937052 173.192946 
L 343.632005 166.671842 
L 345.326958 177.590403 
L 347.021911 175.397272 
L 348.716864 166.856197 
L 350.411817 170.354528 
L 352.10677 160.216794 
L 353.801722 170.156151 
L 357.191628 173.789288 
L 358.886581 169.955244 
L 360.581534 164.148122 
L 362.276487 169.228852 
L 363.97144 166.110531 
L 365.666393 163.250138 
L 367.361345 163.760004 
L 369.056298 172.815989 
L 370.751251 170.622072 
L 372.446204 163.259675 
L 374.141157 163.613487 
L 375.83611 157.928739 
L 377.531063 155.601373 
L 379.226016 160.263987 
L 380.920968 153.449373 
L 382.615921 161.670332 
L 384.310874 164.599908 
L 386.005827 160.613157 
L 387.70078 163.330642 
L 389.395733 155.154319 
L 391.090686 157.211073 
L 392.785638 159.817129 
L 394.480591 156.875932 
L 396.175544 157.886387 
L 397.870497 155.81127 
L 399.56545 146.843223 
L 401.260403 150.050638 
L 402.955356 161.228495 
L 404.650309 156.299224 
L 406.345261 154.148 
L 408.040214 147.496348 
L 409.735167 147.859984 
L 411.43012 152.486469 
L 413.125073 154.468573 
L 414.820026 143.705292 
L 416.514979 145.205406 
L 418.209932 140.461945 
L 419.904884 149.211069 
L 421.599837 139.720602 
L 423.29479 137.366313 
L 424.989743 147.00346 
L 426.684696 145.720187 
L 428.379649 141.191994 
L 430.074602 145.546809 
L 431.769555 146.61302 
L 433.464507 139.950904 
L 435.15946 138.000212 
L 436.854413 139.968738 
L 438.549366 137.031788 
L 440.244319 133.744553 
L 441.939272 135.261802 
L 443.634225 139.401715 
L 445.329178 142.793327 
L 447.02413 151.149727 
L 448.719083 135.108886 
L 450.414036 143.09735 
L 452.108989 136.55205 
L 453.803942 144.198294 
L 455.498895 139.942059 
L 457.193848 137.933102 
L 458.888801 141.02781 
L 460.583753 138.261892 
L 462.278706 137.041474 
L 463.973659 138.91791 
L 465.668612 127.679725 
L 467.363565 132.143918 
L 469.058518 133.153867 
L 470.753471 125.077086 
L 472.448424 133.442353 
L 474.143376 127.420632 
L 475.838329 138.682116 
L 477.533282 131.6782 
L 479.228235 131.772837 
L 480.923188 126.167147 
L 482.618141 133.340132 
L 484.313094 133.560656 
L 486.008047 132.376327 
L 487.702999 123.139902 
L 489.397952 135.410625 
L 491.092905 129.053553 
L 492.787858 123.417044 
L 494.482811 115.097907 
L 496.177764 122.464737 
L 497.872717 120.946046 
L 499.56767 130.188916 
L 501.262622 129.133869 
L 502.957575 130.340372 
L 504.652528 126.210912 
L 508.042434 122.349647 
L 509.737387 119.351754 
L 511.43234 126.465221 
L 513.127292 114.696282 
L 514.822245 116.770987 
L 516.517198 119.329025 
L 518.212151 121.424651 
L 519.907104 125.681942 
L 521.602057 117.557977 
L 523.29701 126.024067 
L 524.991963 120.324562 
L 526.686915 111.48884 
L 528.381868 122.30962 
L 530.076821 116.871963 
L 531.771774 112.168745 
L 533.466727 118.998434 
L 535.16168 118.200032 
L 536.856633 116.049659 
L 538.551586 117.874738 
L 540.246538 113.317717 
L 541.941491 114.387887 
L 543.636444 119.201951 
L 545.331397 118.304533 
L 547.02635 114.751955 
L 548.721303 114.042514 
L 550.416256 115.575023 
L 552.111209 106.394585 
L 553.806161 117.405129 
L 555.501114 113.943283 
L 557.196067 109.605797 
L 558.89102 113.790205 
L 560.585973 119.418607 
L 562.280926 109.804242 
L 563.975879 115.317974 
L 565.670832 114.745003 
L 567.365784 112.78402 
L 569.060737 107.77616 
L 570.75569 115.288279 
L 572.450643 108.861443 
L 574.145596 116.688425 
L 575.840549 106.69112 
L 577.535502 113.722573 
L 579.230455 115.327283 
L 579.230455 115.327283 
" clip-path="url(#p70c231c292)" style="fill: none; stroke: #a60628; stroke-width: 2; stroke-linecap: square"/>
   </g>
   <g id="line2d_37">
    <path d="M 72.439545 482.916313 
L 74.134498 481.975026 
L 75.829451 477.132898 
L 77.524404 470.12974 
L 79.219357 473.660929 
L 80.91431 469.912793 
L 82.609263 470.021403 
L 84.304216 464.841387 
L 85.999168 472.558504 
L 87.694121 465.517351 
L 89.389074 466.456796 
L 91.084027 456.180056 
L 92.77898 444.877911 
L 94.473933 439.342652 
L 96.168886 429.152641 
L 97.863839 432.605879 
L 99.558791 435.041164 
L 101.253744 433.902023 
L 102.948697 433.761166 
L 104.64365 447.519872 
L 106.338603 438.34814 
L 108.033556 437.857658 
L 109.728509 432.918876 
L 111.423462 427.425982 
L 113.118414 427.541507 
L 114.813367 414.126899 
L 116.50832 397.972348 
L 118.203273 390.197404 
L 119.898226 386.457957 
L 121.593179 375.266632 
L 123.288132 377.195919 
L 124.983085 369.959084 
L 126.678037 359.161127 
L 128.37299 350.394917 
L 130.067943 353.582059 
L 131.762896 353.816056 
L 133.457849 351.015949 
L 135.152802 342.379458 
L 136.847755 343.786107 
L 138.542708 339.599154 
L 140.23766 342.706925 
L 141.932613 344.5333 
L 143.627566 329.359104 
L 145.322519 328.979842 
L 147.017472 325.704705 
L 148.712425 318.148191 
L 150.407378 318.975634 
L 152.10233 319.177602 
L 153.797283 317.318707 
L 155.492236 300.349774 
L 157.187189 307.547605 
L 158.882142 303.89307 
L 160.577095 293.811692 
L 162.272048 292.831157 
L 163.967001 294.066318 
L 165.661953 287.14204 
L 167.356906 281.713485 
L 169.051859 276.813792 
L 170.746812 274.33018 
L 172.441765 275.692481 
L 174.136718 272.143093 
L 175.831671 264.708985 
L 177.526624 272.196538 
L 179.221576 267.796356 
L 180.916529 261.349418 
L 182.611482 262.060599 
L 184.306435 257.966259 
L 186.001388 261.562971 
L 187.696341 258.830861 
L 189.391294 254.345173 
L 191.086247 260.728304 
L 192.781199 255.280673 
L 194.476152 254.647911 
L 196.171105 242.598435 
L 197.866058 246.818418 
L 201.255964 242.087018 
L 202.950917 245.55696 
L 206.340822 241.332822 
L 208.035775 237.949587 
L 209.730728 234.961896 
L 211.425681 231.683744 
L 213.120634 230.132202 
L 214.815587 226.754088 
L 216.51054 231.957501 
L 218.205493 227.793292 
L 219.900445 229.479011 
L 221.595398 231.54448 
L 223.290351 223.888493 
L 224.985304 229.360352 
L 226.680257 222.550273 
L 228.37521 218.601108 
L 230.070163 224.01412 
L 231.765116 215.035707 
L 233.460068 212.222714 
L 235.155021 211.280863 
L 236.849974 220.085812 
L 238.544927 213.425556 
L 240.23988 212.793401 
L 241.934833 209.696215 
L 243.629786 205.110529 
L 245.324739 204.014681 
L 247.019691 208.328377 
L 248.714644 201.881447 
L 252.10455 210.808992 
L 253.799503 203.347308 
L 257.189409 197.927282 
L 258.884362 205.591887 
L 260.579314 204.678313 
L 262.274267 190.32462 
L 263.96922 195.594157 
L 265.664173 191.464597 
L 267.359126 199.119082 
L 269.054079 195.326801 
L 270.749032 192.06452 
L 272.443984 197.455406 
L 274.138937 194.434294 
L 275.83389 188.608178 
L 277.528843 185.598397 
L 279.223796 187.349291 
L 280.918749 181.927787 
L 282.613702 186.943926 
L 284.308655 188.890079 
L 286.003607 181.239084 
L 287.69856 184.263137 
L 289.393513 175.763162 
L 291.088466 173.503299 
L 292.783419 182.308956 
L 294.478372 178.060025 
L 296.173325 179.818677 
L 297.868278 173.60815 
L 299.56323 179.256147 
L 301.258183 173.406317 
L 302.953136 181.416089 
L 304.648089 174.586922 
L 306.343042 176.378995 
L 308.037995 175.331141 
L 309.732948 170.605275 
L 311.427901 158.218878 
L 313.122853 169.740884 
L 314.817806 167.700872 
L 316.512759 166.928091 
L 318.207712 173.195961 
L 319.902665 167.145071 
L 321.597618 172.599078 
L 323.292571 163.440479 
L 324.987524 164.792066 
L 326.682476 161.320886 
L 328.377429 168.876263 
L 330.072382 164.058118 
L 331.767335 166.555465 
L 333.462288 149.752321 
L 335.157241 161.641345 
L 336.852194 171.186925 
L 338.547147 158.135675 
L 340.242099 162.828744 
L 341.937052 161.000013 
L 343.632005 157.612183 
L 345.326958 152.322029 
L 347.021911 154.876759 
L 348.716864 154.745864 
L 350.411817 160.764018 
L 352.10677 150.48729 
L 353.801722 148.894683 
L 355.496675 157.877411 
L 357.191628 156.482371 
L 358.886581 156.378086 
L 360.581534 142.224221 
L 362.276487 150.44149 
L 363.97144 148.304747 
L 365.666393 154.865621 
L 367.361345 145.78116 
L 369.056298 160.315834 
L 370.751251 154.149138 
L 372.446204 147.001988 
L 374.141157 150.658725 
L 375.83611 143.55892 
L 377.531063 148.993811 
L 379.226016 143.87982 
L 380.920968 149.675433 
L 382.615921 148.003656 
L 384.310874 147.689722 
L 386.005827 138.520117 
L 387.70078 143.128113 
L 389.395733 154.484972 
L 391.090686 150.147254 
L 392.785638 143.269878 
L 394.480591 143.494134 
L 396.175544 140.047103 
L 397.870497 137.473797 
L 399.56545 141.756947 
L 401.260403 138.98378 
L 402.955356 131.004513 
L 404.650309 136.508473 
L 406.345261 134.619607 
L 408.040214 141.7772 
L 409.735167 143.075242 
L 411.43012 127.781444 
L 413.125073 130.946433 
L 414.820026 139.111879 
L 416.514979 127.539432 
L 418.209932 130.859785 
L 419.904884 132.384048 
L 421.599837 137.688954 
L 423.29479 131.479157 
L 424.989743 117.13616 
L 426.684696 129.947797 
L 428.379649 131.052239 
L 430.074602 125.33557 
L 431.769555 131.527213 
L 433.464507 129.24563 
L 435.15946 122.707087 
L 436.854413 127.951536 
L 438.549366 122.063061 
L 440.244319 128.226264 
L 441.939272 122.124468 
L 443.634225 127.348806 
L 445.329178 130.833857 
L 447.02413 127.589169 
L 448.719083 119.712375 
L 450.414036 118.245158 
L 452.108989 114.396138 
L 453.803942 120.896978 
L 457.193848 116.899967 
L 458.888801 119.31837 
L 460.583753 125.040721 
L 462.278706 120.45527 
L 463.973659 113.580919 
L 465.668612 111.95839 
L 467.363565 109.964215 
L 469.058518 115.654371 
L 470.753471 117.533319 
L 472.448424 111.142352 
L 474.143376 119.962068 
L 475.838329 109.911499 
L 477.533282 111.553195 
L 479.228235 105.077327 
L 480.923188 112.959932 
L 482.618141 102.306143 
L 484.313094 112.501307 
L 486.008047 116.045379 
L 487.702999 114.475161 
L 489.397952 108.292957 
L 491.092905 117.516559 
L 492.787858 114.610285 
L 494.482811 108.20187 
L 496.177764 107.398969 
L 497.872717 105.91626 
L 499.56767 112.96383 
L 501.262622 114.29984 
L 502.957575 109.783793 
L 504.652528 111.858715 
L 506.347481 109.613149 
L 508.042434 110.973802 
L 509.737387 108.543635 
L 511.43234 100.845105 
L 513.127292 110.719154 
L 514.822245 98.435388 
L 516.517198 107.448865 
L 518.212151 105.882503 
L 519.907104 98.350538 
L 521.602057 105.387796 
L 523.29701 93.479475 
L 524.991963 98.358825 
L 526.686915 102.457919 
L 528.381868 102.378267 
L 530.076821 98.224654 
L 531.771774 98.599953 
L 533.466727 104.458945 
L 535.16168 94.26328 
L 536.856633 101.494482 
L 538.551586 98.084396 
L 540.246538 100.286027 
L 541.941491 98.743587 
L 543.636444 95.703348 
L 545.331397 99.539298 
L 547.02635 101.742567 
L 548.721303 95.894068 
L 550.416256 98.665664 
L 552.111209 88.459096 
L 553.806161 92.801223 
L 555.501114 94.940001 
L 557.196067 91.401444 
L 560.585973 103.316679 
L 562.280926 97.644959 
L 563.975879 97.190256 
L 565.670832 87.035448 
L 567.365784 92.940005 
L 569.060737 84.324545 
L 570.75569 93.823171 
L 572.450643 95.129255 
L 574.145596 93.23012 
L 575.840549 89.052899 
L 577.535502 89.832352 
L 579.230455 91.600602 
L 579.230455 91.600602 
" clip-path="url(#p70c231c292)" style="fill: none; stroke: #7a68a6; stroke-width: 2; stroke-linecap: square"/>
   </g>
   <g id="line2d_38">
    <path d="M 72.439545 497.602121 
L 74.134498 494.055182 
L 75.829451 493.975439 
L 77.524404 493.753391 
L 79.219357 493.032194 
L 80.91431 490.600087 
L 82.609263 491.279584 
L 84.304216 493.647817 
L 85.999168 487.502409 
L 87.694121 488.303852 
L 89.389074 481.375373 
L 91.084027 477.38992 
L 92.77898 472.712219 
L 94.473933 475.745381 
L 96.168886 474.35198 
L 97.863839 477.897707 
L 99.558791 482.088691 
L 101.253744 470.114376 
L 102.948697 460.267679 
L 104.64365 459.743563 
L 106.338603 454.280285 
L 108.033556 445.957014 
L 109.728509 434.884946 
L 111.423462 422.038407 
L 113.118414 421.551443 
L 114.813367 413.90592 
L 116.50832 409.397109 
L 118.203273 404.17541 
L 119.898226 404.897213 
L 121.593179 396.26857 
L 123.288132 401.798312 
L 124.983085 390.034348 
L 126.678037 390.787495 
L 128.37299 385.209122 
L 130.067943 383.744656 
L 131.762896 380.597121 
L 133.457849 375.053108 
L 135.152802 371.992197 
L 136.847755 374.00923 
L 138.542708 366.254433 
L 140.23766 363.51178 
L 141.932613 368.018939 
L 143.627566 363.203845 
L 145.322519 364.948033 
L 147.017472 357.762872 
L 148.712425 355.181373 
L 150.407378 360.848809 
L 152.10233 351.221933 
L 153.797283 353.168978 
L 155.492236 339.99974 
L 157.187189 339.883623 
L 158.882142 339.108806 
L 160.577095 338.880115 
L 162.272048 340.343812 
L 163.967001 338.41258 
L 165.661953 338.533156 
L 167.356906 340.535869 
L 169.051859 338.049769 
L 170.746812 336.283502 
L 172.441765 325.120899 
L 174.136718 326.710241 
L 175.831671 314.899396 
L 177.526624 318.008699 
L 179.221576 315.163029 
L 180.916529 313.455376 
L 182.611482 301.682033 
L 184.306435 299.549644 
L 186.001388 301.689543 
L 187.696341 291.821711 
L 189.391294 288.410308 
L 191.086247 282.518649 
L 192.781199 285.400178 
L 196.171105 268.572009 
L 197.866058 271.065338 
L 199.561011 272.370478 
L 201.255964 265.045486 
L 202.950917 267.178462 
L 204.64587 260.972226 
L 206.340822 266.492128 
L 208.035775 263.111758 
L 209.730728 263.059223 
L 211.425681 253.571624 
L 213.120634 261.665515 
L 214.815587 259.758307 
L 216.51054 246.635249 
L 218.205493 244.895643 
L 219.900445 243.865428 
L 221.595398 248.654318 
L 223.290351 249.715146 
L 224.985304 238.225445 
L 226.680257 238.758093 
L 228.37521 238.311462 
L 230.070163 236.661775 
L 231.765116 239.082376 
L 233.460068 231.667925 
L 235.155021 227.270505 
L 236.849974 231.509291 
L 238.544927 227.737687 
L 240.23988 230.841124 
L 241.934833 232.513332 
L 243.629786 227.228932 
L 245.324739 235.894686 
L 247.019691 226.166984 
L 248.714644 224.178452 
L 250.409597 217.118554 
L 252.10455 217.089854 
L 253.799503 220.543939 
L 255.494456 227.347379 
L 257.189409 217.512302 
L 258.884362 224.549 
L 260.579314 213.877304 
L 262.274267 201.357327 
L 263.96922 220.210981 
L 265.664173 211.528394 
L 267.359126 206.743101 
L 269.054079 218.278363 
L 270.749032 212.94741 
L 272.443984 210.600482 
L 274.138937 205.803586 
L 275.83389 201.886051 
L 277.528843 201.37431 
L 279.223796 196.772538 
L 280.918749 200.630521 
L 282.613702 199.401928 
L 284.308655 202.840729 
L 286.003607 195.505516 
L 287.69856 195.559003 
L 289.393513 203.399561 
L 291.088466 190.961079 
L 292.783419 188.169193 
L 294.478372 198.056491 
L 296.173325 192.680491 
L 297.868278 193.422096 
L 299.56323 188.417504 
L 301.258183 187.049604 
L 302.953136 184.858932 
L 304.648089 189.348597 
L 306.343042 184.717626 
L 308.037995 189.609494 
L 309.732948 181.440515 
L 311.427901 186.643104 
L 313.122853 184.227203 
L 314.817806 179.606642 
L 316.512759 176.659255 
L 318.207712 180.397124 
L 319.902665 180.829525 
L 321.597618 175.030684 
L 323.292571 177.818866 
L 324.987524 177.650615 
L 326.682476 175.532044 
L 328.377429 172.818947 
L 330.072382 177.195868 
L 331.767335 173.656444 
L 333.462288 172.810788 
L 335.157241 175.941339 
L 336.852194 171.486395 
L 338.547147 172.033172 
L 340.242099 171.24932 
L 341.937052 172.943937 
L 343.632005 175.810312 
L 345.326958 164.852796 
L 347.021911 170.896242 
L 348.716864 168.35594 
L 350.411817 176.839291 
L 352.10677 167.506674 
L 353.801722 171.388555 
L 355.496675 169.085504 
L 357.191628 176.028939 
L 358.886581 171.815933 
L 360.581534 170.004911 
L 362.276487 171.094512 
L 363.97144 161.224044 
L 365.666393 163.057254 
L 367.361345 169.656093 
L 369.056298 166.168549 
L 370.751251 153.849208 
L 372.446204 159.973263 
L 374.141157 160.715189 
L 375.83611 157.864421 
L 377.531063 163.602304 
L 379.226016 159.437728 
L 380.920968 159.802828 
L 382.615921 155.597158 
L 384.310874 159.779582 
L 386.005827 162.59267 
L 387.70078 165.908882 
L 389.395733 155.18896 
L 391.090686 161.27652 
L 394.480591 157.560232 
L 396.175544 158.646192 
L 397.870497 156.713752 
L 399.56545 156.651022 
L 401.260403 149.217166 
L 402.955356 153.728085 
L 404.650309 150.273778 
L 406.345261 159.58959 
L 408.040214 155.258453 
L 409.735167 151.326416 
L 411.43012 158.305641 
L 413.125073 152.75019 
L 414.820026 157.719938 
L 416.514979 150.664767 
L 418.209932 150.893371 
L 419.904884 150.413612 
L 421.599837 153.624336 
L 423.29479 147.448445 
L 424.989743 152.914106 
L 426.684696 148.383825 
L 428.379649 148.936752 
L 430.074602 154.996013 
L 431.769555 148.313381 
L 433.464507 152.412856 
L 435.15946 153.098129 
L 436.854413 148.668705 
L 438.549366 148.374593 
L 440.244319 153.811682 
L 441.939272 157.544195 
L 443.634225 149.511628 
L 447.02413 151.049869 
L 448.719083 147.008375 
L 450.414036 145.993311 
L 452.108989 147.559948 
L 453.803942 146.322979 
L 455.498895 146.570739 
L 457.193848 147.67672 
L 458.888801 140.773244 
L 460.583753 137.942939 
L 462.278706 138.937926 
L 463.973659 145.237123 
L 465.668612 149.810553 
L 467.363565 143.101283 
L 469.058518 144.77684 
L 470.753471 147.353748 
L 472.448424 143.034501 
L 474.143376 139.032399 
L 475.838329 138.12461 
L 477.533282 139.56966 
L 479.228235 129.706329 
L 480.923188 142.12975 
L 482.618141 143.141482 
L 484.313094 140.598992 
L 486.008047 135.609403 
L 487.702999 148.649696 
L 489.397952 138.520157 
L 491.092905 145.217684 
L 492.787858 138.179691 
L 494.482811 137.263522 
L 496.177764 139.242178 
L 497.872717 142.077125 
L 499.56767 137.704466 
L 501.262622 137.845233 
L 502.957575 136.929314 
L 504.652528 136.525156 
L 506.347481 137.727935 
L 508.042434 139.944895 
L 509.737387 134.356692 
L 511.43234 131.877987 
L 513.127292 135.221912 
L 514.822245 134.568077 
L 516.517198 137.479238 
L 518.212151 127.877019 
L 519.907104 131.853141 
L 521.602057 135.465582 
L 523.29701 130.146614 
L 524.991963 130.051064 
L 526.686915 126.138085 
L 528.381868 130.862352 
L 530.076821 132.507661 
L 531.771774 131.098446 
L 533.466727 122.474408 
L 535.16168 125.771408 
L 536.856633 129.351987 
L 538.551586 133.3867 
L 540.246538 125.243216 
L 541.941491 131.99519 
L 543.636444 123.460294 
L 545.331397 130.19321 
L 547.02635 131.791396 
L 548.721303 128.108008 
L 550.416256 126.540093 
L 552.111209 124.645338 
L 553.806161 117.507016 
L 555.501114 128.165912 
L 557.196067 128.221424 
L 558.89102 132.374733 
L 560.585973 128.72665 
L 562.280926 118.909178 
L 563.975879 125.428695 
L 565.670832 123.502556 
L 567.365784 123.173919 
L 569.060737 125.149745 
L 570.75569 122.242476 
L 572.450643 121.52875 
L 574.145596 124.741616 
L 575.840549 130.151722 
L 577.535502 121.379163 
L 579.230455 123.236177 
L 579.230455 123.236177 
" clip-path="url(#p70c231c292)" style="fill: none; stroke: #467821; stroke-width: 2; stroke-linecap: square"/>
   </g>
   <g id="patch_3">
    <path d="M 47.1 534.66 
L 47.1 62.88 
" style="fill: none; stroke: #bcbcbc; stroke-width: 0.8; stroke-linejoin: miter; stroke-linecap: square"/>
   </g>
   <g id="patch_4">
    <path d="M 604.57 534.66 
L 604.57 62.88 
" style="fill: none; stroke: #bcbcbc; stroke-width: 0.8; stroke-linejoin: miter; stroke-linecap: square"/>
   </g>
   <g id="patch_5">
    <path d="M 47.1 534.66 
L 604.57 534.66 
" style="fill: none; stroke: #bcbcbc; stroke-width: 0.8; stroke-linejoin: miter; stroke-linecap: square"/>
   </g>
   <g id="patch_6">
    <path d="M 47.1 62.88 
L 604.57 62.88 
" style="fill: none; stroke: #bcbcbc; stroke-width: 0.8; stroke-linejoin: miter; stroke-linecap: square"/>
   </g>
   <g id="text_20">
    <g id="patch_7">
     <path d="M 74.9735 123.54275 
L 200.168813 123.54275 
Q 205.168813 123.54275 205.168813 118.54275 
L 205.168813 86.469 
Q 205.168813 81.469 200.168813 81.469 
L 74.9735 81.469 
Q 69.9735 81.469 69.9735 86.469 
L 69.9735 118.54275 
Q 69.9735 123.54275 74.9735 123.54275 
z
" style="fill: #d3d3d3; stroke: #000000; stroke-width: 0.5; stroke-linejoin: miter"/>
    </g>
    <!-- Num Server Rounds: 800 -->
    <g transform="translate(74.9735 94.067437) scale(0.1 -0.1)">
     <defs>
      <path id="DejaVuSans-4e" d="M 628 4666 
L 1478 4666 
L 3547 763 
L 3547 4666 
L 4159 4666 
L 4159 0 
L 3309 0 
L 1241 3903 
L 1241 0 
L 628 0 
L 628 4666 
z
" transform="scale(0.015625)"/>
      <path id="DejaVuSans-6d" d="M 3328 2828 
Q 3544 3216 3844 3400 
Q 4144 3584 4550 3584 
Q 5097 3584 5394 3201 
Q 5691 2819 5691 2113 
L 5691 0 
L 5113 0 
L 5113 2094 
Q 5113 2597 4934 2840 
Q 4756 3084 4391 3084 
Q 3944 3084 3684 2787 
Q 3425 2491 3425 1978 
L 3425 0 
L 2847 0 
L 2847 2094 
Q 2847 2600 2669 2842 
Q 2491 3084 2119 3084 
Q 1678 3084 1418 2786 
Q 1159 2488 1159 1978 
L 1159 0 
L 581 0 
L 581 3500 
L 1159 3500 
L 1159 2956 
Q 1356 3278 1631 3431 
Q 1906 3584 2284 3584 
Q 2666 3584 2933 3390 
Q 3200 3197 3328 2828 
z
" transform="scale(0.015625)"/>
      <path id="DejaVuSans-20" transform="scale(0.015625)"/>
      <path id="DejaVuSans-53" d="M 3425 4513 
L 3425 3897 
Q 3066 4069 2747 4153 
Q 2428 4238 2131 4238 
Q 1616 4238 1336 4038 
Q 1056 3838 1056 3469 
Q 1056 3159 1242 3001 
Q 1428 2844 1947 2747 
L 2328 2669 
Q 3034 2534 3370 2195 
Q 3706 1856 3706 1288 
Q 3706 609 3251 259 
Q 2797 -91 1919 -91 
Q 1588 -91 1214 -16 
Q 841 59 441 206 
L 441 856 
Q 825 641 1194 531 
Q 1563 422 1919 422 
Q 2459 422 2753 634 
Q 3047 847 3047 1241 
Q 3047 1584 2836 1778 
Q 2625 1972 2144 2069 
L 1759 2144 
Q 1053 2284 737 2584 
Q 422 2884 422 3419 
Q 422 4038 858 4394 
Q 1294 4750 2059 4750 
Q 2388 4750 2728 4690 
Q 3069 4631 3425 4513 
z
" transform="scale(0.015625)"/>
      <path id="DejaVuSans-65" d="M 3597 1894 
L 3597 1613 
L 953 1613 
Q 991 1019 1311 708 
Q 1631 397 2203 397 
Q 2534 397 2845 478 
Q 3156 559 3463 722 
L 3463 178 
Q 3153 47 2828 -22 
Q 2503 -91 2169 -91 
Q 1331 -91 842 396 
Q 353 884 353 1716 
Q 353 2575 817 3079 
Q 1281 3584 2069 3584 
Q 2775 3584 3186 3129 
Q 3597 2675 3597 1894 
z
M 3022 2063 
Q 3016 2534 2758 2815 
Q 2500 3097 2075 3097 
Q 1594 3097 1305 2825 
Q 1016 2553 972 2059 
L 3022 2063 
z
" transform="scale(0.015625)"/>
      <path id="DejaVuSans-76" d="M 191 3500 
L 800 3500 
L 1894 563 
L 2988 3500 
L 3597 3500 
L 2284 0 
L 1503 0 
L 191 3500 
z
" transform="scale(0.015625)"/>
      <path id="DejaVuSans-73" d="M 2834 3397 
L 2834 2853 
Q 2591 2978 2328 3040 
Q 2066 3103 1784 3103 
Q 1356 3103 1142 2972 
Q 928 2841 928 2578 
Q 928 2378 1081 2264 
Q 1234 2150 1697 2047 
L 1894 2003 
Q 2506 1872 2764 1633 
Q 3022 1394 3022 966 
Q 3022 478 2636 193 
Q 2250 -91 1575 -91 
Q 1294 -91 989 -36 
Q 684 19 347 128 
L 347 722 
Q 666 556 975 473 
Q 1284 391 1588 391 
Q 1994 391 2212 530 
Q 2431 669 2431 922 
Q 2431 1156 2273 1281 
Q 2116 1406 1581 1522 
L 1381 1569 
Q 847 1681 609 1914 
Q 372 2147 372 2553 
Q 372 3047 722 3315 
Q 1072 3584 1716 3584 
Q 2034 3584 2315 3537 
Q 2597 3491 2834 3397 
z
" transform="scale(0.015625)"/>
      <path id="DejaVuSans-3a" d="M 750 794 
L 1409 794 
L 1409 0 
L 750 0 
L 750 794 
z
M 750 3309 
L 1409 3309 
L 1409 2516 
L 750 2516 
L 750 3309 
z
" transform="scale(0.015625)"/>
     </defs>
     <use xlink:href="#DejaVuSans-4e"/>
     <use xlink:href="#DejaVuSans-75" x="74.804688"/>
     <use xlink:href="#DejaVuSans-6d" x="138.183594"/>
     <use xlink:href="#DejaVuSans-20" x="235.595703"/>
     <use xlink:href="#DejaVuSans-53" x="267.382812"/>
     <use xlink:href="#DejaVuSans-65" x="330.859375"/>
     <use xlink:href="#DejaVuSans-72" x="392.382812"/>
     <use xlink:href="#DejaVuSans-76" x="433.496094"/>
     <use xlink:href="#DejaVuSans-65" x="492.675781"/>
     <use xlink:href="#DejaVuSans-72" x="554.199219"/>
     <use xlink:href="#DejaVuSans-20" x="595.3125"/>
     <use xlink:href="#DejaVuSans-52" x="627.099609"/>
     <use xlink:href="#DejaVuSans-6f" x="692.082031"/>
     <use xlink:href="#DejaVuSans-75" x="753.263672"/>
     <use xlink:href="#DejaVuSans-6e" x="816.642578"/>
     <use xlink:href="#DejaVuSans-64" x="880.021484"/>
     <use xlink:href="#DejaVuSans-73" x="943.498047"/>
     <use xlink:href="#DejaVuSans-3a" x="995.597656"/>
     <use xlink:href="#DejaVuSans-20" x="1029.289062"/>
     <use xlink:href="#DejaVuSans-38" x="1061.076172"/>
     <use xlink:href="#DejaVuSans-30" x="1124.699219"/>
     <use xlink:href="#DejaVuSans-30" x="1188.322266"/>
    </g>
    <!-- Local Epochs: 1 -->
    <g transform="translate(74.9735 105.26525) scale(0.1 -0.1)">
     <defs>
      <path id="DejaVuSans-4c" d="M 628 4666 
L 1259 4666 
L 1259 531 
L 3531 531 
L 3531 0 
L 628 0 
L 628 4666 
z
" transform="scale(0.015625)"/>
      <path id="DejaVuSans-6c" d="M 603 4863 
L 1178 4863 
L 1178 0 
L 603 0 
L 603 4863 
z
" transform="scale(0.015625)"/>
      <path id="DejaVuSans-45" d="M 628 4666 
L 3578 4666 
L 3578 4134 
L 1259 4134 
L 1259 2753 
L 3481 2753 
L 3481 2222 
L 1259 2222 
L 1259 531 
L 3634 531 
L 3634 0 
L 628 0 
L 628 4666 
z
" transform="scale(0.015625)"/>
      <path id="DejaVuSans-70" d="M 1159 525 
L 1159 -1331 
L 581 -1331 
L 581 3500 
L 1159 3500 
L 1159 2969 
Q 1341 3281 1617 3432 
Q 1894 3584 2278 3584 
Q 2916 3584 3314 3078 
Q 3713 2572 3713 1747 
Q 3713 922 3314 415 
Q 2916 -91 2278 -91 
Q 1894 -91 1617 61 
Q 1341 213 1159 525 
z
M 3116 1747 
Q 3116 2381 2855 2742 
Q 2594 3103 2138 3103 
Q 1681 3103 1420 2742 
Q 1159 2381 1159 1747 
Q 1159 1113 1420 752 
Q 1681 391 2138 391 
Q 2594 391 2855 752 
Q 3116 1113 3116 1747 
z
" transform="scale(0.015625)"/>
      <path id="DejaVuSans-68" d="M 3513 2113 
L 3513 0 
L 2938 0 
L 2938 2094 
Q 2938 2591 2744 2837 
Q 2550 3084 2163 3084 
Q 1697 3084 1428 2787 
Q 1159 2491 1159 1978 
L 1159 0 
L 581 0 
L 581 4863 
L 1159 4863 
L 1159 2956 
Q 1366 3272 1645 3428 
Q 1925 3584 2291 3584 
Q 2894 3584 3203 3211 
Q 3513 2838 3513 2113 
z
" transform="scale(0.015625)"/>
     </defs>
     <use xlink:href="#DejaVuSans-4c"/>
     <use xlink:href="#DejaVuSans-6f" x="53.962891"/>
     <use xlink:href="#DejaVuSans-63" x="115.144531"/>
     <use xlink:href="#DejaVuSans-61" x="170.125"/>
     <use xlink:href="#DejaVuSans-6c" x="231.404297"/>
     <use xlink:href="#DejaVuSans-20" x="259.1875"/>
     <use xlink:href="#DejaVuSans-45" x="290.974609"/>
     <use xlink:href="#DejaVuSans-70" x="354.158203"/>
     <use xlink:href="#DejaVuSans-6f" x="417.634766"/>
     <use xlink:href="#DejaVuSans-63" x="478.816406"/>
     <use xlink:href="#DejaVuSans-68" x="533.796875"/>
     <use xlink:href="#DejaVuSans-73" x="597.175781"/>
     <use xlink:href="#DejaVuSans-3a" x="649.275391"/>
     <use xlink:href="#DejaVuSans-20" x="682.966797"/>
     <use xlink:href="#DejaVuSans-31" x="714.753906"/>
    </g>
    <!-- Num Supernodes: 50 -->
    <g transform="translate(74.9735 116.463062) scale(0.1 -0.1)">
     <use xlink:href="#DejaVuSans-4e"/>
     <use xlink:href="#DejaVuSans-75" x="74.804688"/>
     <use xlink:href="#DejaVuSans-6d" x="138.183594"/>
     <use xlink:href="#DejaVuSans-20" x="235.595703"/>
     <use xlink:href="#DejaVuSans-53" x="267.382812"/>
     <use xlink:href="#DejaVuSans-75" x="330.859375"/>
     <use xlink:href="#DejaVuSans-70" x="394.238281"/>
     <use xlink:href="#DejaVuSans-65" x="457.714844"/>
     <use xlink:href="#DejaVuSans-72" x="519.238281"/>
     <use xlink:href="#DejaVuSans-6e" x="558.601562"/>
     <use xlink:href="#DejaVuSans-6f" x="621.980469"/>
     <use xlink:href="#DejaVuSans-64" x="683.162109"/>
     <use xlink:href="#DejaVuSans-65" x="746.638672"/>
     <use xlink:href="#DejaVuSans-73" x="808.162109"/>
     <use xlink:href="#DejaVuSans-3a" x="860.261719"/>
     <use xlink:href="#DejaVuSans-20" x="893.953125"/>
     <use xlink:href="#DejaVuSans-35" x="925.740234"/>
     <use xlink:href="#DejaVuSans-30" x="989.363281"/>
    </g>
   </g>
   <g id="text_21">
    <!-- Partitioner: iid -->
    <g transform="translate(269.665 56.88) scale(0.16 -0.16)">
     <defs>
      <path id="DejaVuSans-50" d="M 1259 4147 
L 1259 2394 
L 2053 2394 
Q 2494 2394 2734 2622 
Q 2975 2850 2975 3272 
Q 2975 3691 2734 3919 
Q 2494 4147 2053 4147 
L 1259 4147 
z
M 628 4666 
L 2053 4666 
Q 2838 4666 3239 4311 
Q 3641 3956 3641 3272 
Q 3641 2581 3239 2228 
Q 2838 1875 2053 1875 
L 1259 1875 
L 1259 0 
L 628 0 
L 628 4666 
z
" transform="scale(0.015625)"/>
      <path id="DejaVuSans-74" d="M 1172 4494 
L 1172 3500 
L 2356 3500 
L 2356 3053 
L 1172 3053 
L 1172 1153 
Q 1172 725 1289 603 
Q 1406 481 1766 481 
L 2356 481 
L 2356 0 
L 1766 0 
Q 1100 0 847 248 
Q 594 497 594 1153 
L 594 3053 
L 172 3053 
L 172 3500 
L 594 3500 
L 594 4494 
L 1172 4494 
z
" transform="scale(0.015625)"/>
      <path id="DejaVuSans-69" d="M 603 3500 
L 1178 3500 
L 1178 0 
L 603 0 
L 603 3500 
z
M 603 4863 
L 1178 4863 
L 1178 4134 
L 603 4134 
L 603 4863 
z
" transform="scale(0.015625)"/>
     </defs>
     <use xlink:href="#DejaVuSans-50"/>
     <use xlink:href="#DejaVuSans-61" x="55.802734"/>
     <use xlink:href="#DejaVuSans-72" x="117.082031"/>
     <use xlink:href="#DejaVuSans-74" x="158.195312"/>
     <use xlink:href="#DejaVuSans-69" x="197.404297"/>
     <use xlink:href="#DejaVuSans-74" x="225.1875"/>
     <use xlink:href="#DejaVuSans-69" x="264.396484"/>
     <use xlink:href="#DejaVuSans-6f" x="292.179688"/>
     <use xlink:href="#DejaVuSans-6e" x="353.361328"/>
     <use xlink:href="#DejaVuSans-65" x="416.740234"/>
     <use xlink:href="#DejaVuSans-72" x="478.263672"/>
     <use xlink:href="#DejaVuSans-3a" x="517.626953"/>
     <use xlink:href="#DejaVuSans-20" x="551.318359"/>
     <use xlink:href="#DejaVuSans-69" x="583.105469"/>
     <use xlink:href="#DejaVuSans-69" x="610.888672"/>
     <use xlink:href="#DejaVuSans-64" x="638.671875"/>
    </g>
   </g>
   <g id="legend_1">
    <g id="patch_8">
     <path d="M 639.4435 130.426875 
L 845.44975 130.426875 
Q 847.44975 130.426875 847.44975 128.426875 
L 847.44975 69.88 
Q 847.44975 67.88 845.44975 67.88 
L 639.4435 67.88 
Q 637.4435 67.88 637.4435 69.88 
L 637.4435 128.426875 
Q 637.4435 130.426875 639.4435 130.426875 
z
" style="fill: #eeeeee; opacity: 0.8; stroke: #cccccc; stroke-width: 0.5; stroke-linejoin: miter"/>
    </g>
    <g id="line2d_39">
     <path d="M 641.4435 75.978437 
L 651.4435 75.978437 
L 661.4435 75.978437 
" style="fill: none; stroke: #348abd; stroke-width: 2; stroke-linecap: square"/>
    </g>
    <g id="text_22">
     <!-- v6\fedavg-out - accuracy (Spline) -->
     <g transform="translate(669.4435 79.478437) scale(0.1 -0.1)">
      <defs>
       <path id="DejaVuSans-5c" d="M 531 4666 
L 2156 -594 
L 1625 -594 
L 0 4666 
L 531 4666 
z
" transform="scale(0.015625)"/>
       <path id="DejaVuSans-66" d="M 2375 4863 
L 2375 4384 
L 1825 4384 
Q 1516 4384 1395 4259 
Q 1275 4134 1275 3809 
L 1275 3500 
L 2222 3500 
L 2222 3053 
L 1275 3053 
L 1275 0 
L 697 0 
L 697 3053 
L 147 3053 
L 147 3500 
L 697 3500 
L 697 3744 
Q 697 4328 969 4595 
Q 1241 4863 1831 4863 
L 2375 4863 
z
" transform="scale(0.015625)"/>
       <path id="DejaVuSans-67" d="M 2906 1791 
Q 2906 2416 2648 2759 
Q 2391 3103 1925 3103 
Q 1463 3103 1205 2759 
Q 947 2416 947 1791 
Q 947 1169 1205 825 
Q 1463 481 1925 481 
Q 2391 481 2648 825 
Q 2906 1169 2906 1791 
z
M 3481 434 
Q 3481 -459 3084 -895 
Q 2688 -1331 1869 -1331 
Q 1566 -1331 1297 -1286 
Q 1028 -1241 775 -1147 
L 775 -588 
Q 1028 -725 1275 -790 
Q 1522 -856 1778 -856 
Q 2344 -856 2625 -561 
Q 2906 -266 2906 331 
L 2906 616 
Q 2728 306 2450 153 
Q 2172 0 1784 0 
Q 1141 0 747 490 
Q 353 981 353 1791 
Q 353 2603 747 3093 
Q 1141 3584 1784 3584 
Q 2172 3584 2450 3431 
Q 2728 3278 2906 2969 
L 2906 3500 
L 3481 3500 
L 3481 434 
z
" transform="scale(0.015625)"/>
       <path id="DejaVuSans-2d" d="M 313 2009 
L 1997 2009 
L 1997 1497 
L 313 1497 
L 313 2009 
z
" transform="scale(0.015625)"/>
       <path id="DejaVuSans-28" d="M 1984 4856 
Q 1566 4138 1362 3434 
Q 1159 2731 1159 2009 
Q 1159 1288 1364 580 
Q 1569 -128 1984 -844 
L 1484 -844 
Q 1016 -109 783 600 
Q 550 1309 550 2009 
Q 550 2706 781 3412 
Q 1013 4119 1484 4856 
L 1984 4856 
z
" transform="scale(0.015625)"/>
       <path id="DejaVuSans-29" d="M 513 4856 
L 1013 4856 
Q 1481 4119 1714 3412 
Q 1947 2706 1947 2009 
Q 1947 1309 1714 600 
Q 1481 -109 1013 -844 
L 513 -844 
Q 928 -128 1133 580 
Q 1338 1288 1338 2009 
Q 1338 2731 1133 3434 
Q 928 4138 513 4856 
z
" transform="scale(0.015625)"/>
      </defs>
      <use xlink:href="#DejaVuSans-76"/>
      <use xlink:href="#DejaVuSans-36" x="59.179688"/>
      <use xlink:href="#DejaVuSans-5c" x="122.802734"/>
      <use xlink:href="#DejaVuSans-66" x="156.494141"/>
      <use xlink:href="#DejaVuSans-65" x="191.699219"/>
      <use xlink:href="#DejaVuSans-64" x="253.222656"/>
      <use xlink:href="#DejaVuSans-61" x="316.699219"/>
      <use xlink:href="#DejaVuSans-76" x="377.978516"/>
      <use xlink:href="#DejaVuSans-67" x="437.158203"/>
      <use xlink:href="#DejaVuSans-2d" x="500.634766"/>
      <use xlink:href="#DejaVuSans-6f" x="538.59375"/>
      <use xlink:href="#DejaVuSans-75" x="599.775391"/>
      <use xlink:href="#DejaVuSans-74" x="663.154297"/>
      <use xlink:href="#DejaVuSans-20" x="702.363281"/>
      <use xlink:href="#DejaVuSans-2d" x="734.150391"/>
      <use xlink:href="#DejaVuSans-20" x="770.234375"/>
      <use xlink:href="#DejaVuSans-61" x="802.021484"/>
      <use xlink:href="#DejaVuSans-63" x="863.300781"/>
      <use xlink:href="#DejaVuSans-63" x="918.28125"/>
      <use xlink:href="#DejaVuSans-75" x="973.261719"/>
      <use xlink:href="#DejaVuSans-72" x="1036.640625"/>
      <use xlink:href="#DejaVuSans-61" x="1077.753906"/>
      <use xlink:href="#DejaVuSans-63" x="1139.033203"/>
      <use xlink:href="#DejaVuSans-79" x="1194.013672"/>
      <use xlink:href="#DejaVuSans-20" x="1253.193359"/>
      <use xlink:href="#DejaVuSans-28" x="1284.980469"/>
      <use xlink:href="#DejaVuSans-53" x="1323.994141"/>
      <use xlink:href="#DejaVuSans-70" x="1387.470703"/>
      <use xlink:href="#DejaVuSans-6c" x="1450.947266"/>
      <use xlink:href="#DejaVuSans-69" x="1478.730469"/>
      <use xlink:href="#DejaVuSans-6e" x="1506.513672"/>
      <use xlink:href="#DejaVuSans-65" x="1569.892578"/>
      <use xlink:href="#DejaVuSans-29" x="1631.416016"/>
     </g>
    </g>
    <g id="line2d_40">
     <path d="M 641.4435 90.656562 
L 651.4435 90.656562 
L 661.4435 90.656562 
" style="fill: none; stroke: #a60628; stroke-width: 2; stroke-linecap: square"/>
    </g>
    <g id="text_23">
     <!-- v6\fed_acc-out - accuracy (Spline) -->
     <g transform="translate(669.4435 94.156562) scale(0.1 -0.1)">
      <defs>
       <path id="DejaVuSans-5f" d="M 3263 -1063 
L 3263 -1509 
L -63 -1509 
L -63 -1063 
L 3263 -1063 
z
" transform="scale(0.015625)"/>
      </defs>
      <use xlink:href="#DejaVuSans-76"/>
      <use xlink:href="#DejaVuSans-36" x="59.179688"/>
      <use xlink:href="#DejaVuSans-5c" x="122.802734"/>
      <use xlink:href="#DejaVuSans-66" x="156.494141"/>
      <use xlink:href="#DejaVuSans-65" x="191.699219"/>
      <use xlink:href="#DejaVuSans-64" x="253.222656"/>
      <use xlink:href="#DejaVuSans-5f" x="316.699219"/>
      <use xlink:href="#DejaVuSans-61" x="366.699219"/>
      <use xlink:href="#DejaVuSans-63" x="427.978516"/>
      <use xlink:href="#DejaVuSans-63" x="482.958984"/>
      <use xlink:href="#DejaVuSans-2d" x="537.939453"/>
      <use xlink:href="#DejaVuSans-6f" x="575.898438"/>
      <use xlink:href="#DejaVuSans-75" x="637.080078"/>
      <use xlink:href="#DejaVuSans-74" x="700.458984"/>
      <use xlink:href="#DejaVuSans-20" x="739.667969"/>
      <use xlink:href="#DejaVuSans-2d" x="771.455078"/>
      <use xlink:href="#DejaVuSans-20" x="807.539062"/>
      <use xlink:href="#DejaVuSans-61" x="839.326172"/>
      <use xlink:href="#DejaVuSans-63" x="900.605469"/>
      <use xlink:href="#DejaVuSans-63" x="955.585938"/>
      <use xlink:href="#DejaVuSans-75" x="1010.566406"/>
      <use xlink:href="#DejaVuSans-72" x="1073.945312"/>
      <use xlink:href="#DejaVuSans-61" x="1115.058594"/>
      <use xlink:href="#DejaVuSans-63" x="1176.337891"/>
      <use xlink:href="#DejaVuSans-79" x="1231.318359"/>
      <use xlink:href="#DejaVuSans-20" x="1290.498047"/>
      <use xlink:href="#DejaVuSans-28" x="1322.285156"/>
      <use xlink:href="#DejaVuSans-53" x="1361.298828"/>
      <use xlink:href="#DejaVuSans-70" x="1424.775391"/>
      <use xlink:href="#DejaVuSans-6c" x="1488.251953"/>
      <use xlink:href="#DejaVuSans-69" x="1516.035156"/>
      <use xlink:href="#DejaVuSans-6e" x="1543.818359"/>
      <use xlink:href="#DejaVuSans-65" x="1607.197266"/>
      <use xlink:href="#DejaVuSans-29" x="1668.720703"/>
     </g>
    </g>
    <g id="line2d_41">
     <path d="M 641.4435 105.612812 
L 651.4435 105.612812 
L 661.4435 105.612812 
" style="fill: none; stroke: #7a68a6; stroke-width: 2; stroke-linecap: square"/>
    </g>
    <g id="text_24">
     <!-- v6\fed_fuzz-out - accuracy (Spline) -->
     <g transform="translate(669.4435 109.112812) scale(0.1 -0.1)">
      <defs>
       <path id="DejaVuSans-7a" d="M 353 3500 
L 3084 3500 
L 3084 2975 
L 922 459 
L 3084 459 
L 3084 0 
L 275 0 
L 275 525 
L 2438 3041 
L 353 3041 
L 353 3500 
z
" transform="scale(0.015625)"/>
      </defs>
      <use xlink:href="#DejaVuSans-76"/>
      <use xlink:href="#DejaVuSans-36" x="59.179688"/>
      <use xlink:href="#DejaVuSans-5c" x="122.802734"/>
      <use xlink:href="#DejaVuSans-66" x="156.494141"/>
      <use xlink:href="#DejaVuSans-65" x="191.699219"/>
      <use xlink:href="#DejaVuSans-64" x="253.222656"/>
      <use xlink:href="#DejaVuSans-5f" x="316.699219"/>
      <use xlink:href="#DejaVuSans-66" x="366.699219"/>
      <use xlink:href="#DejaVuSans-75" x="401.904297"/>
      <use xlink:href="#DejaVuSans-7a" x="465.283203"/>
      <use xlink:href="#DejaVuSans-7a" x="517.773438"/>
      <use xlink:href="#DejaVuSans-2d" x="570.263672"/>
      <use xlink:href="#DejaVuSans-6f" x="608.222656"/>
      <use xlink:href="#DejaVuSans-75" x="669.404297"/>
      <use xlink:href="#DejaVuSans-74" x="732.783203"/>
      <use xlink:href="#DejaVuSans-20" x="771.992188"/>
      <use xlink:href="#DejaVuSans-2d" x="803.779297"/>
      <use xlink:href="#DejaVuSans-20" x="839.863281"/>
      <use xlink:href="#DejaVuSans-61" x="871.650391"/>
      <use xlink:href="#DejaVuSans-63" x="932.929688"/>
      <use xlink:href="#DejaVuSans-63" x="987.910156"/>
      <use xlink:href="#DejaVuSans-75" x="1042.890625"/>
      <use xlink:href="#DejaVuSans-72" x="1106.269531"/>
      <use xlink:href="#DejaVuSans-61" x="1147.382812"/>
      <use xlink:href="#DejaVuSans-63" x="1208.662109"/>
      <use xlink:href="#DejaVuSans-79" x="1263.642578"/>
      <use xlink:href="#DejaVuSans-20" x="1322.822266"/>
      <use xlink:href="#DejaVuSans-28" x="1354.609375"/>
      <use xlink:href="#DejaVuSans-53" x="1393.623047"/>
      <use xlink:href="#DejaVuSans-70" x="1457.099609"/>
      <use xlink:href="#DejaVuSans-6c" x="1520.576172"/>
      <use xlink:href="#DejaVuSans-69" x="1548.359375"/>
      <use xlink:href="#DejaVuSans-6e" x="1576.142578"/>
      <use xlink:href="#DejaVuSans-65" x="1639.521484"/>
      <use xlink:href="#DejaVuSans-29" x="1701.044922"/>
     </g>
    </g>
    <g id="line2d_42">
     <path d="M 641.4435 120.569062 
L 651.4435 120.569062 
L 661.4435 120.569062 
" style="fill: none; stroke: #467821; stroke-width: 2; stroke-linecap: square"/>
    </g>
    <g id="text_25">
     <!-- v6\fed_loss-out - accuracy (Spline) -->
     <g transform="translate(669.4435 124.069062) scale(0.1 -0.1)">
      <use xlink:href="#DejaVuSans-76"/>
      <use xlink:href="#DejaVuSans-36" x="59.179688"/>
      <use xlink:href="#DejaVuSans-5c" x="122.802734"/>
      <use xlink:href="#DejaVuSans-66" x="156.494141"/>
      <use xlink:href="#DejaVuSans-65" x="191.699219"/>
      <use xlink:href="#DejaVuSans-64" x="253.222656"/>
      <use xlink:href="#DejaVuSans-5f" x="316.699219"/>
      <use xlink:href="#DejaVuSans-6c" x="366.699219"/>
      <use xlink:href="#DejaVuSans-6f" x="394.482422"/>
      <use xlink:href="#DejaVuSans-73" x="455.664062"/>
      <use xlink:href="#DejaVuSans-73" x="507.763672"/>
      <use xlink:href="#DejaVuSans-2d" x="559.863281"/>
      <use xlink:href="#DejaVuSans-6f" x="597.822266"/>
      <use xlink:href="#DejaVuSans-75" x="659.003906"/>
      <use xlink:href="#DejaVuSans-74" x="722.382812"/>
      <use xlink:href="#DejaVuSans-20" x="761.591797"/>
      <use xlink:href="#DejaVuSans-2d" x="793.378906"/>
      <use xlink:href="#DejaVuSans-20" x="829.462891"/>
      <use xlink:href="#DejaVuSans-61" x="861.25"/>
      <use xlink:href="#DejaVuSans-63" x="922.529297"/>
      <use xlink:href="#DejaVuSans-63" x="977.509766"/>
      <use xlink:href="#DejaVuSans-75" x="1032.490234"/>
      <use xlink:href="#DejaVuSans-72" x="1095.869141"/>
      <use xlink:href="#DejaVuSans-61" x="1136.982422"/>
      <use xlink:href="#DejaVuSans-63" x="1198.261719"/>
      <use xlink:href="#DejaVuSans-79" x="1253.242188"/>
      <use xlink:href="#DejaVuSans-20" x="1312.421875"/>
      <use xlink:href="#DejaVuSans-28" x="1344.208984"/>
      <use xlink:href="#DejaVuSans-53" x="1383.222656"/>
      <use xlink:href="#DejaVuSans-70" x="1446.699219"/>
      <use xlink:href="#DejaVuSans-6c" x="1510.175781"/>
      <use xlink:href="#DejaVuSans-69" x="1537.958984"/>
      <use xlink:href="#DejaVuSans-6e" x="1565.742188"/>
      <use xlink:href="#DejaVuSans-65" x="1629.121094"/>
      <use xlink:href="#DejaVuSans-29" x="1690.644531"/>
     </g>
    </g>
   </g>
  </g>
  <g id="text_26">
   <!-- Accuracy by Round - v6/ -->
   <g transform="translate(286.15875 18.23625) scale(0.24 -0.24)">
    <defs>
     <path id="DejaVuSans-62" d="M 3116 1747 
Q 3116 2381 2855 2742 
Q 2594 3103 2138 3103 
Q 1681 3103 1420 2742 
Q 1159 2381 1159 1747 
Q 1159 1113 1420 752 
Q 1681 391 2138 391 
Q 2594 391 2855 752 
Q 3116 1113 3116 1747 
z
M 1159 2969 
Q 1341 3281 1617 3432 
Q 1894 3584 2278 3584 
Q 2916 3584 3314 3078 
Q 3713 2572 3713 1747 
Q 3713 922 3314 415 
Q 2916 -91 2278 -91 
Q 1894 -91 1617 61 
Q 1341 213 1159 525 
L 1159 0 
L 581 0 
L 581 4863 
L 1159 4863 
L 1159 2969 
z
" transform="scale(0.015625)"/>
     <path id="DejaVuSans-2f" d="M 1625 4666 
L 2156 4666 
L 531 -594 
L 0 -594 
L 1625 4666 
z
" transform="scale(0.015625)"/>
    </defs>
    <use xlink:href="#DejaVuSans-41"/>
    <use xlink:href="#DejaVuSans-63" x="66.658203"/>
    <use xlink:href="#DejaVuSans-63" x="121.638672"/>
    <use xlink:href="#DejaVuSans-75" x="176.619141"/>
    <use xlink:href="#DejaVuSans-72" x="239.998047"/>
    <use xlink:href="#DejaVuSans-61" x="281.111328"/>
    <use xlink:href="#DejaVuSans-63" x="342.390625"/>
    <use xlink:href="#DejaVuSans-79" x="397.371094"/>
    <use xlink:href="#DejaVuSans-20" x="456.550781"/>
    <use xlink:href="#DejaVuSans-62" x="488.337891"/>
    <use xlink:href="#DejaVuSans-79" x="551.814453"/>
    <use xlink:href="#DejaVuSans-20" x="610.994141"/>
    <use xlink:href="#DejaVuSans-52" x="642.78125"/>
    <use xlink:href="#DejaVuSans-6f" x="707.763672"/>
    <use xlink:href="#DejaVuSans-75" x="768.945312"/>
    <use xlink:href="#DejaVuSans-6e" x="832.324219"/>
    <use xlink:href="#DejaVuSans-64" x="895.703125"/>
    <use xlink:href="#DejaVuSans-20" x="959.179688"/>
    <use xlink:href="#DejaVuSans-2d" x="990.966797"/>
    <use xlink:href="#DejaVuSans-20" x="1027.050781"/>
    <use xlink:href="#DejaVuSans-76" x="1058.837891"/>
    <use xlink:href="#DejaVuSans-36" x="1118.017578"/>
    <use xlink:href="#DejaVuSans-2f" x="1181.640625"/>
   </g>
  </g>
 </g>
 <defs>
  <clipPath id="p70c231c292">
   <rect x="47.1" y="62.88" width="557.47" height="471.78"/>
  </clipPath>
 </defs>
</svg>
