<?xml version="1.0" encoding="utf-8" standalone="no"?>
<!DOCTYPE svg PUBLIC "-//W3C//DTD SVG 1.1//EN"
  "http://www.w3.org/Graphics/SVG/1.1/DTD/svg11.dtd">
<svg xmlns:xlink="http://www.w3.org/1999/xlink" width="864pt" height="576pt" viewBox="0 0 864 576" xmlns="http://www.w3.org/2000/svg" version="1.1">
 <metadata>
  <rdf:RDF xmlns:dc="http://purl.org/dc/elements/1.1/" xmlns:cc="http://creativecommons.org/ns#" xmlns:rdf="http://www.w3.org/1999/02/22-rdf-syntax-ns#">
   <cc:Work>
    <dc:type rdf:resource="http://purl.org/dc/dcmitype/StillImage"/>
    <dc:date>2024-10-23T19:11:06.015606</dc:date>
    <dc:format>image/svg+xml</dc:format>
    <dc:creator>
     <cc:Agent>
      <dc:title>Matplotlib v3.9.2, https://matplotlib.org/</dc:title>
     </cc:Agent>
    </dc:creator>
   </cc:Work>
  </rdf:RDF>
 </metadata>
 <defs>
  <style type="text/css">*{stroke-linejoin: round; stroke-linecap: butt}</style>
 </defs>
 <g id="figure_1">
  <g id="patch_1">
   <path d="M 0 576 
L 864 576 
L 864 0 
L 0 0 
z
" style="fill: #ffffff"/>
  </g>
  <g id="axes_1">
   <g id="patch_2">
    <path d="M 47.1 534.66 
L 581.89 534.66 
L 581.89 62.88 
L 47.1 62.88 
z
" style="fill: #eeeeee"/>
   </g>
   <g id="matplotlib.axis_1">
    <g id="xtick_1">
     <g id="line2d_1">
      <path d="M 71.408636 534.66 
L 71.408636 62.88 
" clip-path="url(#pf9f4fc4b1c)" style="fill: none; stroke-dasharray: 1.85,0.8; stroke-dashoffset: 0; stroke: #b2b2b2; stroke-width: 0.5"/>
     </g>
     <g id="line2d_2">
      <defs>
       <path id="maa131ab587" d="M 0 0 
L 0 -3.5 
" style="stroke: #000000; stroke-width: 0.8"/>
      </defs>
      <g>
       <use xlink:href="#maa131ab587" x="71.408636" y="534.66" style="stroke: #000000; stroke-width: 0.8"/>
      </g>
     </g>
     <g id="text_1">
      <!-- 1 -->
      <g transform="translate(68.227386 545.758438) scale(0.1 -0.1)">
       <defs>
        <path id="DejaVuSans-31" d="M 794 531 
L 1825 531 
L 1825 4091 
L 703 3866 
L 703 4441 
L 1819 4666 
L 2450 4666 
L 2450 531 
L 3481 531 
L 3481 0 
L 794 0 
L 794 531 
z
" transform="scale(0.015625)"/>
       </defs>
       <use xlink:href="#DejaVuSans-31"/>
      </g>
     </g>
    </g>
    <g id="xtick_2">
     <g id="line2d_3">
      <path d="M 119.47828 534.66 
L 119.47828 62.88 
" clip-path="url(#pf9f4fc4b1c)" style="fill: none; stroke-dasharray: 1.85,0.8; stroke-dashoffset: 0; stroke: #b2b2b2; stroke-width: 0.5"/>
     </g>
     <g id="line2d_4">
      <g>
       <use xlink:href="#maa131ab587" x="119.47828" y="534.66" style="stroke: #000000; stroke-width: 0.8"/>
      </g>
     </g>
     <g id="text_2">
      <!-- 80 -->
      <g transform="translate(113.11578 545.758438) scale(0.1 -0.1)">
       <defs>
        <path id="DejaVuSans-38" d="M 2034 2216 
Q 1584 2216 1326 1975 
Q 1069 1734 1069 1313 
Q 1069 891 1326 650 
Q 1584 409 2034 409 
Q 2484 409 2743 651 
Q 3003 894 3003 1313 
Q 3003 1734 2745 1975 
Q 2488 2216 2034 2216 
z
M 1403 2484 
Q 997 2584 770 2862 
Q 544 3141 544 3541 
Q 544 4100 942 4425 
Q 1341 4750 2034 4750 
Q 2731 4750 3128 4425 
Q 3525 4100 3525 3541 
Q 3525 3141 3298 2862 
Q 3072 2584 2669 2484 
Q 3125 2378 3379 2068 
Q 3634 1759 3634 1313 
Q 3634 634 3220 271 
Q 2806 -91 2034 -91 
Q 1263 -91 848 271 
Q 434 634 434 1313 
Q 434 1759 690 2068 
Q 947 2378 1403 2484 
z
M 1172 3481 
Q 1172 3119 1398 2916 
Q 1625 2713 2034 2713 
Q 2441 2713 2670 2916 
Q 2900 3119 2900 3481 
Q 2900 3844 2670 4047 
Q 2441 4250 2034 4250 
Q 1625 4250 1398 4047 
Q 1172 3844 1172 3481 
z
" transform="scale(0.015625)"/>
        <path id="DejaVuSans-30" d="M 2034 4250 
Q 1547 4250 1301 3770 
Q 1056 3291 1056 2328 
Q 1056 1369 1301 889 
Q 1547 409 2034 409 
Q 2525 409 2770 889 
Q 3016 1369 3016 2328 
Q 3016 3291 2770 3770 
Q 2525 4250 2034 4250 
z
M 2034 4750 
Q 2819 4750 3233 4129 
Q 3647 3509 3647 2328 
Q 3647 1150 3233 529 
Q 2819 -91 2034 -91 
Q 1250 -91 836 529 
Q 422 1150 422 2328 
Q 422 3509 836 4129 
Q 1250 4750 2034 4750 
z
" transform="scale(0.015625)"/>
       </defs>
       <use xlink:href="#DejaVuSans-38"/>
       <use xlink:href="#DejaVuSans-30" x="63.623047"/>
      </g>
     </g>
    </g>
    <g id="xtick_3">
     <g id="line2d_5">
      <path d="M 168.156401 534.66 
L 168.156401 62.88 
" clip-path="url(#pf9f4fc4b1c)" style="fill: none; stroke-dasharray: 1.85,0.8; stroke-dashoffset: 0; stroke: #b2b2b2; stroke-width: 0.5"/>
     </g>
     <g id="line2d_6">
      <g>
       <use xlink:href="#maa131ab587" x="168.156401" y="534.66" style="stroke: #000000; stroke-width: 0.8"/>
      </g>
     </g>
     <g id="text_3">
      <!-- 160 -->
      <g transform="translate(158.612651 545.758438) scale(0.1 -0.1)">
       <defs>
        <path id="DejaVuSans-36" d="M 2113 2584 
Q 1688 2584 1439 2293 
Q 1191 2003 1191 1497 
Q 1191 994 1439 701 
Q 1688 409 2113 409 
Q 2538 409 2786 701 
Q 3034 994 3034 1497 
Q 3034 2003 2786 2293 
Q 2538 2584 2113 2584 
z
M 3366 4563 
L 3366 3988 
Q 3128 4100 2886 4159 
Q 2644 4219 2406 4219 
Q 1781 4219 1451 3797 
Q 1122 3375 1075 2522 
Q 1259 2794 1537 2939 
Q 1816 3084 2150 3084 
Q 2853 3084 3261 2657 
Q 3669 2231 3669 1497 
Q 3669 778 3244 343 
Q 2819 -91 2113 -91 
Q 1303 -91 875 529 
Q 447 1150 447 2328 
Q 447 3434 972 4092 
Q 1497 4750 2381 4750 
Q 2619 4750 2861 4703 
Q 3103 4656 3366 4563 
z
" transform="scale(0.015625)"/>
       </defs>
       <use xlink:href="#DejaVuSans-31"/>
       <use xlink:href="#DejaVuSans-36" x="63.623047"/>
       <use xlink:href="#DejaVuSans-30" x="127.246094"/>
      </g>
     </g>
    </g>
    <g id="xtick_4">
     <g id="line2d_7">
      <path d="M 216.834521 534.66 
L 216.834521 62.88 
" clip-path="url(#pf9f4fc4b1c)" style="fill: none; stroke-dasharray: 1.85,0.8; stroke-dashoffset: 0; stroke: #b2b2b2; stroke-width: 0.5"/>
     </g>
     <g id="line2d_8">
      <g>
       <use xlink:href="#maa131ab587" x="216.834521" y="534.66" style="stroke: #000000; stroke-width: 0.8"/>
      </g>
     </g>
     <g id="text_4">
      <!-- 240 -->
      <g transform="translate(207.290771 545.758438) scale(0.1 -0.1)">
       <defs>
        <path id="DejaVuSans-32" d="M 1228 531 
L 3431 531 
L 3431 0 
L 469 0 
L 469 531 
Q 828 903 1448 1529 
Q 2069 2156 2228 2338 
Q 2531 2678 2651 2914 
Q 2772 3150 2772 3378 
Q 2772 3750 2511 3984 
Q 2250 4219 1831 4219 
Q 1534 4219 1204 4116 
Q 875 4013 500 3803 
L 500 4441 
Q 881 4594 1212 4672 
Q 1544 4750 1819 4750 
Q 2544 4750 2975 4387 
Q 3406 4025 3406 3419 
Q 3406 3131 3298 2873 
Q 3191 2616 2906 2266 
Q 2828 2175 2409 1742 
Q 1991 1309 1228 531 
z
" transform="scale(0.015625)"/>
        <path id="DejaVuSans-34" d="M 2419 4116 
L 825 1625 
L 2419 1625 
L 2419 4116 
z
M 2253 4666 
L 3047 4666 
L 3047 1625 
L 3713 1625 
L 3713 1100 
L 3047 1100 
L 3047 0 
L 2419 0 
L 2419 1100 
L 313 1100 
L 313 1709 
L 2253 4666 
z
" transform="scale(0.015625)"/>
       </defs>
       <use xlink:href="#DejaVuSans-32"/>
       <use xlink:href="#DejaVuSans-34" x="63.623047"/>
       <use xlink:href="#DejaVuSans-30" x="127.246094"/>
      </g>
     </g>
    </g>
    <g id="xtick_5">
     <g id="line2d_9">
      <path d="M 265.512641 534.66 
L 265.512641 62.88 
" clip-path="url(#pf9f4fc4b1c)" style="fill: none; stroke-dasharray: 1.85,0.8; stroke-dashoffset: 0; stroke: #b2b2b2; stroke-width: 0.5"/>
     </g>
     <g id="line2d_10">
      <g>
       <use xlink:href="#maa131ab587" x="265.512641" y="534.66" style="stroke: #000000; stroke-width: 0.8"/>
      </g>
     </g>
     <g id="text_5">
      <!-- 320 -->
      <g transform="translate(255.968891 545.758438) scale(0.1 -0.1)">
       <defs>
        <path id="DejaVuSans-33" d="M 2597 2516 
Q 3050 2419 3304 2112 
Q 3559 1806 3559 1356 
Q 3559 666 3084 287 
Q 2609 -91 1734 -91 
Q 1441 -91 1130 -33 
Q 819 25 488 141 
L 488 750 
Q 750 597 1062 519 
Q 1375 441 1716 441 
Q 2309 441 2620 675 
Q 2931 909 2931 1356 
Q 2931 1769 2642 2001 
Q 2353 2234 1838 2234 
L 1294 2234 
L 1294 2753 
L 1863 2753 
Q 2328 2753 2575 2939 
Q 2822 3125 2822 3475 
Q 2822 3834 2567 4026 
Q 2313 4219 1838 4219 
Q 1578 4219 1281 4162 
Q 984 4106 628 3988 
L 628 4550 
Q 988 4650 1302 4700 
Q 1616 4750 1894 4750 
Q 2613 4750 3031 4423 
Q 3450 4097 3450 3541 
Q 3450 3153 3228 2886 
Q 3006 2619 2597 2516 
z
" transform="scale(0.015625)"/>
       </defs>
       <use xlink:href="#DejaVuSans-33"/>
       <use xlink:href="#DejaVuSans-32" x="63.623047"/>
       <use xlink:href="#DejaVuSans-30" x="127.246094"/>
      </g>
     </g>
    </g>
    <g id="xtick_6">
     <g id="line2d_11">
      <path d="M 314.190762 534.66 
L 314.190762 62.88 
" clip-path="url(#pf9f4fc4b1c)" style="fill: none; stroke-dasharray: 1.85,0.8; stroke-dashoffset: 0; stroke: #b2b2b2; stroke-width: 0.5"/>
     </g>
     <g id="line2d_12">
      <g>
       <use xlink:href="#maa131ab587" x="314.190762" y="534.66" style="stroke: #000000; stroke-width: 0.8"/>
      </g>
     </g>
     <g id="text_6">
      <!-- 400 -->
      <g transform="translate(304.647012 545.758438) scale(0.1 -0.1)">
       <use xlink:href="#DejaVuSans-34"/>
       <use xlink:href="#DejaVuSans-30" x="63.623047"/>
       <use xlink:href="#DejaVuSans-30" x="127.246094"/>
      </g>
     </g>
    </g>
    <g id="xtick_7">
     <g id="line2d_13">
      <path d="M 362.868882 534.66 
L 362.868882 62.88 
" clip-path="url(#pf9f4fc4b1c)" style="fill: none; stroke-dasharray: 1.85,0.8; stroke-dashoffset: 0; stroke: #b2b2b2; stroke-width: 0.5"/>
     </g>
     <g id="line2d_14">
      <g>
       <use xlink:href="#maa131ab587" x="362.868882" y="534.66" style="stroke: #000000; stroke-width: 0.8"/>
      </g>
     </g>
     <g id="text_7">
      <!-- 480 -->
      <g transform="translate(353.325132 545.758438) scale(0.1 -0.1)">
       <use xlink:href="#DejaVuSans-34"/>
       <use xlink:href="#DejaVuSans-38" x="63.623047"/>
       <use xlink:href="#DejaVuSans-30" x="127.246094"/>
      </g>
     </g>
    </g>
    <g id="xtick_8">
     <g id="line2d_15">
      <path d="M 411.547003 534.66 
L 411.547003 62.88 
" clip-path="url(#pf9f4fc4b1c)" style="fill: none; stroke-dasharray: 1.85,0.8; stroke-dashoffset: 0; stroke: #b2b2b2; stroke-width: 0.5"/>
     </g>
     <g id="line2d_16">
      <g>
       <use xlink:href="#maa131ab587" x="411.547003" y="534.66" style="stroke: #000000; stroke-width: 0.8"/>
      </g>
     </g>
     <g id="text_8">
      <!-- 560 -->
      <g transform="translate(402.003253 545.758438) scale(0.1 -0.1)">
       <defs>
        <path id="DejaVuSans-35" d="M 691 4666 
L 3169 4666 
L 3169 4134 
L 1269 4134 
L 1269 2991 
Q 1406 3038 1543 3061 
Q 1681 3084 1819 3084 
Q 2600 3084 3056 2656 
Q 3513 2228 3513 1497 
Q 3513 744 3044 326 
Q 2575 -91 1722 -91 
Q 1428 -91 1123 -41 
Q 819 9 494 109 
L 494 744 
Q 775 591 1075 516 
Q 1375 441 1709 441 
Q 2250 441 2565 725 
Q 2881 1009 2881 1497 
Q 2881 1984 2565 2268 
Q 2250 2553 1709 2553 
Q 1456 2553 1204 2497 
Q 953 2441 691 2322 
L 691 4666 
z
" transform="scale(0.015625)"/>
       </defs>
       <use xlink:href="#DejaVuSans-35"/>
       <use xlink:href="#DejaVuSans-36" x="63.623047"/>
       <use xlink:href="#DejaVuSans-30" x="127.246094"/>
      </g>
     </g>
    </g>
    <g id="xtick_9">
     <g id="line2d_17">
      <path d="M 460.225123 534.66 
L 460.225123 62.88 
" clip-path="url(#pf9f4fc4b1c)" style="fill: none; stroke-dasharray: 1.85,0.8; stroke-dashoffset: 0; stroke: #b2b2b2; stroke-width: 0.5"/>
     </g>
     <g id="line2d_18">
      <g>
       <use xlink:href="#maa131ab587" x="460.225123" y="534.66" style="stroke: #000000; stroke-width: 0.8"/>
      </g>
     </g>
     <g id="text_9">
      <!-- 640 -->
      <g transform="translate(450.681373 545.758438) scale(0.1 -0.1)">
       <use xlink:href="#DejaVuSans-36"/>
       <use xlink:href="#DejaVuSans-34" x="63.623047"/>
       <use xlink:href="#DejaVuSans-30" x="127.246094"/>
      </g>
     </g>
    </g>
    <g id="xtick_10">
     <g id="line2d_19">
      <path d="M 508.903243 534.66 
L 508.903243 62.88 
" clip-path="url(#pf9f4fc4b1c)" style="fill: none; stroke-dasharray: 1.85,0.8; stroke-dashoffset: 0; stroke: #b2b2b2; stroke-width: 0.5"/>
     </g>
     <g id="line2d_20">
      <g>
       <use xlink:href="#maa131ab587" x="508.903243" y="534.66" style="stroke: #000000; stroke-width: 0.8"/>
      </g>
     </g>
     <g id="text_10">
      <!-- 720 -->
      <g transform="translate(499.359493 545.758438) scale(0.1 -0.1)">
       <defs>
        <path id="DejaVuSans-37" d="M 525 4666 
L 3525 4666 
L 3525 4397 
L 1831 0 
L 1172 0 
L 2766 4134 
L 525 4134 
L 525 4666 
z
" transform="scale(0.015625)"/>
       </defs>
       <use xlink:href="#DejaVuSans-37"/>
       <use xlink:href="#DejaVuSans-32" x="63.623047"/>
       <use xlink:href="#DejaVuSans-30" x="127.246094"/>
      </g>
     </g>
    </g>
    <g id="xtick_11">
     <g id="line2d_21">
      <path d="M 557.581364 534.66 
L 557.581364 62.88 
" clip-path="url(#pf9f4fc4b1c)" style="fill: none; stroke-dasharray: 1.85,0.8; stroke-dashoffset: 0; stroke: #b2b2b2; stroke-width: 0.5"/>
     </g>
     <g id="line2d_22">
      <g>
       <use xlink:href="#maa131ab587" x="557.581364" y="534.66" style="stroke: #000000; stroke-width: 0.8"/>
      </g>
     </g>
     <g id="text_11">
      <!-- 800 -->
      <g transform="translate(548.037614 545.758438) scale(0.1 -0.1)">
       <use xlink:href="#DejaVuSans-38"/>
       <use xlink:href="#DejaVuSans-30" x="63.623047"/>
       <use xlink:href="#DejaVuSans-30" x="127.246094"/>
      </g>
     </g>
    </g>
    <g id="text_12">
     <!-- Round -->
     <g transform="translate(295.510625 560.95625) scale(0.12 -0.12)">
      <defs>
       <path id="DejaVuSans-52" d="M 2841 2188 
Q 3044 2119 3236 1894 
Q 3428 1669 3622 1275 
L 4263 0 
L 3584 0 
L 2988 1197 
Q 2756 1666 2539 1819 
Q 2322 1972 1947 1972 
L 1259 1972 
L 1259 0 
L 628 0 
L 628 4666 
L 2053 4666 
Q 2853 4666 3247 4331 
Q 3641 3997 3641 3322 
Q 3641 2881 3436 2590 
Q 3231 2300 2841 2188 
z
M 1259 4147 
L 1259 2491 
L 2053 2491 
Q 2509 2491 2742 2702 
Q 2975 2913 2975 3322 
Q 2975 3731 2742 3939 
Q 2509 4147 2053 4147 
L 1259 4147 
z
" transform="scale(0.015625)"/>
       <path id="DejaVuSans-6f" d="M 1959 3097 
Q 1497 3097 1228 2736 
Q 959 2375 959 1747 
Q 959 1119 1226 758 
Q 1494 397 1959 397 
Q 2419 397 2687 759 
Q 2956 1122 2956 1747 
Q 2956 2369 2687 2733 
Q 2419 3097 1959 3097 
z
M 1959 3584 
Q 2709 3584 3137 3096 
Q 3566 2609 3566 1747 
Q 3566 888 3137 398 
Q 2709 -91 1959 -91 
Q 1206 -91 779 398 
Q 353 888 353 1747 
Q 353 2609 779 3096 
Q 1206 3584 1959 3584 
z
" transform="scale(0.015625)"/>
       <path id="DejaVuSans-75" d="M 544 1381 
L 544 3500 
L 1119 3500 
L 1119 1403 
Q 1119 906 1312 657 
Q 1506 409 1894 409 
Q 2359 409 2629 706 
Q 2900 1003 2900 1516 
L 2900 3500 
L 3475 3500 
L 3475 0 
L 2900 0 
L 2900 538 
Q 2691 219 2414 64 
Q 2138 -91 1772 -91 
Q 1169 -91 856 284 
Q 544 659 544 1381 
z
M 1991 3584 
L 1991 3584 
z
" transform="scale(0.015625)"/>
       <path id="DejaVuSans-6e" d="M 3513 2113 
L 3513 0 
L 2938 0 
L 2938 2094 
Q 2938 2591 2744 2837 
Q 2550 3084 2163 3084 
Q 1697 3084 1428 2787 
Q 1159 2491 1159 1978 
L 1159 0 
L 581 0 
L 581 3500 
L 1159 3500 
L 1159 2956 
Q 1366 3272 1645 3428 
Q 1925 3584 2291 3584 
Q 2894 3584 3203 3211 
Q 3513 2838 3513 2113 
z
" transform="scale(0.015625)"/>
       <path id="DejaVuSans-64" d="M 2906 2969 
L 2906 4863 
L 3481 4863 
L 3481 0 
L 2906 0 
L 2906 525 
Q 2725 213 2448 61 
Q 2172 -91 1784 -91 
Q 1150 -91 751 415 
Q 353 922 353 1747 
Q 353 2572 751 3078 
Q 1150 3584 1784 3584 
Q 2172 3584 2448 3432 
Q 2725 3281 2906 2969 
z
M 947 1747 
Q 947 1113 1208 752 
Q 1469 391 1925 391 
Q 2381 391 2643 752 
Q 2906 1113 2906 1747 
Q 2906 2381 2643 2742 
Q 2381 3103 1925 3103 
Q 1469 3103 1208 2742 
Q 947 2381 947 1747 
z
" transform="scale(0.015625)"/>
      </defs>
      <use xlink:href="#DejaVuSans-52"/>
      <use xlink:href="#DejaVuSans-6f" x="64.982422"/>
      <use xlink:href="#DejaVuSans-75" x="126.164062"/>
      <use xlink:href="#DejaVuSans-6e" x="189.542969"/>
      <use xlink:href="#DejaVuSans-64" x="252.921875"/>
     </g>
    </g>
   </g>
   <g id="matplotlib.axis_2">
    <g id="ytick_1">
     <g id="line2d_23">
      <path d="M 47.1 504.774035 
L 581.89 504.774035 
" clip-path="url(#pf9f4fc4b1c)" style="fill: none; stroke-dasharray: 1.85,0.8; stroke-dashoffset: 0; stroke: #b2b2b2; stroke-width: 0.5"/>
     </g>
     <g id="line2d_24">
      <defs>
       <path id="mefce1c3a27" d="M 0 0 
L 3.5 0 
" style="stroke: #000000; stroke-width: 0.8"/>
      </defs>
      <g>
       <use xlink:href="#mefce1c3a27" x="47.1" y="504.774035" style="stroke: #000000; stroke-width: 0.8"/>
      </g>
     </g>
     <g id="text_13">
      <!-- 0.1 -->
      <g transform="translate(27.696875 508.573254) scale(0.1 -0.1)">
       <defs>
        <path id="DejaVuSans-2e" d="M 684 794 
L 1344 794 
L 1344 0 
L 684 0 
L 684 794 
z
" transform="scale(0.015625)"/>
       </defs>
       <use xlink:href="#DejaVuSans-30"/>
       <use xlink:href="#DejaVuSans-2e" x="63.623047"/>
       <use xlink:href="#DejaVuSans-31" x="95.410156"/>
      </g>
     </g>
    </g>
    <g id="ytick_2">
     <g id="line2d_25">
      <path d="M 47.1 424.642112 
L 581.89 424.642112 
" clip-path="url(#pf9f4fc4b1c)" style="fill: none; stroke-dasharray: 1.85,0.8; stroke-dashoffset: 0; stroke: #b2b2b2; stroke-width: 0.5"/>
     </g>
     <g id="line2d_26">
      <g>
       <use xlink:href="#mefce1c3a27" x="47.1" y="424.642112" style="stroke: #000000; stroke-width: 0.8"/>
      </g>
     </g>
     <g id="text_14">
      <!-- 0.2 -->
      <g transform="translate(27.696875 428.441331) scale(0.1 -0.1)">
       <use xlink:href="#DejaVuSans-30"/>
       <use xlink:href="#DejaVuSans-2e" x="63.623047"/>
       <use xlink:href="#DejaVuSans-32" x="95.410156"/>
      </g>
     </g>
    </g>
    <g id="ytick_3">
     <g id="line2d_27">
      <path d="M 47.1 344.510189 
L 581.89 344.510189 
" clip-path="url(#pf9f4fc4b1c)" style="fill: none; stroke-dasharray: 1.85,0.8; stroke-dashoffset: 0; stroke: #b2b2b2; stroke-width: 0.5"/>
     </g>
     <g id="line2d_28">
      <g>
       <use xlink:href="#mefce1c3a27" x="47.1" y="344.510189" style="stroke: #000000; stroke-width: 0.8"/>
      </g>
     </g>
     <g id="text_15">
      <!-- 0.3 -->
      <g transform="translate(27.696875 348.309408) scale(0.1 -0.1)">
       <use xlink:href="#DejaVuSans-30"/>
       <use xlink:href="#DejaVuSans-2e" x="63.623047"/>
       <use xlink:href="#DejaVuSans-33" x="95.410156"/>
      </g>
     </g>
    </g>
    <g id="ytick_4">
     <g id="line2d_29">
      <path d="M 47.1 264.378266 
L 581.89 264.378266 
" clip-path="url(#pf9f4fc4b1c)" style="fill: none; stroke-dasharray: 1.85,0.8; stroke-dashoffset: 0; stroke: #b2b2b2; stroke-width: 0.5"/>
     </g>
     <g id="line2d_30">
      <g>
       <use xlink:href="#mefce1c3a27" x="47.1" y="264.378266" style="stroke: #000000; stroke-width: 0.8"/>
      </g>
     </g>
     <g id="text_16">
      <!-- 0.4 -->
      <g transform="translate(27.696875 268.177485) scale(0.1 -0.1)">
       <use xlink:href="#DejaVuSans-30"/>
       <use xlink:href="#DejaVuSans-2e" x="63.623047"/>
       <use xlink:href="#DejaVuSans-34" x="95.410156"/>
      </g>
     </g>
    </g>
    <g id="ytick_5">
     <g id="line2d_31">
      <path d="M 47.1 184.246343 
L 581.89 184.246343 
" clip-path="url(#pf9f4fc4b1c)" style="fill: none; stroke-dasharray: 1.85,0.8; stroke-dashoffset: 0; stroke: #b2b2b2; stroke-width: 0.5"/>
     </g>
     <g id="line2d_32">
      <g>
       <use xlink:href="#mefce1c3a27" x="47.1" y="184.246343" style="stroke: #000000; stroke-width: 0.8"/>
      </g>
     </g>
     <g id="text_17">
      <!-- 0.5 -->
      <g transform="translate(27.696875 188.045562) scale(0.1 -0.1)">
       <use xlink:href="#DejaVuSans-30"/>
       <use xlink:href="#DejaVuSans-2e" x="63.623047"/>
       <use xlink:href="#DejaVuSans-35" x="95.410156"/>
      </g>
     </g>
    </g>
    <g id="ytick_6">
     <g id="line2d_33">
      <path d="M 47.1 104.11442 
L 581.89 104.11442 
" clip-path="url(#pf9f4fc4b1c)" style="fill: none; stroke-dasharray: 1.85,0.8; stroke-dashoffset: 0; stroke: #b2b2b2; stroke-width: 0.5"/>
     </g>
     <g id="line2d_34">
      <g>
       <use xlink:href="#mefce1c3a27" x="47.1" y="104.11442" style="stroke: #000000; stroke-width: 0.8"/>
      </g>
     </g>
     <g id="text_18">
      <!-- 0.6 -->
      <g transform="translate(27.696875 107.913639) scale(0.1 -0.1)">
       <use xlink:href="#DejaVuSans-30"/>
       <use xlink:href="#DejaVuSans-2e" x="63.623047"/>
       <use xlink:href="#DejaVuSans-36" x="95.410156"/>
      </g>
     </g>
    </g>
    <g id="text_19">
     <!-- Accuracy -->
     <g transform="translate(21.20125 326.16375) rotate(-90) scale(0.12 -0.12)">
      <defs>
       <path id="DejaVuSans-41" d="M 2188 4044 
L 1331 1722 
L 3047 1722 
L 2188 4044 
z
M 1831 4666 
L 2547 4666 
L 4325 0 
L 3669 0 
L 3244 1197 
L 1141 1197 
L 716 0 
L 50 0 
L 1831 4666 
z
" transform="scale(0.015625)"/>
       <path id="DejaVuSans-63" d="M 3122 3366 
L 3122 2828 
Q 2878 2963 2633 3030 
Q 2388 3097 2138 3097 
Q 1578 3097 1268 2742 
Q 959 2388 959 1747 
Q 959 1106 1268 751 
Q 1578 397 2138 397 
Q 2388 397 2633 464 
Q 2878 531 3122 666 
L 3122 134 
Q 2881 22 2623 -34 
Q 2366 -91 2075 -91 
Q 1284 -91 818 406 
Q 353 903 353 1747 
Q 353 2603 823 3093 
Q 1294 3584 2113 3584 
Q 2378 3584 2631 3529 
Q 2884 3475 3122 3366 
z
" transform="scale(0.015625)"/>
       <path id="DejaVuSans-72" d="M 2631 2963 
Q 2534 3019 2420 3045 
Q 2306 3072 2169 3072 
Q 1681 3072 1420 2755 
Q 1159 2438 1159 1844 
L 1159 0 
L 581 0 
L 581 3500 
L 1159 3500 
L 1159 2956 
Q 1341 3275 1631 3429 
Q 1922 3584 2338 3584 
Q 2397 3584 2469 3576 
Q 2541 3569 2628 3553 
L 2631 2963 
z
" transform="scale(0.015625)"/>
       <path id="DejaVuSans-61" d="M 2194 1759 
Q 1497 1759 1228 1600 
Q 959 1441 959 1056 
Q 959 750 1161 570 
Q 1363 391 1709 391 
Q 2188 391 2477 730 
Q 2766 1069 2766 1631 
L 2766 1759 
L 2194 1759 
z
M 3341 1997 
L 3341 0 
L 2766 0 
L 2766 531 
Q 2569 213 2275 61 
Q 1981 -91 1556 -91 
Q 1019 -91 701 211 
Q 384 513 384 1019 
Q 384 1609 779 1909 
Q 1175 2209 1959 2209 
L 2766 2209 
L 2766 2266 
Q 2766 2663 2505 2880 
Q 2244 3097 1772 3097 
Q 1472 3097 1187 3025 
Q 903 2953 641 2809 
L 641 3341 
Q 956 3463 1253 3523 
Q 1550 3584 1831 3584 
Q 2591 3584 2966 3190 
Q 3341 2797 3341 1997 
z
" transform="scale(0.015625)"/>
       <path id="DejaVuSans-79" d="M 2059 -325 
Q 1816 -950 1584 -1140 
Q 1353 -1331 966 -1331 
L 506 -1331 
L 506 -850 
L 844 -850 
Q 1081 -850 1212 -737 
Q 1344 -625 1503 -206 
L 1606 56 
L 191 3500 
L 800 3500 
L 1894 763 
L 2988 3500 
L 3597 3500 
L 2059 -325 
z
" transform="scale(0.015625)"/>
      </defs>
      <use xlink:href="#DejaVuSans-41"/>
      <use xlink:href="#DejaVuSans-63" x="66.658203"/>
      <use xlink:href="#DejaVuSans-63" x="121.638672"/>
      <use xlink:href="#DejaVuSans-75" x="176.619141"/>
      <use xlink:href="#DejaVuSans-72" x="239.998047"/>
      <use xlink:href="#DejaVuSans-61" x="281.111328"/>
      <use xlink:href="#DejaVuSans-63" x="342.390625"/>
      <use xlink:href="#DejaVuSans-79" x="397.371094"/>
     </g>
    </g>
   </g>
   <g id="line2d_35">
    <path d="M 71.408636 511.862628 
L 73.034632 504.450795 
L 74.660628 503.470529 
L 76.286624 500.940907 
L 77.912619 504.44268 
L 79.538615 492.546585 
L 81.164611 488.326368 
L 82.790607 486.832231 
L 84.416602 478.951119 
L 86.042598 483.794291 
L 87.668594 475.622369 
L 89.29459 473.963197 
L 90.920585 469.859387 
L 92.546581 462.547848 
L 94.172577 472.665827 
L 95.798573 470.888311 
L 97.424568 468.884992 
L 99.050564 471.723667 
L 100.67656 463.773409 
L 102.302555 457.570764 
L 103.928551 454.005538 
L 105.554547 442.980166 
L 107.180543 444.467532 
L 110.432534 430.608437 
L 112.05853 433.062821 
L 113.684526 433.290396 
L 115.310521 433.688649 
L 116.936517 435.199505 
L 118.562513 436.116871 
L 120.188509 433.005668 
L 121.814504 430.135504 
L 123.4405 424.028728 
L 125.066496 416.786145 
L 126.692492 401.118005 
L 128.318487 402.981174 
L 129.944483 393.202128 
L 131.570479 392.124075 
L 133.196475 378.004369 
L 134.82247 375.330263 
L 136.448466 368.565936 
L 138.074462 363.810837 
L 139.700458 365.849122 
L 141.326453 362.001065 
L 142.952449 358.787111 
L 144.578445 352.658642 
L 146.204441 351.475822 
L 147.830436 346.858984 
L 149.456432 346.645688 
L 151.082428 343.086449 
L 152.708424 340.131143 
L 154.334419 343.536376 
L 155.960415 335.615992 
L 157.586411 330.953405 
L 159.212407 330.272219 
L 162.464398 324.163114 
L 164.090394 318.819114 
L 165.716389 322.881314 
L 167.342385 305.874616 
L 168.968381 307.215925 
L 170.594377 303.968948 
L 172.220372 293.389978 
L 173.846368 294.375812 
L 175.472364 293.17415 
L 177.09836 287.364166 
L 178.724355 287.412414 
L 180.350351 277.633324 
L 181.976347 278.230098 
L 183.602343 276.945588 
L 185.228338 272.320812 
L 186.854334 270.825251 
L 188.48033 270.676538 
L 190.106326 266.488732 
L 191.732321 269.957429 
L 193.358317 259.54339 
L 194.984313 262.992286 
L 196.610309 260.694364 
L 198.236304 257.665804 
L 199.8623 258.014948 
L 201.488296 257.517742 
L 204.740287 245.285963 
L 206.366283 251.581987 
L 207.992279 246.802207 
L 211.24427 245.915347 
L 212.870266 237.260643 
L 214.496262 241.836561 
L 216.122258 242.633108 
L 217.748253 239.56665 
L 219.374249 224.020504 
L 221.000245 231.594206 
L 222.62624 227.460176 
L 224.252236 224.964982 
L 225.878232 227.106562 
L 227.504228 226.856953 
L 229.130223 222.183332 
L 230.756219 228.61351 
L 232.382215 219.747811 
L 234.008211 225.853913 
L 235.634206 220.250907 
L 237.260202 223.987683 
L 238.886198 219.82058 
L 240.512194 219.599812 
L 242.138189 212.417759 
L 243.764185 215.064258 
L 245.390181 216.730259 
L 247.016177 214.446953 
L 248.642172 206.979515 
L 250.268168 208.638832 
L 251.894164 210.952506 
L 253.52016 214.477551 
L 255.146155 204.304209 
L 256.772151 210.596106 
L 258.398147 204.531084 
L 260.024143 201.584128 
L 261.650138 209.220504 
L 263.276134 206.949656 
L 264.90213 206.775079 
L 266.528126 205.292512 
L 268.154121 206.375664 
L 269.780117 205.132042 
L 271.406113 200.205812 
L 273.032109 202.877775 
L 274.658104 205.801971 
L 276.2841 199.81306 
L 277.910096 201.253393 
L 281.162087 196.181323 
L 282.788083 202.239073 
L 284.414079 196.093328 
L 286.040074 195.370838 
L 287.66607 195.228574 
L 289.292066 198.542455 
L 290.918062 191.714983 
L 292.544057 190.391566 
L 294.170053 187.451696 
L 295.796049 192.401082 
L 297.422045 189.590074 
L 299.04804 194.045794 
L 300.674036 187.261518 
L 302.300032 187.535478 
L 303.926028 185.158815 
L 305.552023 180.894725 
L 307.178019 189.937634 
L 308.804015 181.909214 
L 310.430011 187.729124 
L 312.056006 181.655944 
L 313.682002 180.468066 
L 315.307998 179.818865 
L 316.933994 181.638217 
L 318.559989 185.589661 
L 320.185985 187.787138 
L 321.811981 178.292687 
L 323.437977 177.313596 
L 325.063972 169.916413 
L 326.689968 173.807135 
L 328.315964 172.467923 
L 329.94196 172.912634 
L 331.567955 166.412099 
L 333.193951 177.29622 
L 334.819947 175.110006 
L 336.445943 166.595872 
L 338.071938 170.083169 
L 339.697934 159.977411 
L 341.32393 169.885418 
L 344.575921 173.507094 
L 346.201917 169.685144 
L 347.827913 163.896339 
L 349.453908 168.961043 
L 351.079904 165.852558 
L 352.7059 163.001187 
L 354.331896 163.509446 
L 355.957891 172.536866 
L 357.583887 170.349869 
L 359.209883 163.010694 
L 360.835879 163.36339 
L 362.461874 157.696574 
L 364.08787 155.376548 
L 365.713866 160.024456 
L 367.339862 153.231337 
L 368.965857 161.426365 
L 370.591853 164.3467 
L 372.217849 160.372525 
L 373.843845 163.081438 
L 375.46984 154.930904 
L 377.095836 156.981171 
L 378.721832 159.579007 
L 380.347828 156.647087 
L 381.973823 157.654356 
L 383.599819 155.585784 
L 385.225815 146.646024 
L 386.851811 149.843322 
L 388.477806 160.985921 
L 390.103802 156.072198 
L 391.729798 153.92776 
L 393.355794 147.297089 
L 394.981789 147.659578 
L 396.607785 152.271469 
L 398.233781 154.247322 
L 399.859777 143.517991 
L 401.485772 145.013373 
L 403.111768 140.284874 
L 404.737764 149.006401 
L 406.36376 139.545869 
L 407.989755 137.199006 
L 409.615751 146.805755 
L 411.241747 145.52653 
L 412.867742 141.01262 
L 414.493738 145.353699 
L 416.119734 146.416547 
L 417.74573 139.775445 
L 419.371725 137.830906 
L 420.997721 139.793222 
L 422.623717 136.865537 
L 424.249713 133.58867 
L 425.875708 135.101134 
L 427.501704 139.227988 
L 429.1277 142.608902 
L 430.753696 150.938945 
L 432.379691 134.9487 
L 434.005687 142.911967 
L 435.631683 136.387311 
L 437.257679 144.009437 
L 438.883674 139.766628 
L 440.50967 137.764007 
L 442.135666 140.848955 
L 443.761662 138.091761 
L 445.387657 136.875192 
L 447.013653 138.745709 
L 448.639649 127.542972 
L 450.265645 131.993084 
L 451.89164 132.999848 
L 453.517636 124.948543 
L 455.143632 133.287424 
L 456.769628 127.284696 
L 458.395623 138.510659 
L 460.021619 131.528835 
L 461.647615 131.623173 
L 463.273611 126.035166 
L 464.899606 133.185525 
L 466.525602 133.405353 
L 468.151598 132.22476 
L 469.777593 123.017469 
L 471.403589 135.249488 
L 473.029585 128.912466 
L 474.655581 123.293737 
L 476.281576 115.000841 
L 477.907572 122.344433 
L 479.533568 120.830532 
L 481.159564 130.044248 
L 482.785559 128.99253 
L 484.411555 130.195227 
L 486.037551 126.078792 
L 489.289542 122.229707 
L 490.915538 119.241269 
L 492.541534 126.332299 
L 494.16753 114.600482 
L 495.793525 116.668643 
L 497.419521 119.218612 
L 499.045517 121.307629 
L 500.671513 125.551491 
L 502.297508 117.45315 
L 503.923504 125.892537 
L 505.5495 120.211009 
L 507.175496 111.403157 
L 508.801491 122.189806 
L 510.427487 116.769301 
L 512.053483 112.080917 
L 513.679479 118.889064 
L 515.305474 118.09318 
L 516.93147 115.94959 
L 518.557466 117.768913 
L 520.183462 113.226265 
L 521.809457 114.29306 
L 523.435453 119.09194 
L 525.061449 118.197352 
L 526.687445 114.655979 
L 528.31344 113.948777 
L 529.939436 115.476451 
L 531.565432 106.324971 
L 533.191427 117.300785 
L 534.817423 113.849858 
L 536.443419 109.526054 
L 538.069415 113.697264 
L 539.69541 119.307912 
L 541.321406 109.723873 
L 542.947402 115.220214 
L 544.573398 114.649049 
L 546.199393 112.694252 
L 547.825389 107.702188 
L 549.451385 115.190612 
L 551.077381 108.784047 
L 552.703376 116.586341 
L 554.329372 106.62057 
L 555.955368 113.629845 
L 557.581364 115.229493 
L 557.581364 115.229493 
" clip-path="url(#pf9f4fc4b1c)" style="fill: none; stroke: #348abd; stroke-width: 2; stroke-linecap: square"/>
   </g>
   <g id="line2d_36">
    <path d="M 71.408636 504.157636 
L 73.034632 505.561728 
L 74.660628 506.596435 
L 76.286624 504.405947 
L 77.912619 503.986431 
L 79.538615 504.093304 
L 81.164611 505.31459 
L 82.790607 504.358224 
L 84.416602 502.955851 
L 86.042598 505.402339 
L 87.668594 502.644937 
L 89.29459 504.710857 
L 90.920585 504.011996 
L 92.546581 504.96819 
L 94.172577 501.892851 
L 95.798573 499.65971 
L 97.424568 497.801008 
L 99.050564 497.652545 
L 102.302555 488.434908 
L 103.928551 484.283576 
L 105.554547 473.373476 
L 107.180543 456.524803 
L 108.806538 450.601243 
L 110.432534 437.625085 
L 112.05853 426.07086 
L 115.310521 421.564826 
L 116.936517 420.602236 
L 118.562513 417.269917 
L 120.188509 410.046861 
L 121.814504 411.246016 
L 123.4405 409.011671 
L 125.066496 400.989181 
L 126.692492 393.866463 
L 128.318487 389.771715 
L 129.944483 383.51534 
L 131.570479 381.320287 
L 133.196475 374.919937 
L 134.82247 374.574004 
L 136.448466 375.909439 
L 138.074462 365.007837 
L 139.700458 360.248454 
L 141.326453 363.314712 
L 142.952449 353.450405 
L 144.578445 351.900397 
L 146.204441 352.131081 
L 147.830436 348.33368 
L 149.456432 338.302672 
L 151.082428 326.025566 
L 152.708424 334.653451 
L 154.334419 326.521704 
L 155.960415 316.359081 
L 157.586411 314.469347 
L 159.212407 303.46656 
L 160.838402 302.524899 
L 162.464398 293.593412 
L 164.090394 287.665056 
L 165.716389 289.528247 
L 167.342385 281.697698 
L 168.968381 283.023142 
L 170.594377 280.186771 
L 172.220372 280.044865 
L 173.846368 278.306903 
L 175.472364 270.175723 
L 177.09836 268.073134 
L 178.724355 260.919906 
L 180.350351 264.05398 
L 181.976347 257.97148 
L 183.602343 254.15045 
L 185.228338 256.12873 
L 186.854334 252.53233 
L 188.48033 240.682352 
L 190.106326 246.042832 
L 191.732321 245.479225 
L 193.358317 245.63751 
L 194.984313 232.729076 
L 196.610309 230.350728 
L 198.236304 231.834723 
L 199.8623 243.088941 
L 201.488296 236.476371 
L 203.114292 229.293472 
L 204.740287 233.531391 
L 206.366283 232.477069 
L 207.992279 233.34249 
L 209.618275 236.208591 
L 211.24427 225.931053 
L 212.870266 227.997307 
L 214.496262 209.602808 
L 216.122258 237.307571 
L 217.748253 222.609126 
L 219.374249 217.361747 
L 221.000245 213.130911 
L 222.62624 215.712737 
L 224.252236 211.939589 
L 225.878232 210.921244 
L 227.504228 211.978028 
L 229.130223 211.738868 
L 230.756219 207.739622 
L 232.382215 213.099212 
L 234.008211 210.070803 
L 235.634206 203.011683 
L 237.260202 212.917061 
L 238.886198 204.986506 
L 240.512194 207.704704 
L 242.138189 204.432745 
L 243.764185 204.925538 
L 245.390181 204.296765 
L 247.016177 207.183185 
L 248.642172 197.587574 
L 250.268168 192.249101 
L 251.894164 204.02843 
L 253.52016 194.428523 
L 255.146155 199.070075 
L 256.772151 201.37181 
L 258.398147 191.429955 
L 260.024143 211.167541 
L 261.650138 199.909183 
L 263.276134 198.308755 
L 264.90213 196.237644 
L 266.528126 193.867493 
L 268.154121 202.766984 
L 269.780117 192.350061 
L 271.406113 193.183277 
L 273.032109 194.581637 
L 274.658104 183.605023 
L 277.910096 194.031627 
L 279.536092 187.870101 
L 281.162087 191.097667 
L 282.788083 183.748817 
L 284.414079 186.179784 
L 286.040074 186.290713 
L 287.66607 188.668957 
L 289.292066 183.52078 
L 290.918062 180.081645 
L 292.544057 182.026069 
L 294.170053 183.02549 
L 295.796049 175.646546 
L 297.422045 178.945384 
L 299.04804 173.613953 
L 300.674036 186.778177 
L 302.300032 172.711501 
L 303.926028 186.099818 
L 305.552023 177.146869 
L 308.804015 174.627986 
L 310.430011 178.213294 
L 312.056006 180.819794 
L 313.682002 175.968746 
L 315.307998 176.848195 
L 316.933994 172.637506 
L 318.559989 176.282443 
L 320.185985 175.989614 
L 321.811981 172.275649 
L 323.437977 170.512828 
L 325.063972 171.505405 
L 326.689968 166.321447 
L 328.315964 178.624086 
L 329.94196 162.253984 
L 331.567955 171.456779 
L 333.193951 167.447146 
L 334.819947 173.624187 
L 336.445943 170.807813 
L 338.071938 167.008474 
L 339.697934 159.939184 
L 341.32393 161.833953 
L 342.949926 163.981311 
L 344.575921 161.110734 
L 346.201917 160.027019 
L 347.827913 172.590599 
L 349.453908 164.900728 
L 351.079904 165.778444 
L 352.7059 156.776059 
L 354.331896 163.735905 
L 355.957891 160.101565 
L 357.583887 162.053832 
L 359.209883 160.528142 
L 360.835879 154.599428 
L 362.461874 164.128086 
L 364.08787 148.001701 
L 365.713866 158.838007 
L 367.339862 163.964818 
L 368.965857 161.927879 
L 370.591853 156.946393 
L 372.217849 157.828406 
L 373.843845 156.127503 
L 375.46984 158.795671 
L 377.095836 160.088368 
L 378.721832 150.184579 
L 380.347828 154.790548 
L 381.973823 161.142126 
L 383.599819 149.065296 
L 385.225815 156.57 
L 386.851811 151.210416 
L 388.477806 154.478487 
L 390.103802 150.827459 
L 391.729798 152.112143 
L 393.355794 152.499131 
L 394.981789 151.24191 
L 396.607785 150.206293 
L 398.233781 154.256199 
L 399.859777 153.955292 
L 401.485772 153.967245 
L 403.111768 146.45558 
L 404.737764 152.439045 
L 406.36376 142.111045 
L 407.989755 147.487332 
L 409.615751 145.682163 
L 411.241747 142.045379 
L 412.867742 151.953362 
L 414.493738 146.956073 
L 416.119734 147.558992 
L 417.74573 148.382957 
L 419.371725 142.110141 
L 420.997721 144.758914 
L 422.623717 145.859735 
L 424.249713 141.457741 
L 425.875708 138.341942 
L 427.501704 142.184798 
L 429.1277 142.253969 
L 430.753696 154.680851 
L 432.379691 141.883206 
L 434.005687 148.917374 
L 435.631683 141.602766 
L 437.257679 143.9413 
L 438.883674 140.824093 
L 440.50967 143.40217 
L 442.135666 143.706096 
L 443.761662 141.239147 
L 445.387657 140.302132 
L 447.013653 136.158274 
L 448.639649 144.974365 
L 450.265645 137.234119 
L 451.89164 139.586815 
L 453.517636 133.791175 
L 455.143632 134.560532 
L 456.769628 133.106514 
L 458.395623 140.513446 
L 460.021619 132.318293 
L 461.647615 136.121349 
L 463.273611 138.518375 
L 464.899606 135.239009 
L 466.525602 134.731978 
L 468.151598 141.247124 
L 469.777593 131.100484 
L 471.403589 134.565774 
L 473.029585 129.786284 
L 474.655581 121.4965 
L 476.281576 132.063041 
L 477.907572 132.63003 
L 479.533568 135.446426 
L 481.159564 137.492897 
L 482.785559 129.903454 
L 484.411555 124.733241 
L 486.037551 136.562496 
L 487.663547 129.021364 
L 489.289542 135.364856 
L 490.915538 128.513124 
L 492.541534 129.985608 
L 494.16753 119.824042 
L 495.793525 132.698616 
L 497.419521 136.00203 
L 499.045517 134.988702 
L 500.671513 126.728611 
L 502.297508 123.303432 
L 503.923504 133.937884 
L 505.5495 122.499497 
L 507.175496 123.342531 
L 508.801491 123.427471 
L 510.427487 120.646928 
L 512.053483 129.627379 
L 513.679479 116.935808 
L 515.305474 124.26519 
L 516.93147 127.8039 
L 518.557466 118.834513 
L 520.183462 128.687368 
L 521.809457 128.960636 
L 523.435453 123.752092 
L 525.061449 131.509662 
L 526.687445 120.400615 
L 528.31344 124.379449 
L 529.939436 123.438187 
L 531.565432 128.971222 
L 533.191427 124.448106 
L 534.817423 131.20917 
L 536.443419 124.888827 
L 538.069415 116.997382 
L 539.69541 119.967133 
L 541.321406 129.225194 
L 542.947402 125.716436 
L 544.573398 119.128883 
L 546.199393 115.343007 
L 547.825389 109.025704 
L 549.451385 115.534362 
L 551.077381 115.132564 
L 552.703376 122.644374 
L 554.329372 117.466538 
L 555.955368 115.333447 
L 557.581364 120.399295 
L 557.581364 120.399295 
" clip-path="url(#pf9f4fc4b1c)" style="fill: none; stroke: #a60628; stroke-width: 2; stroke-linecap: square"/>
   </g>
   <g id="line2d_37">
    <path d="M 71.408636 481.659057 
L 73.034632 480.720739 
L 74.660628 475.893885 
L 76.286624 468.912816 
L 77.912619 472.432867 
L 79.538615 468.696554 
L 81.164611 468.804821 
L 82.790607 463.641145 
L 84.416602 471.33392 
L 86.042598 464.314977 
L 87.668594 465.251458 
L 89.29459 455.007134 
L 90.920585 443.740638 
L 92.546581 438.222838 
L 94.172577 428.064969 
L 95.798573 431.507315 
L 97.424568 433.934918 
L 99.050564 432.799371 
L 100.67656 432.658958 
L 102.302555 446.374266 
L 103.928551 437.231464 
L 105.554547 436.742529 
L 107.180543 431.819325 
L 108.806538 426.343757 
L 110.432534 426.458918 
L 112.05853 413.086622 
L 113.684526 396.983026 
L 115.310521 389.232607 
L 116.936517 385.504955 
L 118.562513 374.34893 
L 120.188509 376.272132 
L 121.814504 369.058123 
L 123.4405 358.294226 
L 125.066496 349.555667 
L 126.692492 352.732756 
L 128.318487 352.966014 
L 129.944483 350.174739 
L 131.570479 341.56549 
L 133.196475 342.967702 
L 134.82247 338.793955 
L 136.448466 341.891924 
L 138.074462 343.712538 
L 139.700458 328.586206 
L 141.326453 328.20814 
L 142.952449 324.943333 
L 144.578445 317.410655 
L 146.204441 318.235488 
L 147.830436 318.436818 
L 149.456432 316.583787 
L 151.082428 299.668378 
L 152.708424 306.843506 
L 154.334419 303.200498 
L 155.960415 293.150919 
L 157.586411 292.173476 
L 159.212407 293.404742 
L 160.838402 286.502304 
L 162.464398 281.090873 
L 164.090394 276.206634 
L 165.716389 273.730856 
L 167.342385 275.08886 
L 168.968381 271.550668 
L 170.594377 264.140009 
L 172.220372 271.603944 
L 173.846368 267.217642 
L 175.472364 260.791039 
L 177.09836 261.499977 
L 178.724355 257.418551 
L 180.350351 261.003918 
L 181.976347 258.280425 
L 183.602343 253.808886 
L 185.228338 260.171883 
L 186.854334 254.741436 
L 188.48033 254.110669 
L 190.106326 242.0992 
L 191.732321 246.305872 
L 194.984313 241.589397 
L 196.610309 245.048394 
L 199.8623 240.837579 
L 201.488296 237.465016 
L 203.114292 234.48675 
L 204.740287 231.218937 
L 206.366283 229.672289 
L 207.992279 226.304831 
L 209.618275 231.49183 
L 211.24427 227.340757 
L 212.870266 229.021159 
L 214.496262 231.080113 
L 216.122258 223.448274 
L 217.748253 228.902874 
L 219.374249 222.114276 
L 221.000245 218.177567 
L 222.62624 223.573505 
L 224.252236 214.623412 
L 225.878232 211.819292 
L 227.504228 210.880412 
L 229.130223 219.657588 
L 230.756219 213.018341 
L 232.382215 212.388179 
L 234.008211 209.300762 
L 235.634206 204.729541 
L 237.260202 203.637149 
L 238.886198 207.937239 
L 240.512194 201.510644 
L 243.764185 210.410029 
L 245.390181 202.971881 
L 248.642172 197.568952 
L 250.268168 205.20938 
L 251.894164 204.298688 
L 253.52016 189.99027 
L 255.146155 195.243186 
L 256.772151 191.126652 
L 258.398147 198.756992 
L 260.024143 194.976673 
L 261.650138 191.724682 
L 263.276134 197.098564 
L 264.90213 194.086981 
L 266.528126 188.279242 
L 268.154121 185.278954 
L 269.780117 187.024326 
L 271.406113 181.619923 
L 273.032109 186.620239 
L 274.658104 188.560254 
L 276.2841 180.933392 
L 277.910096 183.947907 
L 279.536092 175.474742 
L 281.162087 173.222007 
L 282.788083 181.999889 
L 284.414079 177.764361 
L 286.040074 179.517465 
L 287.66607 173.326528 
L 289.292066 178.956709 
L 290.918062 173.125332 
L 292.544057 181.109838 
L 294.170053 174.302213 
L 295.796049 176.088633 
L 297.422045 175.044084 
L 299.04804 170.333125 
L 300.674036 157.985797 
L 302.300032 169.47146 
L 303.926028 167.437883 
L 305.552023 166.667539 
L 307.178019 172.915639 
L 308.804015 166.883835 
L 310.430011 172.320638 
L 312.056006 163.190928 
L 313.682002 164.538252 
L 315.307998 161.078021 
L 316.933994 168.609566 
L 318.559989 163.806619 
L 320.185985 166.296089 
L 321.811981 149.545946 
L 323.437977 161.397469 
L 325.063972 170.91294 
L 326.689968 157.902857 
L 328.315964 162.581122 
L 329.94196 160.75816 
L 331.567955 157.381016 
L 333.193951 152.107548 
L 334.819947 154.65422 
L 336.445943 154.523738 
L 338.071938 160.52291 
L 339.697934 150.278596 
L 341.32393 148.691014 
L 342.949926 157.645408 
L 344.575921 156.254768 
L 346.201917 156.150812 
L 347.827913 142.041591 
L 349.453908 150.232941 
L 351.079904 148.102938 
L 352.7059 154.643117 
L 354.331896 145.58731 
L 355.957891 160.076139 
L 357.583887 153.928894 
L 359.209883 146.804288 
L 360.835879 150.449491 
L 362.461874 143.372081 
L 364.08787 148.789829 
L 365.713866 143.691968 
L 367.339862 149.4693 
L 368.965857 147.802796 
L 370.591853 147.489853 
L 372.217849 138.349171 
L 373.843845 142.942632 
L 375.46984 154.263669 
L 377.095836 149.939633 
L 378.721832 143.08395 
L 380.347828 143.307498 
L 381.973823 139.871341 
L 383.599819 137.306151 
L 385.225815 141.575791 
L 386.851811 138.811372 
L 388.477806 130.857273 
L 390.103802 136.343872 
L 391.729798 134.460964 
L 393.355794 141.59598 
L 394.981789 142.889928 
L 396.607785 127.644371 
L 398.233781 130.799376 
L 399.859777 138.939067 
L 401.485772 127.403122 
L 403.111768 130.713002 
L 404.737764 132.232457 
L 406.36376 137.52063 
L 407.989755 131.33042 
L 409.615751 117.032664 
L 411.241747 129.80389 
L 412.867742 130.904849 
L 414.493738 125.206212 
L 416.119734 131.378324 
L 417.74573 129.103938 
L 419.371725 122.586019 
L 420.997721 127.813926 
L 422.623717 121.944025 
L 424.249713 128.087787 
L 425.875708 122.005238 
L 427.501704 127.213097 
L 429.1277 130.687156 
L 430.753696 127.452702 
L 432.379691 119.600753 
L 434.005687 118.138164 
L 435.631683 114.301285 
L 437.257679 120.78162 
L 440.50967 116.797216 
L 442.135666 119.207991 
L 443.761662 124.912292 
L 445.387657 120.341305 
L 447.013653 113.488637 
L 448.639649 111.871226 
L 450.265645 109.883341 
L 451.89164 115.555549 
L 453.517636 117.42857 
L 455.143632 111.057762 
L 456.769628 119.849659 
L 458.395623 109.830792 
L 460.021619 111.467309 
L 461.647615 105.011868 
L 463.273611 112.869609 
L 464.899606 102.249425 
L 466.525602 112.412431 
L 468.151598 115.945324 
L 469.777593 114.380058 
L 471.403589 108.217355 
L 473.029585 117.411864 
L 474.655581 114.514757 
L 476.281576 108.126555 
L 477.907572 107.326187 
L 479.533568 105.848154 
L 481.159564 112.873495 
L 482.785559 114.20529 
L 484.411555 109.703488 
L 486.037551 111.771865 
L 487.663547 109.533382 
L 489.289542 110.889743 
L 490.915538 108.467242 
L 492.541534 100.792995 
L 494.16753 110.635899 
L 495.793525 98.390879 
L 497.419521 107.375925 
L 499.045517 105.814504 
L 500.671513 98.306296 
L 502.297508 105.321357 
L 503.923504 93.450598 
L 505.5495 98.314557 
L 507.175496 102.400722 
L 508.801491 102.321321 
L 510.427487 98.180809 
L 512.053483 98.554925 
L 513.679479 104.395436 
L 515.305474 94.23193 
L 516.93147 101.440323 
L 518.557466 98.040994 
L 520.183462 100.235681 
L 521.809457 98.698105 
L 523.435453 95.667456 
L 525.061449 99.491307 
L 526.687445 101.687626 
L 528.31344 95.857575 
L 529.939436 98.620429 
L 531.565432 88.446055 
L 533.191427 92.774485 
L 534.817423 94.906518 
L 536.443419 91.379121 
L 539.69541 103.256773 
L 541.321406 97.602943 
L 542.947402 97.149674 
L 544.573398 87.026897 
L 546.199393 92.91283 
L 547.825389 84.324545 
L 549.451385 93.79321 
L 551.077381 95.095175 
L 552.703376 93.202029 
L 554.329372 89.037985 
L 555.955368 89.814979 
L 557.581364 91.577651 
L 557.581364 91.577651 
" clip-path="url(#pf9f4fc4b1c)" style="fill: none; stroke: #7a68a6; stroke-width: 2; stroke-linecap: square"/>
   </g>
   <g id="line2d_38">
    <path d="M 71.408636 496.298543 
L 73.034632 492.762792 
L 74.660628 492.6833 
L 76.286624 492.461953 
L 77.912619 491.743031 
L 79.538615 489.318595 
L 81.164611 489.995949 
L 82.790607 492.356712 
L 84.416602 486.230688 
L 86.042598 487.029603 
L 87.668594 480.122979 
L 89.29459 476.150096 
L 90.920585 471.48715 
L 92.546581 474.510745 
L 94.172577 473.121739 
L 95.798573 476.656282 
L 97.424568 480.834046 
L 99.050564 468.897501 
L 100.67656 459.081863 
L 102.302555 458.5594 
L 103.928551 453.113355 
L 105.554547 444.816338 
L 107.180543 433.779193 
L 108.806538 420.973176 
L 110.432534 420.487748 
L 112.05853 412.86634 
L 113.684526 408.371751 
L 115.310521 403.166522 
L 116.936517 403.886049 
L 118.562513 395.284623 
L 120.188509 400.796922 
L 121.814504 389.070065 
L 123.4405 389.820836 
L 125.066496 384.260059 
L 126.692492 382.800213 
L 128.318487 379.662605 
L 129.944483 374.136079 
L 131.570479 371.084824 
L 133.196475 373.095494 
L 134.82247 365.365158 
L 136.448466 362.631156 
L 138.074462 367.124098 
L 139.700458 362.324192 
L 141.326453 364.062878 
L 142.952449 356.900382 
L 144.578445 354.327025 
L 146.204441 359.976585 
L 147.830436 350.380074 
L 149.456432 352.320977 
L 151.082428 339.193279 
L 152.708424 339.077527 
L 154.334419 338.305155 
L 155.960415 338.077185 
L 157.586411 339.536265 
L 159.212407 337.611125 
L 160.838402 337.731321 
L 162.464398 339.727716 
L 164.090394 337.249459 
L 165.716389 335.488762 
L 167.342385 324.361369 
L 168.968381 325.945697 
L 170.594377 314.172107 
L 172.220372 317.271603 
L 173.846368 314.434909 
L 175.472364 312.732642 
L 177.09836 300.996435 
L 178.724355 298.870772 
L 180.350351 301.003921 
L 181.976347 291.167214 
L 183.602343 287.766572 
L 185.228338 281.893497 
L 186.854334 284.765937 
L 190.106326 267.990848 
L 191.732321 270.476312 
L 193.358317 271.777335 
L 194.984313 264.475448 
L 196.610309 266.601697 
L 198.236304 260.415036 
L 199.8623 265.917528 
L 201.488296 262.54782 
L 203.114292 262.495451 
L 204.740287 253.037777 
L 206.366283 261.106139 
L 207.992279 259.204946 
L 209.618275 246.123281 
L 211.24427 244.389163 
L 212.870266 243.362197 
L 214.496262 248.135982 
L 216.122258 249.193464 
L 217.748253 237.740004 
L 219.374249 238.270972 
L 221.000245 237.82575 
L 222.62624 236.181267 
L 224.252236 238.594232 
L 225.878232 231.203168 
L 227.504228 226.819619 
L 229.130223 231.045035 
L 230.756219 227.285327 
L 232.382215 230.378976 
L 234.008211 232.045908 
L 235.634206 226.778177 
L 237.260202 235.416597 
L 238.886198 225.719578 
L 240.512194 223.737319 
L 242.138189 216.699689 
L 243.764185 216.67108 
L 245.390181 220.11427 
L 247.016177 226.89625 
L 248.642172 217.092196 
L 250.268168 224.106698 
L 251.894164 213.468663 
L 253.52016 200.988178 
L 255.146155 219.782362 
L 256.772151 211.127162 
L 258.398147 206.356963 
L 260.024143 217.85584 
L 261.650138 212.541703 
L 263.276134 210.202177 
L 264.90213 205.420412 
L 266.528126 201.515233 
L 268.154121 201.005107 
L 269.780117 196.41785 
L 271.406113 200.263663 
L 273.032109 199.038946 
L 274.658104 202.4669 
L 276.2841 195.154824 
L 277.910096 195.208142 
L 279.536092 203.023969 
L 281.162087 190.624721 
L 282.788083 187.841642 
L 284.414079 197.697753 
L 286.040074 192.33871 
L 287.66607 193.077976 
L 289.292066 188.089169 
L 290.918062 186.725584 
L 292.544057 184.541822 
L 294.170053 189.017326 
L 295.796049 184.400962 
L 297.422045 189.277399 
L 299.04804 181.134188 
L 300.674036 186.320367 
L 302.300032 183.912085 
L 303.926028 179.306099 
L 305.552023 176.368009 
L 307.178019 180.094088 
L 308.804015 180.525125 
L 310.430011 174.744575 
L 312.056006 177.523962 
L 313.682002 177.356242 
L 315.307998 175.244354 
L 316.933994 172.539814 
L 318.559989 176.902929 
L 320.185985 173.37467 
L 321.811981 172.531681 
L 323.437977 175.652357 
L 325.063972 171.211466 
L 326.689968 171.756518 
L 328.315964 170.975138 
L 329.94196 172.66441 
L 331.567955 175.521744 
L 333.193951 164.59879 
L 334.819947 170.623174 
L 336.445943 168.090884 
L 338.071938 176.547477 
L 339.697934 167.244298 
L 341.32393 171.113934 
L 342.949926 168.818147 
L 344.575921 175.739681 
L 346.201917 171.539964 
L 347.827913 169.734654 
L 349.453908 170.820818 
L 351.079904 160.981484 
L 352.7059 162.808912 
L 354.331896 169.386936 
L 355.957891 165.910393 
L 357.583887 153.62991 
L 359.209883 159.734649 
L 360.835879 160.474234 
L 362.461874 157.632458 
L 364.08787 163.352243 
L 365.713866 159.200803 
L 367.339862 159.564751 
L 368.965857 155.372347 
L 370.591853 159.541578 
L 372.217849 162.345794 
L 373.843845 165.651545 
L 375.46984 154.965437 
L 377.095836 161.033795 
L 380.347828 157.329229 
L 381.973823 158.411763 
L 383.599819 156.485419 
L 385.225815 156.422887 
L 386.851811 149.012479 
L 388.477806 153.509169 
L 390.103802 150.065758 
L 391.729798 159.352186 
L 393.355794 155.03471 
L 394.981789 151.115076 
L 396.607785 158.072287 
L 398.233781 152.534359 
L 399.859777 157.488431 
L 401.485772 150.455514 
L 403.111768 150.683397 
L 404.737764 150.205151 
L 406.36376 153.405748 
L 407.989755 147.249337 
L 409.615751 152.697758 
L 411.241747 148.181766 
L 412.867742 148.732949 
L 414.493738 154.773098 
L 416.119734 148.111545 
L 417.74573 152.198089 
L 419.371725 152.881201 
L 420.997721 148.465748 
L 422.623717 148.172564 
L 424.249713 153.592503 
L 425.875708 157.313243 
L 427.501704 149.306013 
L 430.753696 150.839401 
L 432.379691 146.810655 
L 434.005687 145.798793 
L 435.631683 147.360488 
L 437.257679 146.127421 
L 438.883674 146.374399 
L 440.50967 147.476891 
L 442.135666 140.595191 
L 443.761662 137.773814 
L 445.387657 138.765663 
L 447.013653 145.04499 
L 448.639649 149.603994 
L 450.265645 142.915886 
L 451.89164 144.586158 
L 453.517636 147.154939 
L 455.143632 142.849315 
L 456.769628 138.859837 
L 458.395623 137.954912 
L 460.021619 139.395404 
L 461.647615 129.563184 
L 463.273611 141.947418 
L 464.899606 142.955959 
L 466.525602 140.421489 
L 468.151598 135.447638 
L 469.777593 148.446799 
L 471.403589 138.349211 
L 473.029585 145.025612 
L 474.655581 138.009818 
L 476.281576 137.09654 
L 477.907572 139.068954 
L 479.533568 141.894959 
L 481.159564 137.536093 
L 482.785559 137.676415 
L 484.411555 136.763386 
L 486.037551 136.360503 
L 487.663547 137.559488 
L 489.289542 139.769455 
L 490.915538 134.198878 
L 492.541534 131.727992 
L 494.16753 135.061369 
L 495.793525 134.409596 
L 497.419521 137.311575 
L 499.045517 127.739644 
L 500.671513 131.703224 
L 502.297508 135.304271 
L 503.923504 130.00208 
L 505.5495 129.906831 
L 507.175496 126.006194 
L 508.801491 130.71556 
L 510.427487 132.35568 
L 512.053483 130.95091 
L 513.679479 122.354074 
L 515.305474 125.640674 
L 516.93147 129.209959 
L 518.557466 133.231946 
L 520.183462 125.114149 
L 521.809457 131.844825 
L 523.435453 123.33685 
L 525.061449 130.048529 
L 526.687445 131.641674 
L 528.31344 127.969904 
L 529.939436 126.406935 
L 531.565432 124.518157 
L 533.191427 117.40235 
L 534.817423 128.027626 
L 536.443419 128.082963 
L 538.069415 132.223171 
L 539.69541 128.586595 
L 541.321406 118.80009 
L 542.947402 125.299043 
L 544.573398 123.378979 
L 546.199393 123.051379 
L 547.825389 125.020972 
L 549.451385 122.122873 
L 551.077381 121.411399 
L 552.703376 124.61413 
L 554.329372 130.007171 
L 555.955368 121.262284 
L 557.581364 123.11344 
L 557.581364 123.11344 
" clip-path="url(#pf9f4fc4b1c)" style="fill: none; stroke: #467821; stroke-width: 2; stroke-linecap: square"/>
   </g>
   <g id="line2d_39">
    <path d="M 71.408636 510.32163 
L 73.034632 513.215455 
L 74.660628 511.359294 
L 76.286624 508.327986 
L 77.912619 508.091754 
L 79.538615 509.109885 
L 81.164611 511.41074 
L 82.790607 506.138011 
L 84.416602 509.624832 
L 86.042598 507.137922 
L 87.668594 512.3623 
L 89.29459 509.069787 
L 90.920585 511.249944 
L 92.546581 507.809032 
L 94.172577 500.899572 
L 95.798573 491.059887 
L 97.424568 478.240506 
L 99.050564 468.254093 
L 100.67656 462.867255 
L 102.302555 463.407566 
L 103.928551 449.093278 
L 105.554547 441.300271 
L 107.180543 436.509144 
L 108.806538 431.216702 
L 110.432534 432.593126 
L 112.05853 422.106223 
L 113.684526 413.932531 
L 115.310521 417.635794 
L 116.936517 411.170547 
L 121.814504 389.321168 
L 123.4405 380.880426 
L 125.066496 377.234274 
L 126.692492 361.706719 
L 128.318487 362.071613 
L 129.944483 356.522628 
L 131.570479 361.971444 
L 134.82247 349.922335 
L 136.448466 358.045768 
L 138.074462 353.958719 
L 139.700458 336.226883 
L 141.326453 345.946208 
L 144.578445 332.832058 
L 146.204441 329.526873 
L 147.830436 334.188786 
L 149.456432 326.989785 
L 151.082428 308.196398 
L 152.708424 323.232519 
L 154.334419 313.037824 
L 155.960415 310.430897 
L 157.586411 308.694378 
L 159.212407 304.332324 
L 160.838402 296.157908 
L 162.464398 291.926643 
L 164.090394 299.36199 
L 165.716389 283.302747 
L 167.342385 282.787817 
L 168.968381 284.474944 
L 170.594377 281.984145 
L 172.220372 278.499277 
L 173.846368 268.321821 
L 175.472364 275.071465 
L 177.09836 272.231961 
L 178.724355 274.64696 
L 180.350351 272.611928 
L 181.976347 271.997844 
L 183.602343 261.171223 
L 185.228338 265.260513 
L 186.854334 252.40809 
L 188.48033 250.587377 
L 190.106326 252.899944 
L 191.732321 251.275909 
L 193.358317 243.154768 
L 194.984313 250.651975 
L 196.610309 251.888664 
L 198.236304 247.253407 
L 199.8623 238.147425 
L 201.488296 242.53391 
L 203.114292 243.579987 
L 204.740287 242.826012 
L 206.366283 246.196423 
L 207.992279 230.646871 
L 209.618275 232.867699 
L 211.24427 231.133578 
L 212.870266 234.7825 
L 214.496262 237.747412 
L 216.122258 236.147324 
L 217.748253 225.80166 
L 219.374249 229.911932 
L 221.000245 227.121965 
L 224.252236 222.236755 
L 225.878232 223.514717 
L 227.504228 219.70927 
L 229.130223 222.108368 
L 230.756219 216.426821 
L 232.382215 212.433932 
L 234.008211 211.109899 
L 235.634206 214.322427 
L 237.260202 218.850281 
L 238.886198 218.193056 
L 240.512194 216.32735 
L 242.138189 213.517835 
L 243.764185 213.343627 
L 245.390181 208.261209 
L 247.016177 213.89749 
L 248.642172 206.138119 
L 250.268168 202.785641 
L 251.894164 210.51698 
L 253.52016 201.392992 
L 255.146155 203.555066 
L 256.772151 202.264046 
L 258.398147 207.56986 
L 260.024143 200.512208 
L 261.650138 202.006338 
L 263.276134 195.942185 
L 264.90213 197.580733 
L 266.528126 193.204896 
L 268.154121 207.179832 
L 269.780117 195.515053 
L 271.406113 193.804208 
L 273.032109 193.255085 
L 274.658104 190.297663 
L 276.2841 188.881494 
L 277.910096 193.827966 
L 279.536092 198.363731 
L 281.162087 189.583488 
L 282.788083 188.938537 
L 284.414079 190.92426 
L 286.040074 186.323689 
L 287.66607 188.407988 
L 289.292066 176.811514 
L 290.918062 179.891718 
L 292.544057 181.063114 
L 294.170053 186.82104 
L 295.796049 180.600171 
L 297.422045 187.473321 
L 299.04804 182.514044 
L 300.674036 178.557422 
L 302.300032 177.083741 
L 303.926028 178.196431 
L 305.552023 175.09087 
L 307.178019 175.065367 
L 308.804015 180.931969 
L 310.430011 176.455888 
L 312.056006 173.54353 
L 313.682002 175.985383 
L 315.307998 172.786821 
L 316.933994 172.220006 
L 318.559989 170.783814 
L 320.185985 171.168061 
L 321.811981 170.865201 
L 323.437977 163.290778 
L 325.063972 176.983206 
L 326.689968 170.478746 
L 328.315964 154.663362 
L 329.94196 160.910968 
L 331.567955 165.789274 
L 333.193951 160.474481 
L 334.819947 172.971321 
L 336.445943 159.468486 
L 338.071938 168.358166 
L 339.697934 167.810037 
L 341.32393 163.046372 
L 342.949926 161.085905 
L 344.575921 169.437194 
L 346.201917 162.933752 
L 347.827913 152.166953 
L 349.453908 159.717933 
L 351.079904 161.658169 
L 352.7059 151.920601 
L 354.331896 161.313551 
L 355.957891 153.144919 
L 357.583887 152.574701 
L 359.209883 155.635351 
L 360.835879 159.06257 
L 362.461874 152.734994 
L 364.08787 153.451933 
L 367.339862 154.097753 
L 368.965857 147.917646 
L 370.591853 155.267224 
L 372.217849 148.775109 
L 373.843845 151.678312 
L 375.46984 151.403555 
L 377.095836 139.783324 
L 378.721832 149.546104 
L 380.347828 144.257671 
L 381.973823 150.063125 
L 383.599819 153.101552 
L 385.225815 150.094632 
L 386.851811 147.348407 
L 388.477806 146.425555 
L 390.103802 141.074148 
L 391.729798 144.773831 
L 393.355794 143.385127 
L 394.981789 150.487428 
L 396.607785 147.964812 
L 398.233781 147.888541 
L 399.859777 133.976504 
L 401.485772 143.971746 
L 403.111768 149.477873 
L 404.737764 143.057381 
L 406.36376 140.881788 
L 407.989755 142.669622 
L 409.615751 141.844569 
L 411.241747 142.398259 
L 412.867742 138.281609 
L 414.493738 135.714883 
L 416.119734 146.145364 
L 417.74573 142.851334 
L 419.371725 140.552931 
L 420.997721 136.237828 
L 422.623717 143.283152 
L 424.249713 142.39533 
L 425.875708 145.071212 
L 427.501704 134.540404 
L 429.1277 134.527164 
L 432.379691 139.675201 
L 434.005687 136.406293 
L 435.631683 138.709669 
L 437.257679 136.479026 
L 438.883674 139.939286 
L 440.50967 142.741966 
L 442.135666 128.993298 
L 443.761662 139.308423 
L 445.387657 138.97577 
L 447.013653 137.053238 
L 448.639649 132.437677 
L 450.265645 133.317219 
L 451.89164 136.084744 
L 453.517636 134.531111 
L 455.143632 135.666702 
L 456.769628 130.150353 
L 458.395623 130.162435 
L 460.021619 130.766324 
L 463.273611 138.060077 
L 464.899606 130.396983 
L 466.525602 123.392505 
L 468.151598 137.953387 
L 469.777593 125.72105 
L 471.403589 129.61087 
L 473.029585 128.0409 
L 474.655581 127.488102 
L 476.281576 126.198456 
L 477.907572 121.445652 
L 479.533568 130.157681 
L 481.159564 126.252935 
L 482.785559 118.429429 
L 484.411555 129.474243 
L 486.037551 123.838931 
L 487.663547 129.187256 
L 489.289542 130.09714 
L 490.915538 136.133738 
L 492.541534 118.87204 
L 494.16753 121.907731 
L 495.793525 129.031191 
L 497.419521 124.545359 
L 499.045517 120.56112 
L 500.671513 121.10677 
L 502.297508 122.640293 
L 503.923504 126.823462 
L 505.5495 120.536483 
L 507.175496 124.590573 
L 508.801491 111.632597 
L 510.427487 117.394328 
L 512.053483 126.072142 
L 513.679479 123.888477 
L 515.305474 118.763895 
L 516.93147 112.59558 
L 518.557466 120.023061 
L 520.183462 120.906315 
L 521.809457 116.632149 
L 523.435453 118.517185 
L 525.061449 114.81054 
L 526.687445 112.158112 
L 528.31344 126.713599 
L 529.939436 115.179992 
L 531.565432 121.256729 
L 533.191427 130.060722 
L 534.817423 119.421635 
L 536.443419 124.792949 
L 538.069415 116.627926 
L 539.69541 116.262811 
L 541.321406 117.643129 
L 542.947402 114.13318 
L 544.573398 112.51189 
L 546.199393 107.243588 
L 547.825389 110.010001 
L 549.451385 114.947481 
L 551.077381 117.516585 
L 552.703376 108.396829 
L 554.329372 114.437897 
L 555.955368 114.208134 
L 557.581364 112.256857 
L 557.581364 112.256857 
" clip-path="url(#pf9f4fc4b1c)" style="fill: none; stroke: #d55e00; stroke-width: 2; stroke-linecap: square"/>
   </g>
   <g id="patch_3">
    <path d="M 47.1 534.66 
L 47.1 62.88 
" style="fill: none; stroke: #bcbcbc; stroke-width: 0.8; stroke-linejoin: miter; stroke-linecap: square"/>
   </g>
   <g id="patch_4">
    <path d="M 581.89 534.66 
L 581.89 62.88 
" style="fill: none; stroke: #bcbcbc; stroke-width: 0.8; stroke-linejoin: miter; stroke-linecap: square"/>
   </g>
   <g id="patch_5">
    <path d="M 47.1 534.66 
L 581.89 534.66 
" style="fill: none; stroke: #bcbcbc; stroke-width: 0.8; stroke-linejoin: miter; stroke-linecap: square"/>
   </g>
   <g id="patch_6">
    <path d="M 47.1 62.88 
L 581.89 62.88 
" style="fill: none; stroke: #bcbcbc; stroke-width: 0.8; stroke-linejoin: miter; stroke-linecap: square"/>
   </g>
   <g id="text_20">
    <g id="patch_7">
     <path d="M 73.8395 123.54275 
L 199.034813 123.54275 
Q 204.034813 123.54275 204.034813 118.54275 
L 204.034813 86.469 
Q 204.034813 81.469 199.034813 81.469 
L 73.8395 81.469 
Q 68.8395 81.469 68.8395 86.469 
L 68.8395 118.54275 
Q 68.8395 123.54275 73.8395 123.54275 
z
" style="fill: #d3d3d3; stroke: #000000; stroke-width: 0.5; stroke-linejoin: miter"/>
    </g>
    <!-- Num Server Rounds: 800 -->
    <g transform="translate(73.8395 94.067437) scale(0.1 -0.1)">
     <defs>
      <path id="DejaVuSans-4e" d="M 628 4666 
L 1478 4666 
L 3547 763 
L 3547 4666 
L 4159 4666 
L 4159 0 
L 3309 0 
L 1241 3903 
L 1241 0 
L 628 0 
L 628 4666 
z
" transform="scale(0.015625)"/>
      <path id="DejaVuSans-6d" d="M 3328 2828 
Q 3544 3216 3844 3400 
Q 4144 3584 4550 3584 
Q 5097 3584 5394 3201 
Q 5691 2819 5691 2113 
L 5691 0 
L 5113 0 
L 5113 2094 
Q 5113 2597 4934 2840 
Q 4756 3084 4391 3084 
Q 3944 3084 3684 2787 
Q 3425 2491 3425 1978 
L 3425 0 
L 2847 0 
L 2847 2094 
Q 2847 2600 2669 2842 
Q 2491 3084 2119 3084 
Q 1678 3084 1418 2786 
Q 1159 2488 1159 1978 
L 1159 0 
L 581 0 
L 581 3500 
L 1159 3500 
L 1159 2956 
Q 1356 3278 1631 3431 
Q 1906 3584 2284 3584 
Q 2666 3584 2933 3390 
Q 3200 3197 3328 2828 
z
" transform="scale(0.015625)"/>
      <path id="DejaVuSans-20" transform="scale(0.015625)"/>
      <path id="DejaVuSans-53" d="M 3425 4513 
L 3425 3897 
Q 3066 4069 2747 4153 
Q 2428 4238 2131 4238 
Q 1616 4238 1336 4038 
Q 1056 3838 1056 3469 
Q 1056 3159 1242 3001 
Q 1428 2844 1947 2747 
L 2328 2669 
Q 3034 2534 3370 2195 
Q 3706 1856 3706 1288 
Q 3706 609 3251 259 
Q 2797 -91 1919 -91 
Q 1588 -91 1214 -16 
Q 841 59 441 206 
L 441 856 
Q 825 641 1194 531 
Q 1563 422 1919 422 
Q 2459 422 2753 634 
Q 3047 847 3047 1241 
Q 3047 1584 2836 1778 
Q 2625 1972 2144 2069 
L 1759 2144 
Q 1053 2284 737 2584 
Q 422 2884 422 3419 
Q 422 4038 858 4394 
Q 1294 4750 2059 4750 
Q 2388 4750 2728 4690 
Q 3069 4631 3425 4513 
z
" transform="scale(0.015625)"/>
      <path id="DejaVuSans-65" d="M 3597 1894 
L 3597 1613 
L 953 1613 
Q 991 1019 1311 708 
Q 1631 397 2203 397 
Q 2534 397 2845 478 
Q 3156 559 3463 722 
L 3463 178 
Q 3153 47 2828 -22 
Q 2503 -91 2169 -91 
Q 1331 -91 842 396 
Q 353 884 353 1716 
Q 353 2575 817 3079 
Q 1281 3584 2069 3584 
Q 2775 3584 3186 3129 
Q 3597 2675 3597 1894 
z
M 3022 2063 
Q 3016 2534 2758 2815 
Q 2500 3097 2075 3097 
Q 1594 3097 1305 2825 
Q 1016 2553 972 2059 
L 3022 2063 
z
" transform="scale(0.015625)"/>
      <path id="DejaVuSans-76" d="M 191 3500 
L 800 3500 
L 1894 563 
L 2988 3500 
L 3597 3500 
L 2284 0 
L 1503 0 
L 191 3500 
z
" transform="scale(0.015625)"/>
      <path id="DejaVuSans-73" d="M 2834 3397 
L 2834 2853 
Q 2591 2978 2328 3040 
Q 2066 3103 1784 3103 
Q 1356 3103 1142 2972 
Q 928 2841 928 2578 
Q 928 2378 1081 2264 
Q 1234 2150 1697 2047 
L 1894 2003 
Q 2506 1872 2764 1633 
Q 3022 1394 3022 966 
Q 3022 478 2636 193 
Q 2250 -91 1575 -91 
Q 1294 -91 989 -36 
Q 684 19 347 128 
L 347 722 
Q 666 556 975 473 
Q 1284 391 1588 391 
Q 1994 391 2212 530 
Q 2431 669 2431 922 
Q 2431 1156 2273 1281 
Q 2116 1406 1581 1522 
L 1381 1569 
Q 847 1681 609 1914 
Q 372 2147 372 2553 
Q 372 3047 722 3315 
Q 1072 3584 1716 3584 
Q 2034 3584 2315 3537 
Q 2597 3491 2834 3397 
z
" transform="scale(0.015625)"/>
      <path id="DejaVuSans-3a" d="M 750 794 
L 1409 794 
L 1409 0 
L 750 0 
L 750 794 
z
M 750 3309 
L 1409 3309 
L 1409 2516 
L 750 2516 
L 750 3309 
z
" transform="scale(0.015625)"/>
     </defs>
     <use xlink:href="#DejaVuSans-4e"/>
     <use xlink:href="#DejaVuSans-75" x="74.804688"/>
     <use xlink:href="#DejaVuSans-6d" x="138.183594"/>
     <use xlink:href="#DejaVuSans-20" x="235.595703"/>
     <use xlink:href="#DejaVuSans-53" x="267.382812"/>
     <use xlink:href="#DejaVuSans-65" x="330.859375"/>
     <use xlink:href="#DejaVuSans-72" x="392.382812"/>
     <use xlink:href="#DejaVuSans-76" x="433.496094"/>
     <use xlink:href="#DejaVuSans-65" x="492.675781"/>
     <use xlink:href="#DejaVuSans-72" x="554.199219"/>
     <use xlink:href="#DejaVuSans-20" x="595.3125"/>
     <use xlink:href="#DejaVuSans-52" x="627.099609"/>
     <use xlink:href="#DejaVuSans-6f" x="692.082031"/>
     <use xlink:href="#DejaVuSans-75" x="753.263672"/>
     <use xlink:href="#DejaVuSans-6e" x="816.642578"/>
     <use xlink:href="#DejaVuSans-64" x="880.021484"/>
     <use xlink:href="#DejaVuSans-73" x="943.498047"/>
     <use xlink:href="#DejaVuSans-3a" x="995.597656"/>
     <use xlink:href="#DejaVuSans-20" x="1029.289062"/>
     <use xlink:href="#DejaVuSans-38" x="1061.076172"/>
     <use xlink:href="#DejaVuSans-30" x="1124.699219"/>
     <use xlink:href="#DejaVuSans-30" x="1188.322266"/>
    </g>
    <!-- Local Epochs: 1 -->
    <g transform="translate(73.8395 105.26525) scale(0.1 -0.1)">
     <defs>
      <path id="DejaVuSans-4c" d="M 628 4666 
L 1259 4666 
L 1259 531 
L 3531 531 
L 3531 0 
L 628 0 
L 628 4666 
z
" transform="scale(0.015625)"/>
      <path id="DejaVuSans-6c" d="M 603 4863 
L 1178 4863 
L 1178 0 
L 603 0 
L 603 4863 
z
" transform="scale(0.015625)"/>
      <path id="DejaVuSans-45" d="M 628 4666 
L 3578 4666 
L 3578 4134 
L 1259 4134 
L 1259 2753 
L 3481 2753 
L 3481 2222 
L 1259 2222 
L 1259 531 
L 3634 531 
L 3634 0 
L 628 0 
L 628 4666 
z
" transform="scale(0.015625)"/>
      <path id="DejaVuSans-70" d="M 1159 525 
L 1159 -1331 
L 581 -1331 
L 581 3500 
L 1159 3500 
L 1159 2969 
Q 1341 3281 1617 3432 
Q 1894 3584 2278 3584 
Q 2916 3584 3314 3078 
Q 3713 2572 3713 1747 
Q 3713 922 3314 415 
Q 2916 -91 2278 -91 
Q 1894 -91 1617 61 
Q 1341 213 1159 525 
z
M 3116 1747 
Q 3116 2381 2855 2742 
Q 2594 3103 2138 3103 
Q 1681 3103 1420 2742 
Q 1159 2381 1159 1747 
Q 1159 1113 1420 752 
Q 1681 391 2138 391 
Q 2594 391 2855 752 
Q 3116 1113 3116 1747 
z
" transform="scale(0.015625)"/>
      <path id="DejaVuSans-68" d="M 3513 2113 
L 3513 0 
L 2938 0 
L 2938 2094 
Q 2938 2591 2744 2837 
Q 2550 3084 2163 3084 
Q 1697 3084 1428 2787 
Q 1159 2491 1159 1978 
L 1159 0 
L 581 0 
L 581 4863 
L 1159 4863 
L 1159 2956 
Q 1366 3272 1645 3428 
Q 1925 3584 2291 3584 
Q 2894 3584 3203 3211 
Q 3513 2838 3513 2113 
z
" transform="scale(0.015625)"/>
     </defs>
     <use xlink:href="#DejaVuSans-4c"/>
     <use xlink:href="#DejaVuSans-6f" x="53.962891"/>
     <use xlink:href="#DejaVuSans-63" x="115.144531"/>
     <use xlink:href="#DejaVuSans-61" x="170.125"/>
     <use xlink:href="#DejaVuSans-6c" x="231.404297"/>
     <use xlink:href="#DejaVuSans-20" x="259.1875"/>
     <use xlink:href="#DejaVuSans-45" x="290.974609"/>
     <use xlink:href="#DejaVuSans-70" x="354.158203"/>
     <use xlink:href="#DejaVuSans-6f" x="417.634766"/>
     <use xlink:href="#DejaVuSans-63" x="478.816406"/>
     <use xlink:href="#DejaVuSans-68" x="533.796875"/>
     <use xlink:href="#DejaVuSans-73" x="597.175781"/>
     <use xlink:href="#DejaVuSans-3a" x="649.275391"/>
     <use xlink:href="#DejaVuSans-20" x="682.966797"/>
     <use xlink:href="#DejaVuSans-31" x="714.753906"/>
    </g>
    <!-- Num Supernodes: 50 -->
    <g transform="translate(73.8395 116.463062) scale(0.1 -0.1)">
     <use xlink:href="#DejaVuSans-4e"/>
     <use xlink:href="#DejaVuSans-75" x="74.804688"/>
     <use xlink:href="#DejaVuSans-6d" x="138.183594"/>
     <use xlink:href="#DejaVuSans-20" x="235.595703"/>
     <use xlink:href="#DejaVuSans-53" x="267.382812"/>
     <use xlink:href="#DejaVuSans-75" x="330.859375"/>
     <use xlink:href="#DejaVuSans-70" x="394.238281"/>
     <use xlink:href="#DejaVuSans-65" x="457.714844"/>
     <use xlink:href="#DejaVuSans-72" x="519.238281"/>
     <use xlink:href="#DejaVuSans-6e" x="558.601562"/>
     <use xlink:href="#DejaVuSans-6f" x="621.980469"/>
     <use xlink:href="#DejaVuSans-64" x="683.162109"/>
     <use xlink:href="#DejaVuSans-65" x="746.638672"/>
     <use xlink:href="#DejaVuSans-73" x="808.162109"/>
     <use xlink:href="#DejaVuSans-3a" x="860.261719"/>
     <use xlink:href="#DejaVuSans-20" x="893.953125"/>
     <use xlink:href="#DejaVuSans-35" x="925.740234"/>
     <use xlink:href="#DejaVuSans-30" x="989.363281"/>
    </g>
   </g>
   <g id="text_21">
    <!-- Partitioner: iid -->
    <g transform="translate(258.325 56.88) scale(0.16 -0.16)">
     <defs>
      <path id="DejaVuSans-50" d="M 1259 4147 
L 1259 2394 
L 2053 2394 
Q 2494 2394 2734 2622 
Q 2975 2850 2975 3272 
Q 2975 3691 2734 3919 
Q 2494 4147 2053 4147 
L 1259 4147 
z
M 628 4666 
L 2053 4666 
Q 2838 4666 3239 4311 
Q 3641 3956 3641 3272 
Q 3641 2581 3239 2228 
Q 2838 1875 2053 1875 
L 1259 1875 
L 1259 0 
L 628 0 
L 628 4666 
z
" transform="scale(0.015625)"/>
      <path id="DejaVuSans-74" d="M 1172 4494 
L 1172 3500 
L 2356 3500 
L 2356 3053 
L 1172 3053 
L 1172 1153 
Q 1172 725 1289 603 
Q 1406 481 1766 481 
L 2356 481 
L 2356 0 
L 1766 0 
Q 1100 0 847 248 
Q 594 497 594 1153 
L 594 3053 
L 172 3053 
L 172 3500 
L 594 3500 
L 594 4494 
L 1172 4494 
z
" transform="scale(0.015625)"/>
      <path id="DejaVuSans-69" d="M 603 3500 
L 1178 3500 
L 1178 0 
L 603 0 
L 603 3500 
z
M 603 4863 
L 1178 4863 
L 1178 4134 
L 603 4134 
L 603 4863 
z
" transform="scale(0.015625)"/>
     </defs>
     <use xlink:href="#DejaVuSans-50"/>
     <use xlink:href="#DejaVuSans-61" x="55.802734"/>
     <use xlink:href="#DejaVuSans-72" x="117.082031"/>
     <use xlink:href="#DejaVuSans-74" x="158.195312"/>
     <use xlink:href="#DejaVuSans-69" x="197.404297"/>
     <use xlink:href="#DejaVuSans-74" x="225.1875"/>
     <use xlink:href="#DejaVuSans-69" x="264.396484"/>
     <use xlink:href="#DejaVuSans-6f" x="292.179688"/>
     <use xlink:href="#DejaVuSans-6e" x="353.361328"/>
     <use xlink:href="#DejaVuSans-65" x="416.740234"/>
     <use xlink:href="#DejaVuSans-72" x="478.263672"/>
     <use xlink:href="#DejaVuSans-3a" x="517.626953"/>
     <use xlink:href="#DejaVuSans-20" x="551.318359"/>
     <use xlink:href="#DejaVuSans-69" x="583.105469"/>
     <use xlink:href="#DejaVuSans-69" x="610.888672"/>
     <use xlink:href="#DejaVuSans-64" x="638.671875"/>
    </g>
   </g>
   <g id="legend_1">
    <g id="patch_8">
     <path d="M 615.6295 145.66125 
L 844.334187 145.66125 
Q 846.334187 145.66125 846.334187 143.66125 
L 846.334187 69.88 
Q 846.334187 67.88 844.334187 67.88 
L 615.6295 67.88 
Q 613.6295 67.88 613.6295 69.88 
L 613.6295 143.66125 
Q 613.6295 145.66125 615.6295 145.66125 
z
" style="fill: #eeeeee; opacity: 0.8; stroke: #cccccc; stroke-width: 0.5; stroke-linejoin: miter"/>
    </g>
    <g id="line2d_40">
     <path d="M 617.6295 75.978437 
L 627.6295 75.978437 
L 637.6295 75.978437 
" style="fill: none; stroke: #348abd; stroke-width: 2; stroke-linecap: square"/>
    </g>
    <g id="text_22">
     <!-- v6\fed_acc-out - accuracy (Spline) -->
     <g transform="translate(645.6295 79.478437) scale(0.1 -0.1)">
      <defs>
       <path id="DejaVuSans-5c" d="M 531 4666 
L 2156 -594 
L 1625 -594 
L 0 4666 
L 531 4666 
z
" transform="scale(0.015625)"/>
       <path id="DejaVuSans-66" d="M 2375 4863 
L 2375 4384 
L 1825 4384 
Q 1516 4384 1395 4259 
Q 1275 4134 1275 3809 
L 1275 3500 
L 2222 3500 
L 2222 3053 
L 1275 3053 
L 1275 0 
L 697 0 
L 697 3053 
L 147 3053 
L 147 3500 
L 697 3500 
L 697 3744 
Q 697 4328 969 4595 
Q 1241 4863 1831 4863 
L 2375 4863 
z
" transform="scale(0.015625)"/>
       <path id="DejaVuSans-5f" d="M 3263 -1063 
L 3263 -1509 
L -63 -1509 
L -63 -1063 
L 3263 -1063 
z
" transform="scale(0.015625)"/>
       <path id="DejaVuSans-2d" d="M 313 2009 
L 1997 2009 
L 1997 1497 
L 313 1497 
L 313 2009 
z
" transform="scale(0.015625)"/>
       <path id="DejaVuSans-28" d="M 1984 4856 
Q 1566 4138 1362 3434 
Q 1159 2731 1159 2009 
Q 1159 1288 1364 580 
Q 1569 -128 1984 -844 
L 1484 -844 
Q 1016 -109 783 600 
Q 550 1309 550 2009 
Q 550 2706 781 3412 
Q 1013 4119 1484 4856 
L 1984 4856 
z
" transform="scale(0.015625)"/>
       <path id="DejaVuSans-29" d="M 513 4856 
L 1013 4856 
Q 1481 4119 1714 3412 
Q 1947 2706 1947 2009 
Q 1947 1309 1714 600 
Q 1481 -109 1013 -844 
L 513 -844 
Q 928 -128 1133 580 
Q 1338 1288 1338 2009 
Q 1338 2731 1133 3434 
Q 928 4138 513 4856 
z
" transform="scale(0.015625)"/>
      </defs>
      <use xlink:href="#DejaVuSans-76"/>
      <use xlink:href="#DejaVuSans-36" x="59.179688"/>
      <use xlink:href="#DejaVuSans-5c" x="122.802734"/>
      <use xlink:href="#DejaVuSans-66" x="156.494141"/>
      <use xlink:href="#DejaVuSans-65" x="191.699219"/>
      <use xlink:href="#DejaVuSans-64" x="253.222656"/>
      <use xlink:href="#DejaVuSans-5f" x="316.699219"/>
      <use xlink:href="#DejaVuSans-61" x="366.699219"/>
      <use xlink:href="#DejaVuSans-63" x="427.978516"/>
      <use xlink:href="#DejaVuSans-63" x="482.958984"/>
      <use xlink:href="#DejaVuSans-2d" x="537.939453"/>
      <use xlink:href="#DejaVuSans-6f" x="575.898438"/>
      <use xlink:href="#DejaVuSans-75" x="637.080078"/>
      <use xlink:href="#DejaVuSans-74" x="700.458984"/>
      <use xlink:href="#DejaVuSans-20" x="739.667969"/>
      <use xlink:href="#DejaVuSans-2d" x="771.455078"/>
      <use xlink:href="#DejaVuSans-20" x="807.539062"/>
      <use xlink:href="#DejaVuSans-61" x="839.326172"/>
      <use xlink:href="#DejaVuSans-63" x="900.605469"/>
      <use xlink:href="#DejaVuSans-63" x="955.585938"/>
      <use xlink:href="#DejaVuSans-75" x="1010.566406"/>
      <use xlink:href="#DejaVuSans-72" x="1073.945312"/>
      <use xlink:href="#DejaVuSans-61" x="1115.058594"/>
      <use xlink:href="#DejaVuSans-63" x="1176.337891"/>
      <use xlink:href="#DejaVuSans-79" x="1231.318359"/>
      <use xlink:href="#DejaVuSans-20" x="1290.498047"/>
      <use xlink:href="#DejaVuSans-28" x="1322.285156"/>
      <use xlink:href="#DejaVuSans-53" x="1361.298828"/>
      <use xlink:href="#DejaVuSans-70" x="1424.775391"/>
      <use xlink:href="#DejaVuSans-6c" x="1488.251953"/>
      <use xlink:href="#DejaVuSans-69" x="1516.035156"/>
      <use xlink:href="#DejaVuSans-6e" x="1543.818359"/>
      <use xlink:href="#DejaVuSans-65" x="1607.197266"/>
      <use xlink:href="#DejaVuSans-29" x="1668.720703"/>
     </g>
    </g>
    <g id="line2d_41">
     <path d="M 617.6295 90.934687 
L 627.6295 90.934687 
L 637.6295 90.934687 
" style="fill: none; stroke: #a60628; stroke-width: 2; stroke-linecap: square"/>
    </g>
    <g id="text_23">
     <!-- v6\fed_avg-out - accuracy (Spline) -->
     <g transform="translate(645.6295 94.434687) scale(0.1 -0.1)">
      <defs>
       <path id="DejaVuSans-67" d="M 2906 1791 
Q 2906 2416 2648 2759 
Q 2391 3103 1925 3103 
Q 1463 3103 1205 2759 
Q 947 2416 947 1791 
Q 947 1169 1205 825 
Q 1463 481 1925 481 
Q 2391 481 2648 825 
Q 2906 1169 2906 1791 
z
M 3481 434 
Q 3481 -459 3084 -895 
Q 2688 -1331 1869 -1331 
Q 1566 -1331 1297 -1286 
Q 1028 -1241 775 -1147 
L 775 -588 
Q 1028 -725 1275 -790 
Q 1522 -856 1778 -856 
Q 2344 -856 2625 -561 
Q 2906 -266 2906 331 
L 2906 616 
Q 2728 306 2450 153 
Q 2172 0 1784 0 
Q 1141 0 747 490 
Q 353 981 353 1791 
Q 353 2603 747 3093 
Q 1141 3584 1784 3584 
Q 2172 3584 2450 3431 
Q 2728 3278 2906 2969 
L 2906 3500 
L 3481 3500 
L 3481 434 
z
" transform="scale(0.015625)"/>
      </defs>
      <use xlink:href="#DejaVuSans-76"/>
      <use xlink:href="#DejaVuSans-36" x="59.179688"/>
      <use xlink:href="#DejaVuSans-5c" x="122.802734"/>
      <use xlink:href="#DejaVuSans-66" x="156.494141"/>
      <use xlink:href="#DejaVuSans-65" x="191.699219"/>
      <use xlink:href="#DejaVuSans-64" x="253.222656"/>
      <use xlink:href="#DejaVuSans-5f" x="316.699219"/>
      <use xlink:href="#DejaVuSans-61" x="366.699219"/>
      <use xlink:href="#DejaVuSans-76" x="427.978516"/>
      <use xlink:href="#DejaVuSans-67" x="487.158203"/>
      <use xlink:href="#DejaVuSans-2d" x="550.634766"/>
      <use xlink:href="#DejaVuSans-6f" x="588.59375"/>
      <use xlink:href="#DejaVuSans-75" x="649.775391"/>
      <use xlink:href="#DejaVuSans-74" x="713.154297"/>
      <use xlink:href="#DejaVuSans-20" x="752.363281"/>
      <use xlink:href="#DejaVuSans-2d" x="784.150391"/>
      <use xlink:href="#DejaVuSans-20" x="820.234375"/>
      <use xlink:href="#DejaVuSans-61" x="852.021484"/>
      <use xlink:href="#DejaVuSans-63" x="913.300781"/>
      <use xlink:href="#DejaVuSans-63" x="968.28125"/>
      <use xlink:href="#DejaVuSans-75" x="1023.261719"/>
      <use xlink:href="#DejaVuSans-72" x="1086.640625"/>
      <use xlink:href="#DejaVuSans-61" x="1127.753906"/>
      <use xlink:href="#DejaVuSans-63" x="1189.033203"/>
      <use xlink:href="#DejaVuSans-79" x="1244.013672"/>
      <use xlink:href="#DejaVuSans-20" x="1303.193359"/>
      <use xlink:href="#DejaVuSans-28" x="1334.980469"/>
      <use xlink:href="#DejaVuSans-53" x="1373.994141"/>
      <use xlink:href="#DejaVuSans-70" x="1437.470703"/>
      <use xlink:href="#DejaVuSans-6c" x="1500.947266"/>
      <use xlink:href="#DejaVuSans-69" x="1528.730469"/>
      <use xlink:href="#DejaVuSans-6e" x="1556.513672"/>
      <use xlink:href="#DejaVuSans-65" x="1619.892578"/>
      <use xlink:href="#DejaVuSans-29" x="1681.416016"/>
     </g>
    </g>
    <g id="line2d_42">
     <path d="M 617.6295 105.890937 
L 627.6295 105.890937 
L 637.6295 105.890937 
" style="fill: none; stroke: #7a68a6; stroke-width: 2; stroke-linecap: square"/>
    </g>
    <g id="text_24">
     <!-- v6\fed_fuzz-out - accuracy (Spline) -->
     <g transform="translate(645.6295 109.390937) scale(0.1 -0.1)">
      <defs>
       <path id="DejaVuSans-7a" d="M 353 3500 
L 3084 3500 
L 3084 2975 
L 922 459 
L 3084 459 
L 3084 0 
L 275 0 
L 275 525 
L 2438 3041 
L 353 3041 
L 353 3500 
z
" transform="scale(0.015625)"/>
      </defs>
      <use xlink:href="#DejaVuSans-76"/>
      <use xlink:href="#DejaVuSans-36" x="59.179688"/>
      <use xlink:href="#DejaVuSans-5c" x="122.802734"/>
      <use xlink:href="#DejaVuSans-66" x="156.494141"/>
      <use xlink:href="#DejaVuSans-65" x="191.699219"/>
      <use xlink:href="#DejaVuSans-64" x="253.222656"/>
      <use xlink:href="#DejaVuSans-5f" x="316.699219"/>
      <use xlink:href="#DejaVuSans-66" x="366.699219"/>
      <use xlink:href="#DejaVuSans-75" x="401.904297"/>
      <use xlink:href="#DejaVuSans-7a" x="465.283203"/>
      <use xlink:href="#DejaVuSans-7a" x="517.773438"/>
      <use xlink:href="#DejaVuSans-2d" x="570.263672"/>
      <use xlink:href="#DejaVuSans-6f" x="608.222656"/>
      <use xlink:href="#DejaVuSans-75" x="669.404297"/>
      <use xlink:href="#DejaVuSans-74" x="732.783203"/>
      <use xlink:href="#DejaVuSans-20" x="771.992188"/>
      <use xlink:href="#DejaVuSans-2d" x="803.779297"/>
      <use xlink:href="#DejaVuSans-20" x="839.863281"/>
      <use xlink:href="#DejaVuSans-61" x="871.650391"/>
      <use xlink:href="#DejaVuSans-63" x="932.929688"/>
      <use xlink:href="#DejaVuSans-63" x="987.910156"/>
      <use xlink:href="#DejaVuSans-75" x="1042.890625"/>
      <use xlink:href="#DejaVuSans-72" x="1106.269531"/>
      <use xlink:href="#DejaVuSans-61" x="1147.382812"/>
      <use xlink:href="#DejaVuSans-63" x="1208.662109"/>
      <use xlink:href="#DejaVuSans-79" x="1263.642578"/>
      <use xlink:href="#DejaVuSans-20" x="1322.822266"/>
      <use xlink:href="#DejaVuSans-28" x="1354.609375"/>
      <use xlink:href="#DejaVuSans-53" x="1393.623047"/>
      <use xlink:href="#DejaVuSans-70" x="1457.099609"/>
      <use xlink:href="#DejaVuSans-6c" x="1520.576172"/>
      <use xlink:href="#DejaVuSans-69" x="1548.359375"/>
      <use xlink:href="#DejaVuSans-6e" x="1576.142578"/>
      <use xlink:href="#DejaVuSans-65" x="1639.521484"/>
      <use xlink:href="#DejaVuSans-29" x="1701.044922"/>
     </g>
    </g>
    <g id="line2d_43">
     <path d="M 617.6295 120.847187 
L 627.6295 120.847187 
L 637.6295 120.847187 
" style="fill: none; stroke: #467821; stroke-width: 2; stroke-linecap: square"/>
    </g>
    <g id="text_25">
     <!-- v6\fed_loss-out - accuracy (Spline) -->
     <g transform="translate(645.6295 124.347187) scale(0.1 -0.1)">
      <use xlink:href="#DejaVuSans-76"/>
      <use xlink:href="#DejaVuSans-36" x="59.179688"/>
      <use xlink:href="#DejaVuSans-5c" x="122.802734"/>
      <use xlink:href="#DejaVuSans-66" x="156.494141"/>
      <use xlink:href="#DejaVuSans-65" x="191.699219"/>
      <use xlink:href="#DejaVuSans-64" x="253.222656"/>
      <use xlink:href="#DejaVuSans-5f" x="316.699219"/>
      <use xlink:href="#DejaVuSans-6c" x="366.699219"/>
      <use xlink:href="#DejaVuSans-6f" x="394.482422"/>
      <use xlink:href="#DejaVuSans-73" x="455.664062"/>
      <use xlink:href="#DejaVuSans-73" x="507.763672"/>
      <use xlink:href="#DejaVuSans-2d" x="559.863281"/>
      <use xlink:href="#DejaVuSans-6f" x="597.822266"/>
      <use xlink:href="#DejaVuSans-75" x="659.003906"/>
      <use xlink:href="#DejaVuSans-74" x="722.382812"/>
      <use xlink:href="#DejaVuSans-20" x="761.591797"/>
      <use xlink:href="#DejaVuSans-2d" x="793.378906"/>
      <use xlink:href="#DejaVuSans-20" x="829.462891"/>
      <use xlink:href="#DejaVuSans-61" x="861.25"/>
      <use xlink:href="#DejaVuSans-63" x="922.529297"/>
      <use xlink:href="#DejaVuSans-63" x="977.509766"/>
      <use xlink:href="#DejaVuSans-75" x="1032.490234"/>
      <use xlink:href="#DejaVuSans-72" x="1095.869141"/>
      <use xlink:href="#DejaVuSans-61" x="1136.982422"/>
      <use xlink:href="#DejaVuSans-63" x="1198.261719"/>
      <use xlink:href="#DejaVuSans-79" x="1253.242188"/>
      <use xlink:href="#DejaVuSans-20" x="1312.421875"/>
      <use xlink:href="#DejaVuSans-28" x="1344.208984"/>
      <use xlink:href="#DejaVuSans-53" x="1383.222656"/>
      <use xlink:href="#DejaVuSans-70" x="1446.699219"/>
      <use xlink:href="#DejaVuSans-6c" x="1510.175781"/>
      <use xlink:href="#DejaVuSans-69" x="1537.958984"/>
      <use xlink:href="#DejaVuSans-6e" x="1565.742188"/>
      <use xlink:href="#DejaVuSans-65" x="1629.121094"/>
      <use xlink:href="#DejaVuSans-29" x="1690.644531"/>
     </g>
    </g>
    <g id="line2d_44">
     <path d="M 617.6295 135.803437 
L 627.6295 135.803437 
L 637.6295 135.803437 
" style="fill: none; stroke: #d55e00; stroke-width: 2; stroke-linecap: square"/>
    </g>
    <g id="text_26">
     <!-- v6\fed_variance-out - accuracy (Spline) -->
     <g transform="translate(645.6295 139.303437) scale(0.1 -0.1)">
      <use xlink:href="#DejaVuSans-76"/>
      <use xlink:href="#DejaVuSans-36" x="59.179688"/>
      <use xlink:href="#DejaVuSans-5c" x="122.802734"/>
      <use xlink:href="#DejaVuSans-66" x="156.494141"/>
      <use xlink:href="#DejaVuSans-65" x="191.699219"/>
      <use xlink:href="#DejaVuSans-64" x="253.222656"/>
      <use xlink:href="#DejaVuSans-5f" x="316.699219"/>
      <use xlink:href="#DejaVuSans-76" x="366.699219"/>
      <use xlink:href="#DejaVuSans-61" x="425.878906"/>
      <use xlink:href="#DejaVuSans-72" x="487.158203"/>
      <use xlink:href="#DejaVuSans-69" x="528.271484"/>
      <use xlink:href="#DejaVuSans-61" x="556.054688"/>
      <use xlink:href="#DejaVuSans-6e" x="617.333984"/>
      <use xlink:href="#DejaVuSans-63" x="680.712891"/>
      <use xlink:href="#DejaVuSans-65" x="735.693359"/>
      <use xlink:href="#DejaVuSans-2d" x="797.216797"/>
      <use xlink:href="#DejaVuSans-6f" x="835.175781"/>
      <use xlink:href="#DejaVuSans-75" x="896.357422"/>
      <use xlink:href="#DejaVuSans-74" x="959.736328"/>
      <use xlink:href="#DejaVuSans-20" x="998.945312"/>
      <use xlink:href="#DejaVuSans-2d" x="1030.732422"/>
      <use xlink:href="#DejaVuSans-20" x="1066.816406"/>
      <use xlink:href="#DejaVuSans-61" x="1098.603516"/>
      <use xlink:href="#DejaVuSans-63" x="1159.882812"/>
      <use xlink:href="#DejaVuSans-63" x="1214.863281"/>
      <use xlink:href="#DejaVuSans-75" x="1269.84375"/>
      <use xlink:href="#DejaVuSans-72" x="1333.222656"/>
      <use xlink:href="#DejaVuSans-61" x="1374.335938"/>
      <use xlink:href="#DejaVuSans-63" x="1435.615234"/>
      <use xlink:href="#DejaVuSans-79" x="1490.595703"/>
      <use xlink:href="#DejaVuSans-20" x="1549.775391"/>
      <use xlink:href="#DejaVuSans-28" x="1581.5625"/>
      <use xlink:href="#DejaVuSans-53" x="1620.576172"/>
      <use xlink:href="#DejaVuSans-70" x="1684.052734"/>
      <use xlink:href="#DejaVuSans-6c" x="1747.529297"/>
      <use xlink:href="#DejaVuSans-69" x="1775.3125"/>
      <use xlink:href="#DejaVuSans-6e" x="1803.095703"/>
      <use xlink:href="#DejaVuSans-65" x="1866.474609"/>
      <use xlink:href="#DejaVuSans-29" x="1927.998047"/>
     </g>
    </g>
   </g>
  </g>
  <g id="text_27">
   <!-- Accuracy by Round - archive/v6/ -->
   <g transform="translate(238.07625 18.23625) scale(0.24 -0.24)">
    <defs>
     <path id="DejaVuSans-62" d="M 3116 1747 
Q 3116 2381 2855 2742 
Q 2594 3103 2138 3103 
Q 1681 3103 1420 2742 
Q 1159 2381 1159 1747 
Q 1159 1113 1420 752 
Q 1681 391 2138 391 
Q 2594 391 2855 752 
Q 3116 1113 3116 1747 
z
M 1159 2969 
Q 1341 3281 1617 3432 
Q 1894 3584 2278 3584 
Q 2916 3584 3314 3078 
Q 3713 2572 3713 1747 
Q 3713 922 3314 415 
Q 2916 -91 2278 -91 
Q 1894 -91 1617 61 
Q 1341 213 1159 525 
L 1159 0 
L 581 0 
L 581 4863 
L 1159 4863 
L 1159 2969 
z
" transform="scale(0.015625)"/>
     <path id="DejaVuSans-2f" d="M 1625 4666 
L 2156 4666 
L 531 -594 
L 0 -594 
L 1625 4666 
z
" transform="scale(0.015625)"/>
    </defs>
    <use xlink:href="#DejaVuSans-41"/>
    <use xlink:href="#DejaVuSans-63" x="66.658203"/>
    <use xlink:href="#DejaVuSans-63" x="121.638672"/>
    <use xlink:href="#DejaVuSans-75" x="176.619141"/>
    <use xlink:href="#DejaVuSans-72" x="239.998047"/>
    <use xlink:href="#DejaVuSans-61" x="281.111328"/>
    <use xlink:href="#DejaVuSans-63" x="342.390625"/>
    <use xlink:href="#DejaVuSans-79" x="397.371094"/>
    <use xlink:href="#DejaVuSans-20" x="456.550781"/>
    <use xlink:href="#DejaVuSans-62" x="488.337891"/>
    <use xlink:href="#DejaVuSans-79" x="551.814453"/>
    <use xlink:href="#DejaVuSans-20" x="610.994141"/>
    <use xlink:href="#DejaVuSans-52" x="642.78125"/>
    <use xlink:href="#DejaVuSans-6f" x="707.763672"/>
    <use xlink:href="#DejaVuSans-75" x="768.945312"/>
    <use xlink:href="#DejaVuSans-6e" x="832.324219"/>
    <use xlink:href="#DejaVuSans-64" x="895.703125"/>
    <use xlink:href="#DejaVuSans-20" x="959.179688"/>
    <use xlink:href="#DejaVuSans-2d" x="990.966797"/>
    <use xlink:href="#DejaVuSans-20" x="1027.050781"/>
    <use xlink:href="#DejaVuSans-61" x="1058.837891"/>
    <use xlink:href="#DejaVuSans-72" x="1120.117188"/>
    <use xlink:href="#DejaVuSans-63" x="1158.980469"/>
    <use xlink:href="#DejaVuSans-68" x="1213.960938"/>
    <use xlink:href="#DejaVuSans-69" x="1277.339844"/>
    <use xlink:href="#DejaVuSans-76" x="1305.123047"/>
    <use xlink:href="#DejaVuSans-65" x="1364.302734"/>
    <use xlink:href="#DejaVuSans-2f" x="1425.826172"/>
    <use xlink:href="#DejaVuSans-76" x="1459.517578"/>
    <use xlink:href="#DejaVuSans-36" x="1518.697266"/>
    <use xlink:href="#DejaVuSans-2f" x="1582.320312"/>
   </g>
  </g>
 </g>
 <defs>
  <clipPath id="pf9f4fc4b1c">
   <rect x="47.1" y="62.88" width="534.79" height="471.78"/>
  </clipPath>
 </defs>
</svg>
