<?xml version="1.0" encoding="utf-8" standalone="no"?>
<!DOCTYPE svg PUBLIC "-//W3C//DTD SVG 1.1//EN"
  "http://www.w3.org/Graphics/SVG/1.1/DTD/svg11.dtd">
<svg xmlns:xlink="http://www.w3.org/1999/xlink" width="864pt" height="576pt" viewBox="0 0 864 576" xmlns="http://www.w3.org/2000/svg" version="1.1">
 <metadata>
  <rdf:RDF xmlns:dc="http://purl.org/dc/elements/1.1/" xmlns:cc="http://creativecommons.org/ns#" xmlns:rdf="http://www.w3.org/1999/02/22-rdf-syntax-ns#">
   <cc:Work>
    <dc:type rdf:resource="http://purl.org/dc/dcmitype/StillImage"/>
    <dc:date>2024-10-24T12:58:17.392986</dc:date>
    <dc:format>image/svg+xml</dc:format>
    <dc:creator>
     <cc:Agent>
      <dc:title>Matplotlib v3.9.2, https://matplotlib.org/</dc:title>
     </cc:Agent>
    </dc:creator>
   </cc:Work>
  </rdf:RDF>
 </metadata>
 <defs>
  <style type="text/css">*{stroke-linejoin: round; stroke-linecap: butt}</style>
 </defs>
 <g id="figure_1">
  <g id="patch_1">
   <path d="M 0 576 
L 864 576 
L 864 0 
L 0 0 
z
" style="fill: #ffffff"/>
  </g>
  <g id="axes_1">
   <g id="patch_2">
    <path d="M 47.1 534.66 
L 581.98 534.66 
L 581.98 62.88 
L 47.1 62.88 
z
" style="fill: #eeeeee"/>
   </g>
   <g id="matplotlib.axis_1">
    <g id="xtick_1">
     <g id="line2d_1">
      <path d="M 71.412727 534.66 
L 71.412727 62.88 
" clip-path="url(#p9fc3954a82)" style="fill: none; stroke-dasharray: 1.85,0.8; stroke-dashoffset: 0; stroke: #b2b2b2; stroke-width: 0.5"/>
     </g>
     <g id="line2d_2">
      <defs>
       <path id="mf70cf8750b" d="M 0 0 
L 0 -3.5 
" style="stroke: #000000; stroke-width: 0.8"/>
      </defs>
      <g>
       <use xlink:href="#mf70cf8750b" x="71.412727" y="534.66" style="stroke: #000000; stroke-width: 0.8"/>
      </g>
     </g>
     <g id="text_1">
      <!-- 1 -->
      <g transform="translate(68.231477 545.758438) scale(0.1 -0.1)">
       <defs>
        <path id="DejaVuSans-31" d="M 794 531 
L 1825 531 
L 1825 4091 
L 703 3866 
L 703 4441 
L 1819 4666 
L 2450 4666 
L 2450 531 
L 3481 531 
L 3481 0 
L 794 0 
L 794 531 
z
" transform="scale(0.015625)"/>
       </defs>
       <use xlink:href="#DejaVuSans-31"/>
      </g>
     </g>
    </g>
    <g id="xtick_2">
     <g id="line2d_3">
      <path d="M 119.764493 534.66 
L 119.764493 62.88 
" clip-path="url(#p9fc3954a82)" style="fill: none; stroke-dasharray: 1.85,0.8; stroke-dashoffset: 0; stroke: #b2b2b2; stroke-width: 0.5"/>
     </g>
     <g id="line2d_4">
      <g>
       <use xlink:href="#mf70cf8750b" x="119.764493" y="534.66" style="stroke: #000000; stroke-width: 0.8"/>
      </g>
     </g>
     <g id="text_2">
      <!-- 160 -->
      <g transform="translate(110.220743 545.758438) scale(0.1 -0.1)">
       <defs>
        <path id="DejaVuSans-36" d="M 2113 2584 
Q 1688 2584 1439 2293 
Q 1191 2003 1191 1497 
Q 1191 994 1439 701 
Q 1688 409 2113 409 
Q 2538 409 2786 701 
Q 3034 994 3034 1497 
Q 3034 2003 2786 2293 
Q 2538 2584 2113 2584 
z
M 3366 4563 
L 3366 3988 
Q 3128 4100 2886 4159 
Q 2644 4219 2406 4219 
Q 1781 4219 1451 3797 
Q 1122 3375 1075 2522 
Q 1259 2794 1537 2939 
Q 1816 3084 2150 3084 
Q 2853 3084 3261 2657 
Q 3669 2231 3669 1497 
Q 3669 778 3244 343 
Q 2819 -91 2113 -91 
Q 1303 -91 875 529 
Q 447 1150 447 2328 
Q 447 3434 972 4092 
Q 1497 4750 2381 4750 
Q 2619 4750 2861 4703 
Q 3103 4656 3366 4563 
z
" transform="scale(0.015625)"/>
        <path id="DejaVuSans-30" d="M 2034 4250 
Q 1547 4250 1301 3770 
Q 1056 3291 1056 2328 
Q 1056 1369 1301 889 
Q 1547 409 2034 409 
Q 2525 409 2770 889 
Q 3016 1369 3016 2328 
Q 3016 3291 2770 3770 
Q 2525 4250 2034 4250 
z
M 2034 4750 
Q 2819 4750 3233 4129 
Q 3647 3509 3647 2328 
Q 3647 1150 3233 529 
Q 2819 -91 2034 -91 
Q 1250 -91 836 529 
Q 422 1150 422 2328 
Q 422 3509 836 4129 
Q 1250 4750 2034 4750 
z
" transform="scale(0.015625)"/>
       </defs>
       <use xlink:href="#DejaVuSans-31"/>
       <use xlink:href="#DejaVuSans-36" x="63.623047"/>
       <use xlink:href="#DejaVuSans-30" x="127.246094"/>
      </g>
     </g>
    </g>
    <g id="xtick_3">
     <g id="line2d_5">
      <path d="M 168.420357 534.66 
L 168.420357 62.88 
" clip-path="url(#p9fc3954a82)" style="fill: none; stroke-dasharray: 1.85,0.8; stroke-dashoffset: 0; stroke: #b2b2b2; stroke-width: 0.5"/>
     </g>
     <g id="line2d_6">
      <g>
       <use xlink:href="#mf70cf8750b" x="168.420357" y="534.66" style="stroke: #000000; stroke-width: 0.8"/>
      </g>
     </g>
     <g id="text_3">
      <!-- 320 -->
      <g transform="translate(158.876607 545.758438) scale(0.1 -0.1)">
       <defs>
        <path id="DejaVuSans-33" d="M 2597 2516 
Q 3050 2419 3304 2112 
Q 3559 1806 3559 1356 
Q 3559 666 3084 287 
Q 2609 -91 1734 -91 
Q 1441 -91 1130 -33 
Q 819 25 488 141 
L 488 750 
Q 750 597 1062 519 
Q 1375 441 1716 441 
Q 2309 441 2620 675 
Q 2931 909 2931 1356 
Q 2931 1769 2642 2001 
Q 2353 2234 1838 2234 
L 1294 2234 
L 1294 2753 
L 1863 2753 
Q 2328 2753 2575 2939 
Q 2822 3125 2822 3475 
Q 2822 3834 2567 4026 
Q 2313 4219 1838 4219 
Q 1578 4219 1281 4162 
Q 984 4106 628 3988 
L 628 4550 
Q 988 4650 1302 4700 
Q 1616 4750 1894 4750 
Q 2613 4750 3031 4423 
Q 3450 4097 3450 3541 
Q 3450 3153 3228 2886 
Q 3006 2619 2597 2516 
z
" transform="scale(0.015625)"/>
        <path id="DejaVuSans-32" d="M 1228 531 
L 3431 531 
L 3431 0 
L 469 0 
L 469 531 
Q 828 903 1448 1529 
Q 2069 2156 2228 2338 
Q 2531 2678 2651 2914 
Q 2772 3150 2772 3378 
Q 2772 3750 2511 3984 
Q 2250 4219 1831 4219 
Q 1534 4219 1204 4116 
Q 875 4013 500 3803 
L 500 4441 
Q 881 4594 1212 4672 
Q 1544 4750 1819 4750 
Q 2544 4750 2975 4387 
Q 3406 4025 3406 3419 
Q 3406 3131 3298 2873 
Q 3191 2616 2906 2266 
Q 2828 2175 2409 1742 
Q 1991 1309 1228 531 
z
" transform="scale(0.015625)"/>
       </defs>
       <use xlink:href="#DejaVuSans-33"/>
       <use xlink:href="#DejaVuSans-32" x="63.623047"/>
       <use xlink:href="#DejaVuSans-30" x="127.246094"/>
      </g>
     </g>
    </g>
    <g id="xtick_4">
     <g id="line2d_7">
      <path d="M 217.076222 534.66 
L 217.076222 62.88 
" clip-path="url(#p9fc3954a82)" style="fill: none; stroke-dasharray: 1.85,0.8; stroke-dashoffset: 0; stroke: #b2b2b2; stroke-width: 0.5"/>
     </g>
     <g id="line2d_8">
      <g>
       <use xlink:href="#mf70cf8750b" x="217.076222" y="534.66" style="stroke: #000000; stroke-width: 0.8"/>
      </g>
     </g>
     <g id="text_4">
      <!-- 480 -->
      <g transform="translate(207.532472 545.758438) scale(0.1 -0.1)">
       <defs>
        <path id="DejaVuSans-34" d="M 2419 4116 
L 825 1625 
L 2419 1625 
L 2419 4116 
z
M 2253 4666 
L 3047 4666 
L 3047 1625 
L 3713 1625 
L 3713 1100 
L 3047 1100 
L 3047 0 
L 2419 0 
L 2419 1100 
L 313 1100 
L 313 1709 
L 2253 4666 
z
" transform="scale(0.015625)"/>
        <path id="DejaVuSans-38" d="M 2034 2216 
Q 1584 2216 1326 1975 
Q 1069 1734 1069 1313 
Q 1069 891 1326 650 
Q 1584 409 2034 409 
Q 2484 409 2743 651 
Q 3003 894 3003 1313 
Q 3003 1734 2745 1975 
Q 2488 2216 2034 2216 
z
M 1403 2484 
Q 997 2584 770 2862 
Q 544 3141 544 3541 
Q 544 4100 942 4425 
Q 1341 4750 2034 4750 
Q 2731 4750 3128 4425 
Q 3525 4100 3525 3541 
Q 3525 3141 3298 2862 
Q 3072 2584 2669 2484 
Q 3125 2378 3379 2068 
Q 3634 1759 3634 1313 
Q 3634 634 3220 271 
Q 2806 -91 2034 -91 
Q 1263 -91 848 271 
Q 434 634 434 1313 
Q 434 1759 690 2068 
Q 947 2378 1403 2484 
z
M 1172 3481 
Q 1172 3119 1398 2916 
Q 1625 2713 2034 2713 
Q 2441 2713 2670 2916 
Q 2900 3119 2900 3481 
Q 2900 3844 2670 4047 
Q 2441 4250 2034 4250 
Q 1625 4250 1398 4047 
Q 1172 3844 1172 3481 
z
" transform="scale(0.015625)"/>
       </defs>
       <use xlink:href="#DejaVuSans-34"/>
       <use xlink:href="#DejaVuSans-38" x="63.623047"/>
       <use xlink:href="#DejaVuSans-30" x="127.246094"/>
      </g>
     </g>
    </g>
    <g id="xtick_5">
     <g id="line2d_9">
      <path d="M 265.732086 534.66 
L 265.732086 62.88 
" clip-path="url(#p9fc3954a82)" style="fill: none; stroke-dasharray: 1.85,0.8; stroke-dashoffset: 0; stroke: #b2b2b2; stroke-width: 0.5"/>
     </g>
     <g id="line2d_10">
      <g>
       <use xlink:href="#mf70cf8750b" x="265.732086" y="534.66" style="stroke: #000000; stroke-width: 0.8"/>
      </g>
     </g>
     <g id="text_5">
      <!-- 640 -->
      <g transform="translate(256.188336 545.758438) scale(0.1 -0.1)">
       <use xlink:href="#DejaVuSans-36"/>
       <use xlink:href="#DejaVuSans-34" x="63.623047"/>
       <use xlink:href="#DejaVuSans-30" x="127.246094"/>
      </g>
     </g>
    </g>
    <g id="xtick_6">
     <g id="line2d_11">
      <path d="M 314.38795 534.66 
L 314.38795 62.88 
" clip-path="url(#p9fc3954a82)" style="fill: none; stroke-dasharray: 1.85,0.8; stroke-dashoffset: 0; stroke: #b2b2b2; stroke-width: 0.5"/>
     </g>
     <g id="line2d_12">
      <g>
       <use xlink:href="#mf70cf8750b" x="314.38795" y="534.66" style="stroke: #000000; stroke-width: 0.8"/>
      </g>
     </g>
     <g id="text_6">
      <!-- 800 -->
      <g transform="translate(304.8442 545.758438) scale(0.1 -0.1)">
       <use xlink:href="#DejaVuSans-38"/>
       <use xlink:href="#DejaVuSans-30" x="63.623047"/>
       <use xlink:href="#DejaVuSans-30" x="127.246094"/>
      </g>
     </g>
    </g>
    <g id="xtick_7">
     <g id="line2d_13">
      <path d="M 363.043815 534.66 
L 363.043815 62.88 
" clip-path="url(#p9fc3954a82)" style="fill: none; stroke-dasharray: 1.85,0.8; stroke-dashoffset: 0; stroke: #b2b2b2; stroke-width: 0.5"/>
     </g>
     <g id="line2d_14">
      <g>
       <use xlink:href="#mf70cf8750b" x="363.043815" y="534.66" style="stroke: #000000; stroke-width: 0.8"/>
      </g>
     </g>
     <g id="text_7">
      <!-- 960 -->
      <g transform="translate(353.500065 545.758438) scale(0.1 -0.1)">
       <defs>
        <path id="DejaVuSans-39" d="M 703 97 
L 703 672 
Q 941 559 1184 500 
Q 1428 441 1663 441 
Q 2288 441 2617 861 
Q 2947 1281 2994 2138 
Q 2813 1869 2534 1725 
Q 2256 1581 1919 1581 
Q 1219 1581 811 2004 
Q 403 2428 403 3163 
Q 403 3881 828 4315 
Q 1253 4750 1959 4750 
Q 2769 4750 3195 4129 
Q 3622 3509 3622 2328 
Q 3622 1225 3098 567 
Q 2575 -91 1691 -91 
Q 1453 -91 1209 -44 
Q 966 3 703 97 
z
M 1959 2075 
Q 2384 2075 2632 2365 
Q 2881 2656 2881 3163 
Q 2881 3666 2632 3958 
Q 2384 4250 1959 4250 
Q 1534 4250 1286 3958 
Q 1038 3666 1038 3163 
Q 1038 2656 1286 2365 
Q 1534 2075 1959 2075 
z
" transform="scale(0.015625)"/>
       </defs>
       <use xlink:href="#DejaVuSans-39"/>
       <use xlink:href="#DejaVuSans-36" x="63.623047"/>
       <use xlink:href="#DejaVuSans-30" x="127.246094"/>
      </g>
     </g>
    </g>
    <g id="xtick_8">
     <g id="line2d_15">
      <path d="M 411.699679 534.66 
L 411.699679 62.88 
" clip-path="url(#p9fc3954a82)" style="fill: none; stroke-dasharray: 1.85,0.8; stroke-dashoffset: 0; stroke: #b2b2b2; stroke-width: 0.5"/>
     </g>
     <g id="line2d_16">
      <g>
       <use xlink:href="#mf70cf8750b" x="411.699679" y="534.66" style="stroke: #000000; stroke-width: 0.8"/>
      </g>
     </g>
     <g id="text_8">
      <!-- 1120 -->
      <g transform="translate(398.974679 545.758438) scale(0.1 -0.1)">
       <use xlink:href="#DejaVuSans-31"/>
       <use xlink:href="#DejaVuSans-31" x="63.623047"/>
       <use xlink:href="#DejaVuSans-32" x="127.246094"/>
       <use xlink:href="#DejaVuSans-30" x="190.869141"/>
      </g>
     </g>
    </g>
    <g id="xtick_9">
     <g id="line2d_17">
      <path d="M 460.355544 534.66 
L 460.355544 62.88 
" clip-path="url(#p9fc3954a82)" style="fill: none; stroke-dasharray: 1.85,0.8; stroke-dashoffset: 0; stroke: #b2b2b2; stroke-width: 0.5"/>
     </g>
     <g id="line2d_18">
      <g>
       <use xlink:href="#mf70cf8750b" x="460.355544" y="534.66" style="stroke: #000000; stroke-width: 0.8"/>
      </g>
     </g>
     <g id="text_9">
      <!-- 1280 -->
      <g transform="translate(447.630544 545.758438) scale(0.1 -0.1)">
       <use xlink:href="#DejaVuSans-31"/>
       <use xlink:href="#DejaVuSans-32" x="63.623047"/>
       <use xlink:href="#DejaVuSans-38" x="127.246094"/>
       <use xlink:href="#DejaVuSans-30" x="190.869141"/>
      </g>
     </g>
    </g>
    <g id="xtick_10">
     <g id="line2d_19">
      <path d="M 509.011408 534.66 
L 509.011408 62.88 
" clip-path="url(#p9fc3954a82)" style="fill: none; stroke-dasharray: 1.85,0.8; stroke-dashoffset: 0; stroke: #b2b2b2; stroke-width: 0.5"/>
     </g>
     <g id="line2d_20">
      <g>
       <use xlink:href="#mf70cf8750b" x="509.011408" y="534.66" style="stroke: #000000; stroke-width: 0.8"/>
      </g>
     </g>
     <g id="text_10">
      <!-- 1440 -->
      <g transform="translate(496.286408 545.758438) scale(0.1 -0.1)">
       <use xlink:href="#DejaVuSans-31"/>
       <use xlink:href="#DejaVuSans-34" x="63.623047"/>
       <use xlink:href="#DejaVuSans-34" x="127.246094"/>
       <use xlink:href="#DejaVuSans-30" x="190.869141"/>
      </g>
     </g>
    </g>
    <g id="xtick_11">
     <g id="line2d_21">
      <path d="M 557.667273 534.66 
L 557.667273 62.88 
" clip-path="url(#p9fc3954a82)" style="fill: none; stroke-dasharray: 1.85,0.8; stroke-dashoffset: 0; stroke: #b2b2b2; stroke-width: 0.5"/>
     </g>
     <g id="line2d_22">
      <g>
       <use xlink:href="#mf70cf8750b" x="557.667273" y="534.66" style="stroke: #000000; stroke-width: 0.8"/>
      </g>
     </g>
     <g id="text_11">
      <!-- 1600 -->
      <g transform="translate(544.942273 545.758438) scale(0.1 -0.1)">
       <use xlink:href="#DejaVuSans-31"/>
       <use xlink:href="#DejaVuSans-36" x="63.623047"/>
       <use xlink:href="#DejaVuSans-30" x="127.246094"/>
       <use xlink:href="#DejaVuSans-30" x="190.869141"/>
      </g>
     </g>
    </g>
    <g id="text_12">
     <!-- Round -->
     <g transform="translate(295.555625 560.95625) scale(0.12 -0.12)">
      <defs>
       <path id="DejaVuSans-52" d="M 2841 2188 
Q 3044 2119 3236 1894 
Q 3428 1669 3622 1275 
L 4263 0 
L 3584 0 
L 2988 1197 
Q 2756 1666 2539 1819 
Q 2322 1972 1947 1972 
L 1259 1972 
L 1259 0 
L 628 0 
L 628 4666 
L 2053 4666 
Q 2853 4666 3247 4331 
Q 3641 3997 3641 3322 
Q 3641 2881 3436 2590 
Q 3231 2300 2841 2188 
z
M 1259 4147 
L 1259 2491 
L 2053 2491 
Q 2509 2491 2742 2702 
Q 2975 2913 2975 3322 
Q 2975 3731 2742 3939 
Q 2509 4147 2053 4147 
L 1259 4147 
z
" transform="scale(0.015625)"/>
       <path id="DejaVuSans-6f" d="M 1959 3097 
Q 1497 3097 1228 2736 
Q 959 2375 959 1747 
Q 959 1119 1226 758 
Q 1494 397 1959 397 
Q 2419 397 2687 759 
Q 2956 1122 2956 1747 
Q 2956 2369 2687 2733 
Q 2419 3097 1959 3097 
z
M 1959 3584 
Q 2709 3584 3137 3096 
Q 3566 2609 3566 1747 
Q 3566 888 3137 398 
Q 2709 -91 1959 -91 
Q 1206 -91 779 398 
Q 353 888 353 1747 
Q 353 2609 779 3096 
Q 1206 3584 1959 3584 
z
" transform="scale(0.015625)"/>
       <path id="DejaVuSans-75" d="M 544 1381 
L 544 3500 
L 1119 3500 
L 1119 1403 
Q 1119 906 1312 657 
Q 1506 409 1894 409 
Q 2359 409 2629 706 
Q 2900 1003 2900 1516 
L 2900 3500 
L 3475 3500 
L 3475 0 
L 2900 0 
L 2900 538 
Q 2691 219 2414 64 
Q 2138 -91 1772 -91 
Q 1169 -91 856 284 
Q 544 659 544 1381 
z
M 1991 3584 
L 1991 3584 
z
" transform="scale(0.015625)"/>
       <path id="DejaVuSans-6e" d="M 3513 2113 
L 3513 0 
L 2938 0 
L 2938 2094 
Q 2938 2591 2744 2837 
Q 2550 3084 2163 3084 
Q 1697 3084 1428 2787 
Q 1159 2491 1159 1978 
L 1159 0 
L 581 0 
L 581 3500 
L 1159 3500 
L 1159 2956 
Q 1366 3272 1645 3428 
Q 1925 3584 2291 3584 
Q 2894 3584 3203 3211 
Q 3513 2838 3513 2113 
z
" transform="scale(0.015625)"/>
       <path id="DejaVuSans-64" d="M 2906 2969 
L 2906 4863 
L 3481 4863 
L 3481 0 
L 2906 0 
L 2906 525 
Q 2725 213 2448 61 
Q 2172 -91 1784 -91 
Q 1150 -91 751 415 
Q 353 922 353 1747 
Q 353 2572 751 3078 
Q 1150 3584 1784 3584 
Q 2172 3584 2448 3432 
Q 2725 3281 2906 2969 
z
M 947 1747 
Q 947 1113 1208 752 
Q 1469 391 1925 391 
Q 2381 391 2643 752 
Q 2906 1113 2906 1747 
Q 2906 2381 2643 2742 
Q 2381 3103 1925 3103 
Q 1469 3103 1208 2742 
Q 947 2381 947 1747 
z
" transform="scale(0.015625)"/>
      </defs>
      <use xlink:href="#DejaVuSans-52"/>
      <use xlink:href="#DejaVuSans-6f" x="64.982422"/>
      <use xlink:href="#DejaVuSans-75" x="126.164062"/>
      <use xlink:href="#DejaVuSans-6e" x="189.542969"/>
      <use xlink:href="#DejaVuSans-64" x="252.921875"/>
     </g>
    </g>
   </g>
   <g id="matplotlib.axis_2">
    <g id="ytick_1">
     <g id="line2d_23">
      <path d="M 47.1 500.86233 
L 581.98 500.86233 
" clip-path="url(#p9fc3954a82)" style="fill: none; stroke-dasharray: 1.85,0.8; stroke-dashoffset: 0; stroke: #b2b2b2; stroke-width: 0.5"/>
     </g>
     <g id="line2d_24">
      <defs>
       <path id="m0fffbee3bc" d="M 0 0 
L 3.5 0 
" style="stroke: #000000; stroke-width: 0.8"/>
      </defs>
      <g>
       <use xlink:href="#m0fffbee3bc" x="47.1" y="500.86233" style="stroke: #000000; stroke-width: 0.8"/>
      </g>
     </g>
     <g id="text_13">
      <!-- 0.1 -->
      <g transform="translate(27.696875 504.661548) scale(0.1 -0.1)">
       <defs>
        <path id="DejaVuSans-2e" d="M 684 794 
L 1344 794 
L 1344 0 
L 684 0 
L 684 794 
z
" transform="scale(0.015625)"/>
       </defs>
       <use xlink:href="#DejaVuSans-30"/>
       <use xlink:href="#DejaVuSans-2e" x="63.623047"/>
       <use xlink:href="#DejaVuSans-31" x="95.410156"/>
      </g>
     </g>
    </g>
    <g id="ytick_2">
     <g id="line2d_25">
      <path d="M 47.1 419.845082 
L 581.98 419.845082 
" clip-path="url(#p9fc3954a82)" style="fill: none; stroke-dasharray: 1.85,0.8; stroke-dashoffset: 0; stroke: #b2b2b2; stroke-width: 0.5"/>
     </g>
     <g id="line2d_26">
      <g>
       <use xlink:href="#m0fffbee3bc" x="47.1" y="419.845082" style="stroke: #000000; stroke-width: 0.8"/>
      </g>
     </g>
     <g id="text_14">
      <!-- 0.2 -->
      <g transform="translate(27.696875 423.6443) scale(0.1 -0.1)">
       <use xlink:href="#DejaVuSans-30"/>
       <use xlink:href="#DejaVuSans-2e" x="63.623047"/>
       <use xlink:href="#DejaVuSans-32" x="95.410156"/>
      </g>
     </g>
    </g>
    <g id="ytick_3">
     <g id="line2d_27">
      <path d="M 47.1 338.827834 
L 581.98 338.827834 
" clip-path="url(#p9fc3954a82)" style="fill: none; stroke-dasharray: 1.85,0.8; stroke-dashoffset: 0; stroke: #b2b2b2; stroke-width: 0.5"/>
     </g>
     <g id="line2d_28">
      <g>
       <use xlink:href="#m0fffbee3bc" x="47.1" y="338.827834" style="stroke: #000000; stroke-width: 0.8"/>
      </g>
     </g>
     <g id="text_15">
      <!-- 0.3 -->
      <g transform="translate(27.696875 342.627053) scale(0.1 -0.1)">
       <use xlink:href="#DejaVuSans-30"/>
       <use xlink:href="#DejaVuSans-2e" x="63.623047"/>
       <use xlink:href="#DejaVuSans-33" x="95.410156"/>
      </g>
     </g>
    </g>
    <g id="ytick_4">
     <g id="line2d_29">
      <path d="M 47.1 257.810586 
L 581.98 257.810586 
" clip-path="url(#p9fc3954a82)" style="fill: none; stroke-dasharray: 1.85,0.8; stroke-dashoffset: 0; stroke: #b2b2b2; stroke-width: 0.5"/>
     </g>
     <g id="line2d_30">
      <g>
       <use xlink:href="#m0fffbee3bc" x="47.1" y="257.810586" style="stroke: #000000; stroke-width: 0.8"/>
      </g>
     </g>
     <g id="text_16">
      <!-- 0.4 -->
      <g transform="translate(27.696875 261.609805) scale(0.1 -0.1)">
       <use xlink:href="#DejaVuSans-30"/>
       <use xlink:href="#DejaVuSans-2e" x="63.623047"/>
       <use xlink:href="#DejaVuSans-34" x="95.410156"/>
      </g>
     </g>
    </g>
    <g id="ytick_5">
     <g id="line2d_31">
      <path d="M 47.1 176.793338 
L 581.98 176.793338 
" clip-path="url(#p9fc3954a82)" style="fill: none; stroke-dasharray: 1.85,0.8; stroke-dashoffset: 0; stroke: #b2b2b2; stroke-width: 0.5"/>
     </g>
     <g id="line2d_32">
      <g>
       <use xlink:href="#m0fffbee3bc" x="47.1" y="176.793338" style="stroke: #000000; stroke-width: 0.8"/>
      </g>
     </g>
     <g id="text_17">
      <!-- 0.5 -->
      <g transform="translate(27.696875 180.592557) scale(0.1 -0.1)">
       <defs>
        <path id="DejaVuSans-35" d="M 691 4666 
L 3169 4666 
L 3169 4134 
L 1269 4134 
L 1269 2991 
Q 1406 3038 1543 3061 
Q 1681 3084 1819 3084 
Q 2600 3084 3056 2656 
Q 3513 2228 3513 1497 
Q 3513 744 3044 326 
Q 2575 -91 1722 -91 
Q 1428 -91 1123 -41 
Q 819 9 494 109 
L 494 744 
Q 775 591 1075 516 
Q 1375 441 1709 441 
Q 2250 441 2565 725 
Q 2881 1009 2881 1497 
Q 2881 1984 2565 2268 
Q 2250 2553 1709 2553 
Q 1456 2553 1204 2497 
Q 953 2441 691 2322 
L 691 4666 
z
" transform="scale(0.015625)"/>
       </defs>
       <use xlink:href="#DejaVuSans-30"/>
       <use xlink:href="#DejaVuSans-2e" x="63.623047"/>
       <use xlink:href="#DejaVuSans-35" x="95.410156"/>
      </g>
     </g>
    </g>
    <g id="ytick_6">
     <g id="line2d_33">
      <path d="M 47.1 95.77609 
L 581.98 95.77609 
" clip-path="url(#p9fc3954a82)" style="fill: none; stroke-dasharray: 1.85,0.8; stroke-dashoffset: 0; stroke: #b2b2b2; stroke-width: 0.5"/>
     </g>
     <g id="line2d_34">
      <g>
       <use xlink:href="#m0fffbee3bc" x="47.1" y="95.77609" style="stroke: #000000; stroke-width: 0.8"/>
      </g>
     </g>
     <g id="text_18">
      <!-- 0.6 -->
      <g transform="translate(27.696875 99.575309) scale(0.1 -0.1)">
       <use xlink:href="#DejaVuSans-30"/>
       <use xlink:href="#DejaVuSans-2e" x="63.623047"/>
       <use xlink:href="#DejaVuSans-36" x="95.410156"/>
      </g>
     </g>
    </g>
    <g id="text_19">
     <!-- Accuracy -->
     <g transform="translate(21.20125 326.16375) rotate(-90) scale(0.12 -0.12)">
      <defs>
       <path id="DejaVuSans-41" d="M 2188 4044 
L 1331 1722 
L 3047 1722 
L 2188 4044 
z
M 1831 4666 
L 2547 4666 
L 4325 0 
L 3669 0 
L 3244 1197 
L 1141 1197 
L 716 0 
L 50 0 
L 1831 4666 
z
" transform="scale(0.015625)"/>
       <path id="DejaVuSans-63" d="M 3122 3366 
L 3122 2828 
Q 2878 2963 2633 3030 
Q 2388 3097 2138 3097 
Q 1578 3097 1268 2742 
Q 959 2388 959 1747 
Q 959 1106 1268 751 
Q 1578 397 2138 397 
Q 2388 397 2633 464 
Q 2878 531 3122 666 
L 3122 134 
Q 2881 22 2623 -34 
Q 2366 -91 2075 -91 
Q 1284 -91 818 406 
Q 353 903 353 1747 
Q 353 2603 823 3093 
Q 1294 3584 2113 3584 
Q 2378 3584 2631 3529 
Q 2884 3475 3122 3366 
z
" transform="scale(0.015625)"/>
       <path id="DejaVuSans-72" d="M 2631 2963 
Q 2534 3019 2420 3045 
Q 2306 3072 2169 3072 
Q 1681 3072 1420 2755 
Q 1159 2438 1159 1844 
L 1159 0 
L 581 0 
L 581 3500 
L 1159 3500 
L 1159 2956 
Q 1341 3275 1631 3429 
Q 1922 3584 2338 3584 
Q 2397 3584 2469 3576 
Q 2541 3569 2628 3553 
L 2631 2963 
z
" transform="scale(0.015625)"/>
       <path id="DejaVuSans-61" d="M 2194 1759 
Q 1497 1759 1228 1600 
Q 959 1441 959 1056 
Q 959 750 1161 570 
Q 1363 391 1709 391 
Q 2188 391 2477 730 
Q 2766 1069 2766 1631 
L 2766 1759 
L 2194 1759 
z
M 3341 1997 
L 3341 0 
L 2766 0 
L 2766 531 
Q 2569 213 2275 61 
Q 1981 -91 1556 -91 
Q 1019 -91 701 211 
Q 384 513 384 1019 
Q 384 1609 779 1909 
Q 1175 2209 1959 2209 
L 2766 2209 
L 2766 2266 
Q 2766 2663 2505 2880 
Q 2244 3097 1772 3097 
Q 1472 3097 1187 3025 
Q 903 2953 641 2809 
L 641 3341 
Q 956 3463 1253 3523 
Q 1550 3584 1831 3584 
Q 2591 3584 2966 3190 
Q 3341 2797 3341 1997 
z
" transform="scale(0.015625)"/>
       <path id="DejaVuSans-79" d="M 2059 -325 
Q 1816 -950 1584 -1140 
Q 1353 -1331 966 -1331 
L 506 -1331 
L 506 -850 
L 844 -850 
Q 1081 -850 1212 -737 
Q 1344 -625 1503 -206 
L 1606 56 
L 191 3500 
L 800 3500 
L 1894 763 
L 2988 3500 
L 3597 3500 
L 2059 -325 
z
" transform="scale(0.015625)"/>
      </defs>
      <use xlink:href="#DejaVuSans-41"/>
      <use xlink:href="#DejaVuSans-63" x="66.658203"/>
      <use xlink:href="#DejaVuSans-63" x="121.638672"/>
      <use xlink:href="#DejaVuSans-75" x="176.619141"/>
      <use xlink:href="#DejaVuSans-72" x="239.998047"/>
      <use xlink:href="#DejaVuSans-61" x="281.111328"/>
      <use xlink:href="#DejaVuSans-63" x="342.390625"/>
      <use xlink:href="#DejaVuSans-79" x="397.371094"/>
     </g>
    </g>
   </g>
   <g id="line2d_35">
    <path d="M 71.412727 503.108352 
L 73.038997 500.366522 
L 74.665266 498.082443 
L 76.291535 494.582279 
L 77.917805 483.383537 
L 79.544074 444.617261 
L 81.170344 424.61615 
L 82.796613 424.569172 
L 84.422882 415.523679 
L 86.049152 425.16573 
L 87.675421 423.828414 
L 89.30169 413.998836 
L 90.92796 409.438798 
L 92.554229 390.516453 
L 94.180499 390.375599 
L 95.806768 377.163824 
L 99.059307 363.397255 
L 100.685576 354.971782 
L 102.311846 351.489402 
L 103.938115 339.600533 
L 105.564384 330.126242 
L 107.190654 328.820579 
L 108.816923 320.598953 
L 110.443192 320.023935 
L 112.069462 304.303397 
L 113.695731 297.574313 
L 115.322001 286.939222 
L 116.94827 287.43818 
L 118.574539 286.804871 
L 121.827078 268.393571 
L 123.453348 270.612943 
L 125.079617 261.686477 
L 126.705886 269.142537 
L 128.332156 262.252274 
L 129.958425 256.911266 
L 131.584694 256.806895 
L 133.210964 253.290153 
L 134.837233 243.621978 
L 136.463503 240.314917 
L 138.089772 241.41047 
L 139.716041 242.121702 
L 141.342311 237.615557 
L 142.96858 240.366577 
L 144.594849 235.825673 
L 146.221119 233.836094 
L 147.847388 231.016651 
L 149.473658 236.604956 
L 151.099927 221.192887 
L 152.726196 235.757384 
L 154.352466 226.216524 
L 155.978735 222.428645 
L 157.605005 219.224791 
L 159.231274 212.775444 
L 160.857543 210.845976 
L 162.483813 218.576912 
L 164.110082 215.565379 
L 165.736351 208.975452 
L 167.362621 210.752706 
L 168.98889 209.920575 
L 170.61516 207.114963 
L 172.241429 209.67258 
L 173.867698 199.889023 
L 175.493968 198.361841 
L 177.120237 196.124289 
L 178.746507 192.602974 
L 180.372776 190.009772 
L 181.999045 188.806688 
L 183.625315 181.792275 
L 185.251584 191.46222 
L 186.877853 185.873518 
L 188.504123 190.089762 
L 190.130392 186.360103 
L 191.756662 176.117329 
L 193.382931 175.301939 
L 195.0092 179.302405 
L 196.63547 173.679641 
L 198.261739 173.145312 
L 199.888009 169.381289 
L 201.514278 164.899944 
L 203.140547 165.427815 
L 204.766817 163.343814 
L 206.393086 174.854943 
L 208.019355 166.950091 
L 209.645625 165.177323 
L 211.271894 169.252311 
L 212.898164 163.783058 
L 214.524433 163.572478 
L 216.150702 157.142358 
L 217.776972 155.410987 
L 219.403241 148.247064 
L 221.02951 151.79373 
L 222.65578 151.707757 
L 224.282049 146.880411 
L 225.908319 147.621495 
L 227.534588 155.652974 
L 229.160857 147.024119 
L 230.787127 150.512852 
L 232.413396 145.979421 
L 234.039666 149.103087 
L 235.665935 143.001712 
L 237.292204 142.734786 
L 238.918474 139.049763 
L 240.544743 141.656122 
L 242.171012 137.458802 
L 243.797282 147.74919 
L 245.423551 140.859222 
L 247.049821 140.929858 
L 248.67609 142.659885 
L 250.302359 134.317942 
L 251.928629 136.936703 
L 253.554898 125.440721 
L 255.181168 138.575373 
L 256.807437 129.451331 
L 258.433706 126.663916 
L 260.059976 126.552475 
L 261.686245 132.531204 
L 263.312514 132.152654 
L 264.938784 131.334303 
L 266.565053 137.720259 
L 268.191323 133.91222 
L 269.817592 123.855205 
L 271.443861 120.568691 
L 273.070131 128.788377 
L 274.6964 134.459413 
L 276.32267 124.083169 
L 277.948939 126.434923 
L 279.575208 122.083606 
L 281.201478 112.800544 
L 282.827747 117.244994 
L 284.454016 120.316077 
L 286.080286 112.392634 
L 287.706555 123.326893 
L 289.332825 116.508263 
L 290.959094 119.832691 
L 292.585363 113.352209 
L 294.211633 117.422282 
L 295.837902 113.467612 
L 297.464171 115.98933 
L 299.090441 118.014959 
L 300.71671 114.686455 
L 302.34298 122.120058 
L 303.969249 117.232401 
L 305.595518 119.497069 
L 308.848057 108.119261 
L 310.474327 109.244128 
L 312.100596 113.83131 
L 313.726865 113.301479 
L 315.353135 106.154054 
L 316.979404 113.443087 
L 318.605673 107.167453 
L 320.231943 103.823592 
L 321.858212 105.000656 
L 323.484482 109.593575 
L 325.110751 102.797433 
L 326.73702 100.835367 
L 328.36329 110.475536 
L 329.989559 104.457156 
L 331.615829 107.565629 
L 333.242098 102.491033 
L 334.868367 104.369936 
L 336.494637 106.767124 
L 338.120906 99.396143 
L 339.747175 100.610153 
L 341.373445 104.159665 
L 342.999714 97.469528 
L 344.625984 103.217935 
L 346.252253 101.802548 
L 347.878522 102.594358 
L 349.504792 102.922107 
L 351.131061 108.936064 
L 352.75733 100.278856 
L 354.3836 103.221961 
L 356.009869 98.88774 
L 357.636139 102.062482 
L 359.262408 95.339446 
L 360.888677 92.678779 
L 362.514947 94.866338 
L 364.141216 91.977954 
L 365.767486 98.688653 
L 367.393755 102.547369 
L 369.020024 102.233085 
L 370.646294 107.275312 
L 372.272563 91.165497 
L 373.898832 93.697483 
L 375.525102 94.569847 
L 377.151371 97.540573 
L 378.777641 96.889271 
L 380.40391 104.702991 
L 382.030179 94.166022 
L 383.656449 107.153261 
L 385.282718 93.352491 
L 386.908988 95.640381 
L 388.535257 102.707799 
L 390.161526 95.779165 
L 391.787796 94.110551 
L 393.414065 95.072961 
L 395.040334 96.89322 
L 396.666604 94.087072 
L 398.292873 88.470761 
L 399.919143 96.522527 
L 401.545412 99.485985 
L 403.171681 90.758542 
L 404.797951 95.042947 
L 406.42422 93.968166 
L 408.05049 95.576048 
L 409.676759 91.586528 
L 411.303028 93.424036 
L 412.929298 90.959424 
L 414.555567 84.324545 
L 416.181836 94.401668 
L 417.808106 87.564029 
L 419.434375 87.431587 
L 421.060645 87.845618 
L 422.686914 90.897556 
L 424.313183 95.237067 
L 425.939453 95.784303 
L 427.565722 94.366235 
L 429.191991 89.991635 
L 430.818261 99.050089 
L 432.44453 90.781534 
L 434.0708 93.303685 
L 435.697069 87.19982 
L 437.323338 93.185868 
L 438.949608 93.464755 
L 440.575877 91.100765 
L 442.202147 87.676666 
L 443.828416 89.255906 
L 445.454685 92.775451 
L 447.080955 86.494982 
L 448.707224 99.269636 
L 450.333493 103.407006 
L 451.959763 93.73867 
L 453.586032 88.714942 
L 455.212302 89.782749 
L 456.838571 92.968998 
L 458.46484 92.384314 
L 460.09111 95.93915 
L 461.717379 92.876294 
L 463.343649 93.135899 
L 464.969918 93.68036 
L 466.596187 88.874235 
L 468.222457 95.002595 
L 469.848726 97.130031 
L 471.474995 104.27227 
L 473.101265 90.713167 
L 474.727534 87.939175 
L 476.353804 93.595513 
L 477.980073 92.374514 
L 479.606342 85.45284 
L 481.232612 94.749694 
L 484.485151 87.150711 
L 486.11142 93.046793 
L 487.737689 92.787908 
L 489.363959 92.080174 
L 490.990228 84.84671 
L 492.616497 91.680558 
L 494.242767 90.893508 
L 495.869036 92.897469 
L 497.495306 88.805331 
L 499.121575 91.771716 
L 500.747844 93.600967 
L 502.374114 93.719202 
L 504.000383 88.885978 
L 505.626652 92.409488 
L 507.252922 85.031803 
L 508.879191 90.843252 
L 510.505461 93.780414 
L 512.13173 90.842123 
L 513.757999 95.990256 
L 515.384269 90.471431 
L 517.010538 94.333912 
L 518.636808 85.189497 
L 520.263077 86.324078 
L 521.889346 92.458811 
L 523.515616 105.017037 
L 525.141885 96.290026 
L 526.768154 94.140185 
L 528.394424 89.014254 
L 530.020693 92.573877 
L 531.646963 91.361128 
L 533.273232 91.847483 
L 534.899501 93.016312 
L 536.525771 89.848947 
L 538.15204 92.114986 
L 539.77831 91.721013 
L 541.404579 94.038967 
L 543.030848 100.826867 
L 544.657118 91.612986 
L 546.283387 91.357836 
L 547.909656 95.170212 
L 549.535926 87.313123 
L 551.162195 91.09032 
L 552.788465 93.179804 
L 554.414734 92.130038 
L 556.041003 89.979839 
L 557.667273 95.605528 
L 557.667273 95.605528 
" clip-path="url(#p9fc3954a82)" style="fill: none; stroke: #348abd; stroke-width: 2; stroke-linecap: square"/>
   </g>
   <g id="line2d_36">
    <path d="M 71.412727 513.215455 
L 73.038997 506.144243 
L 74.665266 500.867732 
L 76.291535 494.508314 
L 77.917805 492.433937 
L 79.544074 492.391346 
L 81.170344 488.185195 
L 82.796613 484.740683 
L 84.422882 482.336748 
L 86.049152 470.521912 
L 87.675421 463.538024 
L 89.30169 453.834329 
L 90.92796 442.448654 
L 92.554229 431.943027 
L 94.180499 420.495338 
L 95.806768 423.208281 
L 97.433037 435.017399 
L 99.059307 425.403419 
L 100.685576 431.939252 
L 102.311846 425.031991 
L 103.938115 422.453305 
L 105.564384 413.333496 
L 107.190654 401.153187 
L 108.816923 391.320259 
L 110.443192 388.119447 
L 112.069462 384.540835 
L 113.695731 383.151956 
L 115.322001 374.146414 
L 116.94827 372.958958 
L 118.574539 368.607904 
L 120.200809 362.867726 
L 121.827078 366.686129 
L 125.079617 344.973945 
L 126.705886 342.759948 
L 128.332156 343.085134 
L 129.958425 339.562562 
L 131.584694 334.864962 
L 133.210964 334.874548 
L 134.837233 332.932396 
L 136.463503 321.790957 
L 138.089772 316.270513 
L 139.716041 318.921164 
L 141.342311 315.211399 
L 142.96858 312.311718 
L 144.594849 305.19127 
L 146.221119 305.428887 
L 147.847388 305.230672 
L 149.473658 306.716854 
L 151.099927 298.658996 
L 152.726196 303.536687 
L 154.352466 300.586048 
L 155.978735 301.704573 
L 157.605005 295.626839 
L 159.231274 296.301988 
L 160.857543 291.917928 
L 162.483813 284.38364 
L 164.110082 285.321983 
L 165.736351 280.18648 
L 167.362621 280.612578 
L 168.98889 275.087099 
L 170.61516 278.104604 
L 172.241429 274.481914 
L 173.867698 275.877408 
L 175.493968 266.267335 
L 177.120237 271.160337 
L 180.372776 262.781605 
L 181.999045 262.538104 
L 183.625315 256.9487 
L 185.251584 258.50928 
L 186.877853 255.942192 
L 188.504123 254.737021 
L 190.130392 250.247579 
L 191.756662 245.114494 
L 193.382931 242.059955 
L 195.0092 243.134624 
L 196.63547 240.903989 
L 198.261739 243.275418 
L 199.888009 248.191239 
L 201.514278 243.66768 
L 203.140547 235.12317 
L 204.766817 239.785687 
L 206.393086 227.249093 
L 208.019355 226.086774 
L 209.645625 234.554293 
L 211.271894 232.327956 
L 212.898164 224.949755 
L 214.524433 222.237114 
L 216.150702 230.422559 
L 217.776972 233.67989 
L 219.403241 225.849366 
L 221.02951 223.088908 
L 222.65578 212.913873 
L 224.282049 210.125278 
L 225.908319 217.002139 
L 227.534588 219.715142 
L 229.160857 205.765014 
L 230.787127 212.978154 
L 232.413396 211.548568 
L 234.039666 210.452282 
L 235.665935 212.745768 
L 237.292204 207.206364 
L 238.918474 205.829769 
L 240.544743 203.496934 
L 242.171012 198.211802 
L 243.797282 200.512307 
L 245.423551 198.203961 
L 247.049821 198.534647 
L 248.67609 199.129729 
L 250.302359 195.162092 
L 251.928629 197.251269 
L 253.554898 191.3396 
L 255.181168 204.199584 
L 256.807437 191.861817 
L 258.433706 194.347075 
L 260.059976 194.217148 
L 261.686245 194.510558 
L 263.312514 192.841237 
L 264.938784 193.07119 
L 266.565053 188.045523 
L 268.191323 194.818762 
L 269.817592 183.352873 
L 271.443861 181.115248 
L 273.070131 182.23782 
L 274.6964 184.275243 
L 276.32267 186.895459 
L 277.948939 181.348523 
L 279.575208 183.564964 
L 281.201478 179.235434 
L 282.827747 183.762819 
L 284.454016 178.558181 
L 286.080286 178.325468 
L 287.706555 176.575904 
L 289.332825 178.309096 
L 290.959094 181.362562 
L 292.585363 176.692717 
L 294.211633 176.937005 
L 295.837902 173.817194 
L 297.464171 172.124466 
L 299.090441 171.076993 
L 300.71671 175.877773 
L 302.34298 176.111726 
L 303.969249 171.992804 
L 305.595518 167.219076 
L 307.221788 161.458716 
L 308.848057 165.97507 
L 310.474327 165.188892 
L 312.100596 157.897267 
L 313.726865 169.466061 
L 315.353135 160.028078 
L 316.979404 166.77803 
L 318.605673 159.25623 
L 320.231943 162.152147 
L 321.858212 160.865643 
L 323.484482 162.9141 
L 325.110751 162.004943 
L 326.73702 161.83632 
L 328.36329 163.127937 
L 329.989559 161.521837 
L 331.615829 164.223807 
L 333.242098 156.794486 
L 334.868367 157.681478 
L 336.494637 155.83814 
L 339.747175 157.25995 
L 341.373445 156.1232 
L 342.999714 156.747066 
L 344.625984 157.857466 
L 346.252253 152.649106 
L 347.878522 152.541601 
L 349.504792 154.603144 
L 351.131061 151.887191 
L 352.75733 146.681491 
L 354.3836 150.00864 
L 356.009869 147.306831 
L 357.636139 146.592018 
L 359.262408 148.069293 
L 360.888677 153.085421 
L 362.514947 144.798166 
L 364.141216 141.903631 
L 365.767486 145.438409 
L 367.393755 147.006343 
L 369.020024 144.177777 
L 370.646294 140.030673 
L 372.272563 143.015573 
L 373.898832 135.684263 
L 375.525102 133.320093 
L 377.151371 139.68349 
L 378.777641 139.448066 
L 380.40391 149.679213 
L 382.030179 138.796363 
L 383.656449 142.998371 
L 385.282718 142.847446 
L 388.535257 138.612982 
L 390.161526 144.670952 
L 391.787796 140.534659 
L 393.414065 130.395377 
L 395.040334 140.526624 
L 396.666604 135.198959 
L 398.292873 135.439492 
L 399.919143 134.64683 
L 401.545412 136.251112 
L 403.171681 133.772313 
L 404.797951 132.755566 
L 406.42422 128.804507 
L 408.05049 132.583926 
L 409.676759 126.077157 
L 411.303028 131.298771 
L 412.929298 125.396789 
L 414.555567 134.754079 
L 416.181836 138.86924 
L 417.808106 131.909784 
L 419.434375 128.613527 
L 421.060645 130.369695 
L 422.686914 128.017988 
L 424.313183 128.372069 
L 425.939453 130.042085 
L 427.565722 129.156575 
L 429.191991 129.717012 
L 430.818261 133.891343 
L 432.44453 131.422196 
L 434.0708 124.579342 
L 435.697069 127.822467 
L 437.323338 117.293743 
L 438.949608 132.193836 
L 440.575877 123.934907 
L 442.202147 128.139085 
L 443.828416 124.74274 
L 445.454685 121.881648 
L 447.080955 124.171638 
L 448.707224 125.69859 
L 450.333493 123.599882 
L 451.959763 122.562116 
L 453.586032 118.825629 
L 456.838571 127.515204 
L 458.46484 123.717716 
L 460.09111 124.379496 
L 461.717379 119.245626 
L 463.343649 125.018883 
L 464.969918 118.346228 
L 468.222457 121.681565 
L 469.848726 115.90415 
L 471.474995 117.133657 
L 473.101265 124.540584 
L 474.727534 123.025809 
L 476.353804 117.734204 
L 477.980073 118.720282 
L 479.606342 116.946452 
L 481.232612 114.764324 
L 482.858881 122.622982 
L 484.485151 118.351547 
L 486.11142 111.386122 
L 487.737689 115.713369 
L 489.363959 118.896103 
L 490.990228 119.2541 
L 492.616497 114.258141 
L 494.242767 105.658613 
L 495.869036 116.689767 
L 497.495306 118.154585 
L 499.121575 112.014641 
L 500.747844 114.563205 
L 504.000383 109.448354 
L 505.626652 106.989451 
L 507.252922 108.163972 
L 508.879191 112.442328 
L 510.505461 108.495686 
L 512.13173 105.424015 
L 513.757999 107.462991 
L 515.384269 108.887447 
L 518.636808 110.179044 
L 520.263077 104.177879 
L 521.889346 106.392332 
L 523.515616 103.341542 
L 525.141885 99.047172 
L 526.768154 106.125119 
L 528.394424 103.830026 
L 530.020693 109.465952 
L 531.646963 100.493488 
L 533.273232 103.862289 
L 534.899501 100.384315 
L 536.525771 97.914947 
L 538.15204 109.866184 
L 539.77831 95.690123 
L 541.404579 98.957274 
L 543.030848 93.017066 
L 544.657118 101.738553 
L 546.283387 94.849075 
L 547.909656 104.314533 
L 549.535926 92.626843 
L 551.162195 103.720482 
L 552.788465 90.036533 
L 554.414734 102.991972 
L 556.041003 101.471574 
L 557.667273 103.280846 
L 557.667273 103.280846 
" clip-path="url(#p9fc3954a82)" style="fill: none; stroke: #a60628; stroke-width: 2; stroke-linecap: square"/>
   </g>
   <g id="line2d_37">
    <path d="M 71.412727 497.012005 
L 73.038997 492.80574 
L 74.665266 492.295836 
L 76.291535 481.344734 
L 77.917805 480.506849 
L 79.544074 476.537508 
L 81.170344 460.885664 
L 82.796613 455.04925 
L 84.422882 460.132292 
L 86.049152 458.045844 
L 87.675421 446.849377 
L 89.30169 442.875545 
L 90.92796 436.41215 
L 92.554229 425.958431 
L 94.180499 428.086805 
L 95.806768 419.793429 
L 97.433037 401.637363 
L 99.059307 396.895634 
L 100.685576 381.741072 
L 102.311846 375.114911 
L 103.938115 359.797075 
L 105.564384 360.304703 
L 107.190654 351.993888 
L 108.816923 349.461348 
L 110.443192 340.307702 
L 112.069462 329.096813 
L 113.695731 332.886449 
L 115.322001 319.445543 
L 116.94827 314.991626 
L 118.574539 307.626765 
L 120.200809 301.850781 
L 121.827078 296.998315 
L 123.453348 277.524174 
L 125.079617 279.622444 
L 126.705886 266.54452 
L 128.332156 271.385559 
L 129.958425 259.664921 
L 131.584694 258.546447 
L 133.210964 255.500295 
L 134.837233 256.216568 
L 136.463503 253.590029 
L 138.089772 252.603763 
L 139.716041 248.962802 
L 141.342311 243.306251 
L 142.96858 239.070067 
L 144.594849 238.318263 
L 146.221119 236.646897 
L 147.847388 233.372737 
L 149.473658 229.578653 
L 151.099927 235.408284 
L 152.726196 235.811609 
L 154.352466 220.855542 
L 155.978735 226.214201 
L 157.605005 224.011485 
L 159.231274 225.161258 
L 160.857543 226.0834 
L 162.483813 217.529539 
L 164.110082 220.141242 
L 165.736351 208.379385 
L 168.98889 214.323546 
L 170.61516 214.784362 
L 172.241429 213.233804 
L 173.867698 208.060613 
L 177.120237 204.371611 
L 178.746507 201.784192 
L 180.372776 205.152101 
L 181.999045 202.302363 
L 183.625315 202.994661 
L 185.251584 191.296169 
L 186.877853 192.163072 
L 188.504123 194.481395 
L 190.130392 191.739653 
L 191.756662 193.780779 
L 193.382931 183.616964 
L 195.0092 184.555171 
L 196.63547 187.716587 
L 198.261739 180.869959 
L 199.888009 179.742729 
L 201.514278 182.560007 
L 203.140547 176.903397 
L 204.766817 179.230308 
L 206.393086 176.047504 
L 208.019355 177.264231 
L 209.645625 177.951159 
L 211.271894 177.145852 
L 212.898164 164.405574 
L 214.524433 167.649675 
L 216.150702 174.308593 
L 217.776972 169.912899 
L 219.403241 171.160101 
L 221.02951 155.806013 
L 222.65578 163.732696 
L 224.282049 160.927187 
L 225.908319 158.897448 
L 227.534588 162.24525 
L 229.160857 158.720912 
L 230.787127 152.17893 
L 232.413396 156.721181 
L 234.039666 158.350303 
L 235.665935 155.776679 
L 237.292204 154.807406 
L 238.918474 152.701875 
L 240.544743 149.983582 
L 242.171012 149.991843 
L 243.797282 149.279561 
L 245.423551 149.017816 
L 247.049821 142.293573 
L 248.67609 149.411261 
L 250.302359 146.763641 
L 251.928629 146.827921 
L 253.554898 130.712488 
L 255.181168 141.791455 
L 256.807437 139.766739 
L 258.433706 141.348292 
L 260.059976 131.724472 
L 261.686245 134.993911 
L 263.312514 143.32861 
L 264.938784 141.154487 
L 266.565053 138.634583 
L 268.191323 138.080105 
L 269.817592 137.806204 
L 271.443861 139.40718 
L 273.070131 132.676532 
L 274.6964 140.876625 
L 276.32267 135.258197 
L 277.948939 136.172099 
L 279.575208 132.656741 
L 281.201478 130.948476 
L 282.827747 123.055892 
L 284.454016 129.497156 
L 286.080286 123.223768 
L 287.706555 123.885892 
L 289.332825 129.330559 
L 290.959094 131.992833 
L 292.585363 126.346134 
L 294.211633 123.190947 
L 295.837902 126.198893 
L 297.464171 120.457596 
L 299.090441 120.15837 
L 300.71671 122.583808 
L 302.34298 121.14447 
L 303.969249 123.116709 
L 305.595518 129.605116 
L 307.221788 123.271942 
L 308.848057 123.8808 
L 310.474327 117.979664 
L 312.100596 116.552194 
L 313.726865 121.859271 
L 315.353135 125.019763 
L 318.605673 120.196691 
L 320.231943 116.834934 
L 321.858212 121.77747 
L 323.484482 121.383711 
L 325.110751 122.365812 
L 326.73702 120.83045 
L 328.36329 116.061037 
L 329.989559 115.161644 
L 331.615829 113.394712 
L 333.242098 112.563448 
L 334.868367 112.847533 
L 336.494637 111.949691 
L 338.120906 118.59989 
L 339.747175 116.121341 
L 341.373445 108.023819 
L 342.999714 107.528061 
L 344.625984 111.348352 
L 346.252253 106.080939 
L 347.878522 114.500801 
L 349.504792 120.673241 
L 351.131061 109.478816 
L 352.75733 108.308429 
L 354.3836 109.762785 
L 356.009869 106.577337 
L 357.636139 110.743386 
L 359.262408 111.379538 
L 360.888677 113.494199 
L 362.514947 107.706798 
L 364.141216 105.61602 
L 365.767486 107.973707 
L 367.393755 111.254514 
L 369.020024 107.501559 
L 370.646294 116.509536 
L 372.272563 110.036682 
L 373.898832 105.388376 
L 375.525102 113.622707 
L 377.151371 105.234351 
L 378.777641 104.798902 
L 380.40391 111.054319 
L 382.030179 105.835215 
L 383.656449 107.087833 
L 385.282718 104.904054 
L 386.908988 108.123418 
L 388.535257 106.823887 
L 390.161526 107.255396 
L 391.787796 109.472457 
L 395.040334 101.95816 
L 396.666604 105.54932 
L 398.292873 107.70171 
L 399.919143 106.817829 
L 401.545412 107.349683 
L 403.171681 102.112666 
L 404.797951 108.16925 
L 406.42422 110.992075 
L 408.05049 107.778645 
L 409.676759 103.470617 
L 411.303028 108.209329 
L 412.929298 108.91367 
L 414.555567 108.210498 
L 416.181836 110.653544 
L 417.808106 104.645362 
L 419.434375 103.40076 
L 421.060645 104.878346 
L 422.686914 107.963261 
L 424.313183 100.443743 
L 425.939453 103.916709 
L 427.565722 110.255276 
L 429.191991 104.837242 
L 430.818261 111.61759 
L 432.44453 107.450907 
L 434.0708 101.784901 
L 435.697069 104.653633 
L 437.323338 106.983333 
L 438.949608 111.02589 
L 440.575877 108.070234 
L 442.202147 109.153287 
L 443.828416 102.040428 
L 445.454685 107.028486 
L 447.080955 107.306698 
L 448.707224 105.82693 
L 450.333493 108.551593 
L 451.959763 105.742489 
L 453.586032 103.65063 
L 455.212302 98.451005 
L 456.838571 108.579156 
L 458.46484 105.976104 
L 460.09111 116.373544 
L 461.717379 105.361059 
L 463.343649 103.8316 
L 464.969918 103.080162 
L 466.596187 105.846444 
L 468.222457 99.98512 
L 471.474995 96.132115 
L 473.101265 96.733053 
L 474.727534 108.562989 
L 476.353804 110.777148 
L 477.980073 106.774575 
L 479.606342 108.894788 
L 481.232612 103.271332 
L 482.858881 104.672102 
L 484.485151 109.930649 
L 486.11142 102.047428 
L 487.737689 103.443594 
L 489.363959 108.538815 
L 490.990228 104.003175 
L 492.616497 110.647307 
L 494.242767 101.161678 
L 495.869036 100.036943 
L 497.495306 106.594993 
L 499.121575 101.378453 
L 500.747844 100.536613 
L 502.374114 100.141593 
L 504.000383 105.661523 
L 505.626652 108.818778 
L 507.252922 97.935002 
L 508.879191 107.788859 
L 510.505461 103.142491 
L 512.13173 109.705443 
L 513.757999 102.927827 
L 515.384269 100.070509 
L 517.010538 108.164178 
L 518.636808 103.100486 
L 520.263077 107.778645 
L 521.889346 106.768888 
L 523.515616 113.908057 
L 525.141885 102.104029 
L 526.768154 106.117252 
L 530.020693 100.473594 
L 531.646963 107.19499 
L 533.273232 101.34733 
L 534.899501 102.428293 
L 536.525771 102.793857 
L 538.15204 111.044584 
L 539.77831 108.102808 
L 541.404579 112.305364 
L 543.030848 100.517332 
L 544.657118 100.033508 
L 546.283387 107.434708 
L 547.909656 104.442068 
L 549.535926 106.730523 
L 551.162195 105.74204 
L 552.788465 110.036063 
L 554.414734 109.242395 
L 556.041003 113.139489 
L 557.667273 106.521536 
L 557.667273 106.521536 
" clip-path="url(#p9fc3954a82)" style="fill: none; stroke: #7a68a6; stroke-width: 2; stroke-linecap: square"/>
   </g>
   <g id="patch_3">
    <path d="M 47.1 534.66 
L 47.1 62.88 
" style="fill: none; stroke: #bcbcbc; stroke-width: 0.8; stroke-linejoin: miter; stroke-linecap: square"/>
   </g>
   <g id="patch_4">
    <path d="M 581.98 534.66 
L 581.98 62.88 
" style="fill: none; stroke: #bcbcbc; stroke-width: 0.8; stroke-linejoin: miter; stroke-linecap: square"/>
   </g>
   <g id="patch_5">
    <path d="M 47.1 534.66 
L 581.98 534.66 
" style="fill: none; stroke: #bcbcbc; stroke-width: 0.8; stroke-linejoin: miter; stroke-linecap: square"/>
   </g>
   <g id="patch_6">
    <path d="M 47.1 62.88 
L 581.98 62.88 
" style="fill: none; stroke: #bcbcbc; stroke-width: 0.8; stroke-linejoin: miter; stroke-linecap: square"/>
   </g>
   <g id="text_20">
    <g id="patch_7">
     <path d="M 73.844 123.54275 
L 205.401813 123.54275 
Q 210.401813 123.54275 210.401813 118.54275 
L 210.401813 86.469 
Q 210.401813 81.469 205.401813 81.469 
L 73.844 81.469 
Q 68.844 81.469 68.844 86.469 
L 68.844 118.54275 
Q 68.844 123.54275 73.844 123.54275 
z
" style="fill: #d3d3d3; stroke: #000000; stroke-width: 0.5; stroke-linejoin: miter"/>
    </g>
    <!-- Num Server Rounds: 1600 -->
    <g transform="translate(73.844 94.067437) scale(0.1 -0.1)">
     <defs>
      <path id="DejaVuSans-4e" d="M 628 4666 
L 1478 4666 
L 3547 763 
L 3547 4666 
L 4159 4666 
L 4159 0 
L 3309 0 
L 1241 3903 
L 1241 0 
L 628 0 
L 628 4666 
z
" transform="scale(0.015625)"/>
      <path id="DejaVuSans-6d" d="M 3328 2828 
Q 3544 3216 3844 3400 
Q 4144 3584 4550 3584 
Q 5097 3584 5394 3201 
Q 5691 2819 5691 2113 
L 5691 0 
L 5113 0 
L 5113 2094 
Q 5113 2597 4934 2840 
Q 4756 3084 4391 3084 
Q 3944 3084 3684 2787 
Q 3425 2491 3425 1978 
L 3425 0 
L 2847 0 
L 2847 2094 
Q 2847 2600 2669 2842 
Q 2491 3084 2119 3084 
Q 1678 3084 1418 2786 
Q 1159 2488 1159 1978 
L 1159 0 
L 581 0 
L 581 3500 
L 1159 3500 
L 1159 2956 
Q 1356 3278 1631 3431 
Q 1906 3584 2284 3584 
Q 2666 3584 2933 3390 
Q 3200 3197 3328 2828 
z
" transform="scale(0.015625)"/>
      <path id="DejaVuSans-20" transform="scale(0.015625)"/>
      <path id="DejaVuSans-53" d="M 3425 4513 
L 3425 3897 
Q 3066 4069 2747 4153 
Q 2428 4238 2131 4238 
Q 1616 4238 1336 4038 
Q 1056 3838 1056 3469 
Q 1056 3159 1242 3001 
Q 1428 2844 1947 2747 
L 2328 2669 
Q 3034 2534 3370 2195 
Q 3706 1856 3706 1288 
Q 3706 609 3251 259 
Q 2797 -91 1919 -91 
Q 1588 -91 1214 -16 
Q 841 59 441 206 
L 441 856 
Q 825 641 1194 531 
Q 1563 422 1919 422 
Q 2459 422 2753 634 
Q 3047 847 3047 1241 
Q 3047 1584 2836 1778 
Q 2625 1972 2144 2069 
L 1759 2144 
Q 1053 2284 737 2584 
Q 422 2884 422 3419 
Q 422 4038 858 4394 
Q 1294 4750 2059 4750 
Q 2388 4750 2728 4690 
Q 3069 4631 3425 4513 
z
" transform="scale(0.015625)"/>
      <path id="DejaVuSans-65" d="M 3597 1894 
L 3597 1613 
L 953 1613 
Q 991 1019 1311 708 
Q 1631 397 2203 397 
Q 2534 397 2845 478 
Q 3156 559 3463 722 
L 3463 178 
Q 3153 47 2828 -22 
Q 2503 -91 2169 -91 
Q 1331 -91 842 396 
Q 353 884 353 1716 
Q 353 2575 817 3079 
Q 1281 3584 2069 3584 
Q 2775 3584 3186 3129 
Q 3597 2675 3597 1894 
z
M 3022 2063 
Q 3016 2534 2758 2815 
Q 2500 3097 2075 3097 
Q 1594 3097 1305 2825 
Q 1016 2553 972 2059 
L 3022 2063 
z
" transform="scale(0.015625)"/>
      <path id="DejaVuSans-76" d="M 191 3500 
L 800 3500 
L 1894 563 
L 2988 3500 
L 3597 3500 
L 2284 0 
L 1503 0 
L 191 3500 
z
" transform="scale(0.015625)"/>
      <path id="DejaVuSans-73" d="M 2834 3397 
L 2834 2853 
Q 2591 2978 2328 3040 
Q 2066 3103 1784 3103 
Q 1356 3103 1142 2972 
Q 928 2841 928 2578 
Q 928 2378 1081 2264 
Q 1234 2150 1697 2047 
L 1894 2003 
Q 2506 1872 2764 1633 
Q 3022 1394 3022 966 
Q 3022 478 2636 193 
Q 2250 -91 1575 -91 
Q 1294 -91 989 -36 
Q 684 19 347 128 
L 347 722 
Q 666 556 975 473 
Q 1284 391 1588 391 
Q 1994 391 2212 530 
Q 2431 669 2431 922 
Q 2431 1156 2273 1281 
Q 2116 1406 1581 1522 
L 1381 1569 
Q 847 1681 609 1914 
Q 372 2147 372 2553 
Q 372 3047 722 3315 
Q 1072 3584 1716 3584 
Q 2034 3584 2315 3537 
Q 2597 3491 2834 3397 
z
" transform="scale(0.015625)"/>
      <path id="DejaVuSans-3a" d="M 750 794 
L 1409 794 
L 1409 0 
L 750 0 
L 750 794 
z
M 750 3309 
L 1409 3309 
L 1409 2516 
L 750 2516 
L 750 3309 
z
" transform="scale(0.015625)"/>
     </defs>
     <use xlink:href="#DejaVuSans-4e"/>
     <use xlink:href="#DejaVuSans-75" x="74.804688"/>
     <use xlink:href="#DejaVuSans-6d" x="138.183594"/>
     <use xlink:href="#DejaVuSans-20" x="235.595703"/>
     <use xlink:href="#DejaVuSans-53" x="267.382812"/>
     <use xlink:href="#DejaVuSans-65" x="330.859375"/>
     <use xlink:href="#DejaVuSans-72" x="392.382812"/>
     <use xlink:href="#DejaVuSans-76" x="433.496094"/>
     <use xlink:href="#DejaVuSans-65" x="492.675781"/>
     <use xlink:href="#DejaVuSans-72" x="554.199219"/>
     <use xlink:href="#DejaVuSans-20" x="595.3125"/>
     <use xlink:href="#DejaVuSans-52" x="627.099609"/>
     <use xlink:href="#DejaVuSans-6f" x="692.082031"/>
     <use xlink:href="#DejaVuSans-75" x="753.263672"/>
     <use xlink:href="#DejaVuSans-6e" x="816.642578"/>
     <use xlink:href="#DejaVuSans-64" x="880.021484"/>
     <use xlink:href="#DejaVuSans-73" x="943.498047"/>
     <use xlink:href="#DejaVuSans-3a" x="995.597656"/>
     <use xlink:href="#DejaVuSans-20" x="1029.289062"/>
     <use xlink:href="#DejaVuSans-31" x="1061.076172"/>
     <use xlink:href="#DejaVuSans-36" x="1124.699219"/>
     <use xlink:href="#DejaVuSans-30" x="1188.322266"/>
     <use xlink:href="#DejaVuSans-30" x="1251.945312"/>
    </g>
    <!-- Local Epochs: 3 -->
    <g transform="translate(73.844 105.26525) scale(0.1 -0.1)">
     <defs>
      <path id="DejaVuSans-4c" d="M 628 4666 
L 1259 4666 
L 1259 531 
L 3531 531 
L 3531 0 
L 628 0 
L 628 4666 
z
" transform="scale(0.015625)"/>
      <path id="DejaVuSans-6c" d="M 603 4863 
L 1178 4863 
L 1178 0 
L 603 0 
L 603 4863 
z
" transform="scale(0.015625)"/>
      <path id="DejaVuSans-45" d="M 628 4666 
L 3578 4666 
L 3578 4134 
L 1259 4134 
L 1259 2753 
L 3481 2753 
L 3481 2222 
L 1259 2222 
L 1259 531 
L 3634 531 
L 3634 0 
L 628 0 
L 628 4666 
z
" transform="scale(0.015625)"/>
      <path id="DejaVuSans-70" d="M 1159 525 
L 1159 -1331 
L 581 -1331 
L 581 3500 
L 1159 3500 
L 1159 2969 
Q 1341 3281 1617 3432 
Q 1894 3584 2278 3584 
Q 2916 3584 3314 3078 
Q 3713 2572 3713 1747 
Q 3713 922 3314 415 
Q 2916 -91 2278 -91 
Q 1894 -91 1617 61 
Q 1341 213 1159 525 
z
M 3116 1747 
Q 3116 2381 2855 2742 
Q 2594 3103 2138 3103 
Q 1681 3103 1420 2742 
Q 1159 2381 1159 1747 
Q 1159 1113 1420 752 
Q 1681 391 2138 391 
Q 2594 391 2855 752 
Q 3116 1113 3116 1747 
z
" transform="scale(0.015625)"/>
      <path id="DejaVuSans-68" d="M 3513 2113 
L 3513 0 
L 2938 0 
L 2938 2094 
Q 2938 2591 2744 2837 
Q 2550 3084 2163 3084 
Q 1697 3084 1428 2787 
Q 1159 2491 1159 1978 
L 1159 0 
L 581 0 
L 581 4863 
L 1159 4863 
L 1159 2956 
Q 1366 3272 1645 3428 
Q 1925 3584 2291 3584 
Q 2894 3584 3203 3211 
Q 3513 2838 3513 2113 
z
" transform="scale(0.015625)"/>
     </defs>
     <use xlink:href="#DejaVuSans-4c"/>
     <use xlink:href="#DejaVuSans-6f" x="53.962891"/>
     <use xlink:href="#DejaVuSans-63" x="115.144531"/>
     <use xlink:href="#DejaVuSans-61" x="170.125"/>
     <use xlink:href="#DejaVuSans-6c" x="231.404297"/>
     <use xlink:href="#DejaVuSans-20" x="259.1875"/>
     <use xlink:href="#DejaVuSans-45" x="290.974609"/>
     <use xlink:href="#DejaVuSans-70" x="354.158203"/>
     <use xlink:href="#DejaVuSans-6f" x="417.634766"/>
     <use xlink:href="#DejaVuSans-63" x="478.816406"/>
     <use xlink:href="#DejaVuSans-68" x="533.796875"/>
     <use xlink:href="#DejaVuSans-73" x="597.175781"/>
     <use xlink:href="#DejaVuSans-3a" x="649.275391"/>
     <use xlink:href="#DejaVuSans-20" x="682.966797"/>
     <use xlink:href="#DejaVuSans-33" x="714.753906"/>
    </g>
    <!-- Num Supernodes: 200 -->
    <g transform="translate(73.844 116.463062) scale(0.1 -0.1)">
     <use xlink:href="#DejaVuSans-4e"/>
     <use xlink:href="#DejaVuSans-75" x="74.804688"/>
     <use xlink:href="#DejaVuSans-6d" x="138.183594"/>
     <use xlink:href="#DejaVuSans-20" x="235.595703"/>
     <use xlink:href="#DejaVuSans-53" x="267.382812"/>
     <use xlink:href="#DejaVuSans-75" x="330.859375"/>
     <use xlink:href="#DejaVuSans-70" x="394.238281"/>
     <use xlink:href="#DejaVuSans-65" x="457.714844"/>
     <use xlink:href="#DejaVuSans-72" x="519.238281"/>
     <use xlink:href="#DejaVuSans-6e" x="558.601562"/>
     <use xlink:href="#DejaVuSans-6f" x="621.980469"/>
     <use xlink:href="#DejaVuSans-64" x="683.162109"/>
     <use xlink:href="#DejaVuSans-65" x="746.638672"/>
     <use xlink:href="#DejaVuSans-73" x="808.162109"/>
     <use xlink:href="#DejaVuSans-3a" x="860.261719"/>
     <use xlink:href="#DejaVuSans-20" x="893.953125"/>
     <use xlink:href="#DejaVuSans-32" x="925.740234"/>
     <use xlink:href="#DejaVuSans-30" x="989.363281"/>
     <use xlink:href="#DejaVuSans-30" x="1052.986328"/>
    </g>
   </g>
   <g id="text_21">
    <!-- Partitioner: iid -->
    <g transform="translate(258.37 56.88) scale(0.16 -0.16)">
     <defs>
      <path id="DejaVuSans-50" d="M 1259 4147 
L 1259 2394 
L 2053 2394 
Q 2494 2394 2734 2622 
Q 2975 2850 2975 3272 
Q 2975 3691 2734 3919 
Q 2494 4147 2053 4147 
L 1259 4147 
z
M 628 4666 
L 2053 4666 
Q 2838 4666 3239 4311 
Q 3641 3956 3641 3272 
Q 3641 2581 3239 2228 
Q 2838 1875 2053 1875 
L 1259 1875 
L 1259 0 
L 628 0 
L 628 4666 
z
" transform="scale(0.015625)"/>
      <path id="DejaVuSans-74" d="M 1172 4494 
L 1172 3500 
L 2356 3500 
L 2356 3053 
L 1172 3053 
L 1172 1153 
Q 1172 725 1289 603 
Q 1406 481 1766 481 
L 2356 481 
L 2356 0 
L 1766 0 
Q 1100 0 847 248 
Q 594 497 594 1153 
L 594 3053 
L 172 3053 
L 172 3500 
L 594 3500 
L 594 4494 
L 1172 4494 
z
" transform="scale(0.015625)"/>
      <path id="DejaVuSans-69" d="M 603 3500 
L 1178 3500 
L 1178 0 
L 603 0 
L 603 3500 
z
M 603 4863 
L 1178 4863 
L 1178 4134 
L 603 4134 
L 603 4863 
z
" transform="scale(0.015625)"/>
     </defs>
     <use xlink:href="#DejaVuSans-50"/>
     <use xlink:href="#DejaVuSans-61" x="55.802734"/>
     <use xlink:href="#DejaVuSans-72" x="117.082031"/>
     <use xlink:href="#DejaVuSans-74" x="158.195312"/>
     <use xlink:href="#DejaVuSans-69" x="197.404297"/>
     <use xlink:href="#DejaVuSans-74" x="225.1875"/>
     <use xlink:href="#DejaVuSans-69" x="264.396484"/>
     <use xlink:href="#DejaVuSans-6f" x="292.179688"/>
     <use xlink:href="#DejaVuSans-6e" x="353.361328"/>
     <use xlink:href="#DejaVuSans-65" x="416.740234"/>
     <use xlink:href="#DejaVuSans-72" x="478.263672"/>
     <use xlink:href="#DejaVuSans-3a" x="517.626953"/>
     <use xlink:href="#DejaVuSans-20" x="551.318359"/>
     <use xlink:href="#DejaVuSans-69" x="583.105469"/>
     <use xlink:href="#DejaVuSans-69" x="610.888672"/>
     <use xlink:href="#DejaVuSans-64" x="638.671875"/>
    </g>
   </g>
   <g id="legend_1">
    <g id="patch_8">
     <path d="M 615.724 115.74875 
L 844.428687 115.74875 
Q 846.428687 115.74875 846.428687 113.74875 
L 846.428687 69.88 
Q 846.428687 67.88 844.428687 67.88 
L 615.724 67.88 
Q 613.724 67.88 613.724 69.88 
L 613.724 113.74875 
Q 613.724 115.74875 615.724 115.74875 
z
" style="fill: #eeeeee; opacity: 0.8; stroke: #cccccc; stroke-width: 0.5; stroke-linejoin: miter"/>
    </g>
    <g id="line2d_38">
     <path d="M 617.724 75.978437 
L 627.724 75.978437 
L 637.724 75.978437 
" style="fill: none; stroke: #348abd; stroke-width: 2; stroke-linecap: square"/>
    </g>
    <g id="text_22">
     <!-- v7\fed_avg-out - accuracy (Spline) -->
     <g transform="translate(645.724 79.478437) scale(0.1 -0.1)">
      <defs>
       <path id="DejaVuSans-37" d="M 525 4666 
L 3525 4666 
L 3525 4397 
L 1831 0 
L 1172 0 
L 2766 4134 
L 525 4134 
L 525 4666 
z
" transform="scale(0.015625)"/>
       <path id="DejaVuSans-5c" d="M 531 4666 
L 2156 -594 
L 1625 -594 
L 0 4666 
L 531 4666 
z
" transform="scale(0.015625)"/>
       <path id="DejaVuSans-66" d="M 2375 4863 
L 2375 4384 
L 1825 4384 
Q 1516 4384 1395 4259 
Q 1275 4134 1275 3809 
L 1275 3500 
L 2222 3500 
L 2222 3053 
L 1275 3053 
L 1275 0 
L 697 0 
L 697 3053 
L 147 3053 
L 147 3500 
L 697 3500 
L 697 3744 
Q 697 4328 969 4595 
Q 1241 4863 1831 4863 
L 2375 4863 
z
" transform="scale(0.015625)"/>
       <path id="DejaVuSans-5f" d="M 3263 -1063 
L 3263 -1509 
L -63 -1509 
L -63 -1063 
L 3263 -1063 
z
" transform="scale(0.015625)"/>
       <path id="DejaVuSans-67" d="M 2906 1791 
Q 2906 2416 2648 2759 
Q 2391 3103 1925 3103 
Q 1463 3103 1205 2759 
Q 947 2416 947 1791 
Q 947 1169 1205 825 
Q 1463 481 1925 481 
Q 2391 481 2648 825 
Q 2906 1169 2906 1791 
z
M 3481 434 
Q 3481 -459 3084 -895 
Q 2688 -1331 1869 -1331 
Q 1566 -1331 1297 -1286 
Q 1028 -1241 775 -1147 
L 775 -588 
Q 1028 -725 1275 -790 
Q 1522 -856 1778 -856 
Q 2344 -856 2625 -561 
Q 2906 -266 2906 331 
L 2906 616 
Q 2728 306 2450 153 
Q 2172 0 1784 0 
Q 1141 0 747 490 
Q 353 981 353 1791 
Q 353 2603 747 3093 
Q 1141 3584 1784 3584 
Q 2172 3584 2450 3431 
Q 2728 3278 2906 2969 
L 2906 3500 
L 3481 3500 
L 3481 434 
z
" transform="scale(0.015625)"/>
       <path id="DejaVuSans-2d" d="M 313 2009 
L 1997 2009 
L 1997 1497 
L 313 1497 
L 313 2009 
z
" transform="scale(0.015625)"/>
       <path id="DejaVuSans-28" d="M 1984 4856 
Q 1566 4138 1362 3434 
Q 1159 2731 1159 2009 
Q 1159 1288 1364 580 
Q 1569 -128 1984 -844 
L 1484 -844 
Q 1016 -109 783 600 
Q 550 1309 550 2009 
Q 550 2706 781 3412 
Q 1013 4119 1484 4856 
L 1984 4856 
z
" transform="scale(0.015625)"/>
       <path id="DejaVuSans-29" d="M 513 4856 
L 1013 4856 
Q 1481 4119 1714 3412 
Q 1947 2706 1947 2009 
Q 1947 1309 1714 600 
Q 1481 -109 1013 -844 
L 513 -844 
Q 928 -128 1133 580 
Q 1338 1288 1338 2009 
Q 1338 2731 1133 3434 
Q 928 4138 513 4856 
z
" transform="scale(0.015625)"/>
      </defs>
      <use xlink:href="#DejaVuSans-76"/>
      <use xlink:href="#DejaVuSans-37" x="59.179688"/>
      <use xlink:href="#DejaVuSans-5c" x="122.802734"/>
      <use xlink:href="#DejaVuSans-66" x="156.494141"/>
      <use xlink:href="#DejaVuSans-65" x="191.699219"/>
      <use xlink:href="#DejaVuSans-64" x="253.222656"/>
      <use xlink:href="#DejaVuSans-5f" x="316.699219"/>
      <use xlink:href="#DejaVuSans-61" x="366.699219"/>
      <use xlink:href="#DejaVuSans-76" x="427.978516"/>
      <use xlink:href="#DejaVuSans-67" x="487.158203"/>
      <use xlink:href="#DejaVuSans-2d" x="550.634766"/>
      <use xlink:href="#DejaVuSans-6f" x="588.59375"/>
      <use xlink:href="#DejaVuSans-75" x="649.775391"/>
      <use xlink:href="#DejaVuSans-74" x="713.154297"/>
      <use xlink:href="#DejaVuSans-20" x="752.363281"/>
      <use xlink:href="#DejaVuSans-2d" x="784.150391"/>
      <use xlink:href="#DejaVuSans-20" x="820.234375"/>
      <use xlink:href="#DejaVuSans-61" x="852.021484"/>
      <use xlink:href="#DejaVuSans-63" x="913.300781"/>
      <use xlink:href="#DejaVuSans-63" x="968.28125"/>
      <use xlink:href="#DejaVuSans-75" x="1023.261719"/>
      <use xlink:href="#DejaVuSans-72" x="1086.640625"/>
      <use xlink:href="#DejaVuSans-61" x="1127.753906"/>
      <use xlink:href="#DejaVuSans-63" x="1189.033203"/>
      <use xlink:href="#DejaVuSans-79" x="1244.013672"/>
      <use xlink:href="#DejaVuSans-20" x="1303.193359"/>
      <use xlink:href="#DejaVuSans-28" x="1334.980469"/>
      <use xlink:href="#DejaVuSans-53" x="1373.994141"/>
      <use xlink:href="#DejaVuSans-70" x="1437.470703"/>
      <use xlink:href="#DejaVuSans-6c" x="1500.947266"/>
      <use xlink:href="#DejaVuSans-69" x="1528.730469"/>
      <use xlink:href="#DejaVuSans-6e" x="1556.513672"/>
      <use xlink:href="#DejaVuSans-65" x="1619.892578"/>
      <use xlink:href="#DejaVuSans-29" x="1681.416016"/>
     </g>
    </g>
    <g id="line2d_39">
     <path d="M 617.724 90.934687 
L 627.724 90.934687 
L 637.724 90.934687 
" style="fill: none; stroke: #a60628; stroke-width: 2; stroke-linecap: square"/>
    </g>
    <g id="text_23">
     <!-- v7\fed_double-out - accuracy (Spline) -->
     <g transform="translate(645.724 94.434687) scale(0.1 -0.1)">
      <defs>
       <path id="DejaVuSans-62" d="M 3116 1747 
Q 3116 2381 2855 2742 
Q 2594 3103 2138 3103 
Q 1681 3103 1420 2742 
Q 1159 2381 1159 1747 
Q 1159 1113 1420 752 
Q 1681 391 2138 391 
Q 2594 391 2855 752 
Q 3116 1113 3116 1747 
z
M 1159 2969 
Q 1341 3281 1617 3432 
Q 1894 3584 2278 3584 
Q 2916 3584 3314 3078 
Q 3713 2572 3713 1747 
Q 3713 922 3314 415 
Q 2916 -91 2278 -91 
Q 1894 -91 1617 61 
Q 1341 213 1159 525 
L 1159 0 
L 581 0 
L 581 4863 
L 1159 4863 
L 1159 2969 
z
" transform="scale(0.015625)"/>
      </defs>
      <use xlink:href="#DejaVuSans-76"/>
      <use xlink:href="#DejaVuSans-37" x="59.179688"/>
      <use xlink:href="#DejaVuSans-5c" x="122.802734"/>
      <use xlink:href="#DejaVuSans-66" x="156.494141"/>
      <use xlink:href="#DejaVuSans-65" x="191.699219"/>
      <use xlink:href="#DejaVuSans-64" x="253.222656"/>
      <use xlink:href="#DejaVuSans-5f" x="316.699219"/>
      <use xlink:href="#DejaVuSans-64" x="366.699219"/>
      <use xlink:href="#DejaVuSans-6f" x="430.175781"/>
      <use xlink:href="#DejaVuSans-75" x="491.357422"/>
      <use xlink:href="#DejaVuSans-62" x="554.736328"/>
      <use xlink:href="#DejaVuSans-6c" x="618.212891"/>
      <use xlink:href="#DejaVuSans-65" x="645.996094"/>
      <use xlink:href="#DejaVuSans-2d" x="707.519531"/>
      <use xlink:href="#DejaVuSans-6f" x="745.478516"/>
      <use xlink:href="#DejaVuSans-75" x="806.660156"/>
      <use xlink:href="#DejaVuSans-74" x="870.039062"/>
      <use xlink:href="#DejaVuSans-20" x="909.248047"/>
      <use xlink:href="#DejaVuSans-2d" x="941.035156"/>
      <use xlink:href="#DejaVuSans-20" x="977.119141"/>
      <use xlink:href="#DejaVuSans-61" x="1008.90625"/>
      <use xlink:href="#DejaVuSans-63" x="1070.185547"/>
      <use xlink:href="#DejaVuSans-63" x="1125.166016"/>
      <use xlink:href="#DejaVuSans-75" x="1180.146484"/>
      <use xlink:href="#DejaVuSans-72" x="1243.525391"/>
      <use xlink:href="#DejaVuSans-61" x="1284.638672"/>
      <use xlink:href="#DejaVuSans-63" x="1345.917969"/>
      <use xlink:href="#DejaVuSans-79" x="1400.898438"/>
      <use xlink:href="#DejaVuSans-20" x="1460.078125"/>
      <use xlink:href="#DejaVuSans-28" x="1491.865234"/>
      <use xlink:href="#DejaVuSans-53" x="1530.878906"/>
      <use xlink:href="#DejaVuSans-70" x="1594.355469"/>
      <use xlink:href="#DejaVuSans-6c" x="1657.832031"/>
      <use xlink:href="#DejaVuSans-69" x="1685.615234"/>
      <use xlink:href="#DejaVuSans-6e" x="1713.398438"/>
      <use xlink:href="#DejaVuSans-65" x="1776.777344"/>
      <use xlink:href="#DejaVuSans-29" x="1838.300781"/>
     </g>
    </g>
    <g id="line2d_40">
     <path d="M 617.724 105.890937 
L 627.724 105.890937 
L 637.724 105.890937 
" style="fill: none; stroke: #7a68a6; stroke-width: 2; stroke-linecap: square"/>
    </g>
    <g id="text_24">
     <!-- v7\fed_variance-out - accuracy (Spline) -->
     <g transform="translate(645.724 109.390937) scale(0.1 -0.1)">
      <use xlink:href="#DejaVuSans-76"/>
      <use xlink:href="#DejaVuSans-37" x="59.179688"/>
      <use xlink:href="#DejaVuSans-5c" x="122.802734"/>
      <use xlink:href="#DejaVuSans-66" x="156.494141"/>
      <use xlink:href="#DejaVuSans-65" x="191.699219"/>
      <use xlink:href="#DejaVuSans-64" x="253.222656"/>
      <use xlink:href="#DejaVuSans-5f" x="316.699219"/>
      <use xlink:href="#DejaVuSans-76" x="366.699219"/>
      <use xlink:href="#DejaVuSans-61" x="425.878906"/>
      <use xlink:href="#DejaVuSans-72" x="487.158203"/>
      <use xlink:href="#DejaVuSans-69" x="528.271484"/>
      <use xlink:href="#DejaVuSans-61" x="556.054688"/>
      <use xlink:href="#DejaVuSans-6e" x="617.333984"/>
      <use xlink:href="#DejaVuSans-63" x="680.712891"/>
      <use xlink:href="#DejaVuSans-65" x="735.693359"/>
      <use xlink:href="#DejaVuSans-2d" x="797.216797"/>
      <use xlink:href="#DejaVuSans-6f" x="835.175781"/>
      <use xlink:href="#DejaVuSans-75" x="896.357422"/>
      <use xlink:href="#DejaVuSans-74" x="959.736328"/>
      <use xlink:href="#DejaVuSans-20" x="998.945312"/>
      <use xlink:href="#DejaVuSans-2d" x="1030.732422"/>
      <use xlink:href="#DejaVuSans-20" x="1066.816406"/>
      <use xlink:href="#DejaVuSans-61" x="1098.603516"/>
      <use xlink:href="#DejaVuSans-63" x="1159.882812"/>
      <use xlink:href="#DejaVuSans-63" x="1214.863281"/>
      <use xlink:href="#DejaVuSans-75" x="1269.84375"/>
      <use xlink:href="#DejaVuSans-72" x="1333.222656"/>
      <use xlink:href="#DejaVuSans-61" x="1374.335938"/>
      <use xlink:href="#DejaVuSans-63" x="1435.615234"/>
      <use xlink:href="#DejaVuSans-79" x="1490.595703"/>
      <use xlink:href="#DejaVuSans-20" x="1549.775391"/>
      <use xlink:href="#DejaVuSans-28" x="1581.5625"/>
      <use xlink:href="#DejaVuSans-53" x="1620.576172"/>
      <use xlink:href="#DejaVuSans-70" x="1684.052734"/>
      <use xlink:href="#DejaVuSans-6c" x="1747.529297"/>
      <use xlink:href="#DejaVuSans-69" x="1775.3125"/>
      <use xlink:href="#DejaVuSans-6e" x="1803.095703"/>
      <use xlink:href="#DejaVuSans-65" x="1866.474609"/>
      <use xlink:href="#DejaVuSans-29" x="1927.998047"/>
     </g>
    </g>
   </g>
  </g>
  <g id="text_25">
   <!-- Accuracy by Round - archive/v7/ -->
   <g transform="translate(238.07625 18.23625) scale(0.24 -0.24)">
    <defs>
     <path id="DejaVuSans-2f" d="M 1625 4666 
L 2156 4666 
L 531 -594 
L 0 -594 
L 1625 4666 
z
" transform="scale(0.015625)"/>
    </defs>
    <use xlink:href="#DejaVuSans-41"/>
    <use xlink:href="#DejaVuSans-63" x="66.658203"/>
    <use xlink:href="#DejaVuSans-63" x="121.638672"/>
    <use xlink:href="#DejaVuSans-75" x="176.619141"/>
    <use xlink:href="#DejaVuSans-72" x="239.998047"/>
    <use xlink:href="#DejaVuSans-61" x="281.111328"/>
    <use xlink:href="#DejaVuSans-63" x="342.390625"/>
    <use xlink:href="#DejaVuSans-79" x="397.371094"/>
    <use xlink:href="#DejaVuSans-20" x="456.550781"/>
    <use xlink:href="#DejaVuSans-62" x="488.337891"/>
    <use xlink:href="#DejaVuSans-79" x="551.814453"/>
    <use xlink:href="#DejaVuSans-20" x="610.994141"/>
    <use xlink:href="#DejaVuSans-52" x="642.78125"/>
    <use xlink:href="#DejaVuSans-6f" x="707.763672"/>
    <use xlink:href="#DejaVuSans-75" x="768.945312"/>
    <use xlink:href="#DejaVuSans-6e" x="832.324219"/>
    <use xlink:href="#DejaVuSans-64" x="895.703125"/>
    <use xlink:href="#DejaVuSans-20" x="959.179688"/>
    <use xlink:href="#DejaVuSans-2d" x="990.966797"/>
    <use xlink:href="#DejaVuSans-20" x="1027.050781"/>
    <use xlink:href="#DejaVuSans-61" x="1058.837891"/>
    <use xlink:href="#DejaVuSans-72" x="1120.117188"/>
    <use xlink:href="#DejaVuSans-63" x="1158.980469"/>
    <use xlink:href="#DejaVuSans-68" x="1213.960938"/>
    <use xlink:href="#DejaVuSans-69" x="1277.339844"/>
    <use xlink:href="#DejaVuSans-76" x="1305.123047"/>
    <use xlink:href="#DejaVuSans-65" x="1364.302734"/>
    <use xlink:href="#DejaVuSans-2f" x="1425.826172"/>
    <use xlink:href="#DejaVuSans-76" x="1459.517578"/>
    <use xlink:href="#DejaVuSans-37" x="1518.697266"/>
    <use xlink:href="#DejaVuSans-2f" x="1582.320312"/>
   </g>
  </g>
 </g>
 <defs>
  <clipPath id="p9fc3954a82">
   <rect x="47.1" y="62.88" width="534.88" height="471.78"/>
  </clipPath>
 </defs>
</svg>
