<?xml version="1.0" encoding="utf-8" standalone="no"?>
<!DOCTYPE svg PUBLIC "-//W3C//DTD SVG 1.1//EN"
  "http://www.w3.org/Graphics/SVG/1.1/DTD/svg11.dtd">
<svg xmlns:xlink="http://www.w3.org/1999/xlink" width="864pt" height="576pt" viewBox="0 0 864 576" xmlns="http://www.w3.org/2000/svg" version="1.1">
 <metadata>
  <rdf:RDF xmlns:dc="http://purl.org/dc/elements/1.1/" xmlns:cc="http://creativecommons.org/ns#" xmlns:rdf="http://www.w3.org/1999/02/22-rdf-syntax-ns#">
   <cc:Work>
    <dc:type rdf:resource="http://purl.org/dc/dcmitype/StillImage"/>
    <dc:date>2024-10-16T01:00:41.373248</dc:date>
    <dc:format>image/svg+xml</dc:format>
    <dc:creator>
     <cc:Agent>
      <dc:title>Matplotlib v3.9.2, https://matplotlib.org/</dc:title>
     </cc:Agent>
    </dc:creator>
   </cc:Work>
  </rdf:RDF>
 </metadata>
 <defs>
  <style type="text/css">*{stroke-linejoin: round; stroke-linecap: butt}</style>
 </defs>
 <g id="figure_1">
  <g id="patch_1">
   <path d="M 0 576 
L 864 576 
L 864 0 
L 0 0 
z
" style="fill: #ffffff"/>
  </g>
  <g id="axes_1">
   <g id="patch_2">
    <path d="M 59.7 534.66 
L 604.66 534.66 
L 604.66 27.6 
L 59.7 27.6 
z
" style="fill: #eeeeee"/>
   </g>
   <g id="matplotlib.axis_1">
    <g id="xtick_1">
     <g id="line2d_1">
      <path d="M 84.470909 534.66 
L 84.470909 27.6 
" clip-path="url(#p64bc9a1dd2)" style="fill: none; stroke-dasharray: 1.85,0.8; stroke-dashoffset: 0; stroke: #b2b2b2; stroke-width: 0.5"/>
     </g>
     <g id="line2d_2">
      <defs>
       <path id="m21a654e9a6" d="M 0 0 
L 0 -3.5 
" style="stroke: #000000; stroke-width: 0.8"/>
      </defs>
      <g>
       <use xlink:href="#m21a654e9a6" x="84.470909" y="534.66" style="stroke: #000000; stroke-width: 0.8"/>
      </g>
     </g>
     <g id="text_1">
      <!-- 1 -->
      <g transform="translate(81.289659 545.758438) scale(0.1 -0.1)">
       <defs>
        <path id="DejaVuSans-31" d="M 794 531 
L 1825 531 
L 1825 4091 
L 703 3866 
L 703 4441 
L 1819 4666 
L 2450 4666 
L 2450 531 
L 3481 531 
L 3481 0 
L 794 0 
L 794 531 
z
" transform="scale(0.015625)"/>
       </defs>
       <use xlink:href="#DejaVuSans-31"/>
      </g>
     </g>
    </g>
    <g id="xtick_2">
     <g id="line2d_3">
      <path d="M 132.895243 534.66 
L 132.895243 27.6 
" clip-path="url(#p64bc9a1dd2)" style="fill: none; stroke-dasharray: 1.85,0.8; stroke-dashoffset: 0; stroke: #b2b2b2; stroke-width: 0.5"/>
     </g>
     <g id="line2d_4">
      <g>
       <use xlink:href="#m21a654e9a6" x="132.895243" y="534.66" style="stroke: #000000; stroke-width: 0.8"/>
      </g>
     </g>
     <g id="text_2">
      <!-- 40 -->
      <g transform="translate(126.532743 545.758438) scale(0.1 -0.1)">
       <defs>
        <path id="DejaVuSans-34" d="M 2419 4116 
L 825 1625 
L 2419 1625 
L 2419 4116 
z
M 2253 4666 
L 3047 4666 
L 3047 1625 
L 3713 1625 
L 3713 1100 
L 3047 1100 
L 3047 0 
L 2419 0 
L 2419 1100 
L 313 1100 
L 313 1709 
L 2253 4666 
z
" transform="scale(0.015625)"/>
        <path id="DejaVuSans-30" d="M 2034 4250 
Q 1547 4250 1301 3770 
Q 1056 3291 1056 2328 
Q 1056 1369 1301 889 
Q 1547 409 2034 409 
Q 2525 409 2770 889 
Q 3016 1369 3016 2328 
Q 3016 3291 2770 3770 
Q 2525 4250 2034 4250 
z
M 2034 4750 
Q 2819 4750 3233 4129 
Q 3647 3509 3647 2328 
Q 3647 1150 3233 529 
Q 2819 -91 2034 -91 
Q 1250 -91 836 529 
Q 422 1150 422 2328 
Q 422 3509 836 4129 
Q 1250 4750 2034 4750 
z
" transform="scale(0.015625)"/>
       </defs>
       <use xlink:href="#DejaVuSans-34"/>
       <use xlink:href="#DejaVuSans-30" x="63.623047"/>
      </g>
     </g>
    </g>
    <g id="xtick_3">
     <g id="line2d_5">
      <path d="M 182.561226 534.66 
L 182.561226 27.6 
" clip-path="url(#p64bc9a1dd2)" style="fill: none; stroke-dasharray: 1.85,0.8; stroke-dashoffset: 0; stroke: #b2b2b2; stroke-width: 0.5"/>
     </g>
     <g id="line2d_6">
      <g>
       <use xlink:href="#m21a654e9a6" x="182.561226" y="534.66" style="stroke: #000000; stroke-width: 0.8"/>
      </g>
     </g>
     <g id="text_3">
      <!-- 80 -->
      <g transform="translate(176.198726 545.758438) scale(0.1 -0.1)">
       <defs>
        <path id="DejaVuSans-38" d="M 2034 2216 
Q 1584 2216 1326 1975 
Q 1069 1734 1069 1313 
Q 1069 891 1326 650 
Q 1584 409 2034 409 
Q 2484 409 2743 651 
Q 3003 894 3003 1313 
Q 3003 1734 2745 1975 
Q 2488 2216 2034 2216 
z
M 1403 2484 
Q 997 2584 770 2862 
Q 544 3141 544 3541 
Q 544 4100 942 4425 
Q 1341 4750 2034 4750 
Q 2731 4750 3128 4425 
Q 3525 4100 3525 3541 
Q 3525 3141 3298 2862 
Q 3072 2584 2669 2484 
Q 3125 2378 3379 2068 
Q 3634 1759 3634 1313 
Q 3634 634 3220 271 
Q 2806 -91 2034 -91 
Q 1263 -91 848 271 
Q 434 634 434 1313 
Q 434 1759 690 2068 
Q 947 2378 1403 2484 
z
M 1172 3481 
Q 1172 3119 1398 2916 
Q 1625 2713 2034 2713 
Q 2441 2713 2670 2916 
Q 2900 3119 2900 3481 
Q 2900 3844 2670 4047 
Q 2441 4250 2034 4250 
Q 1625 4250 1398 4047 
Q 1172 3844 1172 3481 
z
" transform="scale(0.015625)"/>
       </defs>
       <use xlink:href="#DejaVuSans-38"/>
       <use xlink:href="#DejaVuSans-30" x="63.623047"/>
      </g>
     </g>
    </g>
    <g id="xtick_4">
     <g id="line2d_7">
      <path d="M 232.227209 534.66 
L 232.227209 27.6 
" clip-path="url(#p64bc9a1dd2)" style="fill: none; stroke-dasharray: 1.85,0.8; stroke-dashoffset: 0; stroke: #b2b2b2; stroke-width: 0.5"/>
     </g>
     <g id="line2d_8">
      <g>
       <use xlink:href="#m21a654e9a6" x="232.227209" y="534.66" style="stroke: #000000; stroke-width: 0.8"/>
      </g>
     </g>
     <g id="text_4">
      <!-- 120 -->
      <g transform="translate(222.683459 545.758438) scale(0.1 -0.1)">
       <defs>
        <path id="DejaVuSans-32" d="M 1228 531 
L 3431 531 
L 3431 0 
L 469 0 
L 469 531 
Q 828 903 1448 1529 
Q 2069 2156 2228 2338 
Q 2531 2678 2651 2914 
Q 2772 3150 2772 3378 
Q 2772 3750 2511 3984 
Q 2250 4219 1831 4219 
Q 1534 4219 1204 4116 
Q 875 4013 500 3803 
L 500 4441 
Q 881 4594 1212 4672 
Q 1544 4750 1819 4750 
Q 2544 4750 2975 4387 
Q 3406 4025 3406 3419 
Q 3406 3131 3298 2873 
Q 3191 2616 2906 2266 
Q 2828 2175 2409 1742 
Q 1991 1309 1228 531 
z
" transform="scale(0.015625)"/>
       </defs>
       <use xlink:href="#DejaVuSans-31"/>
       <use xlink:href="#DejaVuSans-32" x="63.623047"/>
       <use xlink:href="#DejaVuSans-30" x="127.246094"/>
      </g>
     </g>
    </g>
    <g id="xtick_5">
     <g id="line2d_9">
      <path d="M 281.893192 534.66 
L 281.893192 27.6 
" clip-path="url(#p64bc9a1dd2)" style="fill: none; stroke-dasharray: 1.85,0.8; stroke-dashoffset: 0; stroke: #b2b2b2; stroke-width: 0.5"/>
     </g>
     <g id="line2d_10">
      <g>
       <use xlink:href="#m21a654e9a6" x="281.893192" y="534.66" style="stroke: #000000; stroke-width: 0.8"/>
      </g>
     </g>
     <g id="text_5">
      <!-- 160 -->
      <g transform="translate(272.349442 545.758438) scale(0.1 -0.1)">
       <defs>
        <path id="DejaVuSans-36" d="M 2113 2584 
Q 1688 2584 1439 2293 
Q 1191 2003 1191 1497 
Q 1191 994 1439 701 
Q 1688 409 2113 409 
Q 2538 409 2786 701 
Q 3034 994 3034 1497 
Q 3034 2003 2786 2293 
Q 2538 2584 2113 2584 
z
M 3366 4563 
L 3366 3988 
Q 3128 4100 2886 4159 
Q 2644 4219 2406 4219 
Q 1781 4219 1451 3797 
Q 1122 3375 1075 2522 
Q 1259 2794 1537 2939 
Q 1816 3084 2150 3084 
Q 2853 3084 3261 2657 
Q 3669 2231 3669 1497 
Q 3669 778 3244 343 
Q 2819 -91 2113 -91 
Q 1303 -91 875 529 
Q 447 1150 447 2328 
Q 447 3434 972 4092 
Q 1497 4750 2381 4750 
Q 2619 4750 2861 4703 
Q 3103 4656 3366 4563 
z
" transform="scale(0.015625)"/>
       </defs>
       <use xlink:href="#DejaVuSans-31"/>
       <use xlink:href="#DejaVuSans-36" x="63.623047"/>
       <use xlink:href="#DejaVuSans-30" x="127.246094"/>
      </g>
     </g>
    </g>
    <g id="xtick_6">
     <g id="line2d_11">
      <path d="M 331.559175 534.66 
L 331.559175 27.6 
" clip-path="url(#p64bc9a1dd2)" style="fill: none; stroke-dasharray: 1.85,0.8; stroke-dashoffset: 0; stroke: #b2b2b2; stroke-width: 0.5"/>
     </g>
     <g id="line2d_12">
      <g>
       <use xlink:href="#m21a654e9a6" x="331.559175" y="534.66" style="stroke: #000000; stroke-width: 0.8"/>
      </g>
     </g>
     <g id="text_6">
      <!-- 200 -->
      <g transform="translate(322.015425 545.758438) scale(0.1 -0.1)">
       <use xlink:href="#DejaVuSans-32"/>
       <use xlink:href="#DejaVuSans-30" x="63.623047"/>
       <use xlink:href="#DejaVuSans-30" x="127.246094"/>
      </g>
     </g>
    </g>
    <g id="xtick_7">
     <g id="line2d_13">
      <path d="M 381.225158 534.66 
L 381.225158 27.6 
" clip-path="url(#p64bc9a1dd2)" style="fill: none; stroke-dasharray: 1.85,0.8; stroke-dashoffset: 0; stroke: #b2b2b2; stroke-width: 0.5"/>
     </g>
     <g id="line2d_14">
      <g>
       <use xlink:href="#m21a654e9a6" x="381.225158" y="534.66" style="stroke: #000000; stroke-width: 0.8"/>
      </g>
     </g>
     <g id="text_7">
      <!-- 240 -->
      <g transform="translate(371.681408 545.758438) scale(0.1 -0.1)">
       <use xlink:href="#DejaVuSans-32"/>
       <use xlink:href="#DejaVuSans-34" x="63.623047"/>
       <use xlink:href="#DejaVuSans-30" x="127.246094"/>
      </g>
     </g>
    </g>
    <g id="xtick_8">
     <g id="line2d_15">
      <path d="M 430.891141 534.66 
L 430.891141 27.6 
" clip-path="url(#p64bc9a1dd2)" style="fill: none; stroke-dasharray: 1.85,0.8; stroke-dashoffset: 0; stroke: #b2b2b2; stroke-width: 0.5"/>
     </g>
     <g id="line2d_16">
      <g>
       <use xlink:href="#m21a654e9a6" x="430.891141" y="534.66" style="stroke: #000000; stroke-width: 0.8"/>
      </g>
     </g>
     <g id="text_8">
      <!-- 280 -->
      <g transform="translate(421.347391 545.758438) scale(0.1 -0.1)">
       <use xlink:href="#DejaVuSans-32"/>
       <use xlink:href="#DejaVuSans-38" x="63.623047"/>
       <use xlink:href="#DejaVuSans-30" x="127.246094"/>
      </g>
     </g>
    </g>
    <g id="xtick_9">
     <g id="line2d_17">
      <path d="M 480.557125 534.66 
L 480.557125 27.6 
" clip-path="url(#p64bc9a1dd2)" style="fill: none; stroke-dasharray: 1.85,0.8; stroke-dashoffset: 0; stroke: #b2b2b2; stroke-width: 0.5"/>
     </g>
     <g id="line2d_18">
      <g>
       <use xlink:href="#m21a654e9a6" x="480.557125" y="534.66" style="stroke: #000000; stroke-width: 0.8"/>
      </g>
     </g>
     <g id="text_9">
      <!-- 320 -->
      <g transform="translate(471.013375 545.758438) scale(0.1 -0.1)">
       <defs>
        <path id="DejaVuSans-33" d="M 2597 2516 
Q 3050 2419 3304 2112 
Q 3559 1806 3559 1356 
Q 3559 666 3084 287 
Q 2609 -91 1734 -91 
Q 1441 -91 1130 -33 
Q 819 25 488 141 
L 488 750 
Q 750 597 1062 519 
Q 1375 441 1716 441 
Q 2309 441 2620 675 
Q 2931 909 2931 1356 
Q 2931 1769 2642 2001 
Q 2353 2234 1838 2234 
L 1294 2234 
L 1294 2753 
L 1863 2753 
Q 2328 2753 2575 2939 
Q 2822 3125 2822 3475 
Q 2822 3834 2567 4026 
Q 2313 4219 1838 4219 
Q 1578 4219 1281 4162 
Q 984 4106 628 3988 
L 628 4550 
Q 988 4650 1302 4700 
Q 1616 4750 1894 4750 
Q 2613 4750 3031 4423 
Q 3450 4097 3450 3541 
Q 3450 3153 3228 2886 
Q 3006 2619 2597 2516 
z
" transform="scale(0.015625)"/>
       </defs>
       <use xlink:href="#DejaVuSans-33"/>
       <use xlink:href="#DejaVuSans-32" x="63.623047"/>
       <use xlink:href="#DejaVuSans-30" x="127.246094"/>
      </g>
     </g>
    </g>
    <g id="xtick_10">
     <g id="line2d_19">
      <path d="M 530.223108 534.66 
L 530.223108 27.6 
" clip-path="url(#p64bc9a1dd2)" style="fill: none; stroke-dasharray: 1.85,0.8; stroke-dashoffset: 0; stroke: #b2b2b2; stroke-width: 0.5"/>
     </g>
     <g id="line2d_20">
      <g>
       <use xlink:href="#m21a654e9a6" x="530.223108" y="534.66" style="stroke: #000000; stroke-width: 0.8"/>
      </g>
     </g>
     <g id="text_10">
      <!-- 360 -->
      <g transform="translate(520.679358 545.758438) scale(0.1 -0.1)">
       <use xlink:href="#DejaVuSans-33"/>
       <use xlink:href="#DejaVuSans-36" x="63.623047"/>
       <use xlink:href="#DejaVuSans-30" x="127.246094"/>
      </g>
     </g>
    </g>
    <g id="xtick_11">
     <g id="line2d_21">
      <path d="M 579.889091 534.66 
L 579.889091 27.6 
" clip-path="url(#p64bc9a1dd2)" style="fill: none; stroke-dasharray: 1.85,0.8; stroke-dashoffset: 0; stroke: #b2b2b2; stroke-width: 0.5"/>
     </g>
     <g id="line2d_22">
      <g>
       <use xlink:href="#m21a654e9a6" x="579.889091" y="534.66" style="stroke: #000000; stroke-width: 0.8"/>
      </g>
     </g>
     <g id="text_11">
      <!-- 400 -->
      <g transform="translate(570.345341 545.758438) scale(0.1 -0.1)">
       <use xlink:href="#DejaVuSans-34"/>
       <use xlink:href="#DejaVuSans-30" x="63.623047"/>
       <use xlink:href="#DejaVuSans-30" x="127.246094"/>
      </g>
     </g>
    </g>
    <g id="text_12">
     <!-- Round -->
     <g transform="translate(313.195625 560.95625) scale(0.12 -0.12)">
      <defs>
       <path id="DejaVuSans-52" d="M 2841 2188 
Q 3044 2119 3236 1894 
Q 3428 1669 3622 1275 
L 4263 0 
L 3584 0 
L 2988 1197 
Q 2756 1666 2539 1819 
Q 2322 1972 1947 1972 
L 1259 1972 
L 1259 0 
L 628 0 
L 628 4666 
L 2053 4666 
Q 2853 4666 3247 4331 
Q 3641 3997 3641 3322 
Q 3641 2881 3436 2590 
Q 3231 2300 2841 2188 
z
M 1259 4147 
L 1259 2491 
L 2053 2491 
Q 2509 2491 2742 2702 
Q 2975 2913 2975 3322 
Q 2975 3731 2742 3939 
Q 2509 4147 2053 4147 
L 1259 4147 
z
" transform="scale(0.015625)"/>
       <path id="DejaVuSans-6f" d="M 1959 3097 
Q 1497 3097 1228 2736 
Q 959 2375 959 1747 
Q 959 1119 1226 758 
Q 1494 397 1959 397 
Q 2419 397 2687 759 
Q 2956 1122 2956 1747 
Q 2956 2369 2687 2733 
Q 2419 3097 1959 3097 
z
M 1959 3584 
Q 2709 3584 3137 3096 
Q 3566 2609 3566 1747 
Q 3566 888 3137 398 
Q 2709 -91 1959 -91 
Q 1206 -91 779 398 
Q 353 888 353 1747 
Q 353 2609 779 3096 
Q 1206 3584 1959 3584 
z
" transform="scale(0.015625)"/>
       <path id="DejaVuSans-75" d="M 544 1381 
L 544 3500 
L 1119 3500 
L 1119 1403 
Q 1119 906 1312 657 
Q 1506 409 1894 409 
Q 2359 409 2629 706 
Q 2900 1003 2900 1516 
L 2900 3500 
L 3475 3500 
L 3475 0 
L 2900 0 
L 2900 538 
Q 2691 219 2414 64 
Q 2138 -91 1772 -91 
Q 1169 -91 856 284 
Q 544 659 544 1381 
z
M 1991 3584 
L 1991 3584 
z
" transform="scale(0.015625)"/>
       <path id="DejaVuSans-6e" d="M 3513 2113 
L 3513 0 
L 2938 0 
L 2938 2094 
Q 2938 2591 2744 2837 
Q 2550 3084 2163 3084 
Q 1697 3084 1428 2787 
Q 1159 2491 1159 1978 
L 1159 0 
L 581 0 
L 581 3500 
L 1159 3500 
L 1159 2956 
Q 1366 3272 1645 3428 
Q 1925 3584 2291 3584 
Q 2894 3584 3203 3211 
Q 3513 2838 3513 2113 
z
" transform="scale(0.015625)"/>
       <path id="DejaVuSans-64" d="M 2906 2969 
L 2906 4863 
L 3481 4863 
L 3481 0 
L 2906 0 
L 2906 525 
Q 2725 213 2448 61 
Q 2172 -91 1784 -91 
Q 1150 -91 751 415 
Q 353 922 353 1747 
Q 353 2572 751 3078 
Q 1150 3584 1784 3584 
Q 2172 3584 2448 3432 
Q 2725 3281 2906 2969 
z
M 947 1747 
Q 947 1113 1208 752 
Q 1469 391 1925 391 
Q 2381 391 2643 752 
Q 2906 1113 2906 1747 
Q 2906 2381 2643 2742 
Q 2381 3103 1925 3103 
Q 1469 3103 1208 2742 
Q 947 2381 947 1747 
z
" transform="scale(0.015625)"/>
      </defs>
      <use xlink:href="#DejaVuSans-52"/>
      <use xlink:href="#DejaVuSans-6f" x="64.982422"/>
      <use xlink:href="#DejaVuSans-75" x="126.164062"/>
      <use xlink:href="#DejaVuSans-6e" x="189.542969"/>
      <use xlink:href="#DejaVuSans-64" x="252.921875"/>
     </g>
    </g>
   </g>
   <g id="matplotlib.axis_2">
    <g id="ytick_1">
     <g id="line2d_23">
      <path d="M 59.7 518.415694 
L 604.66 518.415694 
" clip-path="url(#p64bc9a1dd2)" style="fill: none; stroke-dasharray: 1.85,0.8; stroke-dashoffset: 0; stroke: #b2b2b2; stroke-width: 0.5"/>
     </g>
     <g id="line2d_24">
      <defs>
       <path id="mcc674b83e3" d="M 0 0 
L 3.5 0 
" style="stroke: #000000; stroke-width: 0.8"/>
      </defs>
      <g>
       <use xlink:href="#mcc674b83e3" x="59.7" y="518.415694" style="stroke: #000000; stroke-width: 0.8"/>
      </g>
     </g>
     <g id="text_13">
      <!-- 0.050 -->
      <g transform="translate(27.571875 522.214913) scale(0.1 -0.1)">
       <defs>
        <path id="DejaVuSans-2e" d="M 684 794 
L 1344 794 
L 1344 0 
L 684 0 
L 684 794 
z
" transform="scale(0.015625)"/>
        <path id="DejaVuSans-35" d="M 691 4666 
L 3169 4666 
L 3169 4134 
L 1269 4134 
L 1269 2991 
Q 1406 3038 1543 3061 
Q 1681 3084 1819 3084 
Q 2600 3084 3056 2656 
Q 3513 2228 3513 1497 
Q 3513 744 3044 326 
Q 2575 -91 1722 -91 
Q 1428 -91 1123 -41 
Q 819 9 494 109 
L 494 744 
Q 775 591 1075 516 
Q 1375 441 1709 441 
Q 2250 441 2565 725 
Q 2881 1009 2881 1497 
Q 2881 1984 2565 2268 
Q 2250 2553 1709 2553 
Q 1456 2553 1204 2497 
Q 953 2441 691 2322 
L 691 4666 
z
" transform="scale(0.015625)"/>
       </defs>
       <use xlink:href="#DejaVuSans-30"/>
       <use xlink:href="#DejaVuSans-2e" x="63.623047"/>
       <use xlink:href="#DejaVuSans-30" x="95.410156"/>
       <use xlink:href="#DejaVuSans-35" x="159.033203"/>
       <use xlink:href="#DejaVuSans-30" x="222.65625"/>
      </g>
     </g>
    </g>
    <g id="ytick_2">
     <g id="line2d_25">
      <path d="M 59.7 458.257676 
L 604.66 458.257676 
" clip-path="url(#p64bc9a1dd2)" style="fill: none; stroke-dasharray: 1.85,0.8; stroke-dashoffset: 0; stroke: #b2b2b2; stroke-width: 0.5"/>
     </g>
     <g id="line2d_26">
      <g>
       <use xlink:href="#mcc674b83e3" x="59.7" y="458.257676" style="stroke: #000000; stroke-width: 0.8"/>
      </g>
     </g>
     <g id="text_14">
      <!-- 0.075 -->
      <g transform="translate(27.571875 462.056894) scale(0.1 -0.1)">
       <defs>
        <path id="DejaVuSans-37" d="M 525 4666 
L 3525 4666 
L 3525 4397 
L 1831 0 
L 1172 0 
L 2766 4134 
L 525 4134 
L 525 4666 
z
" transform="scale(0.015625)"/>
       </defs>
       <use xlink:href="#DejaVuSans-30"/>
       <use xlink:href="#DejaVuSans-2e" x="63.623047"/>
       <use xlink:href="#DejaVuSans-30" x="95.410156"/>
       <use xlink:href="#DejaVuSans-37" x="159.033203"/>
       <use xlink:href="#DejaVuSans-35" x="222.65625"/>
      </g>
     </g>
    </g>
    <g id="ytick_3">
     <g id="line2d_27">
      <path d="M 59.7 398.099657 
L 604.66 398.099657 
" clip-path="url(#p64bc9a1dd2)" style="fill: none; stroke-dasharray: 1.85,0.8; stroke-dashoffset: 0; stroke: #b2b2b2; stroke-width: 0.5"/>
     </g>
     <g id="line2d_28">
      <g>
       <use xlink:href="#mcc674b83e3" x="59.7" y="398.099657" style="stroke: #000000; stroke-width: 0.8"/>
      </g>
     </g>
     <g id="text_15">
      <!-- 0.100 -->
      <g transform="translate(27.571875 401.898876) scale(0.1 -0.1)">
       <use xlink:href="#DejaVuSans-30"/>
       <use xlink:href="#DejaVuSans-2e" x="63.623047"/>
       <use xlink:href="#DejaVuSans-31" x="95.410156"/>
       <use xlink:href="#DejaVuSans-30" x="159.033203"/>
       <use xlink:href="#DejaVuSans-30" x="222.65625"/>
      </g>
     </g>
    </g>
    <g id="ytick_4">
     <g id="line2d_29">
      <path d="M 59.7 337.941638 
L 604.66 337.941638 
" clip-path="url(#p64bc9a1dd2)" style="fill: none; stroke-dasharray: 1.85,0.8; stroke-dashoffset: 0; stroke: #b2b2b2; stroke-width: 0.5"/>
     </g>
     <g id="line2d_30">
      <g>
       <use xlink:href="#mcc674b83e3" x="59.7" y="337.941638" style="stroke: #000000; stroke-width: 0.8"/>
      </g>
     </g>
     <g id="text_16">
      <!-- 0.125 -->
      <g transform="translate(27.571875 341.740857) scale(0.1 -0.1)">
       <use xlink:href="#DejaVuSans-30"/>
       <use xlink:href="#DejaVuSans-2e" x="63.623047"/>
       <use xlink:href="#DejaVuSans-31" x="95.410156"/>
       <use xlink:href="#DejaVuSans-32" x="159.033203"/>
       <use xlink:href="#DejaVuSans-35" x="222.65625"/>
      </g>
     </g>
    </g>
    <g id="ytick_5">
     <g id="line2d_31">
      <path d="M 59.7 277.783619 
L 604.66 277.783619 
" clip-path="url(#p64bc9a1dd2)" style="fill: none; stroke-dasharray: 1.85,0.8; stroke-dashoffset: 0; stroke: #b2b2b2; stroke-width: 0.5"/>
     </g>
     <g id="line2d_32">
      <g>
       <use xlink:href="#mcc674b83e3" x="59.7" y="277.783619" style="stroke: #000000; stroke-width: 0.8"/>
      </g>
     </g>
     <g id="text_17">
      <!-- 0.150 -->
      <g transform="translate(27.571875 281.582838) scale(0.1 -0.1)">
       <use xlink:href="#DejaVuSans-30"/>
       <use xlink:href="#DejaVuSans-2e" x="63.623047"/>
       <use xlink:href="#DejaVuSans-31" x="95.410156"/>
       <use xlink:href="#DejaVuSans-35" x="159.033203"/>
       <use xlink:href="#DejaVuSans-30" x="222.65625"/>
      </g>
     </g>
    </g>
    <g id="ytick_6">
     <g id="line2d_33">
      <path d="M 59.7 217.625601 
L 604.66 217.625601 
" clip-path="url(#p64bc9a1dd2)" style="fill: none; stroke-dasharray: 1.85,0.8; stroke-dashoffset: 0; stroke: #b2b2b2; stroke-width: 0.5"/>
     </g>
     <g id="line2d_34">
      <g>
       <use xlink:href="#mcc674b83e3" x="59.7" y="217.625601" style="stroke: #000000; stroke-width: 0.8"/>
      </g>
     </g>
     <g id="text_18">
      <!-- 0.175 -->
      <g transform="translate(27.571875 221.424819) scale(0.1 -0.1)">
       <use xlink:href="#DejaVuSans-30"/>
       <use xlink:href="#DejaVuSans-2e" x="63.623047"/>
       <use xlink:href="#DejaVuSans-31" x="95.410156"/>
       <use xlink:href="#DejaVuSans-37" x="159.033203"/>
       <use xlink:href="#DejaVuSans-35" x="222.65625"/>
      </g>
     </g>
    </g>
    <g id="ytick_7">
     <g id="line2d_35">
      <path d="M 59.7 157.467582 
L 604.66 157.467582 
" clip-path="url(#p64bc9a1dd2)" style="fill: none; stroke-dasharray: 1.85,0.8; stroke-dashoffset: 0; stroke: #b2b2b2; stroke-width: 0.5"/>
     </g>
     <g id="line2d_36">
      <g>
       <use xlink:href="#mcc674b83e3" x="59.7" y="157.467582" style="stroke: #000000; stroke-width: 0.8"/>
      </g>
     </g>
     <g id="text_19">
      <!-- 0.200 -->
      <g transform="translate(27.571875 161.266801) scale(0.1 -0.1)">
       <use xlink:href="#DejaVuSans-30"/>
       <use xlink:href="#DejaVuSans-2e" x="63.623047"/>
       <use xlink:href="#DejaVuSans-32" x="95.410156"/>
       <use xlink:href="#DejaVuSans-30" x="159.033203"/>
       <use xlink:href="#DejaVuSans-30" x="222.65625"/>
      </g>
     </g>
    </g>
    <g id="ytick_8">
     <g id="line2d_37">
      <path d="M 59.7 97.309563 
L 604.66 97.309563 
" clip-path="url(#p64bc9a1dd2)" style="fill: none; stroke-dasharray: 1.85,0.8; stroke-dashoffset: 0; stroke: #b2b2b2; stroke-width: 0.5"/>
     </g>
     <g id="line2d_38">
      <g>
       <use xlink:href="#mcc674b83e3" x="59.7" y="97.309563" style="stroke: #000000; stroke-width: 0.8"/>
      </g>
     </g>
     <g id="text_20">
      <!-- 0.225 -->
      <g transform="translate(27.571875 101.108782) scale(0.1 -0.1)">
       <use xlink:href="#DejaVuSans-30"/>
       <use xlink:href="#DejaVuSans-2e" x="63.623047"/>
       <use xlink:href="#DejaVuSans-32" x="95.410156"/>
       <use xlink:href="#DejaVuSans-32" x="159.033203"/>
       <use xlink:href="#DejaVuSans-35" x="222.65625"/>
      </g>
     </g>
    </g>
    <g id="ytick_9">
     <g id="line2d_39">
      <path d="M 59.7 37.151544 
L 604.66 37.151544 
" clip-path="url(#p64bc9a1dd2)" style="fill: none; stroke-dasharray: 1.85,0.8; stroke-dashoffset: 0; stroke: #b2b2b2; stroke-width: 0.5"/>
     </g>
     <g id="line2d_40">
      <g>
       <use xlink:href="#mcc674b83e3" x="59.7" y="37.151544" style="stroke: #000000; stroke-width: 0.8"/>
      </g>
     </g>
     <g id="text_21">
      <!-- 0.250 -->
      <g transform="translate(27.571875 40.950763) scale(0.1 -0.1)">
       <use xlink:href="#DejaVuSans-30"/>
       <use xlink:href="#DejaVuSans-2e" x="63.623047"/>
       <use xlink:href="#DejaVuSans-32" x="95.410156"/>
       <use xlink:href="#DejaVuSans-35" x="159.033203"/>
       <use xlink:href="#DejaVuSans-30" x="222.65625"/>
      </g>
     </g>
    </g>
    <g id="text_22">
     <!-- Accuracy -->
     <g transform="translate(21.07625 308.52375) rotate(-90) scale(0.12 -0.12)">
      <defs>
       <path id="DejaVuSans-41" d="M 2188 4044 
L 1331 1722 
L 3047 1722 
L 2188 4044 
z
M 1831 4666 
L 2547 4666 
L 4325 0 
L 3669 0 
L 3244 1197 
L 1141 1197 
L 716 0 
L 50 0 
L 1831 4666 
z
" transform="scale(0.015625)"/>
       <path id="DejaVuSans-63" d="M 3122 3366 
L 3122 2828 
Q 2878 2963 2633 3030 
Q 2388 3097 2138 3097 
Q 1578 3097 1268 2742 
Q 959 2388 959 1747 
Q 959 1106 1268 751 
Q 1578 397 2138 397 
Q 2388 397 2633 464 
Q 2878 531 3122 666 
L 3122 134 
Q 2881 22 2623 -34 
Q 2366 -91 2075 -91 
Q 1284 -91 818 406 
Q 353 903 353 1747 
Q 353 2603 823 3093 
Q 1294 3584 2113 3584 
Q 2378 3584 2631 3529 
Q 2884 3475 3122 3366 
z
" transform="scale(0.015625)"/>
       <path id="DejaVuSans-72" d="M 2631 2963 
Q 2534 3019 2420 3045 
Q 2306 3072 2169 3072 
Q 1681 3072 1420 2755 
Q 1159 2438 1159 1844 
L 1159 0 
L 581 0 
L 581 3500 
L 1159 3500 
L 1159 2956 
Q 1341 3275 1631 3429 
Q 1922 3584 2338 3584 
Q 2397 3584 2469 3576 
Q 2541 3569 2628 3553 
L 2631 2963 
z
" transform="scale(0.015625)"/>
       <path id="DejaVuSans-61" d="M 2194 1759 
Q 1497 1759 1228 1600 
Q 959 1441 959 1056 
Q 959 750 1161 570 
Q 1363 391 1709 391 
Q 2188 391 2477 730 
Q 2766 1069 2766 1631 
L 2766 1759 
L 2194 1759 
z
M 3341 1997 
L 3341 0 
L 2766 0 
L 2766 531 
Q 2569 213 2275 61 
Q 1981 -91 1556 -91 
Q 1019 -91 701 211 
Q 384 513 384 1019 
Q 384 1609 779 1909 
Q 1175 2209 1959 2209 
L 2766 2209 
L 2766 2266 
Q 2766 2663 2505 2880 
Q 2244 3097 1772 3097 
Q 1472 3097 1187 3025 
Q 903 2953 641 2809 
L 641 3341 
Q 956 3463 1253 3523 
Q 1550 3584 1831 3584 
Q 2591 3584 2966 3190 
Q 3341 2797 3341 1997 
z
" transform="scale(0.015625)"/>
       <path id="DejaVuSans-79" d="M 2059 -325 
Q 1816 -950 1584 -1140 
Q 1353 -1331 966 -1331 
L 506 -1331 
L 506 -850 
L 844 -850 
Q 1081 -850 1212 -737 
Q 1344 -625 1503 -206 
L 1606 56 
L 191 3500 
L 800 3500 
L 1894 763 
L 2988 3500 
L 3597 3500 
L 2059 -325 
z
" transform="scale(0.015625)"/>
      </defs>
      <use xlink:href="#DejaVuSans-41"/>
      <use xlink:href="#DejaVuSans-63" x="66.658203"/>
      <use xlink:href="#DejaVuSans-63" x="121.638672"/>
      <use xlink:href="#DejaVuSans-75" x="176.619141"/>
      <use xlink:href="#DejaVuSans-72" x="239.998047"/>
      <use xlink:href="#DejaVuSans-61" x="281.111328"/>
      <use xlink:href="#DejaVuSans-63" x="342.390625"/>
      <use xlink:href="#DejaVuSans-79" x="397.371094"/>
     </g>
    </g>
   </g>
   <g id="line2d_41">
    <path d="M 84.470909 396.577545 
L 86.127826 389.615226 
L 87.784743 387.939617 
L 89.44166 371.991056 
L 91.098577 396.287336 
L 92.755494 394.16607 
L 94.412411 362.166811 
L 96.069328 402.103378 
L 99.383162 355.520985 
L 101.040079 386.000848 
L 102.696996 401.076663 
L 104.353913 371.222058 
L 106.01083 385.290376 
L 107.667747 416.617558 
L 109.324664 382.785666 
L 110.981581 406.319482 
L 112.638498 413.288729 
L 114.295415 404.567955 
L 115.952332 368.258416 
L 117.609249 376.555909 
L 119.266166 390.855143 
L 120.923083 359.689639 
L 122.58 386.975489 
L 124.236917 351.47337 
L 125.893834 392.398516 
L 129.207668 344.205358 
L 130.864585 387.867534 
L 132.521502 366.481832 
L 134.178419 379.195933 
L 135.835336 356.858865 
L 137.492253 357.652338 
L 139.14917 377.042615 
L 140.806087 383.880207 
L 142.463004 352.420345 
L 144.119921 407.225437 
L 147.433755 367.459344 
L 149.090672 394.900778 
L 150.747589 381.43946 
L 152.404506 376.334554 
L 154.061423 372.564507 
L 155.71834 370.714725 
L 157.375257 366.784573 
L 159.032174 334.05914 
L 160.689091 389.007979 
L 162.346008 380.237734 
L 164.002925 361.970488 
L 165.659842 366.493841 
L 167.316759 377.851927 
L 168.973676 384.852452 
L 170.630593 352.591313 
L 172.28751 371.731745 
L 173.944427 396.396363 
L 175.601344 395.248773 
L 177.258261 325.328773 
L 178.915178 405.334617 
L 180.572095 341.342989 
L 182.229012 388.804107 
L 183.885929 412.347956 
L 185.542846 398.133516 
L 187.199763 363.907801 
L 188.85668 420.692042 
L 190.513597 429.762394 
L 192.170514 363.279433 
L 193.827431 346.655537 
L 195.484348 392.502732 
L 197.141265 400.47049 
L 198.798182 393.124238 
L 200.455099 340.152837 
L 202.112016 399.815289 
L 203.768933 379.441335 
L 205.42585 370.235601 
L 207.082767 344.323671 
L 208.739684 443.834349 
L 210.396601 412.629332 
L 212.053518 341.786815 
L 213.710435 441.064198 
L 215.367352 434.875179 
L 217.024269 400.762065 
L 218.681186 398.886974 
L 220.338103 388.756632 
L 221.99502 421.352592 
L 223.651937 384.48404 
L 225.308854 357.212773 
L 226.965771 439.371821 
L 228.622688 348.354379 
L 230.279605 370.43524 
L 231.936522 431.688793 
L 233.593439 398.226553 
L 235.250356 450.919862 
L 236.907273 405.653772 
L 238.56419 447.368414 
L 240.221107 433.702347 
L 241.878024 429.03396 
L 243.534941 390.462792 
L 245.191858 421.81014 
L 246.848775 424.484233 
L 248.505692 432.329524 
L 250.162609 328.607502 
L 251.819526 357.438623 
L 253.476443 388.37006 
L 255.13336 368.160801 
L 256.790277 411.982394 
L 258.447194 383.568248 
L 260.104111 404.461451 
L 261.761028 326.442269 
L 263.417945 428.149592 
L 265.074862 369.400946 
L 266.731779 449.730229 
L 268.388696 426.243323 
L 270.045613 426.86176 
L 271.70253 369.270147 
L 273.359447 425.004614 
L 275.016364 511.611818 
L 276.673281 398.508556 
L 278.330198 409.282949 
L 279.987115 340.186903 
L 281.644032 398.995178 
L 283.300949 327.813126 
L 284.957866 385.987063 
L 286.614783 334.589732 
L 288.2717 390.483454 
L 289.928617 374.69339 
L 291.585534 397.407257 
L 293.242451 370.804211 
L 294.899368 383.133262 
L 296.556285 422.529533 
L 298.213202 341.458815 
L 299.870119 359.769463 
L 301.527036 312.181785 
L 303.183953 412.812067 
L 304.84087 424.127743 
L 306.497787 409.375854 
L 308.154704 390.926486 
L 309.811621 411.69919 
L 311.468538 462.091515 
L 313.125455 350.029625 
L 316.439289 428.808723 
L 318.096206 366.244074 
L 319.753123 414.707152 
L 321.41004 369.63032 
L 323.066957 384.526323 
L 324.723874 432.049133 
L 326.380791 411.367731 
L 328.037708 367.343867 
L 329.694625 382.218217 
L 331.351542 344.496678 
L 333.008458 438.662619 
L 334.665375 417.760106 
L 336.322292 440.141634 
L 337.979209 380.375624 
L 339.636126 438.744099 
L 341.293043 365.515379 
L 342.94996 425.888609 
L 344.606877 408.585625 
L 346.263794 429.023812 
L 347.920711 358.97305 
L 349.577628 435.712044 
L 351.234545 396.815257 
L 352.891462 368.399795 
L 354.548379 382.516236 
L 356.205296 399.504295 
L 357.862213 414.628131 
L 359.51913 436.072055 
L 361.176047 373.388563 
L 362.832964 411.036408 
L 364.489881 391.957647 
L 366.146798 467.11711 
L 367.803715 400.330041 
L 369.460632 327.249265 
L 371.117549 406.972349 
L 372.774466 414.421703 
L 374.431383 409.100766 
L 376.0883 388.394245 
L 377.745217 358.394483 
L 379.402134 447.190048 
L 381.059051 367.422902 
L 382.715968 405.282037 
L 386.029802 290.269096 
L 387.686719 413.143286 
L 389.343636 342.391787 
L 391.000553 403.148143 
L 392.65747 379.115636 
L 394.314387 402.79658 
L 395.971304 350.282626 
L 397.628221 393.938588 
L 399.285138 383.003358 
L 400.942055 358.101543 
L 402.598972 394.033633 
L 404.255889 359.558288 
L 405.912806 366.439967 
L 407.569723 345.508789 
L 409.22664 343.977846 
L 410.883557 368.520699 
L 412.540474 401.890179 
L 414.197391 379.57007 
L 415.854308 359.754883 
L 417.511225 352.043554 
L 419.168142 392.149439 
L 420.825059 355.107443 
L 422.481976 360.81728 
L 424.138893 383.21581 
L 425.79581 390.024849 
L 427.452727 360.732742 
L 429.109644 345.075984 
L 430.766561 355.108112 
L 432.423478 315.172771 
L 434.080395 341.157066 
L 435.737312 340.649438 
L 437.394229 340.389982 
L 439.051146 394.316852 
L 440.708063 392.898575 
L 442.36498 355.871492 
L 444.021897 324.334525 
L 445.678814 371.076187 
L 447.335731 388.504927 
L 448.992648 374.863732 
L 450.649565 372.19599 
L 452.306482 312.436386 
L 453.963399 361.975835 
L 455.620316 329.634038 
L 457.277233 388.133427 
L 458.93415 327.372574 
L 460.591067 342.388668 
L 462.247984 326.56533 
L 463.904901 246.176563 
L 467.218735 385.482279 
L 468.875652 386.000822 
L 470.532569 307.422221 
L 472.189486 316.263076 
L 473.846403 306.126935 
L 475.50332 304.728853 
L 477.160237 351.899454 
L 478.817154 390.823503 
L 480.474071 320.20558 
L 482.130988 326.20595 
L 483.787905 302.894561 
L 485.444822 322.538493 
L 487.101739 339.790579 
L 488.758656 330.058727 
L 490.415573 385.028762 
L 492.07249 341.138295 
L 493.729407 327.072289 
L 495.386324 401.018277 
L 497.043241 279.638334 
L 498.700158 353.354058 
L 500.357075 304.194389 
L 502.013992 334.65255 
L 505.327826 297.136895 
L 506.984743 362.546915 
L 508.64166 293.306075 
L 510.298577 291.17761 
L 511.955494 278.837269 
L 513.612411 339.497648 
L 516.926245 291.469786 
L 518.583162 339.208024 
L 520.240079 317.101015 
L 521.896996 272.830876 
L 523.553913 261.312821 
L 525.21083 319.669137 
L 526.867747 313.321924 
L 528.524664 291.310673 
L 530.181581 313.697503 
L 531.838498 261.089307 
L 533.495415 217.829374 
L 535.152332 300.153145 
L 536.809249 271.315345 
L 538.466166 232.167342 
L 540.123083 324.149625 
L 541.78 215.077208 
L 543.436917 258.815401 
L 545.093834 259.280223 
L 546.750751 231.332044 
L 548.407668 219.270495 
L 550.064585 235.780762 
L 551.721502 254.224921 
L 553.378419 250.795011 
L 555.035336 244.329214 
L 556.692253 198.924813 
L 558.34917 240.022899 
L 560.006087 176.755926 
L 561.663004 223.169488 
L 563.319921 184.569726 
L 564.976838 225.750762 
L 566.633755 206.17039 
L 568.290672 177.420648 
L 569.947589 185.882381 
L 571.604506 203.767104 
L 573.261423 193.080699 
L 574.91834 185.169855 
L 576.575257 166.048591 
L 578.232174 171.29321 
L 579.889091 138.461242 
L 579.889091 138.461242 
" clip-path="url(#p64bc9a1dd2)" style="fill: none; stroke: #348abd; stroke-width: 2; stroke-linecap: square"/>
   </g>
   <g id="line2d_42">
    <path d="M 84.470909 403.082748 
L 86.127826 374.501685 
L 87.784743 368.928999 
L 89.44166 412.59374 
L 91.098577 438.027247 
L 92.755494 380.951338 
L 94.412411 375.973555 
L 96.069328 378.431825 
L 97.726245 388.264447 
L 99.383162 376.49694 
L 101.040079 389.986708 
L 102.696996 347.72733 
L 104.353913 401.483465 
L 106.01083 368.236064 
L 107.667747 377.478213 
L 109.324664 451.63618 
L 110.981581 370.713947 
L 112.638498 406.772836 
L 114.295415 395.944159 
L 115.952332 417.344605 
L 117.609249 406.61555 
L 119.266166 415.676745 
L 120.923083 377.186327 
L 122.58 406.610484 
L 124.236917 379.842279 
L 125.893834 333.577933 
L 127.550751 379.726327 
L 129.207668 414.508866 
L 130.864585 381.401537 
L 132.521502 414.23945 
L 134.178419 357.35448 
L 135.835336 396.503258 
L 137.492253 379.768899 
L 139.14917 378.765012 
L 140.806087 383.661025 
L 142.463004 360.579925 
L 144.119921 388.52122 
L 145.776838 383.140942 
L 147.433755 411.634949 
L 149.090672 429.761507 
L 150.747589 386.912698 
L 152.404506 392.450006 
L 154.061423 392.726936 
L 155.71834 393.990981 
L 157.375257 435.334844 
L 159.032174 387.632231 
L 160.689091 380.348776 
L 162.346008 418.702001 
L 164.002925 373.331369 
L 165.659842 380.006926 
L 167.316759 365.452481 
L 168.973676 462.420651 
L 170.630593 376.096048 
L 173.944427 435.04734 
L 175.601344 375.854556 
L 177.258261 383.605264 
L 178.915178 404.615297 
L 180.572095 378.652051 
L 182.229012 338.699137 
L 183.885929 401.618377 
L 185.542846 420.560198 
L 187.199763 375.178934 
L 188.85668 368.204559 
L 190.513597 386.92651 
L 192.170514 347.134399 
L 193.827431 425.644505 
L 195.484348 396.425732 
L 197.141265 377.765688 
L 198.798182 396.473161 
L 200.455099 395.090186 
L 202.112016 424.210119 
L 203.768933 348.887546 
L 205.42585 418.704947 
L 207.082767 404.723047 
L 208.739684 416.316211 
L 210.396601 371.33827 
L 212.053518 392.230834 
L 213.710435 393.044166 
L 215.367352 380.771316 
L 217.024269 380.896915 
L 218.681186 357.507354 
L 220.338103 377.105468 
L 221.99502 410.442396 
L 223.651937 400.407717 
L 225.308854 402.901465 
L 226.965771 438.614467 
L 228.622688 403.805897 
L 230.279605 391.46332 
L 231.936522 410.81842 
L 233.593439 374.493916 
L 235.250356 344.687037 
L 236.907273 365.94822 
L 238.56419 391.2611 
L 240.221107 365.90876 
L 241.878024 365.727002 
L 243.534941 398.538116 
L 245.191858 353.046011 
L 246.848775 355.575371 
L 248.505692 372.982502 
L 250.162609 381.091702 
L 251.819526 386.021054 
L 253.476443 412.736006 
L 255.13336 366.373584 
L 256.790277 397.272609 
L 258.447194 425.03458 
L 260.104111 388.482216 
L 261.761028 358.540151 
L 263.417945 381.493927 
L 265.074862 390.53488 
L 266.731779 418.195827 
L 268.388696 391.21588 
L 270.045613 395.669566 
L 271.70253 390.454974 
L 273.359447 399.476339 
L 275.016364 368.752654 
L 276.673281 440.852358 
L 278.330198 346.654962 
L 279.987115 354.879188 
L 281.644032 382.640351 
L 283.300949 426.538133 
L 284.957866 384.958333 
L 286.614783 386.513689 
L 288.2717 401.464441 
L 289.928617 401.92516 
L 291.585534 405.264922 
L 293.242451 361.429495 
L 294.899368 331.419668 
L 296.556285 408.390685 
L 298.213202 368.586113 
L 299.870119 377.202202 
L 301.527036 357.341383 
L 303.183953 450.728835 
L 304.84087 358.61441 
L 306.497787 382.639753 
L 308.154704 440.349342 
L 309.811621 398.768913 
L 311.468538 409.485604 
L 313.125455 337.527776 
L 314.782372 402.006905 
L 316.439289 393.068008 
L 318.096206 431.637056 
L 319.753123 386.626469 
L 321.41004 410.043047 
L 323.066957 380.57014 
L 324.723874 340.001948 
L 326.380791 401.005126 
L 328.037708 434.732946 
L 329.694625 360.814458 
L 331.351542 387.658569 
L 333.008458 412.081535 
L 334.665375 391.062995 
L 336.322292 416.796563 
L 337.979209 362.90829 
L 339.636126 315.975443 
L 341.293043 397.622295 
L 342.94996 331.876909 
L 344.606877 389.634019 
L 346.263794 388.235376 
L 349.577628 354.730707 
L 351.234545 413.278678 
L 352.891462 300.698632 
L 354.548379 343.908424 
L 356.205296 317.857283 
L 357.862213 334.450666 
L 359.51913 335.543015 
L 361.176047 322.288427 
L 362.832964 299.177711 
L 364.489881 255.928461 
L 366.146798 298.374894 
L 367.803715 283.273788 
L 369.460632 232.342762 
L 371.117549 288.118036 
L 372.774466 269.161565 
L 374.431383 269.025311 
L 376.0883 275.887798 
L 377.745217 223.053686 
L 379.402134 230.698983 
L 381.059051 282.729982 
L 382.715968 241.058519 
L 384.372885 252.316729 
L 386.029802 259.391485 
L 387.686719 224.263784 
L 389.343636 259.439148 
L 391.000553 225.495905 
L 392.65747 199.765404 
L 394.314387 237.92215 
L 395.971304 221.448019 
L 397.628221 226.605947 
L 399.285138 226.029348 
L 400.942055 202.187972 
L 402.598972 206.94531 
L 404.255889 216.351408 
L 405.912806 211.179238 
L 407.569723 207.183089 
L 409.22664 171.856069 
L 410.883557 193.170941 
L 412.540474 190.20427 
L 414.197391 181.108214 
L 415.854308 205.783341 
L 417.511225 195.085085 
L 419.168142 187.925288 
L 420.825059 188.392674 
L 422.481976 174.652459 
L 424.138893 187.278131 
L 425.79581 195.15877 
L 427.452727 153.630495 
L 429.109644 154.156585 
L 430.766561 175.555074 
L 432.423478 213.168597 
L 434.080395 164.628323 
L 435.737312 146.995555 
L 437.394229 190.735903 
L 439.051146 175.738364 
L 440.708063 189.206332 
L 442.36498 156.39077 
L 444.021897 147.051768 
L 445.678814 145.757543 
L 447.335731 158.508581 
L 448.992648 172.733175 
L 450.649565 189.693711 
L 452.306482 164.314832 
L 453.963399 162.968207 
L 455.620316 180.238131 
L 457.277233 162.56522 
L 458.93415 162.69442 
L 460.591067 179.467869 
L 462.247984 150.764751 
L 463.904901 178.924849 
L 465.561818 175.61575 
L 467.218735 191.227627 
L 468.875652 132.200908 
L 470.532569 161.289411 
L 472.189486 156.280366 
L 473.846403 152.961053 
L 475.50332 116.04688 
L 477.160237 154.953913 
L 478.817154 150.824743 
L 480.474071 111.221751 
L 482.130988 149.468579 
L 483.787905 134.919767 
L 485.444822 110.022522 
L 487.101739 139.640186 
L 488.758656 116.736268 
L 490.415573 145.744073 
L 492.07249 100.353311 
L 493.729407 129.027696 
L 495.386324 102.450657 
L 497.043241 89.981446 
L 498.700158 107.920265 
L 500.357075 114.850131 
L 502.013992 112.849571 
L 503.670909 128.643625 
L 505.327826 102.338832 
L 506.984743 152.954633 
L 508.64166 101.711618 
L 510.298577 77.319673 
L 511.955494 138.086016 
L 513.612411 110.685911 
L 515.269328 127.489835 
L 516.926245 94.861064 
L 518.583162 90.960312 
L 520.240079 135.443193 
L 521.896996 85.028151 
L 523.553913 106.073736 
L 525.21083 92.786664 
L 526.867747 125.412507 
L 528.524664 97.838029 
L 530.181581 90.674898 
L 531.838498 67.443977 
L 533.495415 89.8885 
L 535.152332 104.223995 
L 536.809249 87.746476 
L 538.466166 66.171259 
L 540.123083 81.962363 
L 541.78 68.273546 
L 543.436917 73.992779 
L 545.093834 72.522239 
L 546.750751 57.040874 
L 548.407668 96.11413 
L 550.064585 128.275684 
L 551.721502 55.376556 
L 553.378419 62.29293 
L 555.035336 86.209891 
L 556.692253 84.077116 
L 558.34917 96.029697 
L 560.006087 66.303764 
L 561.663004 50.648182 
L 563.319921 67.551097 
L 564.976838 67.375906 
L 566.633755 59.91331 
L 568.290672 63.324312 
L 569.947589 82.066673 
L 571.604506 60.679475 
L 573.261423 55.459011 
L 574.91834 72.215866 
L 576.575257 60.955801 
L 578.232174 94.033351 
L 579.889091 73.082102 
L 579.889091 73.082102 
" clip-path="url(#p64bc9a1dd2)" style="fill: none; stroke: #a60628; stroke-width: 2; stroke-linecap: square"/>
   </g>
   <g id="line2d_43">
    <path d="M 84.470909 384.207888 
L 86.127826 388.886521 
L 87.784743 375.018752 
L 89.44166 378.07215 
L 91.098577 370.757514 
L 92.755494 392.141131 
L 94.412411 351.808896 
L 96.069328 377.51821 
L 97.726245 385.739406 
L 99.383162 382.139174 
L 101.040079 383.459992 
L 102.696996 344.656981 
L 104.353913 370.988691 
L 106.01083 375.456136 
L 107.667747 390.754585 
L 109.324664 329.918549 
L 110.981581 344.097403 
L 112.638498 334.079166 
L 114.295415 307.150779 
L 115.952332 348.071007 
L 117.609249 288.927874 
L 119.266166 270.685588 
L 120.923083 272.69347 
L 122.58 259.885437 
L 124.236917 256.355605 
L 125.893834 318.249755 
L 127.550751 277.23332 
L 129.207668 315.118911 
L 130.864585 278.291027 
L 132.521502 294.051363 
L 134.178419 278.139166 
L 135.835336 271.46314 
L 137.492253 269.23512 
L 139.14917 324.385782 
L 140.806087 278.647659 
L 142.463004 299.397182 
L 144.119921 290.433953 
L 145.776838 286.400577 
L 147.433755 238.106261 
L 149.090672 295.797758 
L 150.747589 256.78833 
L 152.404506 286.133285 
L 154.061423 267.353079 
L 155.71834 261.223551 
L 157.375257 264.028813 
L 159.032174 248.484094 
L 160.689091 257.023437 
L 162.346008 261.97738 
L 164.002925 260.384979 
L 165.659842 283.574356 
L 167.316759 230.392074 
L 168.973676 279.018414 
L 170.630593 248.611465 
L 172.28751 270.063762 
L 173.944427 274.927772 
L 175.601344 256.821029 
L 177.258261 286.281057 
L 178.915178 284.622833 
L 180.572095 269.731439 
L 182.229012 291.942471 
L 183.885929 277.677766 
L 185.542846 268.679712 
L 187.199763 273.106738 
L 188.85668 281.157481 
L 190.513597 270.998603 
L 192.170514 289.070331 
L 193.827431 265.005603 
L 195.484348 269.127552 
L 197.141265 280.838857 
L 198.798182 275.397116 
L 200.455099 248.289365 
L 202.112016 280.486808 
L 203.768933 273.871842 
L 205.42585 277.847367 
L 207.082767 252.426395 
L 208.739684 267.854352 
L 210.396601 304.755636 
L 212.053518 283.754099 
L 213.710435 254.264364 
L 215.367352 267.966157 
L 217.024269 280.251751 
L 218.681186 306.398032 
L 220.338103 295.59387 
L 221.99502 298.515335 
L 223.651937 291.241594 
L 225.308854 261.600866 
L 226.965771 279.343587 
L 228.622688 283.135793 
L 230.279605 305.392112 
L 231.936522 290.232222 
L 233.593439 288.684129 
L 235.250356 301.561876 
L 236.907273 300.188173 
L 238.56419 283.955346 
L 240.221107 280.629858 
L 241.878024 270.131896 
L 243.534941 275.901181 
L 245.191858 254.139962 
L 246.848775 270.691875 
L 248.505692 261.562544 
L 250.162609 239.121712 
L 251.819526 245.769512 
L 253.476443 281.204424 
L 255.13336 251.612591 
L 256.790277 273.099182 
L 258.447194 268.459316 
L 260.104111 224.341857 
L 261.761028 240.951943 
L 265.074862 282.03044 
L 266.731779 260.358671 
L 268.388696 271.378859 
L 270.045613 220.270139 
L 271.70253 248.937032 
L 273.359447 211.725976 
L 275.016364 242.756478 
L 276.673281 264.985872 
L 278.330198 274.702813 
L 279.987115 222.236856 
L 281.644032 233.653635 
L 283.300949 257.472504 
L 284.957866 259.423401 
L 286.614783 275.004095 
L 288.2717 232.329021 
L 289.928617 228.167268 
L 291.585534 238.469168 
L 293.242451 227.222889 
L 294.899368 226.489826 
L 296.556285 230.449857 
L 298.213202 210.868623 
L 299.870119 238.071454 
L 301.527036 208.395284 
L 303.183953 225.471384 
L 304.84087 229.257291 
L 306.497787 216.243394 
L 308.154704 199.332032 
L 309.811621 215.57051 
L 311.468538 239.916315 
L 313.125455 197.076319 
L 314.782372 213.706139 
L 316.439289 191.827537 
L 318.096206 205.898399 
L 319.753123 214.550735 
L 321.41004 207.608511 
L 323.066957 202.378022 
L 324.723874 179.951452 
L 326.380791 206.886936 
L 328.037708 184.911724 
L 329.694625 192.247593 
L 331.351542 193.980901 
L 333.008458 206.680626 
L 334.665375 185.078072 
L 336.322292 217.048891 
L 337.979209 215.121911 
L 339.636126 154.953507 
L 341.293043 213.220595 
L 342.94996 190.782594 
L 344.606877 194.75775 
L 346.263794 175.931042 
L 347.920711 192.211415 
L 349.577628 223.863455 
L 351.234545 216.358312 
L 352.891462 202.309679 
L 354.548379 195.62613 
L 356.205296 185.200926 
L 357.862213 208.446733 
L 359.51913 167.10652 
L 361.176047 195.738531 
L 362.832964 219.325347 
L 364.489881 248.910515 
L 366.146798 217.802919 
L 367.803715 218.245582 
L 369.460632 216.755528 
L 371.117549 230.49985 
L 372.774466 189.333062 
L 374.431383 202.252485 
L 376.0883 201.450963 
L 377.745217 200.904423 
L 379.402134 190.945771 
L 381.059051 228.572038 
L 382.715968 221.4832 
L 384.372885 202.914758 
L 386.029802 222.826805 
L 387.686719 202.981317 
L 389.343636 222.740735 
L 391.000553 145.526777 
L 392.65747 216.984274 
L 394.314387 188.907813 
L 395.971304 201.438901 
L 397.628221 210.715954 
L 399.285138 211.72486 
L 400.942055 228.412953 
L 402.598972 204.052649 
L 404.255889 215.480763 
L 407.569723 186.098024 
L 409.22664 215.421814 
L 410.883557 185.792254 
L 412.540474 216.479399 
L 414.197391 229.167486 
L 415.854308 202.801013 
L 417.511225 200.045858 
L 419.168142 217.310178 
L 420.825059 214.921436 
L 422.481976 199.226595 
L 424.138893 226.055627 
L 425.79581 178.576591 
L 427.452727 189.40877 
L 429.109644 196.955303 
L 430.766561 192.296173 
L 432.423478 196.571338 
L 434.080395 210.132885 
L 435.737312 198.726297 
L 437.394229 245.330315 
L 439.051146 212.320634 
L 440.708063 227.057871 
L 442.36498 225.682942 
L 444.021897 222.125975 
L 445.678814 248.993741 
L 447.335731 180.360164 
L 448.992648 206.404134 
L 450.649565 160.674617 
L 452.306482 184.018091 
L 453.963399 173.432155 
L 455.620316 199.105209 
L 457.277233 194.071196 
L 458.93415 211.932427 
L 460.591067 212.530381 
L 462.247984 200.204907 
L 463.904901 205.85452 
L 465.561818 231.639223 
L 467.218735 193.451719 
L 468.875652 182.654778 
L 470.532569 193.086337 
L 472.189486 196.984816 
L 473.846403 222.466614 
L 475.50332 207.72469 
L 478.817154 191.955487 
L 480.474071 203.573739 
L 482.130988 162.993875 
L 483.787905 152.684985 
L 485.444822 179.465158 
L 487.101739 180.461667 
L 488.758656 170.553473 
L 490.415573 173.344477 
L 492.07249 202.756387 
L 493.729407 169.156998 
L 495.386324 226.739425 
L 497.043241 197.620965 
L 498.700158 191.132785 
L 500.357075 215.454487 
L 502.013992 183.611255 
L 503.670909 227.458992 
L 505.327826 216.759047 
L 506.984743 195.372119 
L 508.64166 210.687815 
L 510.298577 198.333097 
L 511.955494 226.021573 
L 513.612411 231.683254 
L 515.269328 200.913712 
L 516.926245 204.967536 
L 518.583162 174.409756 
L 520.240079 187.011593 
L 521.896996 180.636513 
L 523.553913 144.9295 
L 525.21083 168.97866 
L 526.867747 168.033234 
L 528.524664 180.140657 
L 530.181581 176.892321 
L 531.838498 214.561933 
L 533.495415 161.70803 
L 535.152332 214.212824 
L 536.809249 179.328169 
L 538.466166 175.776031 
L 540.123083 185.766388 
L 541.78 164.118416 
L 543.436917 177.272531 
L 545.093834 159.084226 
L 546.750751 177.426429 
L 548.407668 188.309586 
L 550.064585 181.108613 
L 551.721502 181.987919 
L 553.378419 161.879545 
L 555.035336 160.465312 
L 556.692253 163.733324 
L 558.34917 159.159289 
L 560.006087 157.841868 
L 561.663004 161.008757 
L 563.319921 167.85674 
L 564.976838 178.967259 
L 566.633755 161.140548 
L 568.290672 174.008693 
L 569.947589 147.257676 
L 571.604506 166.103512 
L 573.261423 150.854013 
L 574.91834 150.446528 
L 576.575257 147.558436 
L 578.232174 158.748661 
L 579.889091 187.768273 
L 579.889091 187.768273 
" clip-path="url(#p64bc9a1dd2)" style="fill: none; stroke: #7a68a6; stroke-width: 2; stroke-linecap: square"/>
   </g>
   <g id="line2d_44">
    <path d="M 84.470909 356.957791 
L 86.127826 414.288716 
L 87.784743 407.035898 
L 89.44166 381.972191 
L 91.098577 436.124381 
L 92.755494 384.02275 
L 94.412411 447.152252 
L 96.069328 379.546401 
L 97.726245 385.909534 
L 99.383162 382.444242 
L 101.040079 385.644424 
L 102.696996 388.427382 
L 104.353913 405.046969 
L 106.01083 384.540319 
L 107.667747 390.869679 
L 109.324664 383.735603 
L 110.981581 423.843659 
L 112.638498 419.108446 
L 114.295415 370.019465 
L 115.952332 433.12721 
L 117.609249 381.375373 
L 119.266166 394.423444 
L 120.923083 385.558929 
L 122.58 387.318777 
L 124.236917 451.779152 
L 125.893834 366.621937 
L 127.550751 356.816039 
L 129.207668 435.190534 
L 130.864585 397.140112 
L 132.521502 415.826149 
L 134.178419 401.622048 
L 135.835336 406.654251 
L 137.492253 396.801038 
L 139.14917 435.803058 
L 140.806087 441.254779 
L 142.463004 399.536189 
L 144.119921 430.162966 
L 145.776838 395.925645 
L 147.433755 403.17869 
L 149.090672 371.716588 
L 150.747589 399.03344 
L 152.404506 397.04147 
L 154.061423 402.247718 
L 155.71834 406.696815 
L 157.375257 401.012215 
L 159.032174 405.989993 
L 160.689091 430.914877 
L 162.346008 380.434788 
L 164.002925 421.366162 
L 165.659842 403.808023 
L 167.316759 392.364834 
L 168.973676 414.918208 
L 170.630593 429.711812 
L 172.28751 423.172641 
L 173.944427 385.247643 
L 175.601344 404.822444 
L 177.258261 403.075763 
L 178.915178 389.004448 
L 180.572095 409.786678 
L 182.229012 450.662691 
L 183.885929 398.938507 
L 185.542846 427.056856 
L 187.199763 415.899213 
L 188.85668 385.936739 
L 190.513597 421.975462 
L 192.170514 407.887118 
L 193.827431 408.846131 
L 195.484348 417.991013 
L 197.141265 408.354033 
L 198.798182 404.552891 
L 200.455099 395.191802 
L 202.112016 403.963426 
L 203.768933 397.418907 
L 205.42585 428.635363 
L 207.082767 411.100013 
L 208.739684 442.564663 
L 210.396601 410.006869 
L 212.053518 426.40064 
L 213.710435 388.530803 
L 215.367352 420.644755 
L 217.024269 412.584338 
L 218.681186 401.087301 
L 220.338103 397.602728 
L 221.99502 424.183928 
L 223.651937 396.83122 
L 225.308854 397.507996 
L 226.965771 412.737431 
L 228.622688 367.102415 
L 230.279605 408.25083 
L 231.936522 437.293976 
L 233.593439 396.507026 
L 235.250356 393.575871 
L 236.907273 376.516482 
L 238.56419 417.579471 
L 240.221107 391.762699 
L 241.878024 400.318035 
L 243.534941 413.951737 
L 245.191858 417.257445 
L 246.848775 403.544288 
L 248.505692 397.42649 
L 250.162609 399.416392 
L 251.819526 400.633778 
L 253.476443 388.302127 
L 255.13336 381.791481 
L 256.790277 396.033561 
L 258.447194 400.444355 
L 260.104111 401.044651 
L 261.761028 416.510415 
L 263.417945 396.936732 
L 265.074862 405.352525 
L 266.731779 384.770289 
L 268.388696 404.07439 
L 270.045613 420.331096 
L 271.70253 386.471656 
L 273.359447 409.040814 
L 275.016364 401.45438 
L 276.673281 428.129462 
L 278.330198 392.772734 
L 279.987115 390.082097 
L 281.644032 390.064798 
L 283.300949 422.94822 
L 284.957866 389.48121 
L 286.614783 378.746853 
L 288.2717 413.511551 
L 289.928617 406.272713 
L 291.585534 382.671836 
L 293.242451 396.872632 
L 294.899368 388.478698 
L 296.556285 408.1197 
L 298.213202 392.969269 
L 299.870119 368.031384 
L 301.527036 383.270251 
L 303.183953 418.72548 
L 304.84087 359.873559 
L 306.497787 379.485725 
L 308.154704 404.023011 
L 309.811621 423.995902 
L 311.468538 393.690773 
L 313.125455 373.631157 
L 314.782372 365.11735 
L 316.439289 387.900307 
L 318.096206 398.378644 
L 319.753123 386.726258 
L 321.41004 380.163333 
L 323.066957 358.974758 
L 324.723874 389.466713 
L 326.380791 367.728661 
L 328.037708 388.16856 
L 329.694625 363.561353 
L 331.351542 401.478848 
L 333.008458 373.138303 
L 334.665375 363.463581 
L 336.322292 396.370454 
L 337.979209 383.362368 
L 339.636126 383.916618 
L 341.293043 361.512405 
L 342.94996 380.026835 
L 344.606877 379.297185 
L 346.263794 363.137428 
L 347.920711 391.110475 
L 349.577628 394.223034 
L 351.234545 377.931327 
L 352.891462 369.974646 
L 354.548379 371.893032 
L 356.205296 356.539516 
L 357.862213 372.711234 
L 359.51913 362.338716 
L 361.176047 368.876143 
L 362.832964 341.851356 
L 364.489881 359.411015 
L 366.146798 337.027645 
L 367.803715 369.224406 
L 369.460632 336.928539 
L 371.117549 349.242296 
L 372.774466 324.220394 
L 374.431383 361.029671 
L 376.0883 373.600525 
L 377.745217 327.86716 
L 379.402134 345.035466 
L 381.059051 356.10347 
L 382.715968 357.348618 
L 384.372885 335.874897 
L 386.029802 347.262933 
L 387.686719 333.184113 
L 389.343636 300.396332 
L 391.000553 336.413779 
L 392.65747 325.821166 
L 394.314387 345.992998 
L 395.971304 347.440529 
L 397.628221 320.229559 
L 399.285138 340.497738 
L 400.942055 302.439224 
L 402.598972 337.058696 
L 404.255889 281.777932 
L 405.912806 304.486705 
L 407.569723 297.900539 
L 409.22664 285.897857 
L 410.883557 313.600396 
L 412.540474 306.733859 
L 414.197391 259.690517 
L 415.854308 281.91931 
L 417.511225 277.756611 
L 419.168142 256.374035 
L 420.825059 286.88624 
L 422.481976 263.045924 
L 424.138893 278.755817 
L 425.79581 266.774823 
L 427.452727 228.501552 
L 429.109644 235.314004 
L 430.766561 227.919187 
L 432.423478 230.657637 
L 434.080395 215.491123 
L 435.737312 237.303616 
L 437.394229 225.736109 
L 439.051146 216.98146 
L 440.708063 199.834481 
L 442.36498 185.13573 
L 444.021897 211.757969 
L 445.678814 198.368728 
L 447.335731 180.050058 
L 448.992648 180.610087 
L 450.649565 185.344023 
L 452.306482 184.441207 
L 453.963399 163.617202 
L 455.620316 200.195715 
L 457.277233 152.193075 
L 458.93415 152.193659 
L 460.591067 185.41202 
L 462.247984 192.157985 
L 463.904901 148.013187 
L 465.561818 142.323784 
L 467.218735 176.997597 
L 468.875652 145.557099 
L 470.532569 139.92195 
L 472.189486 146.34698 
L 473.846403 189.91328 
L 475.50332 87.563442 
L 477.160237 171.87107 
L 478.817154 153.391864 
L 480.474071 138.478174 
L 482.130988 186.267551 
L 483.787905 167.806288 
L 485.444822 106.95796 
L 487.101739 134.963822 
L 488.758656 137.677358 
L 490.415573 169.414166 
L 492.07249 120.597276 
L 493.729407 152.699704 
L 495.386324 133.391797 
L 497.043241 130.578776 
L 498.700158 165.398805 
L 500.357075 147.782737 
L 502.013992 128.571504 
L 503.670909 171.653688 
L 505.327826 121.792367 
L 506.984743 140.647672 
L 508.64166 142.833514 
L 510.298577 154.323487 
L 511.955494 142.480563 
L 513.612411 111.68181 
L 515.269328 171.923121 
L 516.926245 114.848415 
L 520.240079 158.818584 
L 521.896996 94.50273 
L 523.553913 146.56268 
L 525.21083 134.177198 
L 526.867747 130.205555 
L 528.524664 144.464404 
L 530.181581 131.515792 
L 531.838498 91.218408 
L 533.495415 96.61571 
L 535.152332 100.210754 
L 536.809249 90.371892 
L 538.466166 138.080685 
L 540.123083 148.154107 
L 541.78 122.62893 
L 543.436917 124.172508 
L 545.093834 99.379578 
L 546.750751 158.407363 
L 548.407668 89.262246 
L 550.064585 117.722591 
L 551.721502 109.947031 
L 553.378419 93.188679 
L 555.035336 126.563432 
L 556.692253 101.069997 
L 558.34917 101.610129 
L 561.663004 129.599851 
L 563.319921 122.456496 
L 564.976838 119.312761 
L 566.633755 109.562711 
L 568.290672 113.47308 
L 569.947589 110.858283 
L 571.604506 128.390386 
L 573.261423 78.917857 
L 574.91834 92.416839 
L 576.575257 80.153251 
L 578.232174 110.159794 
L 579.889091 84.477804 
L 579.889091 84.477804 
" clip-path="url(#p64bc9a1dd2)" style="fill: none; stroke: #467821; stroke-width: 2; stroke-linecap: square"/>
   </g>
   <g id="patch_3">
    <path d="M 59.7 534.66 
L 59.7 27.6 
" style="fill: none; stroke: #bcbcbc; stroke-width: 0.8; stroke-linejoin: miter; stroke-linecap: square"/>
   </g>
   <g id="patch_4">
    <path d="M 604.66 534.66 
L 604.66 27.6 
" style="fill: none; stroke: #bcbcbc; stroke-width: 0.8; stroke-linejoin: miter; stroke-linecap: square"/>
   </g>
   <g id="patch_5">
    <path d="M 59.7 534.66 
L 604.66 534.66 
" style="fill: none; stroke: #bcbcbc; stroke-width: 0.8; stroke-linejoin: miter; stroke-linecap: square"/>
   </g>
   <g id="patch_6">
    <path d="M 59.7 27.6 
L 604.66 27.6 
" style="fill: none; stroke: #bcbcbc; stroke-width: 0.8; stroke-linejoin: miter; stroke-linecap: square"/>
   </g>
   <g id="text_23">
    <g id="patch_7">
     <path d="M 86.948 90.02675 
L 212.143312 90.02675 
Q 217.143312 90.02675 217.143312 85.02675 
L 217.143312 52.953 
Q 217.143312 47.953 212.143312 47.953 
L 86.948 47.953 
Q 81.948 47.953 81.948 52.953 
L 81.948 85.02675 
Q 81.948 90.02675 86.948 90.02675 
z
" style="fill: #d3d3d3; stroke: #000000; stroke-width: 0.5; stroke-linejoin: miter"/>
    </g>
    <!-- Num Server Rounds: 400 -->
    <g transform="translate(86.948 60.551438) scale(0.1 -0.1)">
     <defs>
      <path id="DejaVuSans-4e" d="M 628 4666 
L 1478 4666 
L 3547 763 
L 3547 4666 
L 4159 4666 
L 4159 0 
L 3309 0 
L 1241 3903 
L 1241 0 
L 628 0 
L 628 4666 
z
" transform="scale(0.015625)"/>
      <path id="DejaVuSans-6d" d="M 3328 2828 
Q 3544 3216 3844 3400 
Q 4144 3584 4550 3584 
Q 5097 3584 5394 3201 
Q 5691 2819 5691 2113 
L 5691 0 
L 5113 0 
L 5113 2094 
Q 5113 2597 4934 2840 
Q 4756 3084 4391 3084 
Q 3944 3084 3684 2787 
Q 3425 2491 3425 1978 
L 3425 0 
L 2847 0 
L 2847 2094 
Q 2847 2600 2669 2842 
Q 2491 3084 2119 3084 
Q 1678 3084 1418 2786 
Q 1159 2488 1159 1978 
L 1159 0 
L 581 0 
L 581 3500 
L 1159 3500 
L 1159 2956 
Q 1356 3278 1631 3431 
Q 1906 3584 2284 3584 
Q 2666 3584 2933 3390 
Q 3200 3197 3328 2828 
z
" transform="scale(0.015625)"/>
      <path id="DejaVuSans-20" transform="scale(0.015625)"/>
      <path id="DejaVuSans-53" d="M 3425 4513 
L 3425 3897 
Q 3066 4069 2747 4153 
Q 2428 4238 2131 4238 
Q 1616 4238 1336 4038 
Q 1056 3838 1056 3469 
Q 1056 3159 1242 3001 
Q 1428 2844 1947 2747 
L 2328 2669 
Q 3034 2534 3370 2195 
Q 3706 1856 3706 1288 
Q 3706 609 3251 259 
Q 2797 -91 1919 -91 
Q 1588 -91 1214 -16 
Q 841 59 441 206 
L 441 856 
Q 825 641 1194 531 
Q 1563 422 1919 422 
Q 2459 422 2753 634 
Q 3047 847 3047 1241 
Q 3047 1584 2836 1778 
Q 2625 1972 2144 2069 
L 1759 2144 
Q 1053 2284 737 2584 
Q 422 2884 422 3419 
Q 422 4038 858 4394 
Q 1294 4750 2059 4750 
Q 2388 4750 2728 4690 
Q 3069 4631 3425 4513 
z
" transform="scale(0.015625)"/>
      <path id="DejaVuSans-65" d="M 3597 1894 
L 3597 1613 
L 953 1613 
Q 991 1019 1311 708 
Q 1631 397 2203 397 
Q 2534 397 2845 478 
Q 3156 559 3463 722 
L 3463 178 
Q 3153 47 2828 -22 
Q 2503 -91 2169 -91 
Q 1331 -91 842 396 
Q 353 884 353 1716 
Q 353 2575 817 3079 
Q 1281 3584 2069 3584 
Q 2775 3584 3186 3129 
Q 3597 2675 3597 1894 
z
M 3022 2063 
Q 3016 2534 2758 2815 
Q 2500 3097 2075 3097 
Q 1594 3097 1305 2825 
Q 1016 2553 972 2059 
L 3022 2063 
z
" transform="scale(0.015625)"/>
      <path id="DejaVuSans-76" d="M 191 3500 
L 800 3500 
L 1894 563 
L 2988 3500 
L 3597 3500 
L 2284 0 
L 1503 0 
L 191 3500 
z
" transform="scale(0.015625)"/>
      <path id="DejaVuSans-73" d="M 2834 3397 
L 2834 2853 
Q 2591 2978 2328 3040 
Q 2066 3103 1784 3103 
Q 1356 3103 1142 2972 
Q 928 2841 928 2578 
Q 928 2378 1081 2264 
Q 1234 2150 1697 2047 
L 1894 2003 
Q 2506 1872 2764 1633 
Q 3022 1394 3022 966 
Q 3022 478 2636 193 
Q 2250 -91 1575 -91 
Q 1294 -91 989 -36 
Q 684 19 347 128 
L 347 722 
Q 666 556 975 473 
Q 1284 391 1588 391 
Q 1994 391 2212 530 
Q 2431 669 2431 922 
Q 2431 1156 2273 1281 
Q 2116 1406 1581 1522 
L 1381 1569 
Q 847 1681 609 1914 
Q 372 2147 372 2553 
Q 372 3047 722 3315 
Q 1072 3584 1716 3584 
Q 2034 3584 2315 3537 
Q 2597 3491 2834 3397 
z
" transform="scale(0.015625)"/>
      <path id="DejaVuSans-3a" d="M 750 794 
L 1409 794 
L 1409 0 
L 750 0 
L 750 794 
z
M 750 3309 
L 1409 3309 
L 1409 2516 
L 750 2516 
L 750 3309 
z
" transform="scale(0.015625)"/>
     </defs>
     <use xlink:href="#DejaVuSans-4e"/>
     <use xlink:href="#DejaVuSans-75" x="74.804688"/>
     <use xlink:href="#DejaVuSans-6d" x="138.183594"/>
     <use xlink:href="#DejaVuSans-20" x="235.595703"/>
     <use xlink:href="#DejaVuSans-53" x="267.382812"/>
     <use xlink:href="#DejaVuSans-65" x="330.859375"/>
     <use xlink:href="#DejaVuSans-72" x="392.382812"/>
     <use xlink:href="#DejaVuSans-76" x="433.496094"/>
     <use xlink:href="#DejaVuSans-65" x="492.675781"/>
     <use xlink:href="#DejaVuSans-72" x="554.199219"/>
     <use xlink:href="#DejaVuSans-20" x="595.3125"/>
     <use xlink:href="#DejaVuSans-52" x="627.099609"/>
     <use xlink:href="#DejaVuSans-6f" x="692.082031"/>
     <use xlink:href="#DejaVuSans-75" x="753.263672"/>
     <use xlink:href="#DejaVuSans-6e" x="816.642578"/>
     <use xlink:href="#DejaVuSans-64" x="880.021484"/>
     <use xlink:href="#DejaVuSans-73" x="943.498047"/>
     <use xlink:href="#DejaVuSans-3a" x="995.597656"/>
     <use xlink:href="#DejaVuSans-20" x="1029.289062"/>
     <use xlink:href="#DejaVuSans-34" x="1061.076172"/>
     <use xlink:href="#DejaVuSans-30" x="1124.699219"/>
     <use xlink:href="#DejaVuSans-30" x="1188.322266"/>
    </g>
    <!-- Local Epochs: 1 -->
    <g transform="translate(86.948 71.74925) scale(0.1 -0.1)">
     <defs>
      <path id="DejaVuSans-4c" d="M 628 4666 
L 1259 4666 
L 1259 531 
L 3531 531 
L 3531 0 
L 628 0 
L 628 4666 
z
" transform="scale(0.015625)"/>
      <path id="DejaVuSans-6c" d="M 603 4863 
L 1178 4863 
L 1178 0 
L 603 0 
L 603 4863 
z
" transform="scale(0.015625)"/>
      <path id="DejaVuSans-45" d="M 628 4666 
L 3578 4666 
L 3578 4134 
L 1259 4134 
L 1259 2753 
L 3481 2753 
L 3481 2222 
L 1259 2222 
L 1259 531 
L 3634 531 
L 3634 0 
L 628 0 
L 628 4666 
z
" transform="scale(0.015625)"/>
      <path id="DejaVuSans-70" d="M 1159 525 
L 1159 -1331 
L 581 -1331 
L 581 3500 
L 1159 3500 
L 1159 2969 
Q 1341 3281 1617 3432 
Q 1894 3584 2278 3584 
Q 2916 3584 3314 3078 
Q 3713 2572 3713 1747 
Q 3713 922 3314 415 
Q 2916 -91 2278 -91 
Q 1894 -91 1617 61 
Q 1341 213 1159 525 
z
M 3116 1747 
Q 3116 2381 2855 2742 
Q 2594 3103 2138 3103 
Q 1681 3103 1420 2742 
Q 1159 2381 1159 1747 
Q 1159 1113 1420 752 
Q 1681 391 2138 391 
Q 2594 391 2855 752 
Q 3116 1113 3116 1747 
z
" transform="scale(0.015625)"/>
      <path id="DejaVuSans-68" d="M 3513 2113 
L 3513 0 
L 2938 0 
L 2938 2094 
Q 2938 2591 2744 2837 
Q 2550 3084 2163 3084 
Q 1697 3084 1428 2787 
Q 1159 2491 1159 1978 
L 1159 0 
L 581 0 
L 581 4863 
L 1159 4863 
L 1159 2956 
Q 1366 3272 1645 3428 
Q 1925 3584 2291 3584 
Q 2894 3584 3203 3211 
Q 3513 2838 3513 2113 
z
" transform="scale(0.015625)"/>
     </defs>
     <use xlink:href="#DejaVuSans-4c"/>
     <use xlink:href="#DejaVuSans-6f" x="53.962891"/>
     <use xlink:href="#DejaVuSans-63" x="115.144531"/>
     <use xlink:href="#DejaVuSans-61" x="170.125"/>
     <use xlink:href="#DejaVuSans-6c" x="231.404297"/>
     <use xlink:href="#DejaVuSans-20" x="259.1875"/>
     <use xlink:href="#DejaVuSans-45" x="290.974609"/>
     <use xlink:href="#DejaVuSans-70" x="354.158203"/>
     <use xlink:href="#DejaVuSans-6f" x="417.634766"/>
     <use xlink:href="#DejaVuSans-63" x="478.816406"/>
     <use xlink:href="#DejaVuSans-68" x="533.796875"/>
     <use xlink:href="#DejaVuSans-73" x="597.175781"/>
     <use xlink:href="#DejaVuSans-3a" x="649.275391"/>
     <use xlink:href="#DejaVuSans-20" x="682.966797"/>
     <use xlink:href="#DejaVuSans-31" x="714.753906"/>
    </g>
    <!-- Num Supernodes: 200 -->
    <g transform="translate(86.948 82.947062) scale(0.1 -0.1)">
     <use xlink:href="#DejaVuSans-4e"/>
     <use xlink:href="#DejaVuSans-75" x="74.804688"/>
     <use xlink:href="#DejaVuSans-6d" x="138.183594"/>
     <use xlink:href="#DejaVuSans-20" x="235.595703"/>
     <use xlink:href="#DejaVuSans-53" x="267.382812"/>
     <use xlink:href="#DejaVuSans-75" x="330.859375"/>
     <use xlink:href="#DejaVuSans-70" x="394.238281"/>
     <use xlink:href="#DejaVuSans-65" x="457.714844"/>
     <use xlink:href="#DejaVuSans-72" x="519.238281"/>
     <use xlink:href="#DejaVuSans-6e" x="558.601562"/>
     <use xlink:href="#DejaVuSans-6f" x="621.980469"/>
     <use xlink:href="#DejaVuSans-64" x="683.162109"/>
     <use xlink:href="#DejaVuSans-65" x="746.638672"/>
     <use xlink:href="#DejaVuSans-73" x="808.162109"/>
     <use xlink:href="#DejaVuSans-3a" x="860.261719"/>
     <use xlink:href="#DejaVuSans-20" x="893.953125"/>
     <use xlink:href="#DejaVuSans-32" x="925.740234"/>
     <use xlink:href="#DejaVuSans-30" x="989.363281"/>
     <use xlink:href="#DejaVuSans-30" x="1052.986328"/>
    </g>
   </g>
   <g id="text_24">
    <!-- Accuracy by Round with Spline Interpolation - v4/ -->
    <g transform="translate(154.320875 21.6) scale(0.144 -0.144)">
     <defs>
      <path id="DejaVuSans-62" d="M 3116 1747 
Q 3116 2381 2855 2742 
Q 2594 3103 2138 3103 
Q 1681 3103 1420 2742 
Q 1159 2381 1159 1747 
Q 1159 1113 1420 752 
Q 1681 391 2138 391 
Q 2594 391 2855 752 
Q 3116 1113 3116 1747 
z
M 1159 2969 
Q 1341 3281 1617 3432 
Q 1894 3584 2278 3584 
Q 2916 3584 3314 3078 
Q 3713 2572 3713 1747 
Q 3713 922 3314 415 
Q 2916 -91 2278 -91 
Q 1894 -91 1617 61 
Q 1341 213 1159 525 
L 1159 0 
L 581 0 
L 581 4863 
L 1159 4863 
L 1159 2969 
z
" transform="scale(0.015625)"/>
      <path id="DejaVuSans-77" d="M 269 3500 
L 844 3500 
L 1563 769 
L 2278 3500 
L 2956 3500 
L 3675 769 
L 4391 3500 
L 4966 3500 
L 4050 0 
L 3372 0 
L 2619 2869 
L 1863 0 
L 1184 0 
L 269 3500 
z
" transform="scale(0.015625)"/>
      <path id="DejaVuSans-69" d="M 603 3500 
L 1178 3500 
L 1178 0 
L 603 0 
L 603 3500 
z
M 603 4863 
L 1178 4863 
L 1178 4134 
L 603 4134 
L 603 4863 
z
" transform="scale(0.015625)"/>
      <path id="DejaVuSans-74" d="M 1172 4494 
L 1172 3500 
L 2356 3500 
L 2356 3053 
L 1172 3053 
L 1172 1153 
Q 1172 725 1289 603 
Q 1406 481 1766 481 
L 2356 481 
L 2356 0 
L 1766 0 
Q 1100 0 847 248 
Q 594 497 594 1153 
L 594 3053 
L 172 3053 
L 172 3500 
L 594 3500 
L 594 4494 
L 1172 4494 
z
" transform="scale(0.015625)"/>
      <path id="DejaVuSans-49" d="M 628 4666 
L 1259 4666 
L 1259 0 
L 628 0 
L 628 4666 
z
" transform="scale(0.015625)"/>
      <path id="DejaVuSans-2d" d="M 313 2009 
L 1997 2009 
L 1997 1497 
L 313 1497 
L 313 2009 
z
" transform="scale(0.015625)"/>
      <path id="DejaVuSans-2f" d="M 1625 4666 
L 2156 4666 
L 531 -594 
L 0 -594 
L 1625 4666 
z
" transform="scale(0.015625)"/>
     </defs>
     <use xlink:href="#DejaVuSans-41"/>
     <use xlink:href="#DejaVuSans-63" x="66.658203"/>
     <use xlink:href="#DejaVuSans-63" x="121.638672"/>
     <use xlink:href="#DejaVuSans-75" x="176.619141"/>
     <use xlink:href="#DejaVuSans-72" x="239.998047"/>
     <use xlink:href="#DejaVuSans-61" x="281.111328"/>
     <use xlink:href="#DejaVuSans-63" x="342.390625"/>
     <use xlink:href="#DejaVuSans-79" x="397.371094"/>
     <use xlink:href="#DejaVuSans-20" x="456.550781"/>
     <use xlink:href="#DejaVuSans-62" x="488.337891"/>
     <use xlink:href="#DejaVuSans-79" x="551.814453"/>
     <use xlink:href="#DejaVuSans-20" x="610.994141"/>
     <use xlink:href="#DejaVuSans-52" x="642.78125"/>
     <use xlink:href="#DejaVuSans-6f" x="707.763672"/>
     <use xlink:href="#DejaVuSans-75" x="768.945312"/>
     <use xlink:href="#DejaVuSans-6e" x="832.324219"/>
     <use xlink:href="#DejaVuSans-64" x="895.703125"/>
     <use xlink:href="#DejaVuSans-20" x="959.179688"/>
     <use xlink:href="#DejaVuSans-77" x="990.966797"/>
     <use xlink:href="#DejaVuSans-69" x="1072.753906"/>
     <use xlink:href="#DejaVuSans-74" x="1100.537109"/>
     <use xlink:href="#DejaVuSans-68" x="1139.746094"/>
     <use xlink:href="#DejaVuSans-20" x="1203.125"/>
     <use xlink:href="#DejaVuSans-53" x="1234.912109"/>
     <use xlink:href="#DejaVuSans-70" x="1298.388672"/>
     <use xlink:href="#DejaVuSans-6c" x="1361.865234"/>
     <use xlink:href="#DejaVuSans-69" x="1389.648438"/>
     <use xlink:href="#DejaVuSans-6e" x="1417.431641"/>
     <use xlink:href="#DejaVuSans-65" x="1480.810547"/>
     <use xlink:href="#DejaVuSans-20" x="1542.333984"/>
     <use xlink:href="#DejaVuSans-49" x="1574.121094"/>
     <use xlink:href="#DejaVuSans-6e" x="1603.613281"/>
     <use xlink:href="#DejaVuSans-74" x="1666.992188"/>
     <use xlink:href="#DejaVuSans-65" x="1706.201172"/>
     <use xlink:href="#DejaVuSans-72" x="1767.724609"/>
     <use xlink:href="#DejaVuSans-70" x="1808.837891"/>
     <use xlink:href="#DejaVuSans-6f" x="1872.314453"/>
     <use xlink:href="#DejaVuSans-6c" x="1933.496094"/>
     <use xlink:href="#DejaVuSans-61" x="1961.279297"/>
     <use xlink:href="#DejaVuSans-74" x="2022.558594"/>
     <use xlink:href="#DejaVuSans-69" x="2061.767578"/>
     <use xlink:href="#DejaVuSans-6f" x="2089.550781"/>
     <use xlink:href="#DejaVuSans-6e" x="2150.732422"/>
     <use xlink:href="#DejaVuSans-20" x="2214.111328"/>
     <use xlink:href="#DejaVuSans-2d" x="2245.898438"/>
     <use xlink:href="#DejaVuSans-20" x="2281.982422"/>
     <use xlink:href="#DejaVuSans-76" x="2313.769531"/>
     <use xlink:href="#DejaVuSans-34" x="2372.949219"/>
     <use xlink:href="#DejaVuSans-2f" x="2436.572266"/>
    </g>
   </g>
   <g id="legend_1">
    <g id="patch_8">
     <path d="M 638.908 95.146875 
L 844.91425 95.146875 
Q 846.91425 95.146875 846.91425 93.146875 
L 846.91425 34.6 
Q 846.91425 32.6 844.91425 32.6 
L 638.908 32.6 
Q 636.908 32.6 636.908 34.6 
L 636.908 93.146875 
Q 636.908 95.146875 638.908 95.146875 
z
" style="fill: #eeeeee; opacity: 0.8; stroke: #cccccc; stroke-width: 0.5; stroke-linejoin: miter"/>
    </g>
    <g id="line2d_45">
     <path d="M 640.908 40.698437 
L 650.908 40.698437 
L 660.908 40.698437 
" style="fill: none; stroke: #348abd; stroke-width: 2; stroke-linecap: square"/>
    </g>
    <g id="text_25">
     <!-- v4\fedavg-out - accuracy (Spline) -->
     <g transform="translate(668.908 44.198437) scale(0.1 -0.1)">
      <defs>
       <path id="DejaVuSans-5c" d="M 531 4666 
L 2156 -594 
L 1625 -594 
L 0 4666 
L 531 4666 
z
" transform="scale(0.015625)"/>
       <path id="DejaVuSans-66" d="M 2375 4863 
L 2375 4384 
L 1825 4384 
Q 1516 4384 1395 4259 
Q 1275 4134 1275 3809 
L 1275 3500 
L 2222 3500 
L 2222 3053 
L 1275 3053 
L 1275 0 
L 697 0 
L 697 3053 
L 147 3053 
L 147 3500 
L 697 3500 
L 697 3744 
Q 697 4328 969 4595 
Q 1241 4863 1831 4863 
L 2375 4863 
z
" transform="scale(0.015625)"/>
       <path id="DejaVuSans-67" d="M 2906 1791 
Q 2906 2416 2648 2759 
Q 2391 3103 1925 3103 
Q 1463 3103 1205 2759 
Q 947 2416 947 1791 
Q 947 1169 1205 825 
Q 1463 481 1925 481 
Q 2391 481 2648 825 
Q 2906 1169 2906 1791 
z
M 3481 434 
Q 3481 -459 3084 -895 
Q 2688 -1331 1869 -1331 
Q 1566 -1331 1297 -1286 
Q 1028 -1241 775 -1147 
L 775 -588 
Q 1028 -725 1275 -790 
Q 1522 -856 1778 -856 
Q 2344 -856 2625 -561 
Q 2906 -266 2906 331 
L 2906 616 
Q 2728 306 2450 153 
Q 2172 0 1784 0 
Q 1141 0 747 490 
Q 353 981 353 1791 
Q 353 2603 747 3093 
Q 1141 3584 1784 3584 
Q 2172 3584 2450 3431 
Q 2728 3278 2906 2969 
L 2906 3500 
L 3481 3500 
L 3481 434 
z
" transform="scale(0.015625)"/>
       <path id="DejaVuSans-28" d="M 1984 4856 
Q 1566 4138 1362 3434 
Q 1159 2731 1159 2009 
Q 1159 1288 1364 580 
Q 1569 -128 1984 -844 
L 1484 -844 
Q 1016 -109 783 600 
Q 550 1309 550 2009 
Q 550 2706 781 3412 
Q 1013 4119 1484 4856 
L 1984 4856 
z
" transform="scale(0.015625)"/>
       <path id="DejaVuSans-29" d="M 513 4856 
L 1013 4856 
Q 1481 4119 1714 3412 
Q 1947 2706 1947 2009 
Q 1947 1309 1714 600 
Q 1481 -109 1013 -844 
L 513 -844 
Q 928 -128 1133 580 
Q 1338 1288 1338 2009 
Q 1338 2731 1133 3434 
Q 928 4138 513 4856 
z
" transform="scale(0.015625)"/>
      </defs>
      <use xlink:href="#DejaVuSans-76"/>
      <use xlink:href="#DejaVuSans-34" x="59.179688"/>
      <use xlink:href="#DejaVuSans-5c" x="122.802734"/>
      <use xlink:href="#DejaVuSans-66" x="156.494141"/>
      <use xlink:href="#DejaVuSans-65" x="191.699219"/>
      <use xlink:href="#DejaVuSans-64" x="253.222656"/>
      <use xlink:href="#DejaVuSans-61" x="316.699219"/>
      <use xlink:href="#DejaVuSans-76" x="377.978516"/>
      <use xlink:href="#DejaVuSans-67" x="437.158203"/>
      <use xlink:href="#DejaVuSans-2d" x="500.634766"/>
      <use xlink:href="#DejaVuSans-6f" x="538.59375"/>
      <use xlink:href="#DejaVuSans-75" x="599.775391"/>
      <use xlink:href="#DejaVuSans-74" x="663.154297"/>
      <use xlink:href="#DejaVuSans-20" x="702.363281"/>
      <use xlink:href="#DejaVuSans-2d" x="734.150391"/>
      <use xlink:href="#DejaVuSans-20" x="770.234375"/>
      <use xlink:href="#DejaVuSans-61" x="802.021484"/>
      <use xlink:href="#DejaVuSans-63" x="863.300781"/>
      <use xlink:href="#DejaVuSans-63" x="918.28125"/>
      <use xlink:href="#DejaVuSans-75" x="973.261719"/>
      <use xlink:href="#DejaVuSans-72" x="1036.640625"/>
      <use xlink:href="#DejaVuSans-61" x="1077.753906"/>
      <use xlink:href="#DejaVuSans-63" x="1139.033203"/>
      <use xlink:href="#DejaVuSans-79" x="1194.013672"/>
      <use xlink:href="#DejaVuSans-20" x="1253.193359"/>
      <use xlink:href="#DejaVuSans-28" x="1284.980469"/>
      <use xlink:href="#DejaVuSans-53" x="1323.994141"/>
      <use xlink:href="#DejaVuSans-70" x="1387.470703"/>
      <use xlink:href="#DejaVuSans-6c" x="1450.947266"/>
      <use xlink:href="#DejaVuSans-69" x="1478.730469"/>
      <use xlink:href="#DejaVuSans-6e" x="1506.513672"/>
      <use xlink:href="#DejaVuSans-65" x="1569.892578"/>
      <use xlink:href="#DejaVuSans-29" x="1631.416016"/>
     </g>
    </g>
    <g id="line2d_46">
     <path d="M 640.908 55.376562 
L 650.908 55.376562 
L 660.908 55.376562 
" style="fill: none; stroke: #a60628; stroke-width: 2; stroke-linecap: square"/>
    </g>
    <g id="text_26">
     <!-- v4\fed_acc-out - accuracy (Spline) -->
     <g transform="translate(668.908 58.876562) scale(0.1 -0.1)">
      <defs>
       <path id="DejaVuSans-5f" d="M 3263 -1063 
L 3263 -1509 
L -63 -1509 
L -63 -1063 
L 3263 -1063 
z
" transform="scale(0.015625)"/>
      </defs>
      <use xlink:href="#DejaVuSans-76"/>
      <use xlink:href="#DejaVuSans-34" x="59.179688"/>
      <use xlink:href="#DejaVuSans-5c" x="122.802734"/>
      <use xlink:href="#DejaVuSans-66" x="156.494141"/>
      <use xlink:href="#DejaVuSans-65" x="191.699219"/>
      <use xlink:href="#DejaVuSans-64" x="253.222656"/>
      <use xlink:href="#DejaVuSans-5f" x="316.699219"/>
      <use xlink:href="#DejaVuSans-61" x="366.699219"/>
      <use xlink:href="#DejaVuSans-63" x="427.978516"/>
      <use xlink:href="#DejaVuSans-63" x="482.958984"/>
      <use xlink:href="#DejaVuSans-2d" x="537.939453"/>
      <use xlink:href="#DejaVuSans-6f" x="575.898438"/>
      <use xlink:href="#DejaVuSans-75" x="637.080078"/>
      <use xlink:href="#DejaVuSans-74" x="700.458984"/>
      <use xlink:href="#DejaVuSans-20" x="739.667969"/>
      <use xlink:href="#DejaVuSans-2d" x="771.455078"/>
      <use xlink:href="#DejaVuSans-20" x="807.539062"/>
      <use xlink:href="#DejaVuSans-61" x="839.326172"/>
      <use xlink:href="#DejaVuSans-63" x="900.605469"/>
      <use xlink:href="#DejaVuSans-63" x="955.585938"/>
      <use xlink:href="#DejaVuSans-75" x="1010.566406"/>
      <use xlink:href="#DejaVuSans-72" x="1073.945312"/>
      <use xlink:href="#DejaVuSans-61" x="1115.058594"/>
      <use xlink:href="#DejaVuSans-63" x="1176.337891"/>
      <use xlink:href="#DejaVuSans-79" x="1231.318359"/>
      <use xlink:href="#DejaVuSans-20" x="1290.498047"/>
      <use xlink:href="#DejaVuSans-28" x="1322.285156"/>
      <use xlink:href="#DejaVuSans-53" x="1361.298828"/>
      <use xlink:href="#DejaVuSans-70" x="1424.775391"/>
      <use xlink:href="#DejaVuSans-6c" x="1488.251953"/>
      <use xlink:href="#DejaVuSans-69" x="1516.035156"/>
      <use xlink:href="#DejaVuSans-6e" x="1543.818359"/>
      <use xlink:href="#DejaVuSans-65" x="1607.197266"/>
      <use xlink:href="#DejaVuSans-29" x="1668.720703"/>
     </g>
    </g>
    <g id="line2d_47">
     <path d="M 640.908 70.332812 
L 650.908 70.332812 
L 660.908 70.332812 
" style="fill: none; stroke: #7a68a6; stroke-width: 2; stroke-linecap: square"/>
    </g>
    <g id="text_27">
     <!-- v4\fed_fuzz-out - accuracy (Spline) -->
     <g transform="translate(668.908 73.832812) scale(0.1 -0.1)">
      <defs>
       <path id="DejaVuSans-7a" d="M 353 3500 
L 3084 3500 
L 3084 2975 
L 922 459 
L 3084 459 
L 3084 0 
L 275 0 
L 275 525 
L 2438 3041 
L 353 3041 
L 353 3500 
z
" transform="scale(0.015625)"/>
      </defs>
      <use xlink:href="#DejaVuSans-76"/>
      <use xlink:href="#DejaVuSans-34" x="59.179688"/>
      <use xlink:href="#DejaVuSans-5c" x="122.802734"/>
      <use xlink:href="#DejaVuSans-66" x="156.494141"/>
      <use xlink:href="#DejaVuSans-65" x="191.699219"/>
      <use xlink:href="#DejaVuSans-64" x="253.222656"/>
      <use xlink:href="#DejaVuSans-5f" x="316.699219"/>
      <use xlink:href="#DejaVuSans-66" x="366.699219"/>
      <use xlink:href="#DejaVuSans-75" x="401.904297"/>
      <use xlink:href="#DejaVuSans-7a" x="465.283203"/>
      <use xlink:href="#DejaVuSans-7a" x="517.773438"/>
      <use xlink:href="#DejaVuSans-2d" x="570.263672"/>
      <use xlink:href="#DejaVuSans-6f" x="608.222656"/>
      <use xlink:href="#DejaVuSans-75" x="669.404297"/>
      <use xlink:href="#DejaVuSans-74" x="732.783203"/>
      <use xlink:href="#DejaVuSans-20" x="771.992188"/>
      <use xlink:href="#DejaVuSans-2d" x="803.779297"/>
      <use xlink:href="#DejaVuSans-20" x="839.863281"/>
      <use xlink:href="#DejaVuSans-61" x="871.650391"/>
      <use xlink:href="#DejaVuSans-63" x="932.929688"/>
      <use xlink:href="#DejaVuSans-63" x="987.910156"/>
      <use xlink:href="#DejaVuSans-75" x="1042.890625"/>
      <use xlink:href="#DejaVuSans-72" x="1106.269531"/>
      <use xlink:href="#DejaVuSans-61" x="1147.382812"/>
      <use xlink:href="#DejaVuSans-63" x="1208.662109"/>
      <use xlink:href="#DejaVuSans-79" x="1263.642578"/>
      <use xlink:href="#DejaVuSans-20" x="1322.822266"/>
      <use xlink:href="#DejaVuSans-28" x="1354.609375"/>
      <use xlink:href="#DejaVuSans-53" x="1393.623047"/>
      <use xlink:href="#DejaVuSans-70" x="1457.099609"/>
      <use xlink:href="#DejaVuSans-6c" x="1520.576172"/>
      <use xlink:href="#DejaVuSans-69" x="1548.359375"/>
      <use xlink:href="#DejaVuSans-6e" x="1576.142578"/>
      <use xlink:href="#DejaVuSans-65" x="1639.521484"/>
      <use xlink:href="#DejaVuSans-29" x="1701.044922"/>
     </g>
    </g>
    <g id="line2d_48">
     <path d="M 640.908 85.289062 
L 650.908 85.289062 
L 660.908 85.289062 
" style="fill: none; stroke: #467821; stroke-width: 2; stroke-linecap: square"/>
    </g>
    <g id="text_28">
     <!-- v4\fed_loss-out - accuracy (Spline) -->
     <g transform="translate(668.908 88.789062) scale(0.1 -0.1)">
      <use xlink:href="#DejaVuSans-76"/>
      <use xlink:href="#DejaVuSans-34" x="59.179688"/>
      <use xlink:href="#DejaVuSans-5c" x="122.802734"/>
      <use xlink:href="#DejaVuSans-66" x="156.494141"/>
      <use xlink:href="#DejaVuSans-65" x="191.699219"/>
      <use xlink:href="#DejaVuSans-64" x="253.222656"/>
      <use xlink:href="#DejaVuSans-5f" x="316.699219"/>
      <use xlink:href="#DejaVuSans-6c" x="366.699219"/>
      <use xlink:href="#DejaVuSans-6f" x="394.482422"/>
      <use xlink:href="#DejaVuSans-73" x="455.664062"/>
      <use xlink:href="#DejaVuSans-73" x="507.763672"/>
      <use xlink:href="#DejaVuSans-2d" x="559.863281"/>
      <use xlink:href="#DejaVuSans-6f" x="597.822266"/>
      <use xlink:href="#DejaVuSans-75" x="659.003906"/>
      <use xlink:href="#DejaVuSans-74" x="722.382812"/>
      <use xlink:href="#DejaVuSans-20" x="761.591797"/>
      <use xlink:href="#DejaVuSans-2d" x="793.378906"/>
      <use xlink:href="#DejaVuSans-20" x="829.462891"/>
      <use xlink:href="#DejaVuSans-61" x="861.25"/>
      <use xlink:href="#DejaVuSans-63" x="922.529297"/>
      <use xlink:href="#DejaVuSans-63" x="977.509766"/>
      <use xlink:href="#DejaVuSans-75" x="1032.490234"/>
      <use xlink:href="#DejaVuSans-72" x="1095.869141"/>
      <use xlink:href="#DejaVuSans-61" x="1136.982422"/>
      <use xlink:href="#DejaVuSans-63" x="1198.261719"/>
      <use xlink:href="#DejaVuSans-79" x="1253.242188"/>
      <use xlink:href="#DejaVuSans-20" x="1312.421875"/>
      <use xlink:href="#DejaVuSans-28" x="1344.208984"/>
      <use xlink:href="#DejaVuSans-53" x="1383.222656"/>
      <use xlink:href="#DejaVuSans-70" x="1446.699219"/>
      <use xlink:href="#DejaVuSans-6c" x="1510.175781"/>
      <use xlink:href="#DejaVuSans-69" x="1537.958984"/>
      <use xlink:href="#DejaVuSans-6e" x="1565.742188"/>
      <use xlink:href="#DejaVuSans-65" x="1629.121094"/>
      <use xlink:href="#DejaVuSans-29" x="1690.644531"/>
     </g>
    </g>
   </g>
  </g>
 </g>
 <defs>
  <clipPath id="p64bc9a1dd2">
   <rect x="59.7" y="27.6" width="544.96" height="507.06"/>
  </clipPath>
 </defs>
</svg>
